<?xml version="1.0" encoding="UTF-8" standalone="no"?>
<svg
   xmlns:dc="http://purl.org/dc/elements/1.1/"
   xmlns:cc="http://creativecommons.org/ns#"
   xmlns:rdf="http://www.w3.org/1999/02/22-rdf-syntax-ns#"
   xmlns:svg="http://www.w3.org/2000/svg"
   xmlns="http://www.w3.org/2000/svg"
   xmlns:sodipodi="http://sodipodi.sourceforge.net/DTD/sodipodi-0.dtd"
   xmlns:inkscape="http://www.inkscape.org/namespaces/inkscape"
   width="256"
   height="295.603"
   viewBox="0 0 67.733327 78.21166"
   version="1.1"
   id="svgNazStar"
   sodipodi:docname="dove-and-star.svg"
   inkscape:version="0.92.3 (2405546, 2018-03-11)">
  <metadata
     id="metadata915">
    <rdf:RDF>
      <cc:Work
         rdf:about="">
        <dc:format>image/svg+xml</dc:format>
        <dc:type
           rdf:resource="http://purl.org/dc/dcmitype/StillImage" />
      </cc:Work>
    </rdf:RDF>
  </metadata>
  <defs
     id="defs913" />
  <sodipodi:namedview
     pagecolor="#ffffff"
     bordercolor="#666666"
     borderopacity="1"
     objecttolerance="10"
     gridtolerance="10"
     guidetolerance="10"
     inkscape:pageopacity="0"
     inkscape:pageshadow="2"
     inkscape:window-width="1315"
     inkscape:window-height="713"
     id="namedview911"
     showgrid="false"
     inkscape:zoom="4"
     inkscape:cx="41.122576"
     inkscape:cy="173.02014"
     inkscape:window-x="51"
     inkscape:window-y="27"
     inkscape:window-maximized="1"
     inkscape:current-layer="svgNazStar" />
  <g
     id="logoNazStar">
    <path
       d="m 0,19.55 26.05,6 7.82,-25.55 7.82,25.56 26.03,-6 -18.22,19.54 18.24,19.56 -26.05,-6 -7.83,25.55 -7.82,-25.55 -26.05,6 18.23,-19.54 z"
       id="pathStar"
       inkscape:connector-curvature="0" />
    <path
       d="m 16.338024,50.076268 c 0,0.246755 0.197411,0.45403 0.454034,0.45403 0.256622,0 0.463907,-0.197406 0.463907,-0.45403 0,-0.256625 -0.197409,-0.463899 -0.454042,-0.463899 -0.246748,0 -0.454035,0.197397 -0.454035,0.454035 m 0.07893,0 c 0,-0.217155 0.167792,-0.394821 0.375076,-0.394821 0.217143,0 0.394807,0.177666 0.394807,0.394821 0,0.197394 -0.177664,0.375061 -0.394807,0.375061 -0.197405,0 -0.375076,-0.167789 -0.375076,-0.375061 m 0.217151,0.197394 c 0,0.01973 0,0.02965 0.02959,0.02965 h 0.03955 c 0.01971,0 0.02957,-0.01973 0.02957,-0.02965 v -0.157925 h 0.09864 l 0.05924,0.167803 c 0,0 0.01971,0.01973 0.02957,0.01973 h 0.03956 c 0.01972,0 0.02957,-0.02967 0.01972,-0.03955 -0.01972,-0.04941 -0.0494,-0.09865 -0.06907,-0.157923 0.02957,0 0.09864,-0.03957 0.09864,-0.138184 0,-0.09868 -0.07893,-0.138182 -0.157926,-0.138182 H 16.66362 c 0,0 -0.01972,0 -0.01972,0.01972 z m 0.07893,-0.217141 v -0.14806 h 0.128312 c 0.03951,0 0.06907,0.01973 0.06907,0.05924 0,0.03955 -0.02958,0.07893 -0.07893,0.07893 h -0.138189 m 5.596458,0.64158 -0.04941,0.148049 c -0.01972,0.03955 -0.03956,0.07893 -0.05925,0.07893 h -0.47377 l -0.315851,1.016645 c 0,0.02956 -0.05923,0.04941 -0.09874,0.04941 H 21.12496 c -0.03951,0 -0.06907,0 -0.05924,-0.03955 l 0.296108,-1.026509 h -0.463899 c 0,0 0,-0.03954 0,-0.07893 l 0.04942,-0.157927 c 0.01972,-0.04941 0.03951,-0.07893 0.05924,-0.07893 h 0.493516 l 0.138187,-0.473774 c 0,-0.02959 0.05923,-0.04941 0.09866,-0.04941 h 0.177659 c 0.03956,0 0.06907,0.02955 0.05924,0.04941 l -0.138183,0.473774 h 0.473776 c 0.01971,0 0.01971,0.03952 0,0.09865 z m -1.727283,-1.065993 c -0.09867,1.135083 -0.542866,1.81613 -1.065993,2.349121 -0.167787,0.157925 -0.55273,0.424423 -0.572475,0.424423 0.138184,0.128322 1.677949,0.09865 1.825998,0.09865 0.05926,0.227027 -0.02955,0.61197 -0.296107,1.460812 0.967293,-0.07893 2.072767,-0.987033 2.319527,-2.072768 0.07893,-0.296106 0.197396,-0.690915 0.246759,-1.036372 0.09864,-0.611956 0.217135,-1.184444 0.217135,-1.214051 -0.908063,0 -1.796387,0 -2.684713,0 m 31.782355,-1.105472 c -0.03954,-0.05924 -0.148052,-0.197406 -0.266494,-0.217139 -0.434297,-0.07893 -1.727305,-0.256635 -2.763685,-0.493517 -2.793293,-0.651444 -6.297253,-1.8951 -7.896236,-1.38184 -1.381841,0.434289 -2.368878,1.845738 -2.684725,2.289906 -0.07893,0.118441 0.05922,0.128318 0.05922,0.128318 h 13.403865 c 0,0 0.06907,0 0.09866,0 0,-0.02962 0.05926,-0.04942 0.05926,-0.09865 0,-0.04942 0.01971,-0.177669 0,-0.227018 m -34.151182,-0.37506 c 0.611956,-0.118454 2.467573,-0.315852 3.918511,-0.621834 3.948122,-0.838978 9.159636,-2.309654 11.449545,-1.756913 2.201075,0.523131 3.237459,2.349127 3.50396,2.901869 0.07893,0.167791 -0.07893,0.157929 -0.07893,0.157929 h -18.92137 c 0,0 -0.2665,0 -0.276366,-0.148061 0,-0.09864 -0.09868,-0.444161 0.414549,-0.542867 M 33.768982,32.24064 c 1.480547,0.592221 2.240559,-1.450933 1.312752,-2.615629 -0.157926,-0.227015 0.138182,-0.138181 0.266498,-0.07893 0.493513,0.227021 1.411451,0.760016 1.954317,2.023411 0.375074,0.868588 -0.118441,2.17147 -0.888321,2.437963 -0.69093,-0.34546 -2.191213,-1.016641 -2.645246,-1.776649 m 4.263971,11.765396 c 0.236887,0.355329 -0.01973,0.888333 -0.562609,0.236888 -0.197406,-0.227015 -0.365202,-0.493517 -0.197406,-0.552735 0.148055,-0.05926 0.572477,0.06907 0.750145,0.315847 M 34.351319,32.546631 c -2.240554,-1.431195 -3.010439,-1.381845 -2.694591,-4.342933 0.266498,-1.727303 1.016641,-2.734073 1.332489,-3.109146 0.167794,-0.217147 0.197405,-0.06907 0.157922,-0.01972 -2.546535,5.626064 1.30288,7.580387 1.223922,7.452074 M 22.072663,27.690439 c -0.03949,-1.22392 1.144962,-3.375642 1.144962,-2.664979 0,0.74027 -1.549646,5.566845 6.869721,11.034992 0.09873,0.06907 0.128313,0.177664 0.05922,0.177664 -3.405251,0 -5.191771,-1.283141 -6.415691,-2.220812 -1.332488,-1.11535 -1.806264,-2.270176 -1.954324,-2.743948 -0.09865,-0.256631 0.04942,-0.177666 0.07893,-0.138188 0.651435,0.95742 2.497183,3.020319 3.928371,3.355904 0.03956,0.01973 -3.800064,-2.891996 -3.711231,-6.771021 m 10.70928,-4.263967 c -2.566279,3.82967 -1.065994,6.583482 -0.848841,6.938816 1.026506,1.658211 3.51382,2.566279 6.830246,5.132554 0.325717,0.266495 3.207841,3.040056 3.079532,5.961664 0,0.266496 -0.03952,0.463897 0,0.454033 0.74027,-0.217153 3.04005,-3.770461 1.085731,-7.007918 -1.263397,-2.112238 -5.744512,-5.073331 -5.774124,-5.083199 -0.394813,-0.217149 1.214045,0.09866 2.487315,0.720533 2.210944,1.085731 10.511866,6.119585 2.072764,13.621006 -1.342364,1.214053 -3.533563,3.780325 -3.948118,4.175145 -0.06907,0.06907 -0.09865,0 -0.09865,0 -0.444161,-0.750148 -0.197407,-3.800066 -5.211517,-3.800066 -2.566278,0 -6.218293,0.148043 -9.426131,-1.085735 -5.823483,-2.27017 -5.497757,-6.909212 -5.053602,-8.804307 0.473777,-2.566278 2.684727,-3.395382 2.664987,-3.22759 -0.22702,1.056124 -1.352234,4.520599 0.05924,7.106611 2.86238,5.843213 10.018345,3.652014 14.163872,5.063468 3.020313,1.036388 2.842648,2.714334 3.119013,3.227587 0.12832,0.217144 1.085733,-1.184438 1.67795,-2.349124 0.789628,-1.510161 0.671187,-3.997477 -0.355328,-5.843224 -0.473794,-0.868589 -1.904988,-2.368869 -5.724793,-4.668651 -7.866619,-4.737743 -1.322613,-10.807978 -0.789608,-10.51187 m 5.606326,26.156288 c 3.553305,0 12.002281,0 12.791905,0 0.197408,0 0.888329,-0.01973 1.016641,0 0.148056,0.03956 0.128313,0.789625 -0.02957,0.848853 -0.148056,0.01971 -10.324331,0 -13.778934,0 -0.05923,0 -0.09869,-0.04942 -0.09869,-0.07893 -0.04939,-0.04942 -0.03954,-0.651431 0,-0.690918 0.01972,-0.07893 0.06907,-0.07893 0.118444,-0.09866 m -20.628921,0 c 0.513258,0 1.776657,0 1.875356,0 0.03954,0 0.276366,0.01971 0.335593,0.01971 0.315853,0 0.06907,0.740275 0.04942,0.789625 -0.04942,0.07893 -0.335593,0.05927 -0.365198,0.05927 -0.118446,0 -1.381844,0 -1.87536,0 -0.06907,0 -0.14806,-0.04942 -0.14806,-0.07893 0,-0.04942 0,-0.631693 0,-0.690916 0,-0.05926 0.07893,-0.07893 0.138187,-0.09865 m 6.050499,0 c 1.559508,0 4.441629,0.01973 7.106614,0 3.207843,-0.01971 6.020879,0.01973 6.188671,0.01973 0.01973,0 0.09864,0.04942 0.09864,0.09871 0.04942,0.148048 0.04942,0.493516 0,0.671172 -0.02956,0.0494 -0.04942,0.07893 -0.09864,0.09866 -0.148052,0 -13.423606,0 -13.551924,0 -0.06907,0 0.09868,-0.750139 0.118455,-0.789626 0.01972,-0.0494 0.06907,-0.06907 0.128303,-0.09864"
       id="pathNaz"
       inkscape:connector-curvature="0"
       style="fill:#ffffff" />
    <path
       id="pathTM"
       d="m 67,56 h 0.17 l 0.2,0.53 0.2,-0.54 h 0.16 v 0.78 h -0.1 v -0.7 l -0.2,0.55 h -0.1 l -0.22,-0.55 v 0.7 H 67 Z m -0.77,0 h 0.67 v 0.08 h -0.28 v 0.7 h -0.1 v -0.7 h -0.3 z"
       inkscape:connector-curvature="0" />
  </g>
</svg>
