<?xml version="1.0" encoding="UTF-8" standalone="no"?>
<!-- Created with Inkscape (http://www.inkscape.org/) -->

<svg
   xmlns:dc="http://purl.org/dc/elements/1.1/"
   xmlns:cc="http://creativecommons.org/ns#"
   xmlns:rdf="http://www.w3.org/1999/02/22-rdf-syntax-ns#"
   xmlns:svg="http://www.w3.org/2000/svg"
   xmlns="http://www.w3.org/2000/svg"
   xmlns:sodipodi="http://sodipodi.sourceforge.net/DTD/sodipodi-0.dtd"
   xmlns:inkscape="http://www.inkscape.org/namespaces/inkscape"
   version="1.1"
   id="svg2"
   xml:space="preserve"
   width="320"
   height="132.05817"
   viewBox="0 0 320 132.05817"
   sodipodi:docname="nazarene_wide-spread.svg"
   inkscape:version="0.92.3 (2405546, 2018-03-11)"><metadata
     id="metadata8"><rdf:RDF><cc:Work
         rdf:about=""><dc:format>image/svg+xml</dc:format><dc:type
           rdf:resource="http://purl.org/dc/dcmitype/StillImage" /><dc:title></dc:title></cc:Work></rdf:RDF></metadata><defs
     id="defs6" /><sodipodi:namedview
     pagecolor="#ffffff"
     bordercolor="#666666"
     borderopacity="1"
     objecttolerance="10"
     gridtolerance="10"
     guidetolerance="10"
     inkscape:pageopacity="0"
     inkscape:pageshadow="2"
     inkscape:window-width="1315"
     inkscape:window-height="713"
     id="namedview4"
     showgrid="false"
     inkscape:zoom="1.8919302"
     inkscape:cx="175.47201"
     inkscape:cy="120.03941"
     inkscape:window-x="51"
     inkscape:window-y="27"
     inkscape:window-maximized="1"
     inkscape:current-layer="svg2"
     fit-margin-top="0"
     fit-margin-left="0"
     fit-margin-right="0"
     fit-margin-bottom="0" /><g
     id="logo"
     transform="matrix(0.59292494,0,0,0.59292494,0,0.00192251)"><g
       id="name"><g
         id="church"><path
           inkscape:connector-curvature="0"
           id="c1"
           d="m 16.281733,189.76533 c 4.554666,0 7.847466,1.57867 10.9156,4.1948 0.360533,0.36147 0.4068,0.90254 0.0428,1.26254 l -1.216667,1.21866 c -0.3604,0.44947 -0.7208,0.40414 -1.1724,-0.0468 -2.345867,-2.0292 -5.5484,-3.38386 -8.614133,-3.38386 -7.1270399,0 -12.5838131,6.00146 -12.5838131,12.99213 0,6.94532 5.4567732,12.94272 12.5838131,12.94272 3.924,0 6.2256,-1.57864 8.614133,-3.38177 0.4516,-0.3599 0.812,-0.31563 1.0828,-0.13594 l 1.352533,1.21875 c 0.360934,0.27084 0.271467,0.90156 -0.04627,1.21719 -3.065067,2.97761 -6.945334,4.37344 -10.9584,4.37344 C 7.2619732,222.23719 0,215.06531 0,206.04547 0,197.0268 7.2619732,189.76533 16.281733,189.76533" /><path
           inkscape:connector-curvature="0"
           id="h1"
           d="m 39.828666,191.07307 c 0,-0.4504 0.407333,-0.8572 0.858266,-0.8572 h 1.758934 c 0.4968,0 0.8572,0.4068 0.8572,0.8572 V 204.244 h 18.311466 v -13.17093 c 0,-0.4504 0.362,-0.8572 0.8568,-0.8572 h 1.7584 c 0.453066,0 0.8588,0.4068 0.8588,0.8572 v 29.85734 c 0,0.45208 -0.405734,0.85782 -0.8588,0.85782 h -1.7584 c -0.4948,0 -0.8568,-0.40574 -0.8568,-0.85782 V 207.26693 H 43.303066 v 13.66348 c 0,0.45208 -0.3604,0.85782 -0.8572,0.85782 h -1.758934 c -0.450933,0 -0.858266,-0.40574 -0.858266,-0.85782 v -29.85734" /><path
           inkscape:connector-curvature="0"
           id="u1"
           d="m 79.527065,191.07307 c 0,-0.4504 0.4052,-0.8572 0.857333,-0.8572 h 1.712533 c 0.497334,0 0.856134,0.4068 0.856134,0.8572 v 18.80838 c 0,5.14011 3.203733,9.15574 8.479733,9.15574 5.3224,0 8.570802,-3.925 8.570802,-9.06511 v -18.89901 c 0,-0.4504 0.36093,-0.8572 0.85626,-0.8572 h 1.7152 c 0.45,0 0.8556,0.4068 0.8556,0.8572 v 19.08026 c 0,6.85312 -4.872262,12.08386 -11.997862,12.08386 -7.080667,0 -11.905733,-5.23074 -11.905733,-12.08386 v -19.08026" /><path
           inkscape:connector-curvature="0"
           id="r1"
           d="m 130.18386,206.45173 c 3.47214,0 6.49214,-2.8864 6.49214,-6.58226 0,-3.42814 -3.02,-6.36147 -6.49214,-6.36147 h -8.75106 v 12.94373 z M 117.8688,191.07307 c 0,-0.4504 0.36186,-0.8572 0.85773,-0.8572 h 11.68133 c 5.41214,0 9.83347,4.24013 9.83347,9.60826 0,4.148 -2.752,7.61987 -6.67467,9.2 l 6.17867,11.45576 c 0.31467,0.58803 0,1.30834 -0.768,1.30834 H 136.676 c -0.40267,0 -0.62934,-0.22552 -0.71867,-0.40574 l -5.99853,-11.95208 h -8.61507 v 11.5 c 0,0.45208 -0.40773,0.85782 -0.85773,0.85782 h -1.75947 c -0.49587,0 -0.85773,-0.40574 -0.85773,-0.85782 v -29.85734" /><path
           inkscape:connector-curvature="0"
           id="c2"
           d="m 167.30533,189.76533 c 4.55733,0 7.85067,1.57867 10.91733,4.1948 0.36134,0.36147 0.40667,0.90254 0.0453,1.26254 l -1.21734,1.21866 c -0.36133,0.44947 -0.72266,0.40414 -1.17333,-0.0468 -2.34667,-2.0292 -5.548,-3.38386 -8.616,-3.38386 -7.12533,0 -12.58267,6.00146 -12.58267,12.99213 0,6.94532 5.45734,12.94272 12.58267,12.94272 3.92533,0 6.22533,-1.57864 8.616,-3.38177 0.45067,-0.3599 0.812,-0.31563 1.08267,-0.13594 l 1.35333,1.21875 c 0.36133,0.27084 0.27067,0.90156 -0.0453,1.21719 -3.06934,2.97761 -6.94534,4.37344 -10.96267,4.37344 -9.01867,0 -16.27867,-7.17188 -16.27867,-16.19172 0,-9.01867 7.26,-16.28014 16.27867,-16.28014" /><path
           inkscape:connector-curvature="0"
           id="h2"
           d="m 190.856,191.07307 c 0,-0.4504 0.40533,-0.8572 0.85733,-0.8572 h 1.75867 c 0.496,0 0.85733,0.4068 0.85733,0.8572 V 204.244 h 18.31066 v -13.17093 c 0,-0.4504 0.36267,-0.8572 0.85734,-0.8572 h 1.76 c 0.44933,0 0.856,0.4068 0.856,0.8572 v 29.85734 c 0,0.45208 -0.40667,0.85782 -0.856,0.85782 h -1.76 c -0.49467,0 -0.85734,-0.40574 -0.85734,-0.85782 v -13.66348 h -18.31066 v 13.66348 c 0,0.45208 -0.36133,0.85782 -0.85733,0.85782 h -1.75867 c -0.452,0 -0.85733,-0.40574 -0.85733,-0.85782 v -29.85734" /></g><g
         id="nazarene"><path
           inkscape:connector-curvature="0"
           id="n1"
           d="m 275.22666,191.05493 c 0,-0.44946 0.40533,-0.81093 0.85733,-0.81093 h 1.12667 l 20.34133,25.34788 c 0.044,0 0.044,0 0.0867,0 v -24.03855 c 0,-0.45053 0.36,-0.8588 0.85867,-0.8588 h 1.58 c 0.45066,0 0.856,0.40827 0.856,0.8588 v 30.35313 c 0,0.45104 -0.40534,0.81354 -0.856,0.81354 h -0.812 l -20.70134,-25.84533 h -0.0453 v 24.53491 c 0,0.45157 -0.36,0.85729 -0.85867,0.85729 h -1.576 c -0.452,0 -0.85733,-0.40572 -0.85733,-0.85729 v -30.35465" /><path
           inkscape:connector-curvature="0"
           id="a1"
           d="m 332.19599,211.53197 c -2.21066,-4.91717 -4.37466,-9.87597 -6.58533,-14.79317 h -0.36 l -6.584,14.79317 z m -21.42266,9.56251 13.712,-30.35475 c 0.136,-0.27186 0.35866,-0.49573 0.76533,-0.49573 h 0.452 c 0.404,0 0.62933,0.22387 0.76533,0.49573 l 13.62,30.35475 c 0.27333,0.58542 -0.088,1.17239 -0.76933,1.17239 h -1.80134 c -0.40533,0 -0.67733,-0.26979 -0.76666,-0.49479 l -3.33334,-7.44271 h -16.01333 l -3.29466,7.44271 c -0.088,0.225 -0.36,0.49479 -0.76534,0.49479 h -1.80266 c -0.68,0 -1.04,-0.58697 -0.768,-1.17239" /><path
           inkscape:connector-curvature="0"
           id="z1"
           d="m 346.72132,220.60021 16.37334,-26.61194 v -0.13654 h -14.20534 c -0.45333,0 -0.856,-0.40626 -0.856,-0.85573 v -1.44267 c 0,-0.45053 0.40267,-0.8588 0.856,-0.8588 h 18.268 c 0.45067,0 0.85734,0.40827 0.85734,0.8588 v 0.58547 l -16.64667,26.92391 v 0.0464 h 14.888 c 0.49333,0 0.85733,0.40676 0.85733,0.85781 v 1.4427 c 0,0.45157 -0.364,0.85729 -0.85733,0.85729 h -18.67467 c -0.45066,0 -0.86,-0.40572 -0.86,-0.85729 v -0.80937" /><path
           inkscape:connector-curvature="0"
           id="a2"
           d="m 396.11599,211.53197 c -2.20933,-4.91717 -4.376,-9.87597 -6.584,-14.79317 h -0.364 l -6.584,14.79317 z m -21.424,9.56251 13.712,-30.35475 c 0.13467,-0.27186 0.36,-0.49573 0.764,-0.49573 h 0.45333 c 0.404,0 0.63067,0.22387 0.76667,0.49573 l 13.62,30.35475 c 0.27067,0.58542 -0.0907,1.17239 -0.76667,1.17239 h -1.80533 c -0.40533,0 -0.67467,-0.26979 -0.76533,-0.49479 l -3.33867,-7.44271 h -16.012 l -3.292,7.44271 c -0.0893,0.225 -0.36,0.49479 -0.76667,0.49479 h -1.80266 c -0.67734,0 -1.03867,-0.58697 -0.76667,-1.17239" /><path
           inkscape:connector-curvature="0"
           id="r2"
           d="m 426.20532,206.9304 c 3.46934,0 6.49334,-2.88493 6.49334,-6.58387 0,-3.42653 -3.024,-6.35826 -6.49334,-6.35826 h -8.752 v 12.94213 z m -12.31333,-15.37707 c 0,-0.45053 0.36,-0.8588 0.85733,-0.8588 h 11.68 c 5.412,0 9.83467,4.2416 9.83467,9.60667 0,4.14947 -2.75333,7.62293 -6.67867,9.20005 l 6.18,11.4573 c 0.31734,0.58697 0,1.30832 -0.76666,1.30832 h -2.3 c -0.404,0 -0.63067,-0.22708 -0.72134,-0.40572 l -6.00133,-11.95156 h -8.61333 v 11.49999 c 0,0.45157 -0.40534,0.85729 -0.85334,0.85729 h -1.76 c -0.49733,0 -0.85733,-0.40572 -0.85733,-0.85729 v -29.85625" /><path
           inkscape:connector-curvature="0"
           id="e1"
           d="m 448.67332,191.55333 c 0,-0.45053 0.36,-0.8588 0.85467,-0.8588 h 17.76933 c 0.49733,0 0.856,0.40827 0.856,0.8588 v 1.3052 c 0,0.45214 -0.35867,0.8588 -0.856,0.8588 h -15.15466 v 11.00427 h 12.94266 c 0.452,0 0.85734,0.40627 0.85734,0.85573 v 1.30934 c 0,0.49586 -0.40534,0.8588 -0.85734,0.8588 h -12.94266 v 11.50005 h 15.15466 c 0.49733,0 0.856,0.40364 0.856,0.85729 v 1.30677 c 0,0.45157 -0.35867,0.85729 -0.856,0.85729 h -17.76933 c -0.49467,0 -0.85467,-0.40572 -0.85467,-0.85729 v -29.85625" /><path
           inkscape:connector-curvature="0"
           id="n2"
           d="m 480.33999,191.05493 c 0,-0.44946 0.404,-0.81093 0.85466,-0.81093 h 1.128 l 20.34134,25.34788 c 0.044,0 0.044,0 0.088,0 v -24.03855 c 0,-0.45053 0.36,-0.8588 0.85866,-0.8588 h 1.57734 c 0.45066,0 0.856,0.40827 0.856,0.8588 v 30.35313 c 0,0.45104 -0.40534,0.81354 -0.856,0.81354 h -0.80934 l -20.70133,-25.84533 h -0.0453 v 24.53491 c 0,0.45157 -0.36134,0.85729 -0.856,0.85729 h -1.58134 c -0.45066,0 -0.85466,-0.40572 -0.85466,-0.85729 v -30.35465" /><path
           inkscape:connector-curvature="0"
           id="e2"
           d="m 520.21332,191.55333 c 0,-0.45053 0.36133,-0.8588 0.85867,-0.8588 h 17.76933 c 0.496,0 0.856,0.40827 0.856,0.8588 v 1.3052 c 0,0.45214 -0.36,0.8588 -0.856,0.8588 h -15.156 v 11.00427 h 12.948 c 0.44933,0 0.85467,0.40627 0.85467,0.85573 v 1.30934 c 0,0.49586 -0.40534,0.8588 -0.85467,0.8588 h -12.948 v 11.50005 h 15.156 c 0.496,0 0.856,0.40364 0.856,0.85729 v 1.30677 c 0,0.45157 -0.36,0.85729 -0.856,0.85729 h -17.76933 c -0.49734,0 -0.85867,-0.40572 -0.85867,-0.85729 v -29.85625" /></g><g
         id="ofThe"><g
           id="of"><path
             d="m 241.89066,198.3028 c 1.91867,0 3.48933,-1.55987 3.48933,-3.48013 0,-1.9068 -1.57066,-3.50427 -3.48933,-3.50427 -1.908,0 -3.48,1.59747 -3.48,3.50427 0,1.92026 1.572,3.48013 3.48,3.48013 z m 0,-8.32813 c 2.684,0 4.832,2.16146 4.832,4.848 0,2.68533 -2.148,4.82133 -4.832,4.82133 -2.68667,0 -4.82267,-2.136 -4.82267,-4.82133 0,-2.68654 2.136,-4.848 4.82267,-4.848"
             id="o1"
             inkscape:connector-curvature="0" /><path
             d="m 250.64933,190.36533 c 0,-0.136 0.108,-0.25626 0.256,-0.25626 h 5.37066 c 0.148,0 0.25467,0.12026 0.25467,0.25626 v 0.74947 c 0,0.13587 -0.10667,0.25733 -0.25467,0.25733 h -4.24266 v 3.10254 h 3.584 c 0.13466,0 0.25733,0.11986 0.25733,0.25466 v 0.7376 c 0,0.13587 -0.12267,0.25574 -0.25733,0.25574 h -3.584 v 3.53066 c 0,0.13494 -0.12134,0.25467 -0.25467,0.25467 h -0.87333 c -0.148,0 -0.256,-0.11973 -0.256,-0.25467 v -8.888"
             id="f1"
             inkscape:connector-curvature="0" /></g><g
           id="the"><path
             d="m 235.29866,214.20907 h -2.18933 c -0.148,0 -0.25334,-0.1198 -0.25334,-0.25574 v -0.74948 c 0,-0.13593 0.10534,-0.25729 0.25334,-0.25729 h 5.776 c 0.14533,0 0.25333,0.12136 0.25333,0.25729 v 0.74948 c 0,0.13594 -0.108,0.25574 -0.25333,0.25574 h -2.19067 v 7.8828 c 0,0.1349 -0.12,0.25626 -0.25333,0.25626 h -0.888 c -0.13334,0 -0.25467,-0.12136 -0.25467,-0.25626 v -7.8828"
             id="t1"
             inkscape:connector-curvature="0" /><path
             d="m 242.59866,213.20385 c 0,-0.13593 0.12,-0.25729 0.25467,-0.25729 h 0.88666 c 0.14667,0 0.256,0.12136 0.256,0.25729 v 3.74427 h 4.91467 v -3.74427 c 0,-0.13593 0.10667,-0.25729 0.25333,-0.25729 h 0.88667 c 0.132,0 0.25467,0.12136 0.25467,0.25729 v 8.88802 c 0,0.1349 -0.12267,0.25626 -0.25467,0.25626 h -0.88667 c -0.14666,0 -0.25333,-0.12136 -0.25333,-0.25626 v -3.88124 h -4.91467 v 3.88124 c 0,0.1349 -0.10933,0.25626 -0.256,0.25626 h -0.88666 c -0.13467,0 -0.25467,-0.12136 -0.25467,-0.25626 v -8.88802"
             id="h3"
             inkscape:connector-curvature="0" /><path
             d="m 254.91733,213.20385 c 0,-0.13593 0.10666,-0.25729 0.256,-0.25729 h 5.37066 c 0.14934,0 0.256,0.12136 0.256,0.25729 v 0.74948 c 0,0.13594 -0.10666,0.25574 -0.256,0.25574 h -4.24133 v 2.73905 h 3.58267 c 0.13466,0 0.25466,0.1198 0.25466,0.25729 v 0.75052 c 0,0.14948 -0.12,0.2547 -0.25466,0.2547 h -3.58267 v 2.88958 h 4.24133 c 0.14934,0 0.256,0.11979 0.256,0.25312 v 0.73854 c 0,0.1349 -0.10666,0.25626 -0.256,0.25626 h -5.37066 c -0.14934,0 -0.256,-0.12136 -0.256,-0.25626 v -8.88802"
             id="e3"
             inkscape:connector-curvature="0" /></g><path
           inkscape:connector-curvature="0"
           id="separator"
           d="m 260.89866,203.808 c 0.412,0 0.784,0.24267 0.784,0.5104 v 1.0724 c 0,0.26933 -0.372,0.50947 -0.784,0.50947 h -27.38 c -0.41333,0 -0.78667,-0.24014 -0.78667,-0.50947 v -1.0724 c 0,-0.26773 0.37334,-0.5104 0.78667,-0.5104 h 27.38" /></g></g><g
       id="icon"><path
         id="dove"
         d="m 252.33066,51.548004 c 8.58667,3.633334 13.15067,-8.464 7.708,-15.265333 -0.952,-1.341333 0.808,-0.802666 1.53467,-0.453333 2.85466,1.376 8.29066,4.513333 11.51066,11.94 2.184,5.050666 -0.73733,12.718666 -5.184,14.283999 -4.14133,-2.024 -12.93066,-5.973333 -15.56933,-10.505333 m 24.992,69.197466 c 1.44267,2.09907 -0.0827,5.14067 -3.29867,1.3828 -1.12,-1.32027 -2.04266,-2.9452 -1.13866,-3.27853 0.90933,-0.33854 3.42133,0.4088 4.43733,1.89573 m -21.552,-67.309466 c -13.15733,-8.344 -17.68667,-8.124 -15.79733,-25.509332 1.49066,-10.106667 5.89066,-16.034667 7.77733,-18.2346667 0.97333,-1.2199999 1.10533,-0.3133333 0.896,-0.010667 -14.98,32.9853327 7.59067,44.4853327 7.124,43.7546657 M 183.528,25.092005 c -0.20934,-7.272 6.74133,-19.8933329 6.74133,-15.717333 0,4.352 -9.08533,32.677333 40.384,64.802665 0.544,0.325333 0.752,0.994667 0.308,0.994667 -19.98134,0.07867 -30.46134,-7.629333 -37.64533,-13.052 -7.84667,-6.542666 -10.61467,-13.386666 -11.508,-16.142666 -0.52934,-1.468 0.29733,-1.002667 0.46133,-0.766667 3.828,5.554667 14.65867,17.652 23.08133,19.681333 0.25467,0.056 -22.316,-17.049333 -21.82266,-39.799999 M 246.42799,0.0613389 c -15.10666,22.4666661 -6.24533,38.6239991 -4.94133,40.7373321 6.02933,9.752 20.596,15.038667 40.10933,30.183999 1.93067,1.497334 18.86534,17.792 18.12534,34.96333 -0.036,1.63547 -0.20267,2.80214 0.0733,2.7188 4.268,-1.28386 17.77067,-22.156797 6.32267,-41.208796 -7.42267,-12.353333 -33.768,-29.714666 -33.89867,-29.793333 -2.33333,-1.354666 7.10667,0.566667 14.58667,4.181334 13.04933,6.306666 61.77333,35.843999 12.30133,79.971865 -7.984,7.1172 -20.852,22.2416 -23.268,24.51347 -0.37733,0.40266 -0.52667,0.088 -0.59333,-0.0239 -2.60667,-4.34947 -1.19867,-22.24747 -30.58,-22.28653 -15.084,-0.0235 -36.608,0.836 -55.35733,-6.48174 -34.13734,-13.3256 -32.29467,-40.583863 -29.72134,-51.641196 2.812,-15.102666 15.79734,-19.942666 15.59867,-18.978666 -1.28133,6.172 -7.87467,26.523999 0.424,41.663999 16.77467,34.338663 58.776,21.432403 83.14133,29.786533 17.71067,6.07293 16.71067,15.9068 18.33067,18.95373 0.66933,1.25987 6.30133,-6.94853 9.81733,-13.80786 4.54133,-8.8464 3.88267,-23.4948 -2.11467,-34.344403 -2.792,-5.052 -11.18266,-13.872 -33.628,-27.394666 -46.19466,-27.833333 -7.74933,-63.4999987 -4.728,-61.7133321"
         inkscape:connector-curvature="0" /><g
         id="bible"><path
           inkscape:connector-curvature="0"
           id="frontCover1"
           d="m 158.25066,153.62 c 3.06,0 10.472,0 11.11067,0 0.164,0 1.55867,0.024 1.88133,0.024 1.89734,0 0.44,4.34107 0.304,4.63067 -0.34666,0.46253 -2.004,0.34013 -2.17466,0.34013 -0.70934,0 -8.12534,0 -11.12134,0 -0.34666,-0.0469 -0.776,-0.2708 -0.78933,-0.4188 -0.028,-0.3 -0.028,-3.74533 -0.028,-4.04106 0,-0.3656 0.47067,-0.4828 0.81733,-0.53494" /><path
           inkscape:connector-curvature="0"
           id="frontCover2"
           d="m 193.808,153.62 c 9.16399,0 26.12799,0.024 41.78399,-0.0855 18.81734,-0.13587 35.252,0.1376 36.304,0.1376 0.12,0 0.56534,0.25826 0.63467,0.5104 0.264,0.94533 0.21733,3.00253 -0.112,3.99479 -0.0907,0.29214 -0.24933,0.45307 -0.52267,0.54 -0.88533,0.012 -78.84933,0 -79.59999,0 -0.33867,0 0.58133,-4.38799 0.76933,-4.68279 0.13333,-0.20774 0.38267,-0.33334 0.74267,-0.41454" /><path
           inkscape:connector-curvature="0"
           id="backCover"
           d="m 279.42666,153.62 c 20.8,0 70.48266,0 75.16133,0 1.136,0 5.13333,-0.088 5.92533,0.0864 0.864,0.19747 0.70267,4.66147 -0.22133,4.95373 -0.87733,0.112 -60.652,0.0249 -80.928,0.0249 -0.36933,-0.0385 -0.60666,-0.34107 -0.70266,-0.48907 -0.18934,-0.3 -0.15867,-3.84946 0,-4.16146 0.188,-0.352 0.45866,-0.3624 0.76533,-0.41454" /><path
           inkscape:connector-curvature="0"
           id="verso"
           d="m 160.92266,144.956 c 3.632,-0.70266 14.432,-1.85573 23.04134,-3.65893 23.14799,-4.83853 53.77066,-13.476 67.18399,-10.26253 12.97867,3.10426 19.084,13.8172 20.652,17.06826 0.46,0.95214 -0.50266,0.9396 -0.50266,0.9396 H 160.128 c 0,0 -1.54134,-0.005 -1.62134,-0.87546 -0.052,-0.57507 -0.564,-2.6272 2.416,-3.21094" /><path
           inkscape:connector-curvature="0"
           id="recto"
           d="m 359.45066,147.16694 c -0.16134,-0.36414 -0.79734,-1.17347 -1.52134,-1.3068 -2.58533,-0.46147 -10.20266,-1.46934 -16.29333,-2.8932 -16.37066,-3.82814 -36.97466,-11.1068 -46.34666,-8.1376 -8.12267,2.57453 -13.99467,10.89066 -15.76267,13.5172 -0.46133,0.68546 0.356,0.7428 0.356,0.7428 h 78.69333 c 0,0 0.44267,-0.0215 0.544,-0.0865 0.112,-0.0749 0.424,-0.22133 0.424,-0.5416 0.008,-0.23706 0.0733,-0.99426 -0.0933,-1.29426" /><path
           inkscape:connector-curvature="0"
           id="bookmark"
           d="m 184.996,159.83453 -0.29734,0.96574 c -0.0747,0.24373 -0.24266,0.45826 -0.35733,0.45826 l -2.78533,-0.0224 -1.84534,5.99427 c -0.0493,0.1604 -0.32266,0.30413 -0.576,0.3016 L 178.12,167.524 c -0.256,-0.001 -0.43867,-0.1484 -0.39067,-0.3068 l 1.84667,-5.99733 -2.78134,-0.0213 c -0.11466,0 -0.152,-0.21614 -0.076,-0.45894 l 0.296,-0.96506 c 0.076,-0.24267 0.244,-0.45734 0.35867,-0.45627 l 2.78133,0.0204 0.85467,-2.7776 c 0.0507,-0.16 0.324,-0.30267 0.576,-0.3 l 1.01733,0.008 c 0.25334,0.001 0.43734,0.14786 0.388,0.30933 l -0.85466,2.77613 2.784,0.0208 c 0.11466,0.002 0.15066,0.2188 0.076,0.4588 z m -10.16,-6.15986 c -0.58134,6.676 -3.15334,10.67453 -6.25867,13.76146 -0.94667,0.94267 -3.23867,2.5344 -3.32133,2.5344 0.804,0.73587 9.852,0.4708 10.70666,0.4708 0.32134,1.3932 -0.16666,3.66667 -1.66666,8.66667 5.592,-0.52293 12.08266,-5.7708 13.572,-12.2172 0.416,-1.7828 1.12533,-4.04533 1.428,-6.11613 0.52533,-3.55627 1.256,-6.9828 1.256,-7.1 -5.236,0 -10.47867,0 -15.716,0" /></g><path
         d="m 149.67466,156.1148 c 0,1.4916 1.208,2.7 2.69867,2.7 1.49067,0 2.708,-1.2084 2.708,-2.7 0,-1.48693 -1.21733,-2.7068 -2.708,-2.7068 -1.49067,0 -2.69867,1.21987 -2.69867,2.7068 m 0.45067,0 c 0,-1.24693 1.00933,-2.24533 2.248,-2.24533 1.24667,0 2.25067,0.9984 2.25067,2.24533 0,1.2412 -1.004,2.25053 -2.25067,2.25053 -1.23867,0 -2.248,-1.00933 -2.248,-2.25053 m 1.308,1.22653 c 0,0.076 0.0613,0.14534 0.144,0.14534 h 0.19333 c 0.0853,0 0.144,-0.0693 0.144,-0.14534 v -0.9 h 0.556 l 0.42267,0.93854 c 0.02,0.0443 0.0707,0.1068 0.13467,0.1068 h 0.252 c 0.11066,0 0.18266,-0.1136 0.132,-0.2068 -0.152,-0.2916 -0.30267,-0.5948 -0.45467,-0.8864 0.21333,-0.0521 0.612,-0.25467 0.612,-0.81613 0,-0.5652 -0.46,-0.84374 -0.928,-0.84374 h -1.064 c -0.0827,0 -0.144,0.0651 -0.144,0.14107 z m 0.47333,-1.33586 v -0.85733 h 0.73467 c 0.27867,0 0.45467,0.17026 0.45467,0.4292 0,0.22813 -0.176,0.42813 -0.45467,0.42813 h -0.73467"
         id="registered"
         inkscape:connector-curvature="0" /></g></g></svg>