<svg version="1" xmlns="http://www.w3.org/2000/svg" width="3641.333" height="3641.333" viewBox="0 0 2731.000000 2731.000000"><path d="M1361.7 11.5c-1.9 6-11.2 36.4-20.7 67.5-16.4 53.7-77.3 253-172 562.5-23.7 77.5-50.6 165.5-59.8 195.5-9.1 30-16.7 54.7-16.9 54.9-.2.3-95.5-21.2-99.2-22.5-.9-.3-1.2.2-.8 1.5.3 1.1-.4 9.6-1.4 18.8-6.1 54.9 2.6 103.3 27.7 153.4 19.7 39.4 45.1 73.6 82.9 111.5 34.2 34.3 68.5 62.3 114.5 93.3 24.6 16.5 24.9 17.1 9.6 17.1-5.6 0-16.1-.5-23.2-1-71.7-5.6-124.5-26-184.7-71.3-28.1-21.2-53.9-52.3-67.6-81.8-7.8-16.8-10.7-28-6.6-25.1.6.4 3.9 4.5 7.4 9.2 27.7 36.9 67.3 74.9 97.3 93.6 10 6.2 24.3 13 29.8 14.1 3.1.6 2.7.1-5.1-6.7-44.4-38.9-82.4-89.8-101.8-136.5-16.8-40.2-22.9-86.6-15.6-118 5.7-24.7 20.2-57.5 30.3-68.7 1.9-2.1 3.3-4 3.1-4.2-.2-.1-166.7-38.6-369.9-85.5-203.2-46.8-383.9-88.5-401.5-92.6-17.6-4.1-32.4-7.3-32.9-7.2-1 .3 2.5 4.1 27.4 30.7 11.3 12 602.4 646.4 606.1 650.5.5.5-.5-3.1-2.1-8-4.2-12.4-7.6-25.9-10.2-41.1-1.9-11.1-2.2-16.7-2.3-39.9 0-29 .6-35.5 5.7-61 7.3-36.7 20.1-62.6 42.6-85.7 11.3-11.6 23.5-20.9 35.2-26.8 8-4 14.7-6.3 15.4-5.1.2.3-1.6 9-4 19.1-13.5 56.4-18.2 92.5-17.1 130 1.3 39.4 7.4 65 23.3 97 14.2 28.5 27.3 47.6 45.9 66.9 46.1 47.7 106.8 72.8 202.5 83.5 20.4 2.3 33.6 3.3 79.5 6.1 50.8 3 65.7 4.1 84 6.1 51.5 5.5 81.4 13.3 116 30.4 30.7 15.2 50.5 33.5 62 57.3 4 8.5 5.9 13.9 11.5 33.5 1.2 4 2.8 7.6 3.6 7.9.8.3 2.5-.2 3.9-1.1 10.3-6.8 47.5-65 58.5-91.6 4.1-9.8 8.5-26.8 10.7-40.5 2.3-15.2 2.3-49.5-.1-66-5.2-36.4-18-72.9-33.5-95.9-26.2-38.8-90-90-183.6-147.5-13.7-8.5-30.2-19-36.5-23.4-58.9-41.2-93.9-87.2-104.9-138-13-59.8 8.9-125.7 60.5-182.4 13.2-14.5 34-30.3 39.9-30.3 2.2 0 2 .5-5.9 13-8.5 13.4-23.3 43.2-28.5 57.6-9.3 25.8-14 49.5-14.8 75.4-.8 24 2.3 47.7 8.6 66.2l1.8 5.3.6-21c.7-23.5 1.6-31.8 5.3-48.5 7.2-32.5 22.2-64.9 40.3-87.2 4.5-5.6 6.8-7.4 8-6.3.6.7-.1 2.5-8.3 23-34.7 85.7-28.7 161.7 16.8 213.8 9.6 10.9 19.3 17.9 26.1 18.8 16.5 2.2 31.9-6.8 39.9-23.4 5-10.1 6.6-17.4 6.6-29.7 0-15.4-3.4-26.3-11.9-39-1.7-2.5-3.1-5.1-3.1-5.8 0-2.3 5.6-1.2 13.8 2.8 26.3 12.7 47.7 34.2 61.6 61.8 6 12 7.6 18.3 7.6 30.8 0 22-10.2 45.1-24.9 56l-4.9 3.7 17.6 12.1c43.3 29.8 63 45.2 77.4 60.7 48.9 52.5 78.7 106.5 87.4 158.4 1.2 7 1.7 15.6 1.6 28.7 0 14.5.3 18.8 1.2 18.8 4.3 0 18.7-14.8 27.8-28.5 7.7-11.6 18.5-33.9 23.6-48.5 20.5-59.5 15-120.6-15.1-169-26.2-41.9-94-102.3-187-166.6-15.5-10.7-15.8-10.9-12.3-11.2 6.9-.6 32.3 5.9 54.4 13.8 38.1 13.8 83.2 39.9 121.7 70.4 41.4 32.8 71.5 68.4 90.1 106.1 15.7 32 22.5 62.1 21.1 93.5-1.9 42.7-16.2 81.9-45.8 126.1-16.9 25.3-36.7 47.9-67 76.9-46.5 44.4-73 71.9-121.8 126-23 25.5-33.1 36-34.7 36-1.7 0-4.7-7.6-9.9-25.5-8-27.5-15.6-43.1-28.5-58.3-23.6-27.6-62-43.9-113.5-48.1-7.1-.6-43.1-1.3-80-1.5-66.7-.5-86.7-1.2-121-4.2-62.5-5.3-116.3-17.2-165-36.5-15-5.9-45.7-21.4-58.7-29.6-44.2-27.9-75.7-61.7-95.9-102.9-3.8-7.7-6.9-14.6-6.9-15.3 0-.7-.4-1.1-1-.9-.7.2-132.1 140.8-234.8 251.3-10.8 11.5-25.7 27.5-33.2 35.5-7.5 8-17 18.1-21.1 22.6-4.1 4.4-16.2 17.4-26.9 28.9s-29.4 31.5-41.5 44.5c-50.9 54.8-102.5 110.1-187.8 201.5-49.7 53.3-90.4 97.1-90.3 97.2.1.2 134.3-30.6 251.6-57.7 16.8-3.8 127.7-29.4 246.5-56.8l216-49.9 3.3-11.4c4.5-15.5 7.2-28.3 7.2-34.7v-5.2h-21.7c-23.4-.1-39.9-1.2-41.6-2.9-.8-.8-.8-1.1 0-1.1 2.3 0 19.4-14.2 25.1-20.9 17.9-20.7 25.7-38.9 30.7-71.3l.6-3.8h93.2l-.7 3.2c-.4 1.8-2.5 13.6-4.7 26.3-4.7 27-11.6 55.2-15.8 64.1-9.5 20.3-26.6 38.1-46.5 48.4-4.2 2.2-7.3 4-6.9 4 .5 0 38.9-8.8 85.3-19.5s85.1-19.5 86-19.5c1.1 0 9.2 25.2 33.2 103.8 17.5 57 54.7 178.6 82.7 270.2s74.8 244.6 104 340c29.2 95.4 53.4 174.3 53.8 175.3.8 1.8 4-8.4 86.7-278.8 116.3-380 185.8-607.3 186.2-608.8.3-.9 1.3-1.7 2.2-1.7 1.3 0 151.3 34.5 504.2 116 11.8 2.7 36.4 8.4 54.5 12.5 18.2 4.2 103.9 24 190.5 44s157.6 36.2 157.8 36c.2-.2-70.3-76.1-156.6-168.7S2219.6 1695.9 2203 1678c-70.4-75.5-100.5-107.8-193.3-207.3-53.8-57.7-97.7-105.3-97.5-105.7.2-.4 45.6-49.3 100.9-108.6 120.7-129.5 115.6-124 199.4-213.9 36.9-39.5 98.7-105.9 137.5-147.5 38.8-41.6 81.3-87.3 94.6-101.6 13.3-14.2 41.7-44.8 63.2-67.9 21.5-23 39-42 38.8-42.2-.3-.4-39.1 8.6-631.9 145.3-151.7 35-275.9 63.5-276.2 63.3-.2-.2-22.2-72-49-159.4-95.6-312.3-150-490.2-173.2-566-44-144-49.2-161-50.1-163.5-.8-2.2-1.4-1.2-4.5 8.5zm137.6 1516.3c8.9 3.9 13.9 10.6 13.9 18.4-.1 6.8-3.2 9.6-9.2 8.3-6.8-1.5-22-19.3-22-25.7 0-5.3 6.6-5.7 17.3-1zm-168.1 66.2c14.7 1.2 24.4 3.2 37.8 7.6 40.2 13.2 75.7 42.5 100.2 82.4 6.4 10.4 9.2 16.5 8.5 18.4-.6 1.5-28.9 1.6-335.1 1.6-317.7 0-334.5-.1-336.6-1.8-3-2.4-3.6-8.7-1.3-13.2 4-7.7 5.6-8.1 60.8-15.9 68.7-9.8 71.4-10.3 219-43.6 99.2-22.4 155.8-32.1 209.5-35.8 10.3-.8 26.2-.6 37.2.3zm367.8 24.9c30.4 4.5 61.7 11.7 134.8 31.2 69.6 18.5 87.1 22.4 136.7 30.4 33.3 5.3 34.6 5.7 37.9 9.6 3.4 4 3.7 12.2.7 13.9-1.4.7-77 1-237.4 1-195.5 0-235.6-.2-236.6-1.3-3.2-3.9 32-45.2 51.4-60.3 17.9-13.9 35.6-22.6 53-26 9.9-1.9 42-1.1 59.5 1.5zm-922.5 114.4c11.2 6.2 10.6 22.1-1.1 27.8-16.2 7.8-30.5-13.4-17.2-25.8 5-4.7 12.1-5.5 18.3-2zm703.2-.5c1.7.9 2.3 2.5 2.9 6.9.8 6.4-.8 18.6-2.6 20.8-1.1 1.3-31.9 1.5-238.7 1.5h-237.5l.6-4.8c1.4-10.1 3.8-20.8 5.2-22.9l1.4-2.3 90.8-.3c195.1-.7 375.6-.2 377.9 1.1zm-596.3 1.4c2 2.9 2 9 0 17.9-1 4.6-2.2 7.3-3.4 7.9-2.9 1.5-80.3 1.3-81.8-.2-.8-.8-1.2-5.2-1.2-13.3 0-8.1.4-12.5 1.2-13.3.9-.9 11.7-1.2 42.4-1.2h41.3l1.5 2.2zm1123.7.5c1.7 4.4.7 21.4-1.4 24.6l-1.7 2.7h-241.4c-236.4 0-241.3 0-243-1.9-1.5-1.6-1.8-3.9-1.8-13.6 0-7.5.5-12.1 1.2-13.1 1.1-1.2 33.6-1.4 244.1-1.4H2006l1.1 2.7z"/><path d="M762 1735.7c-10.8 7.4-7.1 22.9 5.7 24 10.8.9 17.9-10.3 12.3-19.4-3.6-5.9-12.7-8.3-18-4.6zm12.4 4.9c2 2 2 3.4 0 6.3-1.3 1.8-1.4 2.8-.5 4.7 1.4 3.2 1.4 3.4-.5 3.4-.9 0-2.1-1.4-2.7-3-.7-1.8-1.9-3-2.9-3-1.3 0-1.8.8-1.8 3 0 2-.5 3-1.5 3-1.2 0-1.5-1.6-1.5-8v-8h4.9c3.2 0 5.5.6 6.5 1.6z"/><path d="M766 1743.5c0 2.4.3 2.6 3.3 2.3 2.4-.2 3.2-.8 3.2-2.3 0-1.5-.8-2.1-3.2-2.3-3-.3-3.3-.1-3.3 2.3zM939 1748c-.8.5-2.6 4.6-4 9.2l-2.6 8.3-8.7.3-8.8.3-1.5 3.4c-2.8 6.9-2.4 7.4 7 7.7l8.4.3-5.4 17.5c-3 9.6-5.4 17.9-5.4 18.3 0 .4 2.6.7 5.7.5l5.8-.3 5.6-18 5.5-18 8.8-.3 8.7-.3 1.5-3.4c2.9-7 2.4-7.5-7-7.5h-8.4l2.4-8.1c1.4-4.5 2.3-8.7 2-9.5-.6-1.6-7.3-1.9-9.6-.4zM2525 2015c0 .5.9 1 2 1 1.7 0 2 .7 2 5 0 2.7.5 5 1 5 .6 0 1-2.3 1-5 0-4.3.3-5 2-5 1.1 0 2-.5 2-1 0-.6-2.2-1-5-1-2.7 0-5 .4-5 1zM2537 2020c0 6.4 1.9 8.5 2.1 2.2.1-3.6.1-3.7 1.1-1 1.3 3.7 2.5 3.5 4.2-.5l1.4-3.2.1 4.2c.1 6.7 2.1 5.1 2.1-1.7 0-7.1-1.9-8.1-4.3-2.3l-1.5 3.8-1.1-2.8c-.6-1.6-1.1-3.3-1.1-3.8s-.7-.9-1.5-.9c-1.2 0-1.5 1.3-1.5 6z"/></svg>