<?xml version="1.0" encoding="UTF-8" standalone="no"?>
<svg
   xmlns:dc="http://purl.org/dc/elements/1.1/"
   xmlns:cc="http://creativecommons.org/ns#"
   xmlns:rdf="http://www.w3.org/1999/02/22-rdf-syntax-ns#"
   xmlns:svg="http://www.w3.org/2000/svg"
   xmlns="http://www.w3.org/2000/svg"
   xmlns:sodipodi="http://sodipodi.sourceforge.net/DTD/sodipodi-0.dtd"
   xmlns:inkscape="http://www.inkscape.org/namespaces/inkscape"
   viewBox="0 0 320 192"
   height="192"
   width="320"
   id="svgccd"
   version="1.1"
   sodipodi:docname="ccdnaz.svg"
   inkscape:version="0.92.3 (2405546, 2018-03-11)">
  <sodipodi:namedview
     pagecolor="#ffffff"
     bordercolor="#666666"
     borderopacity="1"
     objecttolerance="10"
     gridtolerance="10"
     guidetolerance="10"
     inkscape:pageopacity="0"
     inkscape:pageshadow="2"
     inkscape:window-width="1315"
     inkscape:window-height="713"
     id="namedview1150"
     showgrid="false"
     fit-margin-top="0"
     fit-margin-left="0"
     fit-margin-right="0"
     fit-margin-bottom="0"
     inkscape:zoom="0.2671875"
     inkscape:cx="7.4853801"
     inkscape:cy="384"
     inkscape:window-x="51"
     inkscape:window-y="27"
     inkscape:window-maximized="1"
     inkscape:current-layer="svgccd" />
  <metadata
     id="metadata891">
    <rdf:RDF>
      <cc:Work
         rdf:about="">
        <dc:format>image/svg+xml</dc:format>
        <dc:type
           rdf:resource="http://purl.org/dc/dcmitype/StillImage" />
        <dc:title />
      </cc:Work>
    </rdf:RDF>
  </metadata>
  <defs
     id="defs889" />
  <path
     id="pathccd"
     d="m 170.75,184.63976 -5.875,-7.36946 -0.125,7.17735 -0.125,7.17735 h -1 -1 l -0.0655,-9.43198 -0.0655,-9.43199 0.6284,-0.15771 c 0.47522,-0.11928 0.74802,-0.014 1.11912,0.43198 0.2699,0.32434 2.9416,3.6508 5.9371,7.39216 l 5.44638,6.80245 0.0664,-7.12914 0.0663,-7.12914 1.05865,0.0767 1.05864,0.0767 v 9.375 9.375 l -0.625,0.0671 c -0.5458,0.0586 -1.36954,-0.86683 -6.5,-7.30235 z m 120.92242,-0.0475 -5.92242,-7.40771 -0.004,6.97021 c -0.002,3.83362 -0.0983,7.11918 -0.21373,7.30126 -0.12622,0.19909 -0.5482,0.29874 -1.05867,0.25 l -0.8486,-0.081 v -9.5 -9.5 l 0.625,-0.0576 c 0.54267,-0.05 1.39895,0.9159 6.5,7.33221 l 5.875,7.38982 0.0663,-7.14471 L 296.7576,173 h 0.99615 0.99618 v 9.5 9.5 h -0.57758 c -0.4572,0 -1.812,-1.54401 -6.5,-7.40771 z M 6.959093,191.28662 C 6.180344,191.02859 5.153361,190.57654 4.6769085,190.28208 3.3641255,189.47074 1.782569,187.62761 1.0401017,186.04379 0.4522765,184.78985 0.375,184.32001 0.375,182 c 0,-2.36072 0.069543,-2.76655 0.690752,-4.031 2.689754,-5.47488 9.412195,-7.33826 14.311993,-3.96711 1.23654,0.85076 1.45544,1.61909 0.66507,2.33436 -0.599875,0.54288 -0.625378,0.53818 -1.83589,-0.33872 -2.85566,-2.06862 -6.3543925,-1.91495 -8.9200453,0.39179 -2.5772947,2.31721 -3.345727,5.67399 -1.9811907,8.65453 1.9196832,4.19314 6.449856,5.65067 10.319831,3.32029 1.529298,-0.92089 2.09399,-1.04463 2.57448,-0.56414 0.886857,0.88686 -0.107063,2.13407 -2.568285,3.22278 -1.729648,0.76511 -4.7940802,0.88628 -6.672622,0.26384 z m 44.768187,0.075 c -1.568225,-0.48309 -3.2748,-2.04653 -4.000197,-3.6647 -0.565906,-1.26239 -0.596593,-1.61795 -0.68141,-7.89531 -0.09752,-7.21778 -0.06717,-7.38608 1.308034,-7.25188 l 0.771293,0.0753 0.139812,6.5 c 0.143253,6.65976 0.22236,7.20262 1.262468,8.66331 1.504777,2.11326 5.51818,2.27966 7.255072,0.30079 1.269955,-1.44687 1.335628,-1.84226 1.467648,-8.83607 0.116315,-6.16189 0.15677,-6.62806 0.582272,-6.70964 0.251503,-0.0482 0.736215,-0.0177 1.07714,0.0679 l 0.619863,0.15558 -0.07714,6.80406 c -0.07429,6.55342 -0.09914,6.85275 -0.674475,8.12598 -1.472302,3.25823 -5.316617,4.81488 -9.050382,3.6647 z m 44.52272,0.004 c -4.373715,-1.21998 -7.27582,-5.42312 -6.927198,-10.0327 0.497535,-6.57855 7.017638,-10.67274 13.254468,-8.32293 2.5352,0.95516 3.55908,2.3364 2.46555,3.32603 -0.60013,0.54311 -0.62495,0.53849 -1.84153,-0.3428 -5.820657,-4.21646 -13.389593,1.71771 -11.032315,8.64951 0.5698,1.67556 2.762502,3.86826 4.43806,4.43806 2.294635,0.78033 4.540755,0.41589 6.637215,-1.07693 1.17521,-0.83682 2.25575,-0.53632 2.25575,0.62733 0,0.72226 -0.84389,1.46032 -2.57689,2.25371 -1.83736,0.84117 -4.653528,1.04404 -6.67311,0.48072 z M 139,189.375 V 187 h -0.75 c -0.58333,0 -0.75,-0.11111 -0.75,-0.5 0,-0.45833 0.16667,-0.5 2,-0.5 1.83333,0 2,0.0417 2,0.5 0,0.38889 -0.16667,0.5 -0.75,0.5 H 140 v 2.375 c 0,2.20833 -0.0351,2.375 -0.5,2.375 -0.46491,0 -0.5,-0.16667 -0.5,-2.375 z m 4.25,-0.5 c 0,-2.70833 0.029,-2.875 0.5,-2.875 0.42592,0 0.5,0.16667 0.5,1.125 v 1.125 h 1.375 1.375 v -1.125 c 0,-0.95833 0.0741,-1.125 0.5,-1.125 0.47101,0 0.5,0.16667 0.5,2.875 0,2.70833 -0.029,2.875 -0.5,2.875 -0.43333,0 -0.5,-0.16667 -0.5,-1.25 v -1.25 h -1.375 -1.375 v 1.25 c 0,1.08333 -0.0667,1.25 -0.5,1.25 -0.47102,0 -0.5,-0.16667 -0.5,-2.875 z m 7.25,0 V 186 h 1.875 c 1.70833,0 1.875,0.0444 1.875,0.5 0,0.43939 -0.16667,0.5 -1.375,0.5 -1.3,0 -1.375,0.0341 -1.375,0.625 0,0.57407 0.0917,0.625 1.125,0.625 0.95833,0 1.125,0.0741 1.125,0.5 0,0.42592 -0.16667,0.5 -1.125,0.5 -1.08333,0 -1.125,0.0278 -1.125,0.75 0,0.74243 0.0139,0.75 1.375,0.75 1.20833,0 1.375,0.0606 1.375,0.5 0,0.45555 -0.16667,0.5 -1.875,0.5 H 150.5 Z m 33,2.37725 c 0,-0.73057 8.02526,-18.45845 8.42551,-18.61204 0.17847,-0.0685 0.47039,-0.0685 0.6487,-1.1e-4 0.37843,0.14522 8.42579,17.95109 8.42579,18.64321 0,0.37911 -0.19086,0.46669 -1.01707,0.46669 h -1.01706 l -1.10984,-2.375 -1.10985,-2.375 h -4.56378 -4.56378 l -0.99831,2.3125 -0.9983,2.3125 -1.06101,0.0769 c -0.93647,0.0679 -1.061,0.0151 -1.061,-0.44962 z m 11.91408,-7.31475 c -0.31879,-0.72187 -1.13299,-2.57679 -1.80935,-4.12205 -0.67635,-1.54525 -1.29283,-2.81087 -1.36996,-2.8125 -0.10414,-0.002 -3.06635,6.44285 -3.6931,8.03532 -0.0458,0.11645 1.61212,0.21173 3.68434,0.21173 h 3.76768 z m 9.33592,7.12788 c 0,-0.46291 1.57361,-3.24907 4.73267,-8.37944 L 214.21535,175 H 209.85767 205.5 v -1 -1 h 6 c 5.69677,0 6,0.0236 6,0.46804 0,0.25742 -2.18461,3.99805 -4.85469,8.3125 l -4.8547,7.84446 4.5422,0.125 4.54219,0.125 v 0.875 0.875 l -6.0625,0.067 -6.0625,0.0669 z m 16.36525,0.37212 c -0.14518,-0.38107 8.00004,-18.44759 8.44411,-18.72948 0.48625,-0.30867 0.64949,-0.25337 1.04648,0.35448 0.85374,1.30723 8.17271,18.00253 8.04168,18.34393 -0.10035,0.2615 -0.4261,0.35062 -1.08302,0.29628 -1.01473,-0.0839 -1.2004,-0.33429 -2.51415,-3.39021 L 234.4861,187 h -4.58838 -4.58839 l -0.93697,2.1875 c -0.51534,1.20312 -1.06307,2.27015 -1.21717,2.37117 -0.46013,0.30162 -1.91171,0.2154 -2.03994,-0.12117 z m 10.69437,-10.43825 -1.89386,-4.25075 -1.83288,4.13012 c -1.00809,2.27157 -1.83288,4.18441 -1.83288,4.25075 0,0.0664 1.67703,0.12063 3.72674,0.12063 h 3.72674 z m 12.60705,10.58408 c -0.0917,-0.0917 -0.16667,-4.31041 -0.16667,-9.375 V 173 l 4.5625,0.005 c 5.10832,0.006 5.85197,0.18563 7.36437,1.77741 2.45238,2.58111 1.87786,6.85483 -1.17335,8.72841 -0.54967,0.33753 -0.9722,0.72619 -0.93897,0.86369 0.0333,0.1375 0.83037,1.68826 1.77137,3.44613 0.94103,1.75788 1.64768,3.361 1.57035,3.5625 -0.18115,0.4721 -1.99732,0.49268 -2.45092,0.0278 -0.1817,-0.18623 -1.05815,-1.81748 -1.94768,-3.625 L 251.39035,184.5 H 248.94517 246.5 v 3.625 3.625 h -0.95833 c -0.5271,0 -1.03335,-0.075 -1.125,-0.16667 z m 8.7322,-9.5593 c 2.80343,-1.27319 2.81105,-5.15167 0.0128,-6.50629 C 252.27537,175.0887 251.61312,175 249.29607,175 H 246.5 v 3.75 3.75 l 2.8125,-0.005 c 2.19962,-0.004 3.0356,-0.10682 3.83637,-0.47048 z m 11.77238,9.56388 c -0.0942,-0.0942 -0.17125,-4.31499 -0.17125,-9.37958 V 173 h 5.8901 5.89008 l -0.0776,0.9375 -0.0776,0.9375 -4.6875,0.068 -4.6875,0.068 v 3.11329 3.11329 l 4.0625,0.0687 4.0625,0.0687 v 0.875 0.875 l -4.0625,0.0687 -4.0625,0.0687 v 3.2383 3.23829 l 4.6875,0.068 4.6875,0.068 v 0.875 0.875 l -5.64125,0.0671 c -3.1027,0.0369 -5.71833,-0.01 -5.8125,-0.10416 z m 42.25,0 C 307.07705,191.49373 307,187.27292 307,182.20833 V 173 h 5.8901 5.89008 l -0.0776,0.9375 -0.0776,0.9375 -4.6875,0.068 -4.6875,0.068 v 3.11949 3.11948 h 4.00785 c 4.34112,0 4.47355,0.044 4.13935,1.37556 L 317.24047,183.25 H 313.24522 309.25 v 3.24448 3.24449 l 4.6875,0.068 4.6875,0.068 v 0.875 0.875 l -5.64125,0.0671 c -3.1027,0.0369 -5.71833,-0.01 -5.8125,-0.10416 z M 23.869807,191.20162 c -0.0694,-0.18085 -0.09662,-4.43456 -0.06049,-9.45271 L 23.875,172.625 h 1 1 l 0.06869,4.0625 0.06869,4.0625 H 31.256192 36.5 v -3.99524 -3.99524 l 0.605227,-0.1519 c 0.332873,-0.0835 0.810998,-0.11227 1.0625,-0.0638 0.433333,0.0835 0.457273,0.57871 0.457273,9.45964 v 9.37158 h -1 -1 L 36.556455,187.1875 36.48791,183 H 31.25 26.01209 l -0.06855,4.1875 -0.06855,4.1875 -0.93951,0.0777 c -0.605755,0.0501 -0.98433,-0.0391 -1.065683,-0.25109 z m 46.000001,0 c -0.0694,-0.18085 -0.09662,-4.43456 -0.06049,-9.45271 l 0.06568,-9.12391 4.5,0.003 c 4.12007,0.003 4.584428,0.0487 5.5,0.5396 2.095202,1.12346 3.211985,2.93457 3.210778,5.207 -0.0012,2.21438 -1.188686,4.18686 -3.12107,5.18415 l -0.660296,0.34078 1.86881,3.43997 c 1.027848,1.89198 1.806635,3.60199 1.73064,3.80003 -0.178875,0.46614 -1.999075,0.48211 -2.448505,0.0215 -0.181697,-0.18623 -1.058152,-1.81748 -1.947677,-3.625 L 76.89036,184.25 h -2.438317 -2.438315 l -0.06936,3.5625 -0.06937,3.5625 -0.93951,0.0777 c -0.605755,0.0501 -0.98433,-0.0391 -1.065682,-0.25109 z m 9.049565,-9.59961 c 2.388042,-1.76993 2.388382,-4.43244 7.5e-4,-6.20402 -0.60852,-0.45152 -1.12951,-0.53432 -3.8125,-0.60588 L 72,174.70922 v 3.7961 3.79609 l 3.106872,-0.0882 c 2.676593,-0.076 3.204598,-0.16064 3.812501,-0.6112 z m 33.950437,9.59961 c -0.0694,-0.18085 -0.0966,-4.43456 -0.0605,-9.45271 l 0.0657,-9.12391 h 1 1 l 0.0687,4.0625 0.0687,4.0625 h 5.24381 5.24381 v -3.825 c 0,-4.10141 0.0914,-4.425 1.25,-4.425 0.3575,0 0.785,0.135 0.95,0.3 0.35346,0.35346 0.43259,17.85381 0.0832,18.4048 -0.13104,0.20665 -0.57302,0.3 -1.18368,0.25 L 125.625,191.375 125.55646,187.1875 125.48791,183 H 120.25 115.01209 l -0.0685,4.1875 -0.0686,4.1875 -0.93951,0.0777 c -0.60575,0.0501 -0.98433,-0.0391 -1.06568,-0.25109 z M 137.5,181.40175 c 0,-0.32904 0.17795,-0.66654 0.39545,-0.75 0.21749,-0.0835 3.92079,-0.15175 8.22955,-0.15175 4.30876,0 8.01206,0.0683 8.22955,0.15175 0.2175,0.0835 0.39545,0.42096 0.39545,0.75 V 182 h -8.625 -8.625 z m 4.625,-3.11417 c -1.95548,-0.63584 -2.70593,-2.70671 -1.62395,-4.48131 1.21645,-1.99517 4.52032,-1.63905 5.24794,0.56568 0.56685,1.71756 -0.14637,3.22433 -1.82777,3.8614 -0.76859,0.29121 -1.04202,0.29947 -1.79622,0.0542 z M 144.25,176.75 c 0.8125,-0.8125 0.75249,-1.87508 -0.15179,-2.6875 -0.83992,-0.75461 -1.49083,-0.70835 -2.36744,0.16827 -0.86394,0.86394 -0.91798,1.46381 -0.21263,2.36051 0.64925,0.82539 1.98744,0.90313 2.73186,0.15872 z M 148,175.375 V 172.5 h 1.875 c 1.70833,0 1.875,0.0444 1.875,0.5 0,0.43939 -0.16667,0.5 -1.375,0.5 -1.36111,0 -1.375,0.008 -1.375,0.75 0,0.72222 0.0417,0.75 1.125,0.75 0.95833,0 1.125,0.0741 1.125,0.5 0,0.42592 -0.16667,0.5 -1.125,0.5 H 149 v 1.125 c 0,0.95833 -0.0741,1.125 -0.5,1.125 -0.47102,0 -0.5,-0.16667 -0.5,-2.875 z m -148,-19 V 150.75 H 30.875 61.75 V 156.375 162 H 30.875 0 Z m 68,5.40175 c 0,-0.12279 0.17434,-0.29016 0.38742,-0.37192 0.213083,-0.0818 0.681525,-0.79108 1.040988,-1.57624 1.105337,-2.41438 0.87378,-6.46123 -0.480133,-8.39109 L 68.465952,150.75 H 79.482978 90.5 V 156.375 162 H 79.25 C 72.815218,162 68,161.90444 68,161.77675 Z M 93.25,156.375 v -5.625 h 10.72305 10.72305 l -0.47305,0.92786 c -1.1151,2.1872 -0.24111,3.87853 2.84119,5.49823 1.23098,0.64686 1.73588,1.06158 1.85104,1.52039 0.21964,0.87513 -0.19388,1.41404 -1.15795,1.50909 -0.62075,0.0612 -0.99178,-0.0866 -1.54319,-0.61493 l -0.72595,-0.6955 -0.87449,0.87449 -0.8745,0.8745 0.5054,0.54248 c 0.27797,0.29837 0.5054,0.60344 0.5054,0.67794 C 114.75,161.93904 109.9125,162 104,162 H 93.25 Z m 27.25,5.47693 c 0,-0.0814 0.22204,-0.43035 0.49343,-0.77536 1.12531,-1.4306 0.86157,-3.7707 -0.56044,-4.97269 -0.4444,-0.37563 -1.31424,-0.90403 -1.93299,-1.17423 -1.4493,-0.63288 -2,-1.12669 -2,-1.7934 0,-1.23753 1.43545,-1.53116 2.49989,-0.51136 l 0.65224,0.62489 0.83805,-0.86465 c 0.70529,-0.72767 0.7874,-0.92567 0.51832,-1.24988 -0.28709,-0.34594 0.72942,-0.38525 9.96089,-0.38525 H 141.25 v 0.75 c 0,0.73333 0.0278,0.75 1.25,0.75 h 1.25 v 4.875 4.875 h -11.625 c -6.39375,0 -11.625,-0.0666 -11.625,-0.14807 z M 146.75,157.125 V 152.25 H 148 c 1.22222,0 1.25,-0.0167 1.25,-0.75 v -0.75 h 10 10 V 156.375 162 H 158 146.75 Z m 25.5,2.625 c 0,-2.03637 0.0447,-2.25 0.47053,-2.25 0.37139,0 0.60844,0.4423 1.125,2.0991 0.35996,1.1545 0.65447,2.167 0.65447,2.25 0,0.083 -0.50625,0.1509 -1.125,0.1509 h -1.125 z m 5.12504,1.8125 c -0.0982,-0.24063 -0.49397,-1.35722 -0.87958,-2.48132 -0.70109,-2.0437 -0.7011,-2.04384 -0.1977,-2.49941 0.27689,-0.25057 0.67288,-0.78327 0.87998,-1.18377 0.50972,-0.98568 0.33498,-3.44333 -0.29426,-4.13863 L 176.4225,150.75 H 187.21125 198 v 5.625 5.625 h -10.22325 c -9.50178,0 -10.23585,-0.0309 -10.40171,-0.4375 z M 200.75,156.375 v -5.625 h 11.01814 11.01815 l -0.50363,0.64026 c -0.75075,0.95442 -1.10857,2.98771 -0.99257,5.6401 0.0866,1.98041 0.21087,2.54785 0.78146,3.56873 0.37315,0.66763 0.67845,1.25597 0.67845,1.3074 0,0.0514 -4.95,0.0935 -11,0.0935 h -11 z m 27.5,5.5111 c 0,-0.0626 0.28125,-0.52834 0.625,-1.03488 0.9184,-1.35334 0.82289,-1.6925 -0.60525,-2.1492 l -1.23025,-0.39342 -0.16485,0.6568 c -0.36508,1.4546 -1.54747,1.76635 -2.30639,0.60809 -0.65124,-0.99391 -0.6442,-5.91381 0.01,-6.91208 0.66782,-1.01923 1.69659,-0.84668 2.0188,0.33859 0.13083,0.48125 0.26896,0.9158 0.30696,0.96567 0.038,0.0499 0.63767,-0.0457 1.33259,-0.21243 1.42735,-0.34242 1.50527,-0.54924 0.75842,-2.0132 L 228.48984,150.75 H 238.86992 249.25 v 0.75 c 0,0.73333 0.0278,0.75 1.25,0.75 h 1.25 V 157.125 162 H 240 c -6.4625,0 -11.75,-0.0512 -11.75,-0.1139 z m 26.25,-4.7611 v -4.875 h 1.375 c 1.3611,0 1.375,-0.008 1.375,-0.75 v -0.75 H 288 318.75 V 156.375 162 H 286.625 254.5 Z m -190,-0.875 v -4 l 0.8125,0.004 c 1.081667,0.005 1.39957,0.24222 1.692067,1.26211 0.322995,1.12621 0.311183,4.11226 -0.021,5.30847 -0.265757,0.95702 -0.923087,1.4256 -1.999842,1.4256 -0.458145,0 -0.483725,-0.21153 -0.483725,-4 z m 107.75,-2.5 V 152 h 0.9912 c 1.14072,0 1.5088,0.44905 1.5088,1.84071 0,1.105 -0.5488,1.65929 -1.64286,1.65929 H 172.25 Z M 7.7323372,142.65816 C 4.2542345,141.72036 2.0167787,139.15267 0.690803,134.57733 0.17937275,132.81262 0.125,132.09646 0.125,127.125 c 0,-4.58637 0.0777903,-5.7907 0.468292,-7.25 1.0506262,-3.92618 3.134702,-6.71787 6.0055642,-8.04467 C 8.00485,111.18053 8.3611838,111.125 11.125,111.125 c 2.711888,0 3.13365,0.0627 4.391645,0.65268 1.622425,0.76091 2.883662,1.97582 3.801137,3.66153 0.781418,1.43572 1.81418,5.04076 1.51738,5.29669 -0.176497,0.1522 -6.783164,2.0141 -7.146719,2.0141 -0.06627,0 -0.189571,-0.47812 -0.274013,-1.0625 -0.394225,-2.72822 -1.273845,-4.1875 -2.524122,-4.1875 -1.0193605,0 -2.1338302,1.20146 -2.5561732,2.75571 -0.2110465,0.77666 -0.4320978,3.04639 -0.5107458,5.24429 -0.263726,7.37009 0.78453,11 3.176611,11 1.317088,0 2.004773,-0.98433 2.750847,-3.9375 0.147633,-0.58438 0.364083,-1.0625 0.481,-1.0625 0.185185,0 5.129308,1.6661 6.330653,2.13334 0.616782,0.23988 0.550152,0.84028 -0.353707,3.18722 -0.652308,1.69378 -1.060818,2.32438 -2.326973,3.59206 -1.297232,1.2988 -1.79971,1.61914 -3.235127,2.0625 -1.94186,0.59978 -5.0623693,0.68239 -6.9143558,0.18304 z m 59.4541428,0.0704 c -3.439997,-0.81075 -6.187122,-3.87523 -7.282288,-8.12357 -0.955027,-3.70473 -1.073372,-9.52763 -0.279047,-13.73001 1.2886,-6.81735 5.190988,-10.14829 11.503033,-9.81858 3.47246,0.18139 5.711827,1.43871 7.246392,4.06858 0.768965,1.31782 2.007837,5.34935 1.722275,5.60462 -0.122015,0.10907 -1.628095,0.56732 -3.346845,1.01834 -1.71875,0.45102 -3.30606,0.86997 -3.527355,0.931 -0.308895,0.0852 -0.441193,-0.14047 -0.569553,-0.97149 -0.584525,-3.78436 -2.035905,-5.11524 -3.883217,-3.56083 C 67.410702,119.29031 67.125,120.82807 67.125,127 c 0,6.17193 0.285702,7.70969 1.644875,8.85336 1.698778,1.42943 3.055257,0.58246 3.962695,-2.47426 0.306815,-1.0335 0.65165,-1.8791 0.766303,-1.8791 0.656754,0 6.751127,2.36144 6.751127,2.61591 0,0.1682 -0.220592,0.94698 -0.490207,1.73063 -1.724423,5.01212 -4.656095,7.1893 -9.598628,7.12835 -1.11989,-0.0138 -2.458497,-0.12465 -2.974685,-0.24631 z m 46.5,0 c -3.71389,-0.8753 -6.48297,-4.13482 -7.61842,-8.96776 -0.6392,-2.72067 -0.63221,-10.82955 0.0117,-13.57422 0.95161,-4.05627 2.96229,-6.86992 5.92024,-8.28448 1.55027,-0.74138 1.76873,-0.77712 4.75,-0.77712 2.84178,0 3.24962,0.0587 4.5,0.64754 1.77248,0.83473 2.85075,1.75874 3.65621,3.13315 0.69249,1.18165 1.84379,4.35598 1.84379,5.08365 0,0.3523 -0.66889,0.63172 -3.3125,1.38375 -1.82187,0.51826 -3.43935,0.99059 -3.59439,1.04961 -0.17148,0.0653 -0.45718,-0.60797 -0.72941,-1.71884 -0.57714,-2.35507 -1.44888,-3.3366 -2.7726,-3.12178 -0.48714,0.079 -1.06271,0.28979 -1.27903,0.46832 -1.46963,1.21284 -2.21313,7.30372 -1.57208,12.87865 0.33147,2.88267 0.69157,4.04097 1.51106,4.86045 0.58551,0.58552 0.92398,0.7105 1.9241,0.7105 2.03064,0 3.07485,-1.22831 3.07485,-3.61697 V 131.75 h -1.75 -1.75 v -3 -3 h 5.375 5.375 v 3.83501 c 0,5.63366 -0.68035,8.04287 -2.95929,10.47924 -1.31395,1.40472 -2.81733,2.2466 -4.74051,2.65465 -1.53315,0.32531 -4.50373,0.33021 -5.86372,0.01 z m 23.75,0.0135 c -3.73918,-0.93518 -6.48995,-4.17803 -7.61842,-8.9813 -0.64152,-2.73053 -0.63038,-10.57498 0.019,-13.38582 0.67767,-2.9333 1.74677,-5.00737 3.43414,-6.66227 1.76888,-1.73485 3.53503,-2.47687 6.3185,-2.65464 5.88493,-0.37585 9.85029,2.81887 11.33055,9.12852 0.70406,3.00108 0.6286,11.17992 -0.12859,13.93839 -0.78574,2.86246 -1.6859,4.55069 -3.27749,6.14684 -1.87065,1.87602 -3.55327,2.53043 -6.76417,2.63078 -1.30625,0.0408 -2.79733,-0.0314 -3.31352,-0.1605 z m 4.50146,-6.79252 c 2.13624,-1.76298 2.44331,-14.22758 0.42634,-17.30587 -0.94827,-1.44725 -3.03557,-1.41244 -4.03273,0.0672 -0.90325,1.34033 -1.18805,3.29436 -1.18989,8.16402 -0.002,5.86646 0.5693,8.41282 2.07871,9.26158 0.73178,0.4115 2.10704,0.31687 2.71757,-0.18698 z m 29.52774,6.58816 c -5.21472,-1.72503 -7.84123,-7.82564 -7.38912,-17.16275 0.27508,-5.68097 1.5125,-9.28488 4.03293,-11.74561 1.99262,-1.94541 3.51754,-2.48823 7.01551,-2.49728 4.40076,-0.0114 6.63512,1.14138 8.31261,4.28868 0.9713,1.82234 1.87982,5.13429 1.47129,5.36349 -0.2491,0.13976 -6.77647,1.96572 -7.02697,1.96572 -0.0531,0 -0.22768,-0.64688 -0.38803,-1.4375 -0.67496,-3.3279 -1.6266,-4.31869 -3.35598,-3.49401 -1.63846,0.78133 -2.13792,2.93141 -2.13792,9.20333 0,6.1473 0.58545,8.5387 2.26024,9.23242 1.61803,0.67021 2.98101,-0.59638 3.53666,-3.28658 0.16672,-0.80721 0.38935,-1.46766 0.49473,-1.46766 0.45081,0 6.95837,2.32407 6.95837,2.48506 0,0.0976 -0.28006,1.00078 -0.62236,2.00719 -1.15842,3.40588 -2.47731,5.00878 -5.1149,6.2163 -1.89108,0.86577 -5.92603,1.03083 -8.04706,0.3292 z M 23.5,127 v -15.5 h 3.875 3.875 v 5.75 5.75 h 3 3 v -5.75 -5.75 H 41.125 45 V 127 142.5 H 41.125 37.25 v -6.375 -6.375 h -3 -3 v 6.375 6.375 H 27.375 23.5 Z m 25,0 v -15.5 h 3.875 3.875 V 127 142.5 H 52.375 48.5 Z m 32.738123,15.3125 c -0.0065,-0.10312 1.764215,-7.07813 3.934995,-15.5 L 89.119987,111.5 h 3.93037 3.93037 l 0.242778,0.9375 c 0.133527,0.51562 1.88488,7.35 3.891895,15.1875 2.00702,7.8375 3.69857,14.39062 3.75902,14.5625 0.0849,0.24147 -0.7901,0.3125 -3.84977,0.3125 H 97.064998 L 96.5,139.625 95.935002,136.75 h -2.924287 -2.92429 l -0.3101,1.6875 c -0.170553,0.92813 -0.424323,2.22187 -0.563928,2.875 l -0.25383,1.1875 h -3.854282 c -2.119857,0 -3.85963,-0.0844 -3.866162,-0.1875 z m 13.25799,-12.25 c -0.0052,-0.58513 -1.459698,-8.60942 -1.58289,-8.73261 -0.0532,-0.0532 -0.170728,0.55393 -0.261163,1.34919 -0.09044,0.79525 -0.423935,2.8803 -0.741107,4.63342 L 91.334275,130.5 h 1.582863 c 1.342302,0 1.582272,-0.0665 1.578975,-0.4375 z M 187.75,127 v -15.5 h 9.125 9.125 v 3.25 3.25 h -5.375 -5.375 v 2.5 2.5 h 3.5 3.5 v 3.25 3.25 h -3.5 -3.5 v 3.25 3.25 h 5.5 5.5 v 3.25 3.25 H 197 187.75 Z m 21.5,0 v -15.5 l 3.3125,0.006 3.3125,0.006 2.30066,4.18144 c 1.26537,2.29979 2.96164,5.55019 3.76949,7.22311 l 1.46883,3.04167 -0.11551,-7.22917 -0.11551,-7.22915 h 3.65852 3.65852 v 15.50747 15.50747 l -3.15593,-0.07 -3.15593,-0.07 -3.96783,-7.875 -3.96783,-7.875 -0.001,7.9375 -10e-4,7.9375 h -3.5 -3.5 z m 30,3.375 V 118.25 H 236.125 233 v -3.375 -3.375 h 10 10 v 3.375 3.375 h -3.125 -3.125 V 130.375 142.5 H 243 239.25 Z M 255.5,127 v -15.5 h 6.2377 c 3.6663,0 6.78382,0.11588 7.5625,0.2811 3.85832,0.81865 5.8765,3.10833 6.46423,7.33384 0.51882,3.73017 -0.50025,7.19985 -2.67753,9.11637 l -1.13502,0.9991 2.14905,6.44738 c 1.182,3.54606 2.14907,6.53451 2.14907,6.64099 0,0.10648 -1.8153,0.1627 -4.034,0.12491 l -4.03398,-0.0687 -1.76482,-5.8125 -1.7648,-5.8125 H 263.8262 263 v 5.875 5.875 h -3.75 -3.75 z m 11.51385,-2.50741 c 0.77597,-0.41529 1.23615,-1.60387 1.23615,-3.19287 0,-2.97685 -0.81038,-3.79972 -3.74198,-3.79972 H 263 v 3.625 3.625 h 1.76643 c 0.97154,0 1.98287,-0.11584 2.24742,-0.25741 z m 10.07835,17.45142 c 0.0847,-0.31296 1.73547,-6.70026 3.66845,-14.19401 1.933,-7.49375 3.68157,-14.21846 3.88575,-14.9438 l 0.37122,-1.31881 3.9191,0.0688 3.91908,0.0688 3.93545,15.25 c 2.1645,8.3875 3.9407,15.33723 3.9471,15.44385 0.006,0.10662 -1.75518,0.16286 -3.91463,0.125 l -3.9263,-0.0688 -0.44487,-2.25 c -0.24468,-1.2375 -0.505,-2.50312 -0.57848,-2.8125 -0.12892,-0.54284 -0.23372,-0.5625 -2.99907,-0.5625 -2.76535,0 -2.87015,0.0196 -2.99908,0.5625 -0.0735,0.30938 -0.3338,1.575 -0.57847,2.8125 l -0.44488,2.25 -3.95715,0.069 -3.95715,0.069 z m 13.2631,-12.13151 c -0.0727,-0.37812 -0.45328,-2.4875 -0.8457,-4.6875 -0.3924,-2.2 -0.72398,-3.8875 -0.7368,-3.75 -0.0128,0.1375 -0.36073,2.20154 -0.77308,4.58675 -0.41235,2.38521 -0.74972,4.38209 -0.74972,4.4375 0,0.0554 0.72845,0.10075 1.61875,0.10075 h 1.61875 z M 302.75,127 v -15.5 h 3.875 3.875 v 12.125 12.125 h 4.75 4.75 v 3.375 3.375 h -8.625 -8.625 z M 0.91666675,103.33333 C 0.825,103.24167 0.75,102.45417 0.75,101.58333 V 100 H 1.5982527 C 2.1411258,100 2.5011363,99.85763 2.5982528,99.60455 2.6817138,99.38706 2.75,96.34956 2.75,92.85455 2.75,88.78485 2.8398903,86.5 3,86.5 c 0.1375,0 0.25,-0.23366 0.25,-0.51923 0,-0.28558 0.3288462,-0.84808 0.7307693,-1.25 C 4.8214217,83.89012 6.0550207,83.75705 7.255004,84.37759 8.1593105,84.84522 8.5,85.45572 8.5,86.60856 8.5,87.09885 8.6125,87.5 8.75,87.5 8.91,87.5 9,89.75 9,93.75 V 100 h 0.625 0.625 v -2.73167 c 0,-2.10527 -0.07844,-2.7502 -0.34208,-2.8125 -0.2761025,-0.0652 -0.235993,-0.43848 0.207955,-1.93512 0.59495,-2.00572 0.536863,-1.94065 3.709823,-4.15593 l 1.950697,-1.36192 2.674302,1.88446 c 2.672935,1.88349 2.67459,1.88531 3.236803,3.54727 0.665785,1.96813 0.674617,2.06541 0.1875,2.06541 -0.3,0 -0.375,0.375 -0.375,1.875 v 1.875 h 1 c 0.97619,0 1,-0.0208 1,-0.875 0,-0.75658 0.08108,-0.875 0.599105,-0.875 0.560962,0 0.619498,-0.13706 0.91938,-2.15273 0.296602,-1.99363 0.287547,-2.17103 -0.12253,-2.40053 -0.604675,-0.33839 -1.128068,-1.67761 -0.972893,-2.48935 0.320776,-1.67802 2.122785,-2.27044 3.239845,-1.06511 0.327385,0.35325 0.524543,0.75667 0.43813,0.89649 -0.10408,0.1684 0.31648,0.19504 1.245925,0.0789 L 30.25,89.19239 v 0.92578 0.92578 l -1.0625,-0.17759 c -0.584375,-0.0977 -1.145153,-0.30444 -1.246173,-0.45948 -0.132655,-0.20358 -0.184735,-0.19824 -0.1875,0.0192 -0.002,0.16563 -0.27093,0.56824 -0.597387,0.8947 l -0.593563,0.59356 0.46472,2.9803 c 0.255595,1.63917 0.466448,3.06468 0.46856,3.16781 0.002,0.10312 0.483773,0.1875 1.070355,0.1875 h 1.066513 l 0.478007,-2.00634 c 0.652248,-2.73768 1.252713,-3.11927 1.76032,-1.11866 l 0.190295,0.75 0.241585,-0.75 c 0.13287,-0.41251 0.40025,-1.10451 0.594175,-1.53779 0.193925,-0.43328 0.35617,-0.93953 0.360543,-1.125 0.0044,-0.18547 0.177565,-0.56167 0.384872,-0.836 0.32373,-0.42839 0.410818,-0.44603 0.617115,-0.125 0.132108,0.20558 0.356693,0.82378 0.499083,1.37379 0.44084,1.70282 1.207077,3.54981 1.224765,2.95225 0.04392,-1.48375 0.93879,-0.14153 1.38469,2.07691 0.145647,0.72463 0.247587,0.79009 1.456567,0.93532 2.323833,0.27917 2.603645,0.22868 2.787265,-0.50292 0.21246,-0.8465 -0.265077,-2.05555 -1.09212,-2.76508 C 39.80639,94.95911 39.21358,94.8681 38.483565,95.25879 38.110397,95.4585 38,95.43607 38,95.16054 c 0,-0.19638 -0.180475,-0.42631 -0.401053,-0.51095 -0.29968,-0.115 -0.377052,-0.40559 -0.306097,-1.14961 0.05222,-0.54765 -0.02043,-1.04436 -0.161448,-1.10382 -0.155892,-0.0657 -0.126662,-0.19932 0.07457,-0.3408 0.273993,-0.19265 0.27269,-0.29276 -0.0076,-0.58153 C 37.012177,91.28197 36.70235,90.61874 36.509867,90 36.317387,89.38124 36.07087,88.75483 35.962052,88.60796 35.711877,88.27028 36.408432,87.25 36.88915,87.25 c 0.198455,0 0.360825,-0.1575 0.360825,-0.35 0,-0.1925 0.376267,-0.72687 0.83615,-1.1875 0.501712,-0.50252 0.905502,-1.20866 1.00954,-1.76546 0.151787,-0.81236 0.281202,-0.94819 1.03885,-1.09033 C 40.610542,82.76742 41,82.58679 41,82.45533 c 0,-0.13146 0.241177,-0.16248 0.535947,-0.0689 0.29477,0.0936 1.182863,0.2033 1.97354,0.24389 C 44.937652,82.7036 46,83.06835 46,83.48539 c 0,0.11979 0.207782,0.16346 0.461737,0.097 0.336315,-0.0879 0.548275,0.0882 0.78033,0.64841 C 47.417292,84.65388 47.659512,85 47.78033,85 47.901147,85 48,85.266 48,85.59112 c 0,0.32512 0.332227,0.97164 0.738285,1.43672 0.46799,0.53601 0.651045,0.93283 0.5,1.08387 C 49.107227,88.24277 49,88.56008 49,88.81685 c 0,0.35307 -0.121848,0.42817 -0.5,0.30815 -0.510788,-0.16212 -0.70213,0.22057 -0.25,0.5 0.38194,0.23605 0.310482,1.2017 -0.0779,1.05267 -0.23431,-0.0899 -0.299255,0.0693 -0.227542,0.55793 0.05519,0.37608 -0.05038,0.84254 -0.234603,1.03659 C 47.349565,92.65179 47.226815,94 47.552645,94 47.66119,94 47.75,94.16875 47.75,94.375 c 0,0.42035 -0.636288,0.51125 -0.875,0.125 -0.08498,-0.1375 -0.288495,-0.24112 -0.452255,-0.23026 -0.214688,0.0142 -0.210573,0.0549 0.01475,0.14583 C 46.945237,94.62045 46.794405,95 46.205245,95 c -1.818808,0 -3.115265,1.39473 -2.154833,2.31817 0.424838,0.40847 0.473413,0.41062 0.62046,0.0274 0.14618,-0.38094 0.186988,-0.3782 0.48745,0.0327 0.315348,0.43127 0.334508,0.43127 0.5,0 0.161605,-0.42114 0.191123,-0.42241 0.484695,-0.0209 0.293415,0.40127 0.328288,0.39959 0.56798,-0.0274 0.244653,-0.43585 0.262623,-0.43613 0.428075,-0.007 0.165193,0.42881 0.193925,0.42908 0.660963,0.006 0.455897,-0.41258 0.535495,-0.41476 1.200847,-0.0329 0.661283,0.37953 0.724113,0.37906 0.872663,-0.006 0.14558,-0.37778 0.183197,-0.3742 0.415447,0.0396 0.24694,0.43992 0.26643,0.43992 0.590333,0 0.3223,-0.43775 0.34201,-0.43674 0.521532,0.0268 0.176798,0.45649 0.194913,0.45794 0.345818,0.0277 0.08759,-0.24969 0.65854,-0.64109 1.268785,-0.86979 0.787462,-0.29511 1.088212,-0.53902 1.036075,-0.84024 -0.05449,-0.31482 0.106927,-0.42542 0.625,-0.42826 0.496672,-0.003 0.598635,-0.067 0.352927,-0.22267 -0.277237,-0.17559 -0.252532,-0.24978 0.125,-0.3754 0.258793,-0.0861 0.670088,-0.55823 0.91399,-1.04918 0.43378,-0.87314 0.432415,-0.89551 -0.0625,-1.02493 C 55.72768,92.50122 55.5,92.28958 55.5,92.10369 c 0,-0.18959 0.15619,-0.27806 0.35572,-0.2015 0.361945,0.1389 0.412843,-0.46696 0.06818,-0.81162 C 55.60332,90.76999 55.745655,90.5 56.235245,90.5 c 0.700885,0 0.91745,-0.52005 0.380167,-0.91292 C 56.20309,89.28558 56.19906,89.25 56.577218,89.25 56.809747,89.25 57,89.08125 57,88.875 57,88.66875 57.164792,88.5 57.366205,88.5 c 0.400267,0 0.957495,-0.84297 0.71652,-1.08394 C 57.829752,87.16309 57.779887,86 58.022015,86 58.147407,86 58.25,85.78704 58.25,85.52675 c 0,-0.26029 0.16485,-0.53652 0.366332,-0.61383 0.400478,-0.15368 0.87974,1.1498 0.882273,2.39958 C 59.499605,87.83287 59.62155,88 60,88 c 0.51189,0 0.591388,0.18926 0.507168,1.20744 -0.0265,0.32035 0.126322,0.7141 0.339602,0.875 0.297257,0.22426 0.340803,0.49682 0.186532,1.16756 -0.274397,1.19305 -0.137035,1.45788 0.852458,1.64351 l 0.84937,0.15935 -0.67904,0.89026 c -0.672255,0.88137 -0.673058,0.88707 -0.08018,0.56977 0.589367,-0.31542 0.596535,-0.30617 0.452193,0.58331 C 62.299362,95.88952 62.344373,96 62.79633,96 c 0.429338,0 0.46318,0.0623 0.20367,0.375 -0.187465,0.22588 -0.208045,0.375 -0.05175,0.375 0.143877,0 0.244275,0.47244 0.225357,1.06047 -0.0265,0.82395 0.0625,1.07908 0.399053,1.14389 0.394335,0.0759 0.418307,-0.11436 0.267442,-2.12297 -0.09115,-1.21351 -0.271207,-2.27546 -0.400135,-2.35988 -0.128927,-0.0844 0.109098,-0.54473 0.528945,-1.0229 0.911742,-1.03842 1.28109,-1.92926 1.28109,-3.08988 0,-0.74931 0.07964,-0.85873 0.625,-0.85873 0.4947,0 0.625,0.12629 0.625,0.60574 v 0.60573 l 1.785287,-0.50522 c 0.981908,-0.27787 2.517706,-0.7809 3.412888,-1.11785 0.89518,-0.33694 1.712637,-0.5228 1.816572,-0.41301 0.103936,0.10978 0.552483,1.21211 0.996773,2.44961 0.75002,2.08906 0.803915,2.45118 0.753457,5.0625 L 75.210635,99 H 76.480317 77.75 L 77.73243,94.8125 C 77.72273,92.50937 77.62417,90.4 77.513327,90.125 c -0.112324,-0.27868 -0.09589,-0.63243 0.03713,-0.79918 0.13126,-0.16454 0.273095,-0.7609 0.315185,-1.32524 0.04209,-0.56434 0.14579,-1.09534 0.230445,-1.17999 0.08466,-0.0847 0.15392,-0.64504 0.15392,-1.24529 0,-1.56223 0.566485,-2.76971 1.39722,-2.97822 1.21523,-0.305 2.043015,0.7042 2.22707,2.71514 0.0535,0.58453 0.219857,2.0178 0.369687,3.18505 0.186623,1.45389 0.1911,2.14937 0.01422,2.20833 -0.150328,0.0501 -0.258197,0.96515 -0.258197,2.19023 0,2.40176 -0.21272,2.24939 2.713327,1.94355 1.486253,-0.15534 1.536673,-0.18405 1.536673,-0.875 L 86.25,93.25 h 3.57523 3.575233 l 1.799767,-1.52624 c 1.797875,-1.52463 1.799778,-1.5276 1.80772,-2.8125 0.0045,-0.7323 0.16603,-1.49526 0.375,-1.77154 C 97.65343,86.78211 97.75,85.93917 97.75,83.93578 97.75,81.04642 97.96798,80.25 98.758795,80.25 99.11608,80.25 99.25,80.0796 99.25,79.625 99.25,79.125 99.125,79 98.625,79 98.28125,79 98,78.8875 98,78.75 c 0,-0.1375 0.28125,-0.25 0.625,-0.25 0.54762,0 0.625,-0.10833 0.625,-0.875 0,-0.48125 0.1125,-0.875 0.25,-0.875 0.1375,0 0.25,0.39375 0.25,0.875 0,0.76667 0.07738,0.875 0.625,0.875 0.34375,0 0.625,0.1125 0.625,0.25 0,0.1375 -0.28125,0.25 -0.625,0.25 -0.5,0 -0.625,0.125 -0.625,0.625 0,0.46338 0.132505,0.625 0.51242,0.625 0.28182,0 0.84432,0.17164 1.25,0.38142 l 0.73758,0.38142 v 2.82584 2.82585 l 1.23905,0.58034 1.23904,0.58034 0.0735,1.49419 0.0734,1.4942 3,1.33625 c 1.65,0.73494 3.14063,1.33938 3.3125,1.3432 0.24053,0.005 0.3125,-1.23101 0.3125,-5.36805 V 82.75 h 1.70966 1.70966 l 0.1649,-7.6875 c 0.0907,-4.22812 0.1651,-9.29062 0.16534,-11.25 L 115.25,60.25 h 0.58642 c 0.57606,0 0.58929,-0.0563 0.74899,-3.1875 0.0894,-1.75312 0.16302,-4.73438 0.16358,-6.625 7.5e-4,-2.88844 0.0609,-3.4375 0.37601,-3.4375 0.26191,0 0.375,-0.26389 0.375,-0.875 0,-0.61111 0.1131,-0.875 0.375,-0.875 0.20625,0 0.375,-0.15623 0.375,-0.34718 0,-0.19884 0.37386,-0.41731 0.875,-0.51133 0.784,-0.14708 0.87494,-0.24747 0.87442,-0.96532 l -5e-4,-0.80117 2.12558,0.0809 2.12559,0.0809 v 0.73163 c 0,0.40239 0.1125,0.73163 0.25,0.73163 0.1375,0 0.25,0.16875 0.25,0.375 0,0.23082 0.23441,0.375 0.60968,0.375 0.53092,0 0.63147,0.14532 0.77838,1.125 0.0967,0.64498 0.30236,1.125 0.48194,1.125 0.2286,0 0.28984,0.45599 0.22665,1.6875 -0.0476,0.92813 -0.13371,4.02188 -0.19131,6.875 -0.11896,5.89218 -0.34459,5.33913 2.12489,5.20843 l 1.15524,-0.0611 -0.12875,6.27011 -0.12876,6.2701 h 0.53602 c 0.36935,0 0.53602,0.15547 0.53602,0.5 0,0.58391 0.69675,0.67966 0.90959,0.125 0.18129,-0.47242 0.82021,-0.46892 1.45069,0.008 0.2669,0.20188 0.68053,0.36705 0.91917,0.36705 0.23864,0 0.48533,0.19687 0.54821,0.4375 0.086,0.32923 0.12151,0.29829 0.14334,-0.125 0.0256,-0.4957 0.16259,-0.5625 1.154,-0.5625 h 1.125 l -0.002,-1.0625 c -0.005,-2.20887 0.52249,-18.3904 0.65572,-20.125 l 0.13921,-1.8125 h 1.19525 1.19525 l 0.15652,-4.0625 c 0.0861,-2.23438 0.22937,-6.62188 0.31843,-9.75 l 0.1619,-5.6875 h 0.80086 0.80086 l 0.1633,-3.9375 c 0.0898,-2.16562 0.16368,-5.25937 0.16414,-6.875 L 142.75,18 h 0.71808 0.71808 l 0.18199,-4.5 C 144.55612,8.85248 145,7.27182 145,11.25 c 0,2.02415 0.0465,2.25 0.46343,2.25 0.42814,0 0.47627,-0.34737 0.63215,-4.5625 C 146.32761,2.66314 146.5333,0 146.78587,0 146.90364,0 147,2.1375 147,4.75 c 0,3 0.0921,4.75 0.25,4.75 0.15384,0 0.25,1.25 0.25,3.25 0,2.5592 0.0716,3.25 0.33697,3.25 0.25788,0 0.37735,-0.80466 0.50902,-3.42832 0.10894,-2.17073 0.2791,-3.49448 0.46388,-3.60868 0.1945,-0.12021 0.32669,-1.47813 0.39637,-4.07168 C 149.26374,2.75109 149.39265,1 149.49269,1 c 0.2504,0 0.50446,4.17356 0.50602,8.3125 7.5e-4,1.89062 0.0997,3.4375 0.22004,3.4375 0.28031,0 0.53125,-1.25471 0.53125,-2.65625 C 150.75,9.49219 150.8625,9 151,9 c 0.15656,0 0.25,1.54167 0.25,4.125 v 4.125 h 0.60928 c 0.5411,0 0.59817,0.0909 0.50997,0.8125 -0.0546,0.44687 -0.15925,3.69646 -0.2325,7.22131 l -0.13319,6.40881 0.56072,0.15027 c 0.3084,0.0827 0.8701,0.15182 1.24822,0.1537 0.43898,0.002 0.6875,0.13725 0.6875,0.37365 0,0.20363 0.29268,0.44369 0.6504,0.53347 l 0.65039,0.16324 -0.16989,8.77902 c -0.0934,4.82847 -0.22496,8.9759 -0.29225,9.21653 -0.10467,0.37431 0.0568,0.4375 1.11757,0.4375 h 1.23992 l -0.0947,2.5625 c -0.0521,1.40937 -0.14194,4.84292 -0.1997,7.6301 l -0.10502,5.0676 0.80054,0.6106 0.80054,0.6106 0.29531,3.56987 c 0.16242,1.96343 0.41041,3.60824 0.5511,3.65514 0.14068,0.0469 0.25578,0.51059 0.25578,1.03044 0,0.93493 0.0126,0.94691 1.15989,1.10417 0.63795,0.0874 1.47387,0.15898 1.85762,0.15898 0.52479,0 0.72457,0.13941 0.80606,0.5625 0.0596,0.30938 0.12366,-0.23841 0.14239,-1.21729 l 0.034,-1.77979 0.9375,-0.15496 c 0.51562,-0.0852 1.28105,-0.15619 1.70096,-0.15771 0.83455,-0.003 2.24418,-1.24044 2.40023,-2.10703 0.1211,-0.67248 0.71747,-0.80117 0.87746,-0.18936 0.16097,0.61555 0.73184,0.46073 0.91739,-0.24881 0.13937,-0.53298 0.66646,-0.41475 0.66646,0.14949 0,0.36881 1.27648,0.63607 3.05774,0.64021 1.05412,0.002 1.19979,-0.0652 1.3396,-0.62225 0.22472,-0.89536 0.60266,-0.77122 0.60266,0.19795 0,0.64511 0.24311,1.06155 1.125,1.92705 l 1.125,1.1041 v -3.41229 c 0,-1.87677 0.0953,-3.47119 0.21174,-3.54317 0.11646,-0.072 0.28757,-2.30049 0.38025,-4.95225 0.28092,-8.03849 0.43819,-9.94639 0.81983,-9.94639 0.186,0 0.33818,0.1125 0.33818,0.25 0,0.1375 0.28125,0.25 0.625,0.25 0.58301,0 0.625,-0.0837 0.625,-1.24524 0,-1.11975 0.063,-1.26104 0.625,-1.4021 L 183,51.44579 V 48.2229 C 183,46.24096 183.0963,45 183.25,45 c 0.15321,0 0.2568,1.28255 0.26757,3.3125 0.011,2.08349 0.0973,3.12699 0.23243,2.8125 0.11817,-0.275 0.22276,-1.70938 0.23243,-3.1875 0.0105,-1.61329 0.1175,-2.6875 0.26757,-2.6875 0.15333,0 0.25,1.20833 0.25,3.125 V 51.5 h 0.84825 c 0.52338,0 0.90337,0.14362 0.99216,0.375 0.089,0.23203 0.46937,0.375 0.99758,0.375 1.02912,0 1.14549,-0.29656 1.17713,-3 0.0121,-1.03125 0.10632,-2.38125 0.20945,-3 l 0.18751,-1.125 0.16888,1.125 c 0.0929,0.61875 0.20626,1.575 0.25193,2.125 0.0457,0.55 0.10197,0.12812 0.12508,-0.9375 C 189.52767,44.22406 190,45.14993 190,48.5 c 0,2.07857 0.0875,3 0.28494,3 0.4781,0 0.94871,0.82975 0.95711,1.6875 0.005,0.55202 0.12817,0.8125 0.38295,0.8125 0.20625,0 0.375,-0.16875 0.375,-0.375 0,-0.20625 0.16875,-0.375 0.375,-0.375 0.32475,0 0.375,0.97546 0.375,7.27916 v 7.27915 l 0.5625,-0.15074 c 0.30937,-0.0829 1.04062,-0.15228 1.625,-0.15416 0.77626,-0.003 1.0625,-0.10444 1.0625,-0.37841 0,-0.31667 0.58333,-0.375 3.75,-0.375 2.98419,0 3.75,0.069 3.75,0.33799 0,0.24846 0.60324,0.37708 2.27719,0.48553 1.25246,0.0811 2.34428,0.21461 2.42627,0.29661 0.082,0.082 0.19535,0.87599 0.25193,1.76446 l 0.10286,1.61541 h 0.84587 c 0.58523,0 0.84588,0.11555 0.84588,0.375 0,0.28788 0.31944,0.375 1.375,0.375 H 213 v 4.375 4.375 l 1.6875,0.002 c 0.92812,0.001 2.43557,0.0724 3.34988,0.15881 l 1.66239,0.15702 0.17744,2.7162 c 0.17298,2.64804 0.19244,2.71622 0.77511,2.71622 0.32872,0 0.59768,-0.1125 0.59768,-0.25 0,-0.14815 0.91667,-0.25 2.25,-0.25 h 2.25 v 2.625 2.625 h 0.625 c 0.57407,0 0.625,-0.0917 0.625,-1.125 V 89 h 1 c 0.95045,0 1,0.0382 1,0.77083 0,0.42396 0.0935,0.73334 0.20776,0.6875 0.11427,-0.0458 1.19423,-0.528 2.39992,-1.07148 l 2.19215,-0.98814 1.50514,0.39213 c 1.285,0.33479 1.66525,0.34395 2.60008,0.0626 L 239,88.52391 v 0.69848 c 0,0.59424 0.14422,0.74167 0.9665,0.98804 1.26225,0.37818 1.2835,0.3747 1.2835,-0.21043 0,-0.36667 0.16667,-0.5 0.625,-0.5 0.5238,0 0.625,0.11806 0.625,0.72917 0,0.63218 0.14132,0.77919 1.0625,1.10526 0.73442,0.25997 0.88882,0.38219 0.5,0.39583 -0.83268,0.0292 -0.78463,1.19766 0.0625,1.51974 0.61677,0.2345 0.625,0.27558 0.625,3.11881 V 99.25 h 1 1 V 95.875 92.5 h -0.89583 c -0.49272,0 -0.85835,-0.0978 -0.8125,-0.21736 0.0458,-0.11955 1.1742,-1.13205 2.50748,-2.25 L 249.9733,88 h 4.78725 c 4.4671,0 4.83672,0.0352 5.5268,0.52659 0.68215,0.48574 0.77393,0.49544 1.18327,0.125 0.24405,-0.22088 0.54883,-0.40159 0.67728,-0.40159 0.12845,0 0.3446,-0.25312 0.48032,-0.5625 0.45168,-1.02956 3.77615,-1.47675 4.30778,-0.57946 0.10395,0.17543 0.44212,0.45185 0.7515,0.61426 0.30937,0.16241 0.56562,0.43196 0.56945,0.59899 0.004,0.16704 0.34132,0.63183 0.75,1.03288 0.40868,0.40104 0.74305,0.92621 0.74305,1.16705 0,0.70301 -0.28123,1.23899 -0.55978,1.06683 -0.16487,-0.10189 -0.20675,0.10084 -0.11647,0.56394 0.0775,0.39766 0.177,0.94801 0.2211,1.22301 0.0441,0.275 0.17682,0.57049 0.295,0.65665 0.11815,0.0862 0.065,0.57087 -0.11802,1.07714 -0.26583,0.7351 -0.43498,0.89487 -0.83986,0.79328 -0.48374,-0.12137 -0.4859,-0.11144 -0.0468,0.217 0.5399,0.40384 0.34673,1.50422 -0.22552,1.28463 -0.3554,-0.13638 -0.98523,0.34804 -1.1689,0.89904 -0.0772,0.23167 -0.27548,0.19925 -0.77233,-0.1263 -0.63792,-0.41798 -0.66827,-0.41774 -0.665,0.005 0.002,0.2438 0.0706,0.6939 0.1527,1.00024 0.14203,0.52988 0.2422,0.5505 2.05908,0.42416 1.0504,-0.073 2.27542,-0.18815 2.7223,-0.2558 L 271.5,99.22705 V 96.61338 C 271.5,94.13739 271.4728,94 270.9826,94 c -0.38545,0 -0.497,-0.135 -0.4375,-0.52944 0.0581,-0.38481 1.02017,-1.07554 3.522,-2.52856 l 3.44207,-1.99911 1.71658,0.90203 1.71655,0.90203 2.64472,-1.49848 c 1.4546,-0.82416 2.69983,-1.49847 2.76715,-1.49847 0.0673,0 1.15863,0.66558 2.42508,1.47906 l 2.30267,1.47906 1.2682,-0.85406 C 293.04762,89.38433 293.69262,89 293.78345,89 c 0.0908,0 1.15735,0.73125 2.37005,1.625 1.91077,1.4082 2.34885,1.625 3.28357,1.625 0.72815,0 1.12538,-0.12185 1.22253,-0.375 0.0791,-0.20625 0.27577,-0.375 0.43695,-0.375 0.1612,0 0.44907,-0.21646 0.63977,-0.48101 0.27353,-0.37952 0.77313,-0.51331 2.36768,-0.63405 2.51417,-0.19037 3.80727,0.2022 4.41817,1.34129 0.23008,0.429 0.70258,1.00359 1.05001,1.27688 0.75544,0.59424 1.92782,0.66837 1.92782,0.12189 0,-0.20625 0.16875,-0.375 0.375,-0.375 0.20625,0 0.375,0.16875 0.375,0.375 0,0.28873 0.32238,0.375 1.4014,0.375 1.1301,0 1.54523,-0.121 2.1442,-0.625 0.92328,-0.77689 1.4511,-0.79941 1.46505,-0.0625 0.006,0.30938 0.45283,1.06617 0.99323,1.68178 0.63677,0.72538 0.89697,1.20488 0.73935,1.3625 C 318.8575,95.99249 318.75,97.73543 318.75,99.8 v 3.7 H 159.91667 C 72.558333,103.5 1.0083332,103.425 0.91666675,103.33333 Z M 264.70335,98.9375 c -0.0591,-0.6129 -0.18583,-0.79445 -0.51585,-0.73904 -0.24063,0.0404 -0.4375,-0.044 -0.4375,-0.1875 0,-0.14353 -0.16875,-0.26096 -0.375,-0.26096 -0.27083,0 -0.375,0.27778 -0.375,1 0,0.97958 0.0183,1 0.89085,1 0.85445,0 0.88763,-0.0332 0.8125,-0.8125 z M 80.670777,87.95312 c -0.0798,-0.19943 -0.139044,-0.14019 -0.151039,0.15105 -0.01085,0.26354 0.04823,0.41119 0.131305,0.32812 0.08307,-0.0831 0.09195,-0.2987 0.01972,-0.47917 z"
     inkscape:connector-curvature="0" />
</svg>
