<?xml version="1.0" encoding="UTF-8" standalone="no"?>
<svg
   xmlns:dc="http://purl.org/dc/elements/1.1/"
   xmlns:cc="http://creativecommons.org/ns#"
   xmlns:rdf="http://www.w3.org/1999/02/22-rdf-syntax-ns#"
   xmlns:svg="http://www.w3.org/2000/svg"
   xmlns="http://www.w3.org/2000/svg"
   xmlns:sodipodi="http://sodipodi.sourceforge.net/DTD/sodipodi-0.dtd"
   xmlns:inkscape="http://www.inkscape.org/namespaces/inkscape"
   width="320"
   height="161.119"
   viewBox="0 0 320 161.11932"
   version="1.1"
   id="svg108"
   sodipodi:docname="logo-color.svg"
   inkscape:version="0.92.3 (2405546, 2018-03-11)">
  <metadata
     id="metadata114">
    <rdf:RDF>
      <cc:Work
         rdf:about="">
        <dc:format>image/svg+xml</dc:format>
        <dc:type
           rdf:resource="http://purl.org/dc/dcmitype/StillImage" />
      </cc:Work>
    </rdf:RDF>
  </metadata>
  <defs
     id="defs112" />
  <sodipodi:namedview
     pagecolor="#ffffff"
     bordercolor="#666666"
     borderopacity="1"
     objecttolerance="10"
     gridtolerance="10"
     guidetolerance="10"
     inkscape:pageopacity="0"
     inkscape:pageshadow="2"
     inkscape:window-width="1315"
     inkscape:window-height="713"
     id="namedview110"
     showgrid="false"
     inkscape:zoom="1.5114407"
     inkscape:cx="168.56266"
     inkscape:cy="75.625301"
     inkscape:window-x="51"
     inkscape:window-y="27"
     inkscape:window-maximized="1"
     inkscape:current-layer="svg108" />
  <title
     id="title2">LoopNaz Color Logo</title>
  <g
     id="g1128">
    <g
       id="g1076">
      <path
         d="m 154.7,120.86 c 0.24,0 0.46,0.14 0.46,0.3 v 0.64 c 0,0.16 -0.22,0.3 -0.47,0.3 h -16.24 c -0.25,0 -0.47,-0.14 -0.47,-0.3 v -0.64 c 0,-0.16 0.2,-0.3 0.46,-0.3 h 16.23 m -3.55,5.57 c 0,-0.08 0.06,-0.15 0.15,-0.15 h 3.18 c 0.1,0 0.15,0.07 0.15,0.15 v 0.44 c 0,0.1 -0.06,0.16 -0.15,0.16 h -2.5 v 1.62 h 2.1 c 0.1,0 0.16,0.07 0.16,0.15 v 0.45 c 0,0.1 -0.07,0.15 -0.15,0.15 h -2.13 v 1.7 h 2.5 c 0.1,0 0.16,0.08 0.16,0.16 v 0.44 c 0,0.08 -0.06,0.15 -0.15,0.15 h -3.18 c -0.1,0 -0.15,-0.07 -0.15,-0.15 v -5.27 m -7.3,0 c 0,-0.08 0.06,-0.15 0.14,-0.15 h 0.52 c 0.1,0 0.15,0.07 0.15,0.15 v 2.22 h 2.92 v -2.22 c 0,-0.08 0.05,-0.15 0.14,-0.15 h 0.52 c 0.08,0 0.15,0.07 0.15,0.15 v 5.27 c 0,0.08 -0.06,0.15 -0.14,0.15 h -0.52 c -0.1,0 -0.15,-0.07 -0.15,-0.15 v -2.3 h -2.93 v 2.3 c 0,0.08 -0.06,0.15 -0.15,0.15 H 144 c -0.1,0 -0.16,-0.07 -0.16,-0.15 v -5.27 m -4.33,0.6 h -1.28 c -0.1,0 -0.15,-0.07 -0.15,-0.16 v -0.44 c 0,-0.08 0.06,-0.15 0.15,-0.15 h 3.42 c 0.1,0 0.15,0.07 0.15,0.15 v 0.44 c 0,0.1 -0.07,0.16 -0.16,0.16 h -1.3 v 4.67 c 0,0.08 -0.07,0.15 -0.15,0.15 h -0.53 c -0.08,0 -0.16,-0.07 -0.16,-0.15 v -4.67 m 9.12,-14.14 c 0,-0.1 0.06,-0.16 0.15,-0.16 h 3.18 c 0.1,0 0.15,0.07 0.15,0.15 v 0.43 c 0,0.08 -0.06,0.16 -0.15,0.16 h -2.5 v 1.83 h 2.1 c 0.1,0 0.16,0.07 0.16,0.15 v 0.43 c 0,0.1 -0.06,0.17 -0.14,0.17 h -2.12 v 2.1 c 0,0.07 -0.08,0.14 -0.15,0.14 h -0.53 c -0.1,0 -0.15,-0.06 -0.15,-0.14 v -5.27 m -5.2,4.7 c 1.14,0 2.07,-0.93 2.07,-2.07 0,-1.13 -0.94,-2.08 -2.08,-2.08 -1.13,0 -2.06,0.95 -2.06,2.08 0,1.14 0.93,2.07 2.06,2.07 z m 0,-4.94 c 1.6,0 2.87,1.28 2.87,2.87 0,1.6 -1.3,2.86 -2.88,2.86 -1.6,0 -2.86,-1.28 -2.86,-2.87 0,-1.6 1.27,-2.87 2.86,-2.87 m 165.03,0.93 c 0,-0.27 0.2,-0.52 0.5,-0.52 h 10.54 c 0.3,0 0.5,0.25 0.5,0.5 v 0.8 c 0,0.26 -0.2,0.5 -0.5,0.5 h -9 v 6.52 h 7.68 c 0.27,0 0.5,0.24 0.5,0.5 v 0.78 c 0,0.3 -0.23,0.5 -0.5,0.5 h -7.67 v 6.83 h 9 c 0.3,0 0.5,0.25 0.5,0.52 v 0.78 c 0,0.26 -0.2,0.5 -0.5,0.5 h -10.54 c -0.3,0 -0.5,-0.24 -0.5,-0.5 v -17.7 m -23.65,-0.3 c 0,-0.27 0.24,-0.48 0.5,-0.48 h 0.68 l 12.06,15.03 c 0.03,0 0.03,0 0.05,0 V 113.6 c 0,-0.27 0.2,-0.52 0.5,-0.52 h 0.94 c 0.27,0 0.5,0.25 0.5,0.5 v 18 c 0,0.28 -0.23,0.5 -0.5,0.5 h -0.48 l -12.28,-15.33 h -0.02 v 14.55 c 0,0.26 -0.22,0.5 -0.5,0.5 h -0.95 c -0.26,0 -0.5,-0.24 -0.5,-0.5 v -18 m -18.77,0.3 c 0,-0.27 0.2,-0.52 0.5,-0.52 h 10.54 c 0.3,0 0.5,0.25 0.5,0.5 v 0.8 c 0,0.26 -0.2,0.5 -0.5,0.5 h -8.98 v 6.52 h 7.66 c 0.27,0 0.5,0.24 0.5,0.5 v 0.78 c 0,0.3 -0.23,0.5 -0.5,0.5 h -7.67 v 6.83 h 8.97 c 0.3,0 0.5,0.25 0.5,0.52 v 0.78 c 0,0.26 -0.2,0.5 -0.5,0.5 h -10.53 c -0.3,0 -0.5,-0.24 -0.5,-0.5 v -17.7 m -13.33,9.1 c 2.06,0 3.86,-1.7 3.86,-3.9 0,-2.02 -1.8,-3.76 -3.85,-3.76 h -5.18 v 7.67 z m -7.3,-9.1 c 0,-0.27 0.22,-0.52 0.52,-0.52 h 6.92 c 3.2,0 5.83,2.52 5.83,5.7 0,2.46 -1.63,4.52 -3.96,5.45 l 3.68,6.8 c 0.18,0.35 0,0.77 -0.46,0.77 h -1.36 c -0.24,0 -0.38,-0.13 -0.43,-0.24 l -3.56,-7.08 h -5.1 v 6.82 c 0,0.26 -0.25,0.5 -0.5,0.5 h -1.05 c -0.3,0 -0.5,-0.24 -0.5,-0.5 v -17.7 m -10.55,11.84 c -1.3,-2.92 -2.6,-5.86 -3.9,-8.77 h -0.22 l -3.9,8.77 z m -12.7,5.67 8.12,-18 c 0.07,-0.15 0.2,-0.28 0.45,-0.28 h 0.27 c 0.24,0 0.37,0.13 0.45,0.3 l 8.08,18 c 0.16,0.34 -0.06,0.68 -0.46,0.68 H 238 c -0.24,0 -0.4,-0.16 -0.45,-0.3 l -1.98,-4.4 h -9.5 l -1.96,4.4 c -0.05,0.14 -0.2,0.3 -0.45,0.3 h -1.08 c -0.4,0 -0.62,-0.34 -0.46,-0.7 m -16.58,-0.28 9.7,-15.78 v -0.08 h -8.4 c -0.28,0 -0.52,-0.24 -0.52,-0.5 v -0.87 c 0,-0.27 0.24,-0.52 0.5,-0.52 h 10.84 c 0.26,0 0.5,0.25 0.5,0.5 v 0.36 l -9.87,15.96 v 0.03 h 8.83 c 0.3,0 0.5,0.24 0.5,0.5 v 0.87 c 0,0.26 -0.2,0.5 -0.5,0.5 H 206.1 c -0.28,0 -0.52,-0.24 -0.52,-0.5 v -0.48 m -8.6,-5.38 c -1.32,-2.92 -2.6,-5.86 -3.92,-8.77 h -0.2 l -3.9,8.77 h 8 z m -12.7,5.67 8.12,-18 c 0.08,-0.15 0.2,-0.28 0.45,-0.28 h 0.27 c 0.24,0 0.37,0.13 0.45,0.3 l 8.08,18 c 0.16,0.34 -0.06,0.68 -0.46,0.68 h -1.08 c -0.24,0 -0.4,-0.16 -0.45,-0.3 l -1.98,-4.4 h -9.5 l -1.96,4.4 c -0.05,0.14 -0.2,0.3 -0.45,0.3 h -1.08 c -0.4,0 -0.62,-0.34 -0.45,-0.7 m -21.08,-17.8 c 0,-0.27 0.23,-0.48 0.5,-0.48 h 0.67 l 12.06,15.03 c 0.02,0 0.02,0 0.05,0 V 113.6 c 0,-0.27 0.2,-0.52 0.5,-0.52 h 0.94 c 0.27,0 0.5,0.25 0.5,0.5 v 18 c 0,0.28 -0.23,0.5 -0.5,0.5 h -0.48 l -12.27,-15.33 h -0.03 v 14.55 c 0,0.26 -0.2,0.5 -0.5,0.5 h -0.94 c -0.27,0 -0.5,-0.24 -0.5,-0.5 v -18 m -50.04,0 c 0,-0.26 0.24,-0.5 0.5,-0.5 h 1.05 c 0.3,0 0.52,0.24 0.52,0.5 v 7.82 h 10.86 v -7.8 c 0,-0.28 0.2,-0.52 0.5,-0.52 h 1.05 c 0.27,0 0.5,0.24 0.5,0.5 V 131 c 0,0.28 -0.23,0.52 -0.5,0.52 h -1.04 c -0.3,0 -0.52,-0.24 -0.52,-0.5 v -8.1 h -10.86 v 8.1 c 0,0.26 -0.2,0.5 -0.5,0.5 h -1.05 c -0.27,0 -0.5,-0.24 -0.5,-0.5 v -17.7 m -13.97,-0.8 c 2.7,0 4.65,0.95 6.47,2.5 0.22,0.2 0.24,0.54 0.03,0.75 l -0.72,0.72 c -0.22,0.26 -0.43,0.23 -0.7,-0.04 -1.4,-1.2 -3.3,-2 -5.1,-2 -4.23,0 -7.47,3.56 -7.47,7.7 0,4.12 3.25,7.67 7.47,7.67 2.33,0 3.7,-0.93 5.1,-2 0.28,-0.2 0.5,-0.2 0.65,-0.08 l 0.8,0.72 c 0.22,0.16 0.17,0.54 -0.02,0.72 -1.82,1.76 -4.12,2.6 -6.5,2.6 -5.35,0 -9.65,-4.27 -9.65,-9.6 0,-5.36 4.3,-9.67 9.65,-9.67 m -22,9.9 c 2.05,0 3.84,-1.7 3.84,-3.9 0,-2.04 -1.8,-3.78 -3.85,-3.78 H 72 v 7.68 h 5.2 z m -7.3,-9.12 c 0,-0.26 0.2,-0.5 0.5,-0.5 h 6.92 c 3.2,0 5.83,2.5 5.83,5.7 0,2.46 -1.63,4.52 -3.95,5.45 l 3.66,6.8 c 0.2,0.34 0,0.77 -0.46,0.77 h -1.36 c -0.24,0 -0.37,-0.13 -0.43,-0.24 l -3.54,-7.1 h -5.1 V 131 c 0,0.28 -0.25,0.52 -0.52,0.52 H 70.4 c -0.3,0 -0.5,-0.24 -0.5,-0.5 v -17.7 m -22.75,0 c 0,-0.28 0.24,-0.52 0.5,-0.52 h 1.03 c 0.3,0 0.5,0.24 0.5,0.5 v 11.16 c 0,3.05 1.9,5.43 5.03,5.43 3.17,0 5.1,-2.34 5.1,-5.4 v -11.2 c 0,-0.26 0.2,-0.5 0.5,-0.5 h 1.02 c 0.27,0 0.5,0.24 0.5,0.5 v 11.32 c 0,4.06 -2.88,7.17 -7.1,7.17 -4.2,0 -7.07,-3.12 -7.07,-7.18 v -11.3 m -23.53,0 c 0,-0.28 0.24,-0.52 0.5,-0.52 h 1.05 c 0.3,0 0.5,0.24 0.5,0.5 v 7.82 h 10.86 v -7.8 c 0,-0.28 0.22,-0.52 0.5,-0.52 h 1.05 c 0.27,0 0.5,0.24 0.5,0.5 V 131 c 0,0.28 -0.23,0.52 -0.5,0.52 h -1.04 c -0.3,0 -0.5,-0.24 -0.5,-0.5 v -8.1 H 25.67 v 8.1 c 0,0.26 -0.22,0.5 -0.5,0.5 H 24.1 c -0.26,0 -0.5,-0.24 -0.5,-0.5 v -17.7 m -13.97,-0.8 c 2.7,0 4.66,0.95 6.48,2.5 0.2,0.2 0.24,0.54 0.02,0.75 l -0.72,0.72 c -0.2,0.26 -0.43,0.23 -0.7,-0.04 -1.4,-1.2 -3.28,-2 -5.1,-2 -4.23,0 -7.46,3.56 -7.46,7.7 0,4.12 3.23,7.67 7.46,7.67 2.32,0 3.7,-0.93 5.1,-2 0.27,-0.2 0.5,-0.2 0.65,-0.08 l 0.8,0.72 c 0.2,0.16 0.16,0.54 -0.03,0.72 -1.82,1.76 -4.12,2.6 -6.5,2.6 -5.34,0 -9.65,-4.27 -9.65,-9.6 0,-5.36 4.3,-9.67 9.65,-9.67"
         id="path4"
         inkscape:connector-curvature="0" />
      <g
         font-size="40"
         letter-spacing="2.6"
         word-spacing="0"
         id="g56"
         style="font-size:40px;font-family:'raleway light';letter-spacing:2.5999999;word-spacing:0">
        <g
           id="g32">
          <path
             d="m 0.9,153.56 q 0,-1.32 0.46,-2.62 0.48,-1.32 1.37,-2.35 0.88,-1.05 2.16,-1.7 1.3,-0.65 2.95,-0.65 1.96,0 3.34,0.9 1.38,0.9 2.06,2.3 l -0.87,0.5 q -0.4,-0.77 -0.94,-1.28 -0.52,-0.52 -1.14,-0.83 -0.6,-0.33 -1.26,-0.47 -0.66,-0.15 -1.3,-0.15 -1.4,0 -2.47,0.58 -1.1,0.56 -1.83,1.47 -0.74,0.9 -1.14,2.06 -0.37,1.14 -0.37,2.3 0,1.3 0.46,2.47 0.45,1.18 1.23,2.1 0.8,0.88 1.86,1.4 1.1,0.55 2.33,0.55 0.66,0 1.36,-0.17 0.7,-0.16 1.33,-0.5 0.64,-0.36 1.2,-0.9 0.56,-0.56 0.93,-1.3 l 0.9,0.43 q -0.37,0.84 -1,1.48 -0.65,0.64 -1.43,1.07 -0.78,0.44 -1.67,0.66 -0.87,0.22 -1.72,0.22 -1.5,0 -2.76,-0.66 -1.24,-0.66 -2.15,-1.72 -0.9,-1.07 -1.43,-2.4 -0.5,-1.37 -0.5,-2.78 z"
             style="line-height:1.25;-inkscape-font-specification:'raleway light, '"
             id="path6"
             inkscape:connector-curvature="0" />
          <path
             d="m 23.18,161.1 q -1.53,0 -2.8,-0.64 -1.25,-0.64 -2.15,-1.67 -0.9,-1.05 -1.4,-2.4 -0.5,-1.33 -0.5,-2.73 0,-1.47 0.5,-2.8 0.55,-1.36 1.46,-2.4 0.92,-1.02 2.18,-1.62 1.26,-0.62 2.72,-0.62 1.53,0 2.8,0.66 1.27,0.63 2.16,1.7 0.9,1.04 1.4,2.38 0.5,1.32 0.5,2.7 0,1.47 -0.54,2.8 -0.52,1.36 -1.44,2.4 -0.9,1 -2.17,1.62 -1.25,0.6 -2.72,0.6 z m -5.8,-7.43 q 0,1.25 0.4,2.43 0.45,1.16 1.2,2.07 0.8,0.88 1.87,1.42 1.07,0.53 2.35,0.53 1.32,0 2.38,-0.56 1.07,-0.56 1.8,-1.47 0.78,-0.92 1.2,-2.08 0.4,-1.16 0.4,-2.35 0,-1.26 -0.43,-2.42 -0.43,-1.18 -1.22,-2.07 -0.76,-0.9 -1.82,-1.44 -1.04,-0.54 -2.3,-0.54 -1.32,0 -2.4,0.56 -1.07,0.56 -1.83,1.5 -0.77,0.9 -1.18,2.05 -0.42,1.17 -0.42,2.37 z"
             style="line-height:1.25;-inkscape-font-specification:'raleway light, '"
             id="path8"
             inkscape:connector-curvature="0" />
          <path
             d="m 47.52,161 v -12.68 l -5.78,9.9 h -0.66 l -5.78,-9.9 V 161 h -1.05 v -14.67 h 1.05 l 6.1,10.5 6.12,-10.5 h 1.06 V 161 Z"
             style="line-height:1.25;-inkscape-font-specification:'raleway light, '"
             id="path10"
             inkscape:connector-curvature="0" />
          <path
             d="m 53.78,161 v -14.67 h 6.03 q 0.94,0 1.72,0.4 0.8,0.4 1.34,1.05 0.58,0.64 0.9,1.47 0.32,0.8 0.32,1.63 0,0.9 -0.3,1.7 -0.3,0.84 -0.85,1.48 -0.54,0.64 -1.3,1.03 -0.77,0.36 -1.7,0.36 h -5.1 V 161 Z m 1.05,-6.5 h 5.06 q 0.7,0 1.3,-0.3 0.57,-0.3 0.96,-0.8 0.4,-0.52 0.62,-1.16 0.23,-0.66 0.23,-1.36 0,-0.73 -0.26,-1.37 -0.25,-0.65 -0.7,-1.14 -0.44,-0.5 -1.03,-0.8 -0.57,-0.28 -1.23,-0.28 h -4.94 z"
             style="line-height:1.25;-inkscape-font-specification:'raleway light, '"
             id="path12"
             inkscape:connector-curvature="0" />
          <path
             d="m 71.62,146.33 h 0.9 l 6.2,14.67 h -1.1 l -2.05,-4.84 h -7 L 66.52,161 H 65.4 Z m 3.66,8.97 -3.2,-7.7 -3.27,7.7 z"
             style="line-height:1.25;-inkscape-font-specification:'raleway light, '"
             id="path14"
             inkscape:connector-curvature="0" />
          <path
             d="m 90.6,148.77 q -1.43,-1.6 -4.03,-1.6 -2.14,0 -3.14,0.84 -0.97,0.8 -0.97,2.2 0,0.7 0.25,1.17 0.26,0.46 0.78,0.8 0.53,0.32 1.34,0.55 0.8,0.22 1.94,0.47 1.18,0.24 2.13,0.55 0.96,0.3 1.62,0.74 0.68,0.45 1.03,1.1 0.37,0.67 0.37,1.64 0,0.97 -0.4,1.7 -0.36,0.7 -1.06,1.2 -0.7,0.48 -1.66,0.73 -0.95,0.25 -2.12,0.25 -3.43,0 -5.8,-2.2 l 0.55,-0.84 q 0.93,0.97 2.27,1.55 1.35,0.56 3.02,0.56 1.92,0 3,-0.7 1.1,-0.7 1.1,-2.14 0,-0.72 -0.3,-1.22 -0.3,-0.5 -0.87,-0.88 -0.56,-0.38 -1.42,-0.65 -0.87,-0.25 -2.03,-0.5 -1.18,-0.25 -2.08,-0.52 -0.9,-0.3 -1.5,-0.7 -0.6,-0.43 -0.92,-1.03 -0.3,-0.6 -0.3,-1.5 0,-1 0.36,-1.76 0.4,-0.78 1.08,-1.3 0.68,-0.53 1.63,-0.8 0.95,-0.27 2.1,-0.27 1.43,0 2.54,0.44 1.13,0.4 2.04,1.28 z"
             style="line-height:1.25;-inkscape-font-specification:'raleway light, '"
             id="path16"
             inkscape:connector-curvature="0" />
          <path
             d="m 104.44,148.77 q -1.42,-1.6 -4.02,-1.6 -2.15,0 -3.14,0.84 -0.97,0.8 -0.97,2.2 0,0.7 0.26,1.17 0.24,0.46 0.76,0.8 0.54,0.32 1.34,0.55 0.8,0.22 1.94,0.47 1.18,0.24 2.13,0.55 0.97,0.3 1.63,0.74 0.68,0.45 1.03,1.1 0.37,0.67 0.37,1.64 0,0.97 -0.4,1.7 -0.37,0.7 -1.07,1.2 -0.68,0.48 -1.65,0.73 -0.95,0.25 -2.13,0.25 -3.43,0 -5.8,-2.2 l 0.56,-0.84 q 0.93,0.97 2.27,1.55 1.34,0.56 3,0.56 1.93,0 3,-0.7 1.1,-0.7 1.1,-2.14 0,-0.72 -0.3,-1.22 -0.28,-0.5 -0.86,-0.88 -0.56,-0.38 -1.43,-0.65 -0.87,-0.25 -2.02,-0.5 -1.18,-0.25 -2.1,-0.52 -0.88,-0.3 -1.5,-0.7 -0.6,-0.43 -0.9,-1.03 -0.32,-0.6 -0.32,-1.5 0,-1 0.38,-1.76 0.4,-0.78 1.08,-1.3 0.68,-0.53 1.63,-0.8 0.96,-0.27 2.12,-0.27 1.42,0 2.54,0.44 1.1,0.4 2.02,1.28 z"
             style="line-height:1.25;-inkscape-font-specification:'raleway light, '"
             id="path18"
             inkscape:connector-curvature="0" />
          <path
             d="m 109.76,161 v -14.67 h 1.05 V 161 Z"
             style="line-height:1.25;-inkscape-font-specification:'raleway light, '"
             id="path20"
             inkscape:connector-curvature="0" />
          <path
             d="m 121.83,161.1 q -1.53,0 -2.8,-0.64 -1.25,-0.64 -2.16,-1.67 -0.9,-1.05 -1.4,-2.4 -0.5,-1.33 -0.5,-2.73 0,-1.47 0.52,-2.8 0.52,-1.36 1.43,-2.4 0.93,-1.02 2.2,-1.62 1.25,-0.62 2.72,-0.62 1.52,0 2.78,0.66 1.28,0.63 2.17,1.7 0.9,1.04 1.4,2.38 0.5,1.32 0.5,2.7 0,1.47 -0.53,2.8 -0.52,1.36 -1.45,2.4 -0.9,1 -2.17,1.62 -1.26,0.6 -2.72,0.6 z m -5.8,-7.43 q 0,1.25 0.4,2.43 0.44,1.16 1.2,2.07 0.8,0.88 1.86,1.42 1.07,0.53 2.35,0.53 1.32,0 2.37,-0.56 1.08,-0.56 1.82,-1.47 0.76,-0.92 1.18,-2.08 0.4,-1.16 0.4,-2.35 0,-1.26 -0.43,-2.42 -0.44,-1.18 -1.22,-2.07 -0.77,-0.9 -1.82,-1.44 -1.05,-0.54 -2.3,-0.54 -1.33,0 -2.4,0.56 -1.08,0.56 -1.85,1.5 -0.75,0.9 -1.16,2.05 -0.42,1.17 -0.42,2.37 z"
             style="line-height:1.25;-inkscape-font-specification:'raleway light, '"
             id="path22"
             inkscape:connector-curvature="0" />
          <path
             d="M 133.95,148.32 V 161 h -1.06 v -14.67 h 0.8 l 10.28,12.9 v -12.9 h 1.05 V 161 h -0.97 z"
             style="line-height:1.25;-inkscape-font-specification:'raleway light, '"
             id="path24"
             inkscape:connector-curvature="0" />
          <path
             d="m 154.8,146.33 h 0.92 l 6.2,14.67 h -1.12 l -2.05,-4.84 h -7 L 149.7,161 h -1.13 z m 3.66,8.97 -3.2,-7.7 -3.26,7.7 z"
             style="line-height:1.25;-inkscape-font-specification:'raleway light, '"
             id="path26"
             inkscape:connector-curvature="0" />
          <path
             d="m 174.3,147.28 h -5.38 V 161 h -1.05 v -13.72 h -5.37 v -0.95 h 11.8 z"
             style="line-height:1.25;-inkscape-font-specification:'raleway light, '"
             id="path28"
             inkscape:connector-curvature="0" />
          <path
             d="M 187.66,160.05 V 161 h -9.77 v -14.67 h 9.57 v 0.95 h -8.52 v 5.77 h 7.45 v 0.9 h -7.45 v 6.1 z"
             style="line-height:1.25;-inkscape-font-specification:'raleway light, '"
             id="path30"
             inkscape:connector-curvature="0" />
        </g>
        <g
           id="g54">
          <path
             d="m 211.8,161 v -12.68 l -5.78,9.9 h -0.66 l -5.78,-9.9 V 161 h -1.06 v -14.67 h 1.06 l 6.1,10.5 6.12,-10.5 h 1.06 V 161 Z"
             style="line-height:1.25;-inkscape-font-specification:'raleway light, '"
             id="path34"
             inkscape:connector-curvature="0" />
          <path
             d="m 218.06,161 v -14.67 h 1.05 V 161 Z"
             style="line-height:1.25;-inkscape-font-specification:'raleway light, '"
             id="path36"
             inkscape:connector-curvature="0" />
          <path
             d="M 225.33,148.32 V 161 h -1.05 v -14.67 h 0.8 l 10.3,12.9 v -12.9 h 1.04 V 161 h -0.97 z"
             style="line-height:1.25;-inkscape-font-specification:'raleway light, '"
             id="path38"
             inkscape:connector-curvature="0" />
          <path
             d="m 241.6,161 v -14.67 h 1.04 V 161 Z"
             style="line-height:1.25;-inkscape-font-specification:'raleway light, '"
             id="path40"
             inkscape:connector-curvature="0" />
          <path
             d="m 256.34,148.77 q -1.42,-1.6 -4.03,-1.6 -2.13,0 -3.12,0.84 -0.98,0.8 -0.98,2.2 0,0.7 0.25,1.17 0.25,0.46 0.77,0.8 0.53,0.32 1.34,0.55 0.8,0.22 1.94,0.47 1.18,0.24 2.13,0.55 0.97,0.3 1.63,0.74 0.68,0.45 1.03,1.1 0.36,0.67 0.36,1.64 0,0.97 -0.4,1.7 -0.36,0.7 -1.06,1.2 -0.7,0.48 -1.66,0.73 -0.95,0.25 -2.12,0.25 -3.43,0 -5.8,-2.2 l 0.55,-0.84 q 0.93,0.97 2.27,1.55 1.35,0.56 3.02,0.56 1.92,0 3,-0.7 1.1,-0.7 1.1,-2.14 0,-0.72 -0.3,-1.22 -0.3,-0.5 -0.87,-0.88 -0.57,-0.38 -1.43,-0.65 -0.87,-0.25 -2.03,-0.5 -1.17,-0.25 -2.08,-0.52 -0.9,-0.3 -1.5,-0.7 -0.6,-0.43 -0.92,-1.03 -0.3,-0.6 -0.3,-1.5 0,-1 0.36,-1.76 0.4,-0.78 1.08,-1.3 0.68,-0.53 1.63,-0.8 0.96,-0.27 2.1,-0.27 1.44,0 2.55,0.44 1.12,0.4 2.03,1.28 z"
             style="line-height:1.25;-inkscape-font-specification:'raleway light, '"
             id="path42"
             inkscape:connector-curvature="0" />
          <path
             d="m 271.78,147.28 h -5.37 V 161 h -1.04 V 147.28 H 260 v -0.95 h 11.78 z"
             style="line-height:1.25;-inkscape-font-specification:'raleway light, '"
             id="path44"
             inkscape:connector-curvature="0" />
          <path
             d="m 275.38,161 v -14.67 h 6.1 q 0.92,0 1.7,0.4 0.8,0.4 1.35,1.05 0.58,0.64 0.9,1.47 0.32,0.8 0.32,1.63 0,0.8 -0.25,1.57 -0.25,0.74 -0.7,1.34 -0.46,0.6 -1.1,0.98 -0.64,0.4 -1.4,0.52 l 3.65,5.7 h -1.22 l -3.55,-5.54 h -4.75 V 161 Z m 1.05,-6.5 h 5.15 q 0.7,0 1.28,-0.32 0.57,-0.3 1,-0.8 0.4,-0.52 0.6,-1.16 0.23,-0.66 0.23,-1.34 0,-0.7 -0.28,-1.34 -0.24,-0.67 -0.7,-1.16 -0.43,-0.5 -1.03,-0.8 -0.6,-0.3 -1.27,-0.3 h -5 z"
             style="line-height:1.25;-inkscape-font-specification:'raleway light, '"
             id="path46"
             inkscape:connector-curvature="0" />
          <path
             d="m 290.1,161 v -14.67 h 1.07 V 161 Z"
             style="line-height:1.25;-inkscape-font-specification:'raleway light, '"
             id="path48"
             inkscape:connector-curvature="0" />
          <path
             d="M 306.1,160.05 V 161 h -9.77 v -14.67 h 9.6 v 0.95 h -8.54 v 5.77 h 7.44 v 0.9 h -7.45 v 6.1 z"
             style="line-height:1.25;-inkscape-font-specification:'raleway light, '"
             id="path50"
             inkscape:connector-curvature="0" />
          <path
             d="m 318.5,148.77 q -1.42,-1.6 -4.02,-1.6 -2.15,0 -3.14,0.84 -0.97,0.8 -0.97,2.2 0,0.7 0.25,1.17 0.24,0.46 0.76,0.8 0.54,0.32 1.34,0.55 0.8,0.22 1.94,0.47 1.18,0.24 2.13,0.55 0.96,0.3 1.62,0.74 0.68,0.45 1.03,1.1 0.38,0.67 0.38,1.64 0,0.97 -0.4,1.7 -0.37,0.7 -1.07,1.2 -0.68,0.48 -1.65,0.73 -0.94,0.25 -2.12,0.25 -3.43,0 -5.8,-2.2 l 0.56,-0.84 q 0.93,0.97 2.27,1.55 1.35,0.56 3.02,0.56 1.92,0 3,-0.7 1.1,-0.7 1.1,-2.14 0,-0.72 -0.3,-1.22 -0.3,-0.5 -0.86,-0.88 -0.56,-0.38 -1.43,-0.65 -0.87,-0.25 -2.02,-0.5 -1.17,-0.25 -2.08,-0.52 -0.9,-0.3 -1.5,-0.7 -0.6,-0.43 -0.9,-1.03 -0.32,-0.6 -0.32,-1.5 0,-1 0.37,-1.76 0.4,-0.78 1.07,-1.3 0.68,-0.53 1.63,-0.8 0.95,-0.27 2.1,-0.27 1.43,0 2.55,0.44 1.1,0.4 2.02,1.28 z"
             style="line-height:1.25;-inkscape-font-specification:'raleway light, '"
             id="path52"
             inkscape:connector-curvature="0" />
        </g>
      </g>
      <g
         id="g1040">
        <g
           style="font-size:15px;line-height:0%;font-family:raleway;letter-spacing:0;word-spacing:0"
           letter-spacing="0"
           word-spacing="0"
           font-size="15"
           id="g64">
          <path
             d="m 154.15,137 h 0.46 l 2.3,5.5 h -0.58 l -0.72,-1.72 h -2.47 l -0.7,1.72 h -0.58 z m 1.33,3.36 -1.1,-2.72 -1.13,2.72 z"
             style="line-height:1.25;-inkscape-font-specification:raleway"
             id="path58"
             inkscape:connector-curvature="0" />
          <path
             d="m 158.22,138 v 4.5 h -0.54 V 137 h 0.42 l 3.64,4.58 V 137 h 0.54 v 5.5 h -0.47 z"
             style="line-height:1.25;-inkscape-font-specification:raleway"
             id="path60"
             inkscape:connector-curvature="0" />
          <path
             d="M 163.65,142.5 V 137 h 1.87 q 0.66,0 1.14,0.22 0.5,0.22 0.82,0.6 0.34,0.36 0.5,0.86 0.17,0.5 0.17,1.06 0,0.63 -0.18,1.14 -0.2,0.5 -0.54,0.87 -0.34,0.36 -0.83,0.56 -0.48,0.2 -1.08,0.2 z m 3.96,-2.76 q 0,-0.5 -0.13,-0.9 -0.14,-0.42 -0.4,-0.72 -0.27,-0.3 -0.66,-0.47 -0.38,-0.17 -0.88,-0.17 h -1.33 v 4.54 h 1.32 q 0.5,0 0.9,-0.17 0.4,-0.18 0.65,-0.48 0.27,-0.3 0.4,-0.72 0.14,-0.42 0.14,-0.9 z"
             style="line-height:1.25;-inkscape-font-specification:raleway"
             id="path62"
             inkscape:connector-curvature="0" />
        </g>
        <path
           style="color:#000000;font-style:normal;font-variant:normal;font-weight:normal;font-stretch:normal;font-size:medium;line-height:normal;font-family:sans-serif;font-variant-ligatures:normal;font-variant-position:normal;font-variant-caps:normal;font-variant-numeric:normal;font-variant-alternates:normal;font-feature-settings:normal;text-indent:0;text-align:start;text-decoration:none;text-decoration-line:none;text-decoration-style:solid;text-decoration-color:#000000;letter-spacing:normal;word-spacing:normal;text-transform:none;writing-mode:lr-tb;direction:ltr;text-orientation:mixed;dominant-baseline:auto;baseline-shift:baseline;text-anchor:start;white-space:normal;shape-padding:0;clip-rule:nonzero;display:inline;overflow:visible;visibility:visible;opacity:1;isolation:auto;mix-blend-mode:normal;color-interpolation:sRGB;color-interpolation-filters:linearRGB;solid-color:#000000;solid-opacity:1;vector-effect:none;fill-opacity:1;fill-rule:nonzero;stroke:none;stroke-width:1;stroke-linecap:butt;stroke-linejoin:miter;stroke-miterlimit:4;stroke-dasharray:none;stroke-dashoffset:0;stroke-opacity:1;color-rendering:auto;image-rendering:auto;shape-rendering:auto;text-rendering:auto;enable-background:accumulate"
           d="m 0,139.25 v 1 h 145.15039 v -1 z"
           id="path68-3"
           inkscape:connector-curvature="0" />
        <path
           style="color:#000000;font-style:normal;font-variant:normal;font-weight:normal;font-stretch:normal;font-size:medium;line-height:normal;font-family:sans-serif;font-variant-ligatures:normal;font-variant-position:normal;font-variant-caps:normal;font-variant-numeric:normal;font-variant-alternates:normal;font-feature-settings:normal;text-indent:0;text-align:start;text-decoration:none;text-decoration-line:none;text-decoration-style:solid;text-decoration-color:#000000;letter-spacing:normal;word-spacing:normal;text-transform:none;writing-mode:lr-tb;direction:ltr;text-orientation:mixed;dominant-baseline:auto;baseline-shift:baseline;text-anchor:start;white-space:normal;shape-padding:0;clip-rule:nonzero;display:inline;overflow:visible;visibility:visible;opacity:1;isolation:auto;mix-blend-mode:normal;color-interpolation:sRGB;color-interpolation-filters:linearRGB;solid-color:#000000;solid-opacity:1;vector-effect:none;fill-opacity:1;fill-rule:nonzero;stroke:none;stroke-width:1;stroke-linecap:butt;stroke-linejoin:miter;stroke-miterlimit:4;stroke-dasharray:none;stroke-dashoffset:0;stroke-opacity:1;color-rendering:auto;image-rendering:auto;shape-rendering:auto;text-rendering:auto;enable-background:accumulate"
           d="m 174.84961,139.25 v 1 H 320 v -1 z"
           id="path68"
           inkscape:connector-curvature="0" />
      </g>
    </g>
    <g
       id="g104">
      <g
         style="font-size:2.5px;line-height:0.01%;font-family:sans-serif;letter-spacing:0;word-spacing:0;baseline-shift:super"
         letter-spacing="0"
         word-spacing="0"
         baseline-shift="super"
         font-size="2.5"
         id="g80">
        <path
           d="m 272.44,97.62 h 1.3 v 0.18 h -0.54 v 1.37 H 273 V 97.8 h -0.56 z"
           style="line-height:1.25"
           id="path76"
           inkscape:connector-curvature="0" />
        <path
           d="m 273.96,97.62 h 0.3 l 0.4,1.06 0.4,-1.06 h 0.3 v 1.55 h -0.2 V 97.8 l -0.4,1.08 h -0.2 l -0.4,-1.07 v 1.37 h -0.2 z"
           style="line-height:1.25"
           id="path78"
           inkscape:connector-curvature="0" />
      </g>
      <g
         id="g102">
        <g
           style="font-size:40px;line-height:100%;font-family:sans-serif;letter-spacing:0;word-spacing:0"
           font-size="40"
           letter-spacing="0"
           word-spacing="0"
           id="g84">
          <path
             d="M 243.7,99.16 V 0.02 h 42.74 q 7.26,0 13.4,3.07 6.16,2.91 10.49,7.81 4.47,4.76 6.98,11.04 2.52,6.14 2.52,12.43 0,6.56 -2.38,12.84 -2.37,6.16 -6.7,11.05 -4.2,4.74 -10.33,7.68 -6,2.8 -13.26,2.8 h -16.2 v 30.43 z m 27.24,-54.18 h 14.4 q 2.5,0 4.6,-2.23 2.23,-2.38 2.23,-8.38 0,-6.15 -2.52,-8.38 -2.5,-2.25 -5.02,-2.25 h -13.7 z"
             style="font-weight:900;font-family:Raleway;-inkscape-font-specification:'Raleway Heavy'"
             font-weight="900"
             id="path82"
             inkscape:connector-curvature="0" />
        </g>
        <path
           d="m 27.2,74.35 h 45 v 1.05 h -45 z M 0,0 V 99.14 H 72.2 V 75.4 H 27.22 V 0 Z m 19.15,4.72 h 5.13 V 20 H 2.86 V 5 H 8 v 9.1 h 3 V 6.33 h 4.77 v 7.8 h 3.38 z M 2.85,39.82 H 24.3 v 5.9 h -8.4 v 7.17 h 8.4 v 5.87 H 2.86 V 52.9 h 7.9 v -7.2 h -7.9 z m 0,36.37 H 8 v 6.14 h 16.28 v 5.9 H 7.98 V 94.4 H 2.87 Z"
           id="path86"
           inkscape:connector-curvature="0" />
        <g
           id="g94">
          <path
             d="m 72.2,24.78 33,7.62 9.92,-32.4 9.9,32.4 33.02,-7.6 -23.1,24.77 23.1,24.78 -33,-7.6 -9.93,32.4 -9.9,-32.4 -33,7.6 23.1,-24.78 z"
             id="path88"
             inkscape:connector-curvature="0"
             style="fill:#c60c30" />
          <g
             id="g92"
             style="fill:#ffffff">
            <path
               d="m 93,63.22 c 0,0.32 0.26,0.58 0.58,0.58 0.32,0 0.58,-0.26 0.58,-0.58 0,-0.32 -0.26,-0.6 -0.58,-0.6 -0.32,0 -0.58,0.28 -0.58,0.6 m 0.1,0 c 0,-0.27 0.2,-0.5 0.48,-0.5 0.27,0 0.5,0.23 0.5,0.5 0,0.26 -0.23,0.48 -0.5,0.48 -0.27,0 -0.5,-0.22 -0.5,-0.48 m 0.3,0.26 c 0,0.02 0,0.03 0.03,0.03 h 0.05 c 0.02,0 0.03,0 0.03,-0.02 v -0.2 h 0.12 l 0.1,0.2 c 0,0.02 0,0.03 0.02,0.03 h 0.06 c 0.02,0 0.03,0 0.02,-0.03 -0.03,-0.06 -0.06,-0.13 -0.1,-0.2 0.05,0 0.14,-0.05 0.14,-0.17 0,-0.12 -0.1,-0.18 -0.2,-0.18 h -0.23 c 0,0 -0.02,0 -0.02,0.03 z m 0.1,-0.3 v -0.17 h 0.16 c 0.06,0 0.1,0.04 0.1,0.1 0,0.05 -0.04,0.1 -0.1,0.1 h -0.16 m 7.14,0.8 -0.06,0.22 c -0.02,0.05 -0.06,0.1 -0.08,0.1 h -0.6 l -0.4,1.3 c -0.02,0.03 -0.08,0.06 -0.13,0.06 h -0.23 c -0.05,0 -0.1,-0.03 -0.08,-0.06 l 0.4,-1.3 h -0.6 c -0.03,0 -0.04,-0.06 -0.02,-0.1 l 0.06,-0.22 c 0.02,-0.06 0.06,-0.1 0.08,-0.1 h 0.6 l 0.2,-0.6 c 0,-0.04 0.06,-0.07 0.12,-0.07 h 0.22 c 0.05,0 0.1,0.04 0.08,0.07 l -0.18,0.6 h 0.6 c 0.03,0 0.04,0.06 0.02,0.1 z m -2.2,-1.33 c -0.14,1.45 -0.7,2.32 -1.37,3 -0.2,0.2 -0.7,0.54 -0.72,0.54 0.17,0.17 2.14,0.12 2.33,0.12 0.07,0.3 -0.04,0.8 -0.37,1.88 1.2,-0.1 2.62,-1.25 2.94,-2.66 0.1,-0.38 0.25,-0.88 0.32,-1.33 0.1,-0.76 0.27,-1.5 0.27,-1.53 -1.14,0 -2.28,0 -3.42,0 M 139,61.28 c -0.04,-0.07 -0.17,-0.25 -0.33,-0.28 -0.56,-0.1 -2.22,-0.32 -3.55,-0.63 -3.56,-0.83 -8.04,-2.4 -10.08,-1.77 -1.76,0.56 -3.04,2.37 -3.42,2.94 -0.1,0.16 0.07,0.17 0.07,0.17 h 17.1 c 0,0 0.1,0 0.13,-0.02 0.02,0 0.1,-0.04 0.1,-0.1 0,-0.07 0,-0.23 -0.03,-0.3 M 95.37,60.81 c 0.8,-0.15 3.14,-0.4 5.02,-0.8 5.03,-1.04 11.7,-2.92 14.6,-2.22 2.83,0.67 4.16,3 4.5,3.7 0.1,0.22 -0.1,0.2 -0.1,0.2 H 95.2 c 0,0 -0.32,0 -0.34,-0.18 0,-0.12 -0.12,-0.57 0.52,-0.7 m 19.9,-20.3 c 1.85,0.78 2.85,-1.85 1.66,-3.33 -0.2,-0.3 0.18,-0.18 0.34,-0.1 0.62,0.3 1.8,0.98 2.5,2.6 0.47,1.1 -0.16,2.76 -1.13,3.1 -0.9,-0.44 -2.8,-1.3 -3.38,-2.28 m 5.43,15.05 c 0.3,0.46 -0.02,1.13 -0.72,0.3 -0.24,-0.28 -0.44,-0.63 -0.24,-0.7 0.2,-0.08 0.74,0.08 0.96,0.4 M 116,40.88 c -2.85,-1.82 -3.83,-1.77 -3.42,-5.55 0.32,-2.2 1.28,-3.5 1.7,-3.97 0.2,-0.26 0.23,-0.06 0.18,0 -3.25,7.18 1.65,9.68 1.55,9.52 m -15.7,-6.17 c -0.04,-1.58 1.47,-4.32 1.47,-3.4 0,0.93 -1.98,7.1 8.78,14.08 0.12,0.07 0.16,0.22 0.07,0.22 -4.35,0 -6.63,-1.66 -8.2,-2.84 -1.7,-1.43 -2.3,-2.9 -2.5,-3.5 -0.1,-0.33 0.07,-0.23 0.1,-0.18 0.84,1.2 3.2,3.84 5.03,4.28 0.05,0 -4.86,-3.7 -4.75,-8.66 m 13.68,-5.44 c -3.28,4.9 -1.36,8.4 -1.07,8.86 1.32,2.12 4.5,3.27 8.73,6.56 0.42,0.33 4.1,3.87 3.94,7.6 0,0.37 -0.04,0.62 0.02,0.6 0.92,-0.28 3.85,-4.82 1.36,-8.96 -1.6,-2.7 -7.34,-6.46 -7.37,-6.48 -0.52,-0.3 1.54,0.12 3.16,0.9 2.84,1.38 13.44,7.8 2.68,17.4 -1.74,1.55 -4.54,4.84 -5.06,5.33 -0.08,0.1 -0.12,0.02 -0.13,0 -0.57,-0.95 -0.26,-4.84 -6.65,-4.85 -3.28,0 -7.96,0.18 -12.04,-1.4 -7.43,-2.9 -7.03,-8.84 -6.47,-11.24 0.6,-3.3 3.43,-4.34 3.4,-4.13 -0.3,1.34 -1.73,5.77 0.08,9.06 3.65,7.48 12.78,4.67 18.08,6.5 3.85,1.3 3.64,3.45 4,4.1 0.13,0.3 1.36,-1.5 2.12,-3 1,-1.9 0.85,-5.1 -0.46,-7.46 -0.6,-1.1 -2.43,-3.02 -7.3,-5.96 -10.06,-6.05 -1.7,-13.8 -1.04,-13.42 m 7.18,33.4 c 4.52,0 15.33,0 16.35,0 0.25,0 1.12,-0.02 1.3,0.02 0.18,0.04 0.15,1 -0.05,1.07 -0.2,0.03 -13.2,0 -17.6,0 -0.1,0 -0.14,-0.06 -0.16,-0.1 -0.05,-0.06 -0.04,-0.83 0,-0.9 0.03,-0.08 0.1,-0.08 0.16,-0.1 m -26.36,0 c 0.67,0 2.28,0 2.42,0 0.04,0 0.34,0 0.4,0 0.42,0 0.1,0.96 0.07,1.02 -0.08,0.1 -0.44,0.07 -0.48,0.07 -0.15,0 -1.77,0 -2.42,0 -0.07,0 -0.17,-0.05 -0.17,-0.1 0,-0.05 0,-0.8 0,-0.87 0,-0.07 0.1,-0.1 0.17,-0.1 m 7.74,0 c 2,0 5.68,0 9.08,-0.03 4.1,-0.03 7.67,0.03 7.9,0.03 0.03,0 0.12,0.06 0.14,0.1 0.06,0.22 0.05,0.66 -0.03,0.88 0,0.06 -0.05,0.1 -0.1,0.12 -0.2,0 -17.16,0 -17.32,0 -0.07,0 0.13,-0.96 0.18,-1.02 0.02,-0.05 0.08,-0.07 0.16,-0.1"
               id="path90"
               inkscape:connector-curvature="0" />
          </g>
        </g>
        <g
           id="g100">
          <path
             d="m 158.05,24.78 33,7.62 9.93,-32.4 9.92,32.4 33,-7.6 -23.1,24.77 23.1,24.78 -33.02,-7.6 -9.9,32.4 -9.92,-32.4 -33.02,7.6 23.1,-24.78 z"
             id="path96"
             inkscape:connector-curvature="0"
             style="fill:#00a1de" />
          <path
             d="m 199.72,69.34 c -3.32,-0.23 -6.3,-1.16 -9.1,-2.86 -2.1,-1.27 -4.12,-3.1 -5.6,-5.1 -1.07,-1.45 -1.86,-2.85 -2.52,-4.5 -1.48,-3.7 -1.8,-7.86 -0.9,-11.78 1.06,-4.55 3.7,-8.57 7.48,-11.4 2.47,-1.85 5.45,-3.14 8.47,-3.65 3.55,-0.6 7.12,-0.27 10.44,0.98 1.23,0.46 2.5,1.1 3.65,1.83 1.83,1.16 3.5,2.66 4.87,4.37 3.72,4.65 5.13,10.7 3.87,16.55 -0.7,3.27 -2.28,6.36 -4.53,8.9 -0.36,0.4 -1.17,1.22 -1.6,1.6 -2.03,1.84 -4.4,3.2 -7,4.08 -1.47,0.5 -2.92,0.8 -4.55,0.95 -0.53,0.06 -2.5,0.08 -3,0.04 z m 2.06,-0.45 c 2.72,-0.14 5.2,-0.76 7.6,-1.92 4.7,-2.27 8.3,-6.36 9.93,-11.28 0.52,-1.53 0.8,-2.86 0.95,-4.54 0.06,-0.66 0.07,-2.43 0,-3.03 -0.3,-3.52 -1.33,-6.52 -3.2,-9.3 -2.18,-3.27 -5.3,-5.8 -8.96,-7.24 -1.92,-0.78 -3.94,-1.22 -6.1,-1.34 -0.66,-0.04 -2.08,-0.02 -2.72,0.04 -1.57,0.15 -3.02,0.45 -4.46,0.93 -5.6,1.88 -10.02,6.2 -12.04,11.76 -1.34,3.7 -1.5,7.83 -0.47,11.66 0.15,0.5 0.5,1.56 0.68,2.02 0.65,1.6 1.54,3.2 2.56,4.54 0.14,0.2 0.16,0.2 0.18,0.16 0,-0.03 0.12,-0.33 0.25,-0.65 l 0.24,-0.6 -0.3,-0.47 c -1.75,-2.62 -2.7,-5.38 -3,-8.57 -0.05,-0.55 -0.06,-1.85 -0.03,-2.45 0.15,-2.5 0.77,-4.87 1.85,-7.04 0.87,-1.73 1.93,-3.23 3.3,-4.6 2.6,-2.68 5.9,-4.45 9.58,-5.14 0.4,-0.07 0.4,-0.08 0.55,-0.2 1.08,-0.92 3.4,-1.4 5.08,-1.07 0.35,0.06 0.77,0.2 1.07,0.36 0.35,0.2 1.06,0.7 1.4,1.03 l 0.28,0.26 0.67,0.23 c 3.36,1.12 6.24,3.15 8.43,5.9 1.88,2.4 3.12,5.14 3.64,8.12 0.2,1.08 0.25,1.9 0.25,3.1 0,1.46 -0.1,2.58 -0.4,3.87 -0.42,2 -1.3,4.1 -2.44,5.9 -1.95,3.1 -5,5.6 -8.52,7 -1.18,0.5 -2.77,0.93 -4.02,1.13 -1.42,0.23 -3.02,0.26 -4.53,0.1 -2.22,-0.25 -4.55,-0.95 -6.67,-2 -0.73,-0.37 -1.6,-0.87 -1.93,-1.13 l -0.13,-0.1 h -0.8 c -0.43,0 -0.82,0 -0.85,0.02 -0.06,0.02 -0.03,0.05 0.23,0.25 3.67,2.93 8.25,4.43 12.88,4.22 z m 0.37,-2.2 c 0.78,-0.06 1.52,-0.17 2.5,-0.38 0.36,-0.08 0.33,-0.07 0.3,-0.17 0,-0.05 -0.12,-0.7 -0.24,-1.47 l -0.2,-1.38 -0.3,-1 -0.27,-1.02 -0.14,-1.12 c -0.08,-0.62 -0.15,-1.28 -0.17,-1.46 -0.04,-0.6 0.05,-1.68 0.2,-2.37 0.08,-0.27 0.1,-0.55 0.04,-0.6 0,0 -0.12,-0.03 -0.24,-0.06 -0.34,-0.08 -0.62,-0.18 -0.96,-0.34 -0.25,-0.12 -0.34,-0.18 -0.54,-0.37 -0.23,-0.2 -0.45,-0.34 -0.56,-0.34 -0.04,0 -0.1,0.05 -0.17,0.17 -0.26,0.38 -1.06,1 -1.83,1.38 -0.85,0.43 -1.64,0.63 -2.7,0.7 -0.8,0.04 -2.07,-0.18 -2.83,-0.5 -0.68,-0.28 -1.68,-0.95 -2.67,-1.77 -0.23,-0.2 -0.43,-0.34 -0.46,-0.34 -0.1,0 -0.3,0.1 -0.46,0.2 -0.44,0.32 -0.95,0.92 -1.64,1.93 -0.16,0.2 -0.4,0.5 -0.5,0.63 -0.25,0.24 -0.34,0.4 -0.34,0.55 0,0.24 0.1,0.23 0.45,-0.02 0.42,-0.3 0.78,-0.45 1.18,-0.5 h 0.15 l 0.13,0.16 c 0.08,0.1 0.17,0.2 0.2,0.26 l 0.08,0.1 -0.05,0.4 c -0.08,0.6 -0.1,0.55 0.1,0.52 0.14,0 0.28,-0.07 0.66,-0.26 0.7,-0.35 2.75,-1.22 2.95,-1.25 0.3,-0.06 0.62,0.08 0.78,0.34 0.1,0.16 0.2,0.43 0.2,0.6 v 0.1 h 0.1 c 0.05,0 0.2,-0.03 0.32,-0.05 0.13,-0.03 0.27,-0.03 0.3,-0.02 0.1,0.02 0.35,0.27 0.44,0.45 0.2,0.4 0.13,0.7 -0.25,1.1 -0.1,0.12 -0.22,0.23 -0.26,0.27 -0.12,0.1 -0.1,0.2 0.08,0.4 0.1,0.1 0.17,0.2 0.2,0.3 0.14,0.4 -0.1,0.9 -0.55,1.18 l -0.15,0.1 -0.02,0.2 c -0.05,0.76 -0.58,1.36 -1.55,1.76 -0.3,0.12 -0.86,0.3 -1.33,0.42 -0.14,0.03 -0.16,0.02 0.34,0.3 2.3,1.3 4.86,2.05 7.5,2.23 0.5,0.03 1.72,0.03 2.2,0 z m 5.23,-1.22 c 1.7,-0.68 3.24,-1.6 4.6,-2.72 1.73,-1.44 3.2,-3.25 4.1,-5.06 0.3,-0.62 0.7,-1.5 0.7,-1.53 -0.02,0 -0.13,-0.07 -0.25,-0.16 -0.36,-0.22 -0.6,-0.34 -1.2,-0.6 -0.3,-0.13 -0.68,-0.3 -0.84,-0.38 -0.35,-0.17 -0.56,-0.25 -0.78,-0.3 -0.16,-0.03 -0.17,-0.03 -0.24,0.03 -0.04,0.04 -0.15,0.18 -0.25,0.32 -0.24,0.3 -0.35,0.4 -0.6,0.4 -0.2,0.02 -0.43,-0.04 -1.02,-0.26 -0.22,-0.07 -0.63,-0.2 -0.9,-0.27 -1.7,-0.44 -2,-0.54 -2.5,-0.74 -0.35,-0.15 -0.77,-0.38 -1.1,-0.6 -0.24,-0.15 -0.28,-0.17 -0.33,-0.14 -0.06,0.04 -0.06,0.03 -0.03,0.8 0.03,0.46 0.04,0.6 0.1,0.9 0.23,0.9 0.3,1.4 0.3,1.9 0,0.63 -0.03,0.78 -0.47,1.67 -0.24,0.5 -0.3,0.67 -0.3,0.76 0,0.05 0.04,0.3 0.1,0.57 0.23,0.87 0.4,1.92 0.43,2.64 0.02,0.55 0,0.74 -0.24,1.47 -0.2,0.66 -0.24,0.86 -0.25,1.06 0,0.13 0.02,0.15 0.1,0.23 0.04,0.04 0.12,0.1 0.18,0.12 0.2,0.07 0.33,0.05 0.7,-0.1 z m -18.06,-1.92 c 0.1,-0.02 0.6,-0.06 1.07,-0.1 0.98,-0.06 0.98,-0.06 1.73,-0.36 0.57,-0.23 0.64,-0.25 1.22,-0.4 0.57,-0.15 0.92,-0.3 0.94,-0.4 0.03,-0.1 0,-0.17 -0.07,-0.2 -0.12,-0.07 -0.2,-0.06 -0.82,0.1 -0.7,0.17 -0.85,0.2 -0.98,0.07 -0.17,-0.15 -0.1,-0.3 0.16,-0.37 0.3,-0.1 0.82,-0.3 1.5,-0.66 0.78,-0.4 1,-0.5 1.06,-0.63 0.05,-0.06 0.05,-0.07 -0.03,-0.14 -0.05,-0.07 -0.08,-0.07 -0.23,-0.07 -0.16,0 -0.2,0 -0.9,0.35 -0.66,0.32 -1.2,0.54 -1.5,0.6 -0.13,0.03 -0.24,-0.02 -0.26,-0.1 0,-0.08 0.07,-0.22 0.16,-0.27 0.7,-0.38 1.26,-0.74 1.87,-1.2 0.43,-0.32 1,-0.84 1.07,-1 0.04,-0.08 0.04,-0.1 0,-0.14 -0.1,-0.1 -0.22,-0.12 -0.37,-0.07 -0.15,0.05 -0.56,0.3 -1.04,0.64 -0.8,0.57 -0.9,0.63 -1.44,0.85 -0.22,0.1 -0.45,0.2 -0.5,0.22 -0.2,0.1 -0.35,0.03 -0.35,-0.13 0,-0.08 0.03,-0.12 0.15,-0.24 0.13,-0.15 0.63,-0.53 1.26,-0.96 0.5,-0.34 0.68,-0.48 0.88,-0.68 0.32,-0.33 0.42,-0.52 0.3,-0.6 -0.14,-0.07 -0.34,0 -0.7,0.24 -0.17,0.1 -0.54,0.3 -0.84,0.45 -0.3,0.15 -0.76,0.4 -1,0.53 -0.26,0.13 -0.62,0.33 -0.8,0.42 -0.2,0.1 -0.52,0.28 -0.7,0.4 -0.2,0.12 -0.53,0.3 -0.74,0.4 -0.5,0.25 -0.77,0.32 -0.9,0.23 -0.04,-0.03 -0.04,-0.04 0,-0.2 0.04,-0.08 0.17,-0.37 0.3,-0.64 0.13,-0.27 0.26,-0.57 0.3,-0.67 0.05,-0.2 0.1,-0.6 0.1,-0.65 -0.04,-0.05 -0.24,-0.02 -0.38,0.05 -0.45,0.22 -1,1 -1.76,2.44 -0.12,0.22 -0.3,0.5 -0.38,0.6 -0.2,0.27 -0.26,0.4 -0.26,0.56 0,0.12 0,0.13 0.1,0.17 0.18,0.1 0.4,0.28 0.84,0.75 0.55,0.57 0.77,0.73 1.1,0.8 0.2,0.04 0.62,0.05 0.86,0 z m -1.63,-7.6 c 0.5,-0.74 0.96,-1.23 1.44,-1.6 0.23,-0.17 0.3,-0.2 0.65,-0.34 l 0.38,-0.14 -0.17,-0.18 c -0.1,-0.1 -0.28,-0.3 -0.42,-0.44 l -0.25,-0.26 -0.1,0.07 c -0.17,0.1 -0.55,0.52 -0.78,0.82 -0.44,0.57 -0.88,1.4 -1.07,1.95 -0.12,0.38 -0.13,0.4 0,0.4 0.08,0 0.1,0 0.3,-0.3 z m 10.95,-0.23 c 0.35,-0.1 0.6,-0.23 0.82,-0.47 0.26,-0.25 0.35,-0.43 0.57,-1.1 l 0.17,-0.5 V 53.4 c -0.02,-0.28 -0.1,-0.56 -0.24,-0.86 -0.28,-0.6 -0.76,-1.1 -1.08,-1.1 -0.1,0 -0.74,0.12 -0.75,0.13 0,0 0.05,0.1 0.12,0.2 0.3,0.46 0.7,1.44 0.73,1.9 v 0.18 l -0.08,0.05 -0.1,0.05 -0.06,-0.1 c -0.03,-0.03 -0.3,-0.4 -0.6,-0.77 -0.34,-0.44 -0.57,-0.7 -0.6,-0.72 -0.1,-0.03 -0.14,0.02 -0.16,0.15 -0.02,0.15 -0.17,0.47 -0.3,0.65 -0.25,0.38 -0.67,0.8 -1.12,1.1 -0.25,0.2 -0.78,0.45 -0.98,0.5 -0.1,0.02 -0.16,0.05 -0.16,0.07 0,0.05 0.17,0.2 0.3,0.26 0.1,0.04 0.3,0.1 0.5,0.17 0.17,0.05 0.46,0.15 0.62,0.2 0.36,0.14 0.8,0.26 1.15,0.3 0.35,0.07 0.96,0.05 1.25,-0.02 z m 7.43,-0.44 c 0.1,-0.22 0.17,-0.72 0.18,-1.6 v -0.43 l -0.36,-0.35 c -0.42,-0.38 -0.45,-0.43 -0.62,-0.92 -0.14,-0.4 -0.17,-0.47 -0.43,-0.8 -0.43,-0.53 -1.3,-1.35 -2.15,-2.04 -0.14,-0.1 -0.33,-0.3 -0.44,-0.44 -0.4,-0.5 -0.6,-0.66 -0.82,-0.72 -0.1,-0.03 -0.1,-0.02 -0.15,0.05 -0.1,0.1 -0.1,0.16 0,0.36 0.13,0.26 0.32,0.5 0.8,0.96 0.24,0.24 0.5,0.5 0.55,0.6 0.15,0.2 0.2,0.36 0.23,0.97 0.05,0.84 0.06,0.92 0.24,1.3 0.3,0.6 0.76,1.2 1.34,1.7 0.45,0.4 0.46,0.4 0.43,0.82 l -0.02,0.3 0.57,0.15 c 0.32,0.1 0.58,0.17 0.58,0.17 0,0 0.03,-0.03 0.05,-0.08 z m 11.15,-0.4 c 0.12,-0.4 0.33,-1.12 0.33,-1.16 0,-0.04 -2.06,-0.17 -2.7,-0.17 -0.43,0 -0.7,0.04 -0.73,0.1 0,0.03 0,0.08 0.02,0.1 0.02,0.07 0.05,0.1 0.15,0.1 0.27,0.04 0.8,0.15 1.02,0.22 0.32,0.1 0.78,0.32 1.04,0.5 0.22,0.17 0.52,0.46 0.65,0.63 0.1,0.1 0.1,0.12 0.23,-0.34 z m -0.15,0.1 c 0,0 0.03,-0.03 0.04,-0.02 0,0 0,0.03 -0.02,0.05 -0.03,0.02 -0.03,0.02 -0.02,-0.02 z m -0.1,-0.05 c 0,-0.03 0.02,-0.04 0.03,-0.02 0,0.02 0,0.05 0,0.06 0,0 0,-0.02 0,-0.05 z m -13.36,-0.56 c 0,-0.03 -0.12,-0.18 -0.24,-0.34 -0.7,-0.93 -0.95,-1.42 -1.05,-2 -0.1,-0.66 -0.14,-0.82 -0.18,-0.86 -0.02,-0.02 -0.12,-0.08 -0.2,-0.12 -0.16,-0.08 -0.52,-0.34 -0.86,-0.63 -0.13,-0.1 -0.25,-0.24 -0.38,-0.43 -0.22,-0.33 -0.3,-0.4 -0.4,-0.4 -0.04,0 -0.05,0.02 -0.06,0.18 -0.02,0.4 0.16,0.8 0.57,1.3 0.18,0.2 0.5,0.5 0.67,0.6 0.16,0.07 0.2,0.16 0.35,0.63 0.06,0.2 0.15,0.44 0.2,0.52 0.26,0.46 0.87,1.1 1.45,1.5 0.14,0.1 0.15,0.1 0.12,0.04 z m 9.28,-0.64 c 0.08,-0.06 0.22,-0.3 0.35,-0.65 0.05,-0.1 0.1,-0.22 0.1,-0.24 0.03,-0.02 0.36,-0.08 0.95,-0.17 l 0.92,-0.15 0.35,0.06 c 0.63,0.12 1.24,0.26 1.63,0.4 0.22,0.07 0.42,0.14 0.44,0.15 0.04,0 0.05,-0.02 0.08,-0.13 0.1,-0.47 0.2,-1.3 0.27,-2.04 0.04,-0.56 0.03,-2.06 -0.02,-2.66 -0.16,-1.77 -0.55,-3.42 -1.17,-5 -0.2,-0.5 -0.56,-1.3 -0.6,-1.3 -0.05,0 -0.3,0.37 -0.4,0.6 -0.24,0.47 -0.38,1 -0.57,2 -0.43,2.36 -0.76,3.94 -0.84,4.14 -0.1,0.24 -0.3,0.6 -0.6,1.04 -0.25,0.4 -0.32,0.52 -0.56,1 -0.26,0.54 -0.43,0.73 -0.76,0.83 -0.04,0 -0.06,0 -0.06,-0.02 0,-0.07 -0.2,-0.43 -0.38,-0.67 -0.34,-0.46 -1.24,-1.36 -1.9,-1.9 -0.17,-0.15 -0.42,-0.37 -0.56,-0.5 -0.24,-0.24 -0.5,-0.4 -0.53,-0.37 -0.04,0.04 -0.06,0.42 -0.06,1.02 0,0.4 -0.03,0.78 -0.05,0.98 -0.1,0.86 -0.07,1.7 0.1,2.3 l 0.04,0.14 0.24,0.1 c 0.14,0.06 0.54,0.22 0.9,0.36 0.34,0.14 0.84,0.33 1.1,0.42 0.98,0.34 1.38,0.4 1.56,0.28 z m -18.65,-1 c 0.7,-0.14 1.14,-0.56 1.62,-1.5 0.17,-0.34 0.25,-0.6 0.25,-0.8 0,-0.1 -0.04,-0.37 -0.1,-0.62 -0.05,-0.23 -0.14,-0.65 -0.2,-0.9 l -0.1,-0.5 -0.26,-0.47 c -0.17,-0.3 -0.3,-0.6 -0.37,-0.8 -0.15,-0.42 -0.37,-0.87 -0.53,-1.1 -0.16,-0.2 -0.48,-0.5 -0.67,-0.6 -0.14,-0.1 -0.15,-0.1 -0.24,-0.06 -0.05,0.03 -0.3,0.1 -0.55,0.2 -0.88,0.26 -1.05,0.37 -1.64,1.12 -0.32,0.4 -0.57,0.65 -0.75,0.76 -0.07,0.04 -0.14,0.08 -0.15,0.08 0,0 -0.04,-0.06 -0.06,-0.13 -0.1,-0.2 -0.26,-0.52 -0.4,-0.7 l -0.1,-0.18 0.05,-0.1 c 0.1,-0.17 0.35,-0.44 0.58,-0.6 0.26,-0.2 0.8,-0.52 1.16,-0.68 0.13,-0.07 0.28,-0.14 0.32,-0.17 l 0.07,-0.06 -0.1,-0.07 c -0.12,-0.12 -0.3,-0.15 -0.84,-0.17 h -0.5 l -0.6,0.58 c -0.5,0.48 -0.67,0.68 -0.97,1.08 -0.48,0.6 -0.96,1.3 -1.25,1.75 -0.12,0.2 -0.3,0.5 -0.4,0.63 -0.17,0.28 -0.27,0.48 -0.3,0.63 l -0.02,0.1 h 0.2 c 0.12,0 0.26,0.03 0.3,0.03 0.08,0 0.1,0 0.17,-0.12 0.04,-0.07 0.17,-0.3 0.3,-0.54 0.1,-0.22 0.26,-0.5 0.33,-0.6 0.25,-0.36 0.54,-0.56 0.84,-0.6 h 0.14 l 0.22,0.26 c 0.2,0.24 0.2,0.27 0.24,0.45 0.06,0.42 0.08,0.48 0.2,0.68 0.28,0.4 0.76,0.93 1.13,1.2 l 0.15,0.12 0.08,-0.08 c 0.05,-0.04 0.17,-0.12 0.26,-0.17 0.18,-0.1 0.2,-0.1 0.6,-0.7 l 0.24,-0.35 h 0.14 c 0.3,0 0.3,0 0.35,0.2 0.03,0.1 0.06,0.2 0.07,0.23 0.02,0.03 0.02,0.03 0.87,-0.2 0.42,-0.1 0.86,-0.13 1.08,-0.05 0.08,0.03 0.18,0.1 0.22,0.14 l 0.07,0.07 -0.1,0.15 c -0.2,0.3 -0.6,0.65 -0.93,0.8 -0.14,0.1 -0.28,0.13 -0.55,0.18 -0.2,0.04 -0.44,0.1 -0.54,0.12 l -0.16,0.06 v 0.48 c 0,0.4 -0.02,0.5 -0.07,0.67 -0.05,0.17 -0.22,0.56 -0.32,0.74 0,0.02 0.3,0.1 0.56,0.13 0.26,0.04 0.73,0.04 0.95,0 z m -2.45,-0.92 c 0.03,-0.64 0.14,-1 0.4,-1.28 0.17,-0.2 0.25,-0.3 0.25,-0.34 0,-0.07 -0.08,-0.03 -0.36,0.2 -0.17,0.13 -0.37,0.28 -0.45,0.33 -0.4,0.23 -0.64,0.1 -1.24,-0.65 -0.2,-0.25 -0.4,-0.5 -0.48,-0.56 -0.13,-0.1 -0.36,-0.25 -0.42,-0.25 -0.02,0 -0.03,0.06 -0.03,0.16 0,0.22 -0.04,0.35 -0.2,0.64 -0.12,0.2 -0.14,0.25 -0.14,0.4 0,0.6 1,1.32 2.33,1.67 0.13,0.03 0.26,0.06 0.3,0.07 0.02,0 0.03,-0.06 0.04,-0.4 z m 16.27,0.36 c 0.03,-0.05 0.05,-0.34 0.15,-2.33 0.04,-0.85 0.05,-0.96 0.15,-1.5 0.06,-0.32 0.1,-0.6 0.12,-0.62 0,-0.06 -0.24,-0.43 -0.8,-1.22 -0.55,-0.76 -0.58,-0.8 -0.67,-0.77 -0.04,0 -0.13,0.07 -0.2,0.13 -0.12,0.1 -0.13,0.12 -0.55,1 -0.06,0.13 -0.13,0.24 -0.15,0.25 -0.04,0 -0.63,-0.32 -1.02,-0.6 -0.3,-0.2 -0.63,-0.5 -0.8,-0.7 -0.08,-0.08 -0.15,-0.15 -0.16,-0.15 0,0 -0.03,0.02 -0.06,0.06 -0.03,0.05 -0.02,0.12 0.2,0.85 0.43,1.53 0.63,2.15 0.9,2.85 0.07,0.2 0.17,0.5 0.23,0.7 l 0.1,0.4 0.22,0.16 c 0.25,0.22 0.9,0.66 1.45,1.02 0.48,0.3 0.82,0.5 0.85,0.5 0,0.02 0.03,0 0.05,-0.02 z m -9.54,-1.33 c 0.42,-0.06 0.8,-0.16 1.02,-0.28 l 0.2,-0.1 v -0.14 c 0,-0.08 0,-0.3 -0.02,-0.5 -0.02,-0.32 -0.02,-0.35 0.03,-0.45 0.07,-0.1 0.23,-0.27 0.36,-0.34 0.05,-0.02 0.08,-0.05 0.08,-0.07 0,-0.02 -0.07,-0.13 -0.16,-0.25 -0.47,-0.6 -0.9,-1.36 -1.06,-1.9 -0.17,-0.48 -0.2,-0.85 -0.1,-1.18 0.05,-0.12 0.07,-0.14 0.13,-0.14 0.05,0 0.3,-0.02 0.57,-0.04 0.27,-0.03 0.5,-0.05 0.5,-0.05 0.05,0 0.02,-0.1 -0.07,-0.24 -0.1,-0.16 -0.16,-0.36 -0.2,-0.72 -0.02,-0.14 -0.04,-0.26 -0.04,-0.27 0,0 -0.08,0.06 -0.16,0.13 -0.08,0.08 -0.25,0.2 -0.38,0.3 -0.24,0.16 -0.36,0.23 -1.38,0.8 -1.03,0.58 -1.46,0.92 -1.56,1.26 -0.06,0.2 0.04,0.5 0.36,1 0.4,0.63 0.74,1.36 1,2.18 0.08,0.3 0.18,0.78 0.18,0.9 0,0.14 0.02,0.15 0.23,0.14 0.1,0 0.32,-0.03 0.48,-0.05 z M 202,50.3 c 0,-0.08 -0.07,-0.26 -0.17,-0.4 -0.1,-0.17 -0.64,-0.7 -0.7,-0.7 -0.02,0 0.13,0.27 0.3,0.56 0.13,0.17 0.5,0.57 0.56,0.57 0,0 0,-0.02 0,-0.04 z m 10.4,-0.25 c 0.06,-0.08 0.18,-0.24 0.27,-0.35 0.55,-0.67 0.7,-1.22 0.9,-3.3 0.17,-2.03 0.35,-2.73 0.97,-3.94 0.24,-0.47 0.54,-0.96 0.9,-1.46 0.12,-0.18 0.22,-0.34 0.22,-0.36 0,-0.06 -0.22,-0.26 -0.43,-0.36 -0.37,-0.2 -0.66,-0.28 -2.1,-0.63 -0.88,-0.2 -1.7,-0.5 -2.2,-0.74 -0.37,-0.18 -0.55,-0.32 -1.02,-0.75 l -0.44,-0.4 v 0.18 c 0,0.1 0,0.75 0.03,1.43 0,0.7 0.03,1.34 0.03,1.45 v 0.2 l -0.1,-0.06 c -0.06,-0.06 -0.15,-0.2 -0.5,-0.97 -0.24,-0.5 -0.46,-0.96 -0.5,-1.04 -0.07,-0.24 -0.16,-0.63 -0.28,-1.3 -0.18,-1.02 -0.26,-1.3 -0.5,-1.83 -0.34,-0.7 -0.58,-1.05 -1.64,-2.46 -1.08,-1.45 -1.2,-1.58 -1.7,-1.9 l -0.23,-0.16 -0.66,-0.16 c -0.68,-0.17 -0.74,-0.18 -0.86,-0.13 -0.13,0.05 -0.72,0.13 -1.46,0.2 -1.4,0.13 -2,0.27 -2.2,0.54 l -0.06,0.08 0.17,0.1 c 0.38,0.2 1.4,1.35 2.06,2.34 0.3,0.46 0.72,1.15 1.37,2.33 0.63,1.14 0.92,1.64 1.83,3.2 0.88,1.5 1.55,2.53 2.13,3.3 0.28,0.4 1.63,2.05 1.83,2.26 0.08,0.1 0.3,0.3 0.46,0.44 0.6,0.54 0.7,0.65 1.53,1.7 0.63,0.8 1.5,1.98 1.86,2.53 0.05,0.1 0.12,0.17 0.14,0.17 0.02,0 0.1,-0.07 0.15,-0.16 z m -7.92,-0.33 c 0,-0.02 -0.08,-0.23 -0.18,-0.47 -0.23,-0.56 -0.9,-2.35 -1.12,-3.03 -0.2,-0.62 -0.2,-0.6 -0.48,-0.5 -0.18,0.07 -0.4,0.12 -1.02,0.2 -0.34,0.05 -0.56,0.1 -0.65,0.18 l -0.07,0.05 0.1,0.2 c 0.35,0.7 1.1,1.54 2.06,2.32 0.23,0.18 0.62,0.5 0.87,0.72 0.23,0.2 0.44,0.38 0.46,0.37 0,0 0.02,-0.03 0.02,-0.05 z m -18,-0.6 c 0.22,-0.06 0.46,-0.62 0.63,-1.44 0.1,-0.4 0.1,-0.43 0.06,-0.95 l -0.02,-0.45 0.15,-0.54 c 0.08,-0.3 0.14,-0.54 0.14,-0.54 -0.02,0 -0.54,0.75 -0.78,1.13 -0.6,0.96 -0.9,1.7 -0.9,2.26 0,0.2 0,0.27 0.04,0.28 0.02,0 0.1,0.08 0.2,0.16 0.13,0.13 0.16,0.14 0.26,0.14 0.07,0 0.16,0 0.2,-0.02 z m 14.1,-1.47 c 0.13,-0.1 0.23,-0.2 0.24,-0.2 0,0 -0.05,-0.1 -0.12,-0.23 -0.33,-0.6 -0.93,-1.17 -1.2,-1.2 -0.1,0 -0.1,0 -0.1,0.12 -0.03,0.33 0.14,0.72 0.52,1.2 0.14,0.17 0.3,0.35 0.33,0.4 0.04,0.05 0.08,0.1 0.1,0.1 0,0 0.1,-0.1 0.24,-0.2 z m 5.64,-2.5 c 0.02,-0.2 0.04,-0.42 0.04,-0.5 v -0.18 l -0.65,-0.92 c -0.5,-0.74 -0.67,-1 -0.82,-1.3 -0.1,-0.2 -0.2,-0.4 -0.24,-0.42 -0.04,-0.03 -0.04,-0.03 -0.04,0.07 0,0.28 -0.08,1.5 -0.1,1.6 -0.02,0.07 -0.1,0.26 -0.16,0.43 -0.12,0.3 -0.23,0.65 -0.23,0.74 0,0.03 0.2,0.18 0.56,0.44 0.53,0.38 0.57,0.4 1,0.88 l 0.46,0.5 0.08,-0.5 c 0.04,-0.26 0.1,-0.63 0.12,-0.83 z m -16.07,-0.76 c 0.53,-0.4 1.05,-0.8 1.17,-0.9 l 0.2,-0.16 v -0.12 c -0.03,-0.18 -0.15,-0.4 -0.25,-0.48 -0.1,-0.08 -0.3,-0.15 -0.4,-0.15 -0.16,0 -1.05,0.5 -1.48,0.82 -0.3,0.2 -0.7,0.63 -0.88,0.9 -0.34,0.5 -0.55,1.18 -0.6,1.9 l -0.02,0.22 0.64,-0.64 c 0.6,-0.6 0.7,-0.68 1.6,-1.38 z m 6.62,0.78 c 1.06,-0.3 1.34,-0.42 2.32,-1.08 l 0.33,-0.22 v -0.7 l -0.34,-0.02 c -0.44,-0.03 -0.63,-0.06 -0.8,-0.14 -0.17,-0.1 -0.17,-0.1 -0.1,-0.4 0.04,-0.17 0.07,-0.37 0.08,-0.6 0,-0.38 0.1,-0.33 -0.6,-0.4 -0.27,0 -0.53,-0.03 -0.58,-0.04 l -0.1,-0.02 v -0.2 c 0,-0.14 0.04,-0.33 0.08,-0.5 0.23,-0.95 0.3,-2.52 0.13,-3 -0.04,-0.13 -0.05,-0.14 -0.5,-0.45 l -0.46,-0.32 v -0.53 c 0.02,-0.7 0.06,-1.12 0.17,-1.53 0.04,-0.13 -0.02,-0.08 -0.15,0.13 -0.96,1.6 -1.16,4.55 -0.6,8.97 0.2,1.35 0.18,1.28 0.24,1.28 0.02,0 0.4,-0.1 0.87,-0.22 z m 5.22,-2.38 c 0.06,-0.1 0.1,-0.28 0.3,-1.06 0.25,-1.03 0.34,-1.77 0.28,-2.34 -0.07,-0.8 -0.3,-1.16 -0.8,-1.24 l -0.17,-0.03 v -0.24 c 0,-0.28 -0.03,-0.5 -0.12,-0.78 -0.05,-0.15 -0.1,-0.22 -0.13,-0.24 -0.06,-0.03 -1,-0.24 -1.33,-0.3 -0.75,-0.15 -1.65,-0.17 -1.77,-0.05 -0.04,0.04 0.26,0.33 0.94,0.9 0.62,0.52 0.95,0.83 0.95,0.9 0,0.02 -0.05,0.1 -0.1,0.15 -0.4,0.4 -0.73,1.78 -0.57,2.32 l 0.05,0.15 0.92,0.7 c 0.52,0.4 0.96,0.76 1.02,0.83 0.24,0.3 0.38,0.43 0.44,0.43 0.02,0 0.06,-0.03 0.1,-0.08 z m -3.43,-1.65 c 0.1,-0.03 0.18,-0.42 0.36,-1.82 l 0.1,-0.8 -0.3,-0.32 c -0.34,-0.32 -0.56,-0.48 -0.7,-0.48 h -0.07 V 40 l -0.06,0.3 c -0.1,0.4 -0.1,0.55 0.02,0.67 0.16,0.17 0.44,0.25 0.65,0.2 z m 1.06,-5.25 c 0.82,-0.06 1.17,-0.1 1.17,-0.15 0,-0.05 -0.28,-0.58 -0.42,-0.78 -0.56,-0.85 -1.26,-1.35 -2.13,-1.54 -0.2,-0.04 -0.37,-0.05 -0.37,-0.02 0,0 -0.08,0.4 -0.18,0.85 -0.17,0.76 -0.22,1.17 -0.23,1.6 v 0.1 l 0.8,-0.02 c 0.45,0 1.06,-0.03 1.36,-0.06 z"
             id="path98"
             inkscape:connector-curvature="0"
             style="fill:#ffffff" />
        </g>
      </g>
    </g>
  </g>
</svg>
