<svg xmlns="http://www.w3.org/2000/svg" width="256" height="128.896" viewBox="0 0 256 128.89551"><g><path d="M217.9 76.82h2.55v.34h-1.07v2.66h-.4v-2.66h-1.07z"/><path d="M220.84 76.82h.6l.77 2.04.78-2.04h.6v3h-.4V77.2l-.76 2.04h-.4l-.8-2.05v2.62h-.38z"/></g><path d="M123.75 96.7c.2 0 .38.1.38.23v.5c0 .14-.18.25-.38.25h-12.98c-.2 0-.38-.1-.38-.24v-.5c0-.14.17-.25.37-.25h12.98m-2.83 4.44c0-.06.05-.12.12-.12h2.55c.06 0 .1.06.1.12v.36c0 .06-.04.12-.1.12h-2.03v1.3h1.7c.07 0 .12.06.12.12v.36c0 .07-.06.12-.13.12h-1.7v1.37h2.02c.06 0 .1.05.1.1v.36c0 .06-.04.12-.1.12h-2.56c-.07 0-.12-.06-.12-.12v-4.22m-5.85 0c0-.06.06-.12.13-.12h.42c.07 0 .12.06.12.12v1.78h2.33v-1.78c0-.06.05-.12.12-.12h.4c.07 0 .13.06.13.12v4.22c0 .06-.06.12-.12.12h-.4c-.08 0-.13-.06-.13-.12v-1.84h-2.33v1.84c0 .06-.05.12-.12.12h-.42c-.07 0-.13-.06-.13-.12v-4.22m-3.46.48h-1.03c-.07 0-.12-.06-.12-.12v-.36c0-.06.05-.12.12-.12h2.74c.08 0 .13.06.13.12v.36c0 .06-.05.12-.12.12h-1.03v3.74c0 .06-.05.12-.12.12h-.42c-.06 0-.12-.06-.12-.12v-3.74m7.3-11.3c0-.07.04-.13.1-.13h2.56c.07 0 .12.05.12.1v.37c0 .06-.05.12-.12.12h-2v1.46h1.7c.05 0 .1.06.1.12v.35c0 .07-.05.12-.1.12h-1.7v1.68c0 .06-.07.12-.13.12H119c-.06 0-.1-.06-.1-.12V90.3m-4.16 3.78c.9 0 1.65-.74 1.65-1.65 0-.9-.75-1.67-1.66-1.67-.9 0-1.65.76-1.65 1.67 0 .9.73 1.65 1.64 1.65zm0-3.95c1.27 0 2.3 1.02 2.3 2.3 0 1.27-1.03 2.28-2.3 2.28-1.28 0-2.3-1-2.3-2.27 0-1.28 1.02-2.3 2.3-2.3m132.02.74c0-.2.17-.4.4-.4h8.43c.23 0 .4.2.4.4v.62c0 .2-.17.4-.4.4h-7.2v5.22h6.15c.2 0 .4.2.4.4v.63c0 .23-.2.4-.4.4h-6.15v5.46h7.2c.23 0 .4.2.4.42v.62c0 .2-.17.4-.4.4h-8.43c-.24 0-.4-.2-.4-.4V90.87m-18.93-.23c0-.22.2-.4.4-.4h.54l9.65 12.04c.02 0 .02 0 .05 0v-11.4c0-.22.17-.4.4-.4h.75c.2 0 .4.18.4.4v14.4c0 .2-.2.38-.4.38h-.38l-9.82-12.26h-.02v11.64c0 .2-.17.4-.4.4h-.75c-.2 0-.4-.2-.4-.4v-14.4m-15.03.23c0-.2.17-.4.4-.4h8.44c.23 0 .4.2.4.4v.62c0 .2-.17.4-.4.4h-7.2v5.22h6.15c.22 0 .42.2.42.4v.63c0 .23-.2.4-.4.4h-6.15v5.46h7.2c.22 0 .4.2.4.42v.62c0 .2-.18.4-.4.4h-8.44c-.24 0-.4-.2-.4-.4V90.87m-10.66 7.3c1.64 0 3.08-1.37 3.08-3.12 0-1.63-1.44-3.02-3.08-3.02H198v6.14zm-5.84-7.3c0-.2.17-.4.4-.4h5.54c2.57 0 4.67 2 4.67 4.55 0 1.97-1.3 3.62-3.17 4.37l2.93 5.42c.15.28 0 .62-.36.62h-1.1c-.2 0-.3-.1-.34-.2l-2.84-5.66h-4.1v5.46c0 .2-.18.4-.4.4h-.83c-.23 0-.4-.2-.4-.4V90.87m-8.44 9.48c-1.05-2.33-2.08-4.68-3.13-7.02h-.17l-3.13 7.02zm-10.17 4.54l6.5-14.4c.07-.14.18-.25.37-.25h.2c.2 0 .3.1.38.24l6.46 14.4c.13.26-.05.54-.37.54h-.85c-.2 0-.32-.12-.37-.23l-1.58-3.52h-7.6l-1.56 3.53c-.03.12-.16.24-.35.24h-.85c-.33 0-.5-.28-.37-.55m-13.27-.25l7.77-12.62v-.07h-6.74c-.22 0-.4-.2-.4-.4v-.7c0-.2.18-.4.4-.4h8.66c.2 0 .4.2.4.4v.3l-7.9 12.76v.03h7.07c.23 0 .4.2.4.4v.7c0 .2-.17.4-.4.4h-8.86c-.2 0-.4-.2-.4-.4v-.4m-6.9-4.3c-1.04-2.33-2.07-4.68-3.12-7.02h-.17l-3.12 7.02zm-10.16 4.54l6.52-14.4c.06-.14.17-.25.36-.25h.2c.2 0 .3.1.38.24l6.46 14.4c.13.26-.04.54-.37.54h-.85c-.2 0-.32-.12-.37-.23l-1.58-3.52h-7.6L149 105.2c-.05.12-.18.24-.37.24h-.85c-.33 0-.5-.28-.37-.55m-16.85-14.26c0-.22.2-.4.4-.4h.54l9.64 12.04c.02 0 .02 0 .04 0v-11.4c0-.22.17-.4.4-.4h.76c.2 0 .4.18.4.4v14.4c0 .2-.2.38-.4.38h-.4l-9.8-12.26h-.03v11.64c0 .2-.16.4-.4.4h-.74c-.22 0-.4-.2-.4-.4v-14.4m-40.03 0c0-.2.2-.4.4-.4h.84c.24 0 .4.2.4.4v6.25h8.7v-6.25c0-.22.17-.4.4-.4h.84c.22 0 .4.18.4.4v14.16c0 .22-.18.42-.4.42h-.83c-.23 0-.4-.2-.4-.4v-6.5h-8.7v6.5c0 .2-.16.4-.4.4h-.83c-.22 0-.4-.2-.4-.4V90.64m-11.18-.62c2.16 0 3.72.75 5.18 2 .17.16.2.4.02.6l-.58.56c-.17.2-.34.2-.55-.03-1.12-.96-2.64-1.6-4.1-1.6-3.37 0-5.96 2.84-5.96 6.16 0 3.3 2.6 6.14 5.97 6.14 1.86 0 2.95-.75 4.1-1.6.2-.18.37-.16.5-.07l.64.58c.17.13.13.43-.02.58-1.46 1.4-3.3 2.07-5.2 2.07-4.28 0-7.72-3.4-7.72-7.68 0-4.28 3.44-7.72 7.72-7.72m-17.6 7.9c1.64 0 3.07-1.36 3.07-3.1 0-1.64-1.43-3.03-3.08-3.03H57.6v6.14h4.15zm-5.85-7.28c0-.22.18-.4.42-.4h5.54c2.56 0 4.66 2 4.66 4.55 0 1.97-1.3 3.6-3.16 4.36l2.93 5.44c.14.27 0 .62-.38.62h-1.1c-.18 0-.3-.1-.33-.2l-2.86-5.67h-4.08v5.46c0 .22-.2.42-.4.42h-.84c-.24 0-.4-.2-.4-.4V90.64m-18.2 0c0-.22.2-.4.4-.4h.82c.24 0 .4.18.4.4v8.92c0 2.44 1.53 4.34 4.03 4.34 2.52 0 4.07-1.85 4.07-4.3v-8.95c0-.22.17-.4.4-.4h.82c.2 0 .4.18.4.4v9.05c0 3.25-2.3 5.73-5.7 5.73-3.35 0-5.64-2.48-5.64-5.73v-9.05m-18.83 0c0-.22.2-.4.4-.4h.83c.24 0 .4.18.4.4v6.24h8.7v-6.25c0-.22.17-.4.4-.4h.84c.2 0 .4.18.4.4v14.16c0 .22-.2.42-.4.42h-.84c-.23 0-.4-.2-.4-.4v-6.5h-8.7v6.5c0 .2-.16.4-.4.4h-.83c-.2 0-.4-.2-.4-.4V90.64M7.7 90.03c2.16 0 3.73.75 5.18 2 .17.16.2.4.02.6l-.58.56c-.17.2-.34.2-.55-.03-1.12-.96-2.64-1.6-4.1-1.6-3.38 0-5.97 2.84-5.97 6.16 0 3.3 2.6 6.14 5.97 6.14 1.86 0 2.95-.75 4.1-1.6.2-.18.37-.16.5-.07l.64.58c.17.13.13.43-.02.57-1.45 1.42-3.3 2.08-5.2 2.08-4.28 0-7.72-3.4-7.72-7.68 0-4.28 3.44-7.72 7.72-7.72"/><g><path d="M.73 122.85q0-1.06.36-2.1.37-1.06 1.08-1.88.7-.83 1.74-1.34 1.04-.53 2.36-.53 1.57 0 2.67.73 1.1.7 1.66 1.83l-.7.4q-.3-.6-.73-1.03-.4-.4-.9-.66t-1.02-.38q-.53-.12-1.04-.12-1.1 0-1.97.46-.86.45-1.45 1.17-.6.74-.9 1.67-.3.9-.3 1.83 0 1.04.35 1.98.37.94 1 1.67.62.7 1.48 1.14.87.42 1.86.42.53 0 1.1-.13.55-.15 1.06-.43.52-.28.96-.7.45-.45.75-1.05l.72.35q-.3.66-.8 1.17-.52.5-1.15.86-.62.35-1.33.53-.7.17-1.38.17-1.2 0-2.22-.53-1-.53-1.72-1.37-.72-.86-1.14-1.94-.4-1.1-.4-2.2z"/><path d="M18.55 128.88q-1.23 0-2.24-.5-1-.53-1.72-1.35-.73-.83-1.12-1.9-.4-1.07-.4-2.2 0-1.17.4-2.24.44-1.1 1.17-1.9.74-.84 1.75-1.32 1-.5 2.18-.5 1.22 0 2.23.53 1.02.53 1.73 1.37.72.84 1.12 1.9.4 1.07.4 2.16 0 1.2-.43 2.27-.42 1.07-1.16 1.9-.73.8-1.73 1.3-1 .48-2.18.48zm-4.65-5.95q0 1 .33 1.95.35.93.96 1.65.62.7 1.48 1.14.86.43 1.88.43 1.06 0 1.9-.44.86-.45 1.45-1.18.63-.74.96-1.66.33-.93.33-1.9 0-1-.36-1.92-.35-.94-.97-1.65-.62-.73-1.46-1.16-.83-.44-1.84-.44-1.06 0-1.9.45-.87.45-1.48 1.2-.62.72-.95 1.65-.33.92-.33 1.88z"/><path d="M38.02 128.8v-10.15l-4.63 7.92h-.53l-4.63-7.92v10.15h-.84v-11.73h.84l4.9 8.4 4.88-8.4h.84v11.73z"/><path d="M43.02 128.8v-11.73h4.83q.74 0 1.37.3.62.33 1.07.85.45.52.7 1.18.27.64.27 1.3 0 .7-.25 1.37-.23.66-.68 1.18-.43.5-1.04.82-.6.3-1.35.3h-4.1v4.43zm.84-5.2h4.05q.6 0 1.05-.24.47-.25.78-.64.33-.42.5-.93.18-.54.18-1.1 0-.58-.2-1.1-.2-.52-.57-.9-.35-.4-.83-.64-.46-.23-1-.23h-3.94z"/><path d="M57.3 117.07h.72l4.96 11.73h-.9l-1.63-3.87h-5.6l-1.63 3.87h-.9zm2.92 7.17l-2.56-6.15-2.6 6.14z"/><path d="M72.48 119.02q-1.14-1.27-3.22-1.27-1.72 0-2.5.66-.8.65-.8 1.76 0 .56.2.94.2.36.62.63.43.26 1.07.44.65.18 1.56.38.95.2 1.7.45.8.23 1.3.6.56.36.84.88.3.53.3 1.3 0 .8-.32 1.36-.3.58-.86.98-.54.38-1.32.58-.76.2-1.7.2-2.74 0-4.64-1.76l.45-.67q.74.77 1.8 1.24 1.1.45 2.42.45 1.54 0 2.4-.56.88-.57.88-1.7 0-.6-.24-1-.22-.4-.68-.7-.45-.3-1.14-.5-.7-.22-1.62-.42-.94-.2-1.67-.4-.72-.25-1.2-.58-.5-.34-.74-.82-.25-.48-.25-1.2 0-.8.3-1.4.32-.62.87-1.04.54-.43 1.3-.64.76-.2 1.7-.2 1.13 0 2.02.33.88.33 1.6 1.03z"/><path d="M83.56 119.02q-1.14-1.27-3.23-1.27-1.7 0-2.5.66-.78.65-.78 1.76 0 .56.2.94.2.36.6.63.44.26 1.08.44.64.18 1.55.38.94.2 1.7.45.78.23 1.3.6.55.36.84.88.3.53.3 1.3 0 .8-.32 1.36-.3.58-.86.98-.55.38-1.32.58-.76.2-1.7.2-2.75 0-4.65-1.76l.45-.67q.74.77 1.82 1.24 1.07.45 2.4.45 1.55 0 2.4-.56.88-.57.88-1.7 0-.6-.23-1-.24-.4-.7-.7-.45-.3-1.14-.5-.7-.22-1.62-.42-.94-.2-1.67-.4-.7-.25-1.2-.58-.5-.34-.73-.82-.25-.48-.25-1.2 0-.8.3-1.4.3-.62.84-1.04.55-.43 1.3-.64.77-.2 1.7-.2 1.13 0 2.03.33.9.33 1.6 1.03z"/><path d="M87.8 128.8v-11.73h.85v11.73z"/><path d="M97.46 128.88q-1.22 0-2.23-.5-1-.53-1.73-1.35-.73-.83-1.13-1.9-.4-1.07-.4-2.2 0-1.17.42-2.24.42-1.1 1.15-1.9.74-.84 1.75-1.32 1-.5 2.18-.5 1.22 0 2.23.53 1.03.53 1.74 1.37.73.84 1.13 1.9.4 1.07.4 2.16 0 1.2-.44 2.27-.4 1.07-1.15 1.9-.73.8-1.74 1.3-1 .48-2.18.48zm-4.64-5.95q0 1 .33 1.95.35.93.96 1.65.64.7 1.5 1.14.85.43 1.88.43 1.05 0 1.9-.44.86-.45 1.45-1.18.6-.74.94-1.66.33-.93.33-1.9 0-1-.34-1.92-.35-.94-.98-1.65-.6-.73-1.45-1.16-.84-.44-1.85-.44-1.06 0-1.92.45-.86.45-1.47 1.2-.62.72-.95 1.65-.33.92-.33 1.88z"/><path d="M107.16 118.65v10.15h-.85v-11.73h.66l8.22 10.32v-10.33h.85v11.73h-.78z"/><path d="M123.85 117.07h.72l4.96 11.73h-.9l-1.63-3.87h-5.6l-1.63 3.87h-.9zm2.92 7.17l-2.56-6.15-2.6 6.14z"/><path d="M139.43 117.83h-4.3v10.97h-.83v-10.97H130v-.76h9.43z"/><path d="M150.13 128.04v.76h-7.8v-11.73h7.65v.76h-6.82v4.6h5.96v.73h-5.96v4.88z"/><path d="M169.44 128.8v-10.15l-4.62 7.92h-.53l-4.64-7.92v10.15h-.84v-11.73h.84l4.9 8.4 4.88-8.4h.84v11.73z"/><path d="M174.44 128.8v-11.73h.85v11.73z"/><path d="M180.26 118.65v10.15h-.84v-11.73h.65l8.22 10.32v-10.33h.84v11.73h-.78z"/><path d="M193.27 128.8v-11.73h.85v11.73z"/><path d="M205.07 119.02q-1.14-1.27-3.22-1.27-1.72 0-2.5.66-.8.65-.8 1.76 0 .56.2.94.2.36.62.63.43.26 1.08.44.64.18 1.55.38.94.2 1.7.45.78.23 1.3.6.55.36.83.88.3.53.3 1.3 0 .8-.3 1.36-.3.58-.87.98-.55.38-1.32.58-.76.2-1.7.2-2.75 0-4.65-1.76l.44-.67q.74.77 1.82 1.24 1.07.45 2.4.45 1.54 0 2.4-.56.88-.57.88-1.7 0-.6-.23-1-.22-.4-.7-.7-.43-.3-1.13-.5-.7-.22-1.62-.42-.94-.2-1.66-.4-.72-.25-1.22-.58-.48-.34-.73-.82-.24-.48-.24-1.2 0-.8.3-1.4.32-.62.86-1.04.55-.43 1.3-.64.77-.2 1.7-.2 1.13 0 2.02.33.9.33 1.62 1.03z"/><path d="M217.42 117.83h-4.3v10.97h-.84v-10.97h-4.3v-.76h9.44z"/><path d="M220.3 128.8v-11.73h4.88q.74 0 1.37.3.63.33 1.07.85.46.52.7 1.18.28.64.28 1.3 0 .65-.2 1.26-.2.6-.56 1.07-.37.48-.88.8-.5.3-1.12.4l2.92 4.57h-.97l-2.85-4.43h-3.8v4.43zm.85-5.2h4.1q.57 0 1.03-.25.47-.25.8-.65.33-.4.5-.92.17-.53.17-1.08 0-.56-.2-1.07-.2-.53-.57-.93-.35-.4-.83-.62-.46-.25-1-.25h-4z"/><path d="M232.1 128.8v-11.73h.83v11.73z"/><path d="M244.88 128.04v.76h-7.8v-11.73h7.65v.76h-6.82v4.6h5.97v.73h-5.96v4.88z"/><path d="M254.8 119.02q-1.14-1.27-3.22-1.27-1.72 0-2.5.66-.78.65-.78 1.76 0 .56.2.94.2.36.6.63.43.26 1.08.44.64.18 1.55.38.94.2 1.7.45.78.23 1.3.6.55.36.83.88.3.53.3 1.3 0 .8-.3 1.36-.3.58-.87.98-.56.38-1.33.58-.76.2-1.7.2-2.75 0-4.65-1.76l.45-.67q.74.77 1.82 1.24 1.06.45 2.4.45 1.53 0 2.4-.56.87-.57.87-1.7 0-.6-.23-1t-.7-.7q-.44-.3-1.14-.5-.7-.22-1.6-.42-.96-.2-1.68-.4-.7-.25-1.2-.58-.5-.34-.74-.82-.24-.48-.24-1.2 0-.8.3-1.4.3-.62.85-1.04.54-.43 1.3-.64.76-.2 1.68-.2 1.14 0 2.03.33.9.33 1.63 1.03z"/></g><g><g style="line-height:0%" font-family="sans-serif" letter-spacing="0" word-spacing="0"><path d="M123.32 109.6h.36l1.83 4.4h-.45l-.57-1.37h-1.97l-.56 1.37h-.46zm1.06 2.68l-.88-2.17-.9 2.18z"/><path d="M126.58 110.4v3.6h-.44v-4.4h.34l2.9 3.66v-3.65h.44v4.4h-.38z"/><path d="M130.92 114v-4.4h1.5q.52 0 .9.18.4.17.67.47.25.3.38.7.14.4.14.85 0 .5-.15.9t-.43.7q-.27.28-.66.45-.38.15-.87.15zm3.17-2.2q0-.4-.12-.73-.12-.33-.33-.58-.2-.25-.52-.38-.3-.13-.72-.13h-1.04v3.62h1.05q.42 0 .73-.14.32-.14.53-.38.2-.25.32-.58.1-.33.1-.72z"/></g><path d="M0 111.35v.9h116.12v-.9z"/><path d="M139.88 111.35v.9H256v-.9z"/></g><path d="M57.75 59.48H21.78v.84h35.97zM195.12 79.3V0h34.18q5.8 0 10.73 2.46 4.9 2.34 8.37 6.25 3.58 3.8 5.6 8.84 2 4.9 2 9.94 0 5.25-1.9 10.28-1.9 4.9-5.36 8.82-3.35 3.8-8.27 6.14-4.8 2.24-10.6 2.24H216.9V79.3zm21.78-43.33h11.5q2.02 0 3.7-1.8 1.78-1.9 1.78-6.7 0-4.9-2-6.7-2.02-1.78-4.03-1.78H216.9zm-90.46-16.14l26.4 6.1L160.8 0l7.93 25.92 26.42-6.1-18.48 19.84 18.48 19.82-26.4-6.1-7.94 25.93-7.93-25.9-26.4 6.08 18.47-19.82zm-68.7 0l26.42 6.1L92.1 0 100 25.92l26.42-6.1-18.48 19.84 18.48 19.82-26.42-6.1-7.93 25.93-7.94-25.9-26.4 6.08 18.47-19.82zM0 0v79.3h57.75V60.33H21.78V0zm15.32 3.78h4.1V16H2.3V4h4.1v7.3h2.4V5.05h3.82v6.23h2.7zM2.3 31.86h17.13v4.7h-6.7v5.75h6.7v4.72H2.3v-4.7h6.3v-5.75H2.3zm0 29.1h4.1v4.9h13.03v4.72H6.4v4.95H2.3z"/></svg>