<svg xmlns="http://www.w3.org/2000/svg" width="320" height="270.84" viewBox="0 0 320 270.84034"><g><g><path d="M66.32 232.32c13.85 0 39.5.03 63.17-.13 28.44-.22 53.3.2 54.88.2.18 0 .86.4.96.77.4 1.43.33 4.54-.16 6.04-.14.45-.38.7-.8.82-1.33.02-119.22 0-120.35 0-.5 0 .88-6.63 1.16-7.08.2-.3.57-.5 1.12-.62"/><path d="M12.55 232.32c4.63 0 15.84 0 16.8 0 .25 0 2.36.03 2.85.03 2.87 0 .66 6.57.46 7-.53.7-3.03.52-3.3.52-1.06 0-12.28 0-16.8 0-.53-.07-1.18-.4-1.2-.63-.04-.46-.04-5.67-.04-6.12 0-.55.7-.73 1.23-.8"/><path d="M195.77 232.32c31.45 0 106.57 0 113.65 0 1.7 0 7.75-.14 8.95.13 1.3.3 1.07 7.05-.33 7.5-1.33.16-91.7.03-122.36.03-.56-.06-.92-.52-1.07-.74-.27-.46-.23-5.82 0-6.3.3-.53.7-.55 1.17-.62"/><path d="M145.88.14c-22.84 33.97-9.45 58.4-7.47 61.6 9.12 14.74 31.15 22.73 60.65 45.63 2.92 2.26 28.53 26.9 27.4 52.86-.05 2.48-.3 4.24.12 4.1 6.45-1.93 26.86-33.5 9.56-62.3C224.9 83.37 185.07 57.12 184.87 57c-3.53-2.06 10.75.85 22.06 6.3 19.73 9.55 93.4 54.2 18.6 120.93-12.07 10.76-31.53 33.63-35.2 37.06-.55.6-.78.13-.88-.04-3.94-6.58-1.8-33.64-46.24-33.7-22.8-.04-55.34 1.26-83.7-9.8C7.9 157.6 10.7 116.4 14.58 99.68c4.26-22.84 23.9-30.16 23.6-28.7-1.95 9.33-11.92 40.1.63 63 25.36 51.92 88.87 32.4 125.7 45.04 26.8 9.18 25.28 24.05 27.72 28.65 1.02 1.9 9.53-10.5 14.85-20.87 6.87-13.38 5.87-35.53-3.2-51.93-4.22-7.64-16.9-20.98-50.84-41.43-69.85-42.08-11.72-96-7.15-93.3"/><path d="M50.77 37.98c-.3-11 10.2-30.08 10.2-23.76 0 6.58-13.74 49.4 61.06 97.98.82.5 1.13 1.5.46 1.5-30.22.12-46.06-11.53-56.93-19.73-11.86-9.9-16.05-20.24-17.4-24.4-.8-2.23.45-1.53.7-1.17 5.8 8.4 22.16 26.7 34.9 29.76.38.08-33.74-25.78-33-60.18"/><path d="M160 80.84c-19.9-12.62-26.74-12.3-23.88-38.57 2.25-15.28 8.9-24.25 11.76-27.57 1.47-1.85 1.67-.48 1.35-.02C126.58 64.56 160.7 81.94 160 80.84"/><path d="M192.6 182.6c2.17 3.18-.14 7.78-5 2.1-1.7-2-3.08-4.45-1.72-4.96 1.38-.5 5.18.62 6.7 2.87"/><path d="M154.8 78c13 5.48 19.9-12.8 11.66-23.1-1.44-2.03 1.22-1.2 2.32-.68 4.3 2.08 12.53 6.82 17.4 18.05 3.3 7.64-1.12 19.23-7.84 21.6-6.26-3.06-19.55-9.03-23.54-15.88"/><path d="M16.6 219.22c5.48-1.07 21.8-2.8 34.83-5.54 35-7.3 81.3-20.37 101.58-15.5 19.64 4.68 28.87 20.88 31.24 25.8.7 1.43-.76 1.42-.76 1.42H15.38s-2.32 0-2.44-1.33c-.08-.87-.85-3.97 3.65-4.85"/><path d="M319.8 222.56c-.25-.55-1.2-1.78-2.3-1.98-3.92-.7-15.44-2.22-24.64-4.37-24.76-5.78-55.9-16.78-70.08-12.3-12.28 3.9-21.16 16.47-23.84 20.44-.7 1.04.55 1.13.55 1.13h118.97s.67-.04.82-.13c.16-.12.63-.34.63-.82 0-.36.1-1.5-.14-1.96"/><path d="M53 241.7l-.46 1.47c-.1.37-.37.7-.54.7l-4.2-.04-2.8 9.07c-.07.24-.5.46-.87.45H42.6c-.4 0-.67-.23-.6-.47l2.8-9.07-4.2-.02c-.18 0-.24-.33-.12-.7l.44-1.46c.12-.36.37-.7.55-.7l4.2.04 1.3-4.2c.07-.24.48-.45.87-.45l1.53.02c.4 0 .66.23.6.47l-1.3 4.2 4.2.02c.18 0 .23.33.12.7zm-15.37-9.3c-.88 10.1-4.77 16.14-9.46 20.8-1.43 1.43-4.9 3.84-5.03 3.84 1.22 1.1 14.9.7 16.2.7.48 2.12-.26 5.55-2.53 13.1 8.47-.78 18.28-8.7 20.53-18.46.63-2.7 1.7-6.1 2.16-9.25.8-5.37 1.9-10.55 1.9-10.73-7.92 0-15.85 0-23.77 0"/><path d="M0 236.2c0 2.24 1.8 4.06 4.05 4.06 2.23 0 4.07-1.82 4.07-4.06 0-2.24-1.84-4.07-4.07-4.07-2.24 0-4.06 1.83-4.06 4.07m.67 0c0-1.88 1.5-3.38 3.38-3.38 1.87 0 3.38 1.5 3.38 3.38 0 1.86-1.5 3.38-3.38 3.38-1.87 0-3.38-1.52-3.38-3.38m1.96 1.84c0 .1.1.22.22.22h.3c.12 0 .2-.1.2-.22v-1.35h.84l.63 1.4c.03.06.1.16.2.16h.38c.17 0 .28-.17.2-.3-.22-.45-.44-.9-.67-1.34.32-.08.9-.4.9-1.23 0-.86-.67-1.28-1.38-1.28h-1.6c-.13 0-.22.1-.22.2zm.72-2v-1.3h1.1c.42 0 .68.26.68.65 0 .33-.26.63-.68.63h-1.1"/></g></g></svg>