<svg xmlns="http://www.w3.org/2000/svg" width="256" height="295.603" viewBox="0 0 67.733327 78.21166"><g><path d="M0 19.55l26.05 6L33.87 0l7.82 25.56 26.03-6L49.5 39.1l18.24 19.56-26.05-6-7.83 25.55-7.82-25.55-26.05 6 18.23-19.54z"/><g><path fill="#fff" d="M32.8 54.28c-2.57-.18-4.88-.9-7.06-2.22-1.64-1-3.2-2.4-4.35-3.96-.84-1.13-1.46-2.22-1.97-3.5-1.15-2.87-1.4-6.1-.7-9.15.83-3.54 2.87-6.66 5.8-8.86 1.93-1.45 4.25-2.45 6.6-2.85 2.75-.47 5.52-.2 8.1.76.96.37 1.95.87 2.85 1.44 1.42.9 2.72 2.07 3.78 3.4 2.9 3.6 4 8.3 3 12.85-.54 2.53-1.76 4.93-3.5 6.9-.28.32-.92.96-1.24 1.25-1.6 1.43-3.42 2.5-5.45 3.17-1.14.38-2.27.62-3.53.74-.4.03-1.93.05-2.34.02zm1.6-.35c2.13-.1 4.06-.58 5.9-1.48 3.66-1.77 6.46-4.94 7.73-8.77.4-1.2.6-2.22.73-3.53.04-.5.05-1.88 0-2.35-.23-2.73-1.04-5.07-2.5-7.23-1.68-2.53-4.1-4.5-6.95-5.62-1.47-.6-3.05-.94-4.7-1.03-.53-.03-1.64-.02-2.13.03-1.22.1-2.35.35-3.47.73-4.34 1.45-7.8 4.82-9.35 9.13-1.05 2.88-1.18 6.1-.37 9.07.1.4.38 1.2.52 1.57.5 1.26 1.2 2.5 2 3.53.1.15.12.16.13.12 0-.03.1-.26.2-.5l.18-.47-.23-.37c-1.36-2.04-2.1-4.18-2.33-6.66-.04-.42-.05-1.43-.02-1.9.1-1.94.6-3.78 1.43-5.46.68-1.36 1.5-2.52 2.56-3.6 2.03-2.07 4.6-3.44 7.46-3.98.3-.06.32-.06.43-.15.83-.7 2.63-1.1 3.94-.83.27.06.6.17.82.3.28.14.83.54 1.1.8l.2.2.53.18c2.6.88 4.84 2.45 6.54 4.6 1.47 1.85 2.42 3.98 2.83 6.3.14.84.2 1.47.2 2.4 0 1.14-.1 2.02-.3 3.02-.35 1.55-1.02 3.2-1.9 4.6-1.53 2.4-3.9 4.33-6.63 5.44-.92.38-2.17.72-3.13.88-1.1.17-2.34.2-3.5.07-1.74-.2-3.55-.73-5.2-1.56-.56-.3-1.23-.68-1.5-.88l-.1-.08h-.62c-.33 0-.63 0-.66.02-.04 0-.02.03.18.2 2.86 2.27 6.4 3.43 10 3.27zm.3-1.7c.6-.04 1.17-.13 1.94-.3.27-.06.26-.05.24-.13 0-.04-.1-.55-.2-1.14l-.16-1.07-.22-.8-.22-.78-.1-.87c-.06-.48-.12-1-.13-1.14-.04-.46.04-1.3.16-1.83.06-.2.07-.42.03-.46 0 0-.1-.02-.18-.04-.27-.06-.5-.14-.75-.26-.2-.1-.27-.15-.42-.3-.18-.15-.35-.26-.44-.26-.03 0-.07.04-.13.13-.2.3-.8.78-1.4 1.08-.67.34-1.3.5-2.1.54-.63.03-1.62-.14-2.2-.38-.53-.23-1.3-.75-2.08-1.4-.18-.14-.34-.25-.36-.25-.07 0-.25.07-.36.16-.34.24-.74.7-1.28 1.5-.12.16-.3.38-.4.48-.18.2-.25.33-.25.44 0 .2.08.2.35 0 .32-.25.6-.36.9-.4h.12l.1.12c.07.07.14.17.17.2l.07.08-.04.33c-.06.45-.07.4.1.4.1-.02.2-.07.5-.2.54-.3 2.13-.96 2.3-1 .22-.03.46.08.6.3.06.1.13.32.13.45v.1l.08-.02c.04 0 .16-.02.26-.04.1 0 .2-.02.24 0 .08 0 .26.2.33.34.15.3.1.56-.2.87-.07.08-.16.17-.2.2-.08.08-.07.15.08.3.08.1.13.16.16.25.1.3-.08.7-.42.9l-.12.08-.02.17c-.04.6-.45 1.05-1.2 1.36-.23.1-.67.23-1.03.32-.1.03-.12.02.27.23 1.8 1 3.77 1.6 5.83 1.74.37.03 1.33.03 1.7 0zm4.06-.95c1.32-.52 2.52-1.23 3.58-2.1 1.34-1.13 2.48-2.54 3.18-3.94.24-.48.55-1.18.53-1.2 0 0-.1-.05-.18-.1-.28-.2-.46-.28-.93-.5-.24-.1-.54-.23-.65-.3-.28-.12-.44-.18-.6-.22-.14-.02-.15-.02-.2.03-.03.03-.12.13-.2.24-.18.24-.27.3-.46.3-.17.02-.34-.03-.8-.2-.17-.06-.5-.16-.7-.22-1.3-.34-1.56-.4-1.94-.57-.27-.1-.6-.28-.85-.44-.2-.13-.23-.14-.26-.12-.06.03-.06.03-.03.63 0 .35.03.47.08.7.17.68.23 1.08.23 1.47 0 .5-.03.6-.37 1.3-.18.38-.24.52-.24.6 0 .03.05.24.1.44.17.67.3 1.5.32 2.05.02.42 0 .56-.18 1.14-.15.5-.2.66-.2.8 0 .12 0 .14.07.2.03.03.1.07.14.1.17.04.27.03.56-.1zm-14.03-1.5c.08 0 .45-.03.83-.06.77-.06.77-.06 1.35-.3.45-.17.5-.18.96-.3.44-.12.7-.23.73-.3.02-.1 0-.14-.06-.17-.1-.05-.15-.04-.64.08-.54.14-.67.15-.77.06-.12-.13-.07-.25.13-.3.24-.07.64-.24 1.18-.5.6-.3.76-.4.8-.5.05-.06.04-.06 0-.12-.06-.05-.1-.06-.2-.06-.13 0-.16.02-.7.28-.5.26-.93.42-1.18.48-.08.02-.17-.02-.18-.08-.02-.07.04-.18.1-.22.55-.3 1-.57 1.46-.92.34-.26.77-.66.83-.78.03-.07.03-.08 0-.1-.07-.08-.17-.1-.3-.06-.1.03-.42.23-.8.5-.6.43-.7.47-1.1.64-.17.07-.35.15-.4.17-.14.07-.27.03-.27-.1 0-.06.03-.1.1-.2.12-.1.5-.4 1-.73.37-.26.52-.38.67-.53.25-.25.32-.4.23-.46-.1-.05-.26 0-.55.2-.12.07-.4.23-.65.34-.23.12-.58.3-.78.4-.2.12-.47.27-.62.34-.15.08-.4.22-.54.3-.15.1-.4.25-.57.32-.4.2-.6.25-.7.18-.04-.02-.04-.03 0-.15.02-.07.12-.3.22-.5s.2-.44.23-.52c.05-.15.1-.46.07-.5-.02-.03-.17 0-.28.05-.35.17-.78.78-1.37 1.9-.1.17-.22.38-.3.47-.15.2-.2.3-.2.43 0 .1 0 .1.08.13.14.07.3.22.66.58.43.44.6.57.86.62.16.03.48.04.67 0zm-1.27-5.9c.4-.57.76-.95 1.13-1.23.17-.14.23-.17.5-.27l.3-.1-.14-.15c-.07-.08-.22-.23-.33-.34l-.2-.22-.08.06c-.13.1-.42.4-.6.64-.34.45-.68 1.1-.83 1.52-.1.3-.1.32 0 .32.06 0 .08-.02.24-.25zm8.5-.18c.3-.07.48-.17.66-.36.2-.2.27-.33.44-.84l.13-.4-.02-.2c-.02-.22-.08-.44-.2-.67-.2-.47-.58-.85-.82-.85-.07 0-.58.08-.6.1 0 0 .05.07.1.15.25.35.54 1.12.57 1.47v.15l-.06.03-.07.04-.05-.06c-.03-.04-.24-.3-.47-.6-.27-.36-.44-.57-.47-.58-.06 0-.1.02-.1.13-.03.1-.14.36-.23.5-.2.3-.53.62-.88.86-.2.14-.62.35-.78.38-.06.02-.12.04-.12.06 0 .04.13.15.24.2.06.03.23.1.37.13.16.04.38.12.5.16.28.1.63.2.9.23.28.05.75.03.97-.03zm5.8-.33c.07-.17.12-.56.13-1.25v-.32l-.3-.27c-.32-.3-.34-.34-.47-.72-.1-.3-.14-.36-.34-.6-.34-.42-1-1.06-1.68-1.6-.1-.08-.25-.23-.34-.34-.3-.38-.46-.5-.64-.56-.07-.02-.07-.02-.12.04-.05.08-.05.12.02.28.1.2.24.37.6.74.2.18.4.4.44.45.12.17.15.3.18.77.04.66.05.72.2 1 .2.48.58.94 1.03 1.34.34.32.35.32.33.65v.22l.43.13c.25.07.45.12.45.13.02 0 .03-.03.05-.06zm8.66-.32c.1-.3.24-.86.24-.9 0-.02-1.6-.12-2.1-.12-.32 0-.53.03-.55.08 0 .03 0 .06.02.1 0 .04.04.05.12.06.2.03.62.12.78.17.26.08.62.26.8.4.2.13.42.36.52.5.07.08.06.08.18-.28zm-.12.1c0-.02.02-.03.02-.03s0 .03 0 .04c-.03.02-.03.02-.02 0zm-.07-.05c0-.02 0-.03 0 0 0 0 0 .02 0 .03 0 0 0 0 0-.03zm-10.4-.43c0-.02-.1-.13-.18-.26-.54-.7-.74-1.1-.8-1.55-.1-.5-.12-.63-.15-.66-.02-.03-.1-.07-.16-.1-.13-.07-.4-.27-.67-.5-.1-.07-.18-.18-.28-.33-.2-.26-.25-.32-.32-.3-.04 0-.05 0-.05.13-.02.32.12.63.44 1 .14.17.4.4.52.46.12.07.16.14.26.5.05.17.12.35.15.4.22.37.7.86 1.14 1.16.1.08.12.08.1.05zm7.22-.5c.06-.04.17-.23.27-.5.04-.1.08-.18.1-.2 0 0 .25-.06.72-.12l.7-.1.28.03c.5.1.96.2 1.27.3.16.06.3.1.33.12.03 0 .04 0 .06-.1.07-.36.15-1 .2-1.58.04-.44.04-1.6 0-2.07-.13-1.38-.43-2.65-.92-3.9-.15-.37-.44-1-.47-1-.02 0-.22.3-.3.48-.18.35-.3.77-.44 1.55-.34 1.82-.6 3.06-.66 3.2-.08.2-.23.47-.45.82-.2.3-.25.4-.44.78-.2.42-.32.56-.58.64-.03 0-.05 0-.05-.02 0-.06-.15-.34-.3-.52-.26-.36-.95-1.06-1.47-1.5-.13-.1-.32-.27-.43-.38-.2-.18-.38-.3-.4-.27-.04.03-.06.32-.06.8 0 .3 0 .6-.02.75-.1.67-.06 1.33.08 1.8l.03.1.18.07c.1.05.42.17.7.28.26.1.65.26.85.33.76.26 1.08.32 1.22.2zm-14.5-.77c.55-.1.9-.43 1.26-1.17.15-.26.2-.47.2-.63 0-.07-.02-.28-.06-.47-.04-.18-.1-.5-.16-.7l-.08-.4-.2-.36c-.13-.24-.23-.45-.3-.62-.1-.32-.27-.67-.4-.84-.12-.15-.37-.38-.52-.47-.1-.07-.1-.07-.18-.04-.04 0-.23.07-.43.13-.7.2-.82.3-1.28.88-.26.32-.45.5-.6.6-.06.03-.1.06-.12.06 0 0-.03-.05-.05-.1-.05-.15-.2-.4-.3-.55l-.08-.13.04-.08c.06-.13.26-.34.45-.48.2-.15.62-.4.9-.52.1-.05.22-.1.25-.13l.06-.05-.06-.05c-.1-.1-.24-.12-.67-.13h-.4l-.45.45c-.38.36-.52.52-.76.82-.36.47-.73 1-.95 1.37-.1.14-.24.36-.3.47-.15.22-.23.37-.26.5v.06h.16c.1.02.2.03.23.03.05 0 .07 0 .12-.1.04-.04.14-.23.23-.4.1-.18.2-.4.27-.47.2-.3.4-.45.65-.47h.1l.17.2c.15.18.16.2.18.34.05.33.07.37.17.53.2.3.57.72.86.94l.12.1.07-.07c.03-.04.13-.1.2-.14.14-.07.15-.1.47-.55l.2-.27h.1c.22 0 .23.02.27.18 0 .08.03.15.04.17.02.03 0 .03.68-.15.33-.1.67-.1.84-.04.06.02.14.07.17.1l.06.06-.1.1c-.15.25-.46.53-.72.66-.1.05-.23.1-.43.12-.16.03-.35.08-.42.1l-.14.05v.37c0 .3-.02.38-.06.52-.04.12-.17.43-.25.57-.02.02.22.08.43.1.2.04.55.04.73 0zm-1.9-.72c.03-.5.1-.77.3-1 .15-.15.2-.22.2-.26 0-.05-.05-.02-.27.16-.12.1-.28.22-.34.26-.3.18-.5.08-.97-.5-.15-.2-.32-.4-.38-.45-.1-.1-.3-.2-.33-.2-.02 0-.02.06-.02.14 0 .17-.04.27-.17.5-.1.15-.1.2-.1.3 0 .47.78 1.03 1.8 1.3.1.03.2.05.23.05.04 0 .05-.05.06-.32zm12.64.28c.02-.03.03-.26.1-1.8.04-.67.05-.75.13-1.17.04-.26.08-.48.1-.5 0-.04-.2-.33-.62-.94-.42-.6-.44-.62-.5-.6-.04 0-.1.05-.17.1-.1.1-.1.1-.43.8-.04.1-.1.17-.1.18-.04 0-.5-.25-.8-.46-.26-.17-.5-.38-.64-.55-.05-.07-.1-.12-.12-.12 0 0-.03.03-.04.06-.03.04-.02.1.14.66.34 1.18.5 1.66.7 2.2.06.15.14.4.2.56l.07.3.17.12c.2.17.7.5 1.13.8.37.23.63.4.65.4 0 0 .03-.02.04-.04zm-7.4-1.03c.3-.04.6-.12.78-.2l.16-.1v-.1c0-.06-.02-.23-.02-.38-.02-.25-.02-.27.02-.35.05-.1.18-.22.28-.27.03-.02.06-.05.06-.06 0 0-.05-.1-.12-.2-.37-.46-.7-1.05-.83-1.45-.13-.4-.15-.67-.06-.93.03-.1.04-.12.1-.12.02 0 .2 0 .42-.03.2 0 .37-.03.38-.03.04 0 0-.07-.05-.18-.1-.14-.13-.3-.16-.57 0-.1-.03-.2-.03-.2 0-.02-.06.03-.12.08-.07.06-.2.16-.3.23-.2.12-.28.18-1.08.63-.8.46-1.13.72-1.2.98-.05.17.03.4.27.78.33.5.6 1.06.78 1.7.07.22.15.6.15.7 0 .1.02.12.18.1.1 0 .26 0 .4-.03zm2.7-.42c0-.05-.08-.2-.15-.3-.1-.13-.5-.54-.54-.54 0 0 .1.2.24.43.1.13.4.44.43.44 0 0 .02 0 .02-.03zm8.05-.18c.05-.07.15-.2.22-.28.42-.52.54-.94.7-2.55.13-1.6.27-2.14.75-3.08.2-.36.42-.74.7-1.13.1-.15.17-.27.17-.28 0-.06-.18-.2-.34-.3-.3-.14-.5-.2-1.64-.47-.68-.16-1.32-.38-1.7-.57-.3-.14-.43-.25-.8-.6l-.35-.3v.14c0 .08 0 .58.02 1.1 0 .54.03 1.04.03 1.13v.15l-.07-.05c-.06-.03-.12-.15-.4-.74-.18-.37-.35-.74-.37-.8-.08-.18-.15-.48-.24-1-.15-.8-.2-1-.4-1.43-.25-.53-.44-.8-1.26-1.9-.85-1.14-.94-1.24-1.33-1.5l-.2-.12-.5-.12c-.53-.13-.58-.14-.67-.1-.1.04-.56.1-1.14.16-1.1.1-1.54.2-1.7.4l-.05.08.14.06c.3.16 1.1 1.06 1.6 1.83.25.36.57.9 1.07 1.8.5.9.73 1.28 1.44 2.5.68 1.16 1.2 1.96 1.65 2.57.2.3 1.26 1.58 1.42 1.75.06.05.22.2.36.32.48.42.56.5 1.2 1.33.48.62 1.15 1.53 1.44 1.96.05.08.1.14.12.14 0 0 .07-.06.1-.12zm-6.14-.26c0-.02-.06-.18-.13-.36-.18-.44-.7-1.83-.88-2.36-.17-.48-.15-.46-.38-.38-.14.05-.32.08-.8.15-.26.05-.42.1-.5.15l-.05.04.07.13c.28.55.86 1.2 1.6 1.8.2.16.5.4.68.57.2.17.36.3.37.3 0 0 0-.03 0-.04zm-14-.46c.2-.05.38-.5.5-1.13.07-.32.07-.33.05-.74v-.35l.1-.42c.07-.23.12-.42.1-.42 0 0-.4.58-.6.88-.45.75-.68 1.3-.68 1.75 0 .15 0 .2.02.22 0 0 .07.04.14.1.1.1.13.12.2.12.06 0 .13 0 .17-.02zm10.98-1.15c.1-.07.18-.14.18-.15 0 0-.04-.1-.1-.18-.25-.46-.7-.9-.93-.92-.06 0-.07 0-.07.08-.02.25.1.56.4.92.1.14.23.28.26.32.03.04.06.07.07.07 0 0 .08-.07.18-.15zm4.37-1.93c.02-.16.04-.34.04-.4v-.14l-.52-.7c-.4-.6-.53-.8-.64-1.02-.08-.17-.17-.3-.18-.33-.03-.03-.04-.02-.04.05 0 .22-.06 1.18-.08 1.25-.02.05-.07.2-.12.33-.1.24-.18.5-.18.58 0 .02.15.14.43.34.4.3.44.3.78.68l.36.4.06-.4c.04-.2.08-.5.1-.64zm-12.48-.6c.4-.3.82-.63.9-.7l.18-.12-.02-.1c-.02-.14-.1-.3-.2-.37-.07-.06-.2-.1-.3-.1-.12 0-.8.36-1.15.6-.22.18-.54.5-.68.7-.26.4-.42.93-.46 1.48l-.02.2.5-.5c.48-.48.55-.54 1.25-1.08zm5.14.6c.84-.22 1.06-.32 1.82-.83l.26-.2v-.53l-.27-.02c-.32-.02-.46-.04-.6-.1-.13-.07-.13-.1-.07-.32.03-.13.05-.28.06-.45 0-.3.06-.26-.48-.3-.2-.03-.4-.05-.45-.05h-.07v-.18c0-.1.02-.25.06-.38.17-.74.22-1.96.1-2.33-.04-.1-.05-.1-.4-.35l-.35-.26v-.42c.02-.53.05-.87.13-1.2.03-.1-.02-.05-.12.12-.74 1.24-.9 3.53-.44 6.96.13 1.05.12 1 .17 1 .02 0 .33-.08.68-.18zm4.07-1.84c.05-.1.1-.22.24-.83.2-.8.27-1.38.23-1.82-.06-.6-.24-.9-.63-.96l-.13-.02v-.18c0-.23-.02-.4-.1-.62-.03-.12-.06-.17-.1-.2-.05 0-.78-.18-1.03-.23-.58-.1-1.28-.12-1.37-.03-.04.02.2.25.72.7.48.4.74.63.74.68 0 .02-.04.08-.08.12-.3.32-.57 1.38-.44 1.8l.04.12.7.55c.42.3.76.6.8.64.2.24.3.35.35.35.02 0 .05-.03.07-.07zm-2.65-1.3c.07 0 .13-.3.27-1.4l.08-.62-.25-.25c-.25-.24-.43-.36-.53-.36h-.06v1.77l-.05.23c-.08.3-.08.4 0 .5.14.14.35.2.52.16zm.82-4.06c.63-.05.9-.08.9-.12 0-.04-.2-.45-.32-.6-.43-.66-.98-1.05-1.66-1.2-.15-.03-.28-.03-.28 0 0 0-.07.3-.14.65-.13.6-.18.92-.18 1.25v.08l.63-.02c.33 0 .8-.02 1.04-.04z"/></g></g><g><path d="M66.23 56.2h.67v.08h-.28v.7h-.1v-.7h-.3z"/><path d="M67 56.2h.17l.2.53.2-.54h.16v.78h-.1v-.7l-.2.55h-.1l-.22-.55v.7H67z"/></g></svg>