<svg xmlns="http://www.w3.org/2000/svg" width="84.667mm" height="84.434mm" viewBox="0 0 300 299.17442"><g><g><path fill="#fff" d="M143.63 299.03c-6.77-.27-9.6-.52-15.2-1.33-29.5-4.25-56.6-16.93-78.87-36.87-3.46-3.1-9.84-9.56-12.8-12.94-18.63-21.4-30.83-47.46-35.12-75.06-.43-2.82-.86-6.26-1.2-9.87-.58-5.73-.63-17.83-.13-25 1.66-23.13 9.22-46.46 21.6-66.6 12.2-19.8 29.5-37.1 49.2-49.2 21.2-13 44.7-20.46 68.96-21.9 5.77-.33 13.3-.37 18.15-.1 6.4.38 7.46.45 7.76.53.17.04 1.55.23 3.06.4 13.75 1.63 28.53 5.73 41.84 11.63 33.47 14.83 60.7 41.72 75.76 74.82 10.67 23.45 15 48.77 12.86 75.12-1.74 21.38-8.7 43.32-19.78 62.22-6.33 10.8-13.63 20.3-22.64 29.44-10.42 10.58-21.68 19.17-34.2 26.1-16.3 9-33.38 14.7-52.1 17.37-2.52.37-4.04.53-8.47.94-1.88.16-11.36.5-13.24.47-.97 0-3.4-.1-5.43-.17z"/><path d="M140.36 298.8c-36.55-2.52-69.7-17.3-95.34-42.5-16.24-15.94-27.95-33.9-35.72-54.75C-3.9 166.12-3.04 126.6 11.66 91.6 29.93 48.15 68.5 15.35 114.43 4.27c28.08-6.78 57.75-5.36 84.9 4.07 25.88 9 48.82 24.97 66.6 46.4 4.06 4.9 9.2 12.2 12.68 17.97 24.5 40.65 28.1 90.75 9.7 134.64-6.6 15.75-16.2 30.7-27.8 43.23-19.87 21.52-44.87 36.5-72.97 43.78-12.52 3.24-24.65 4.72-38.2 4.66-3.58 0-7.62-.1-8.97-.2zm19.28-3.65c47.67-3.07 90.98-29.63 115.72-70.98 20.9-34.95 26.12-77.6 14.26-116.9-5.27-17.45-14.03-34.16-25.38-48.4-6.77-8.48-15.3-17-23.7-23.7-31.34-24.9-72-35.8-111.8-29.97-27.13 4-52 15.25-73.24 33.16-3.9 3.3-12 11.25-15.27 15.02-12.8 14.74-22.2 30.95-28.37 49-8.32 24.3-10.05 50.52-5 75.8 3.7 18.5 10.7 35.57 21.15 51.5 2.6 3.96 6.28 8.98 6.57 8.98.15 0 2.1-4.67 3.7-8.87.15-.44-.1-.9-1.96-3.7-12.9-19.35-20.33-40.2-22.63-63.53-.45-4.52-.62-15.78-.32-20.6C15.03 115 24 90.3 39.95 68.72c3.96-5.35 7.07-8.96 12.38-14.36 10.73-10.92 22.25-19.35 35.7-26.13 11.97-6.02 23.38-9.9 36.38-12.34 2-.37 3.2-.7 3.5-.95 3.78-3.05 7.3-4.92 12.6-6.7 8.3-2.76 18.9-3.54 26.64-1.94 4.62.96 7.92 2.48 12.5 5.74 3.42 2.45 4.58 3.38 6.93 5.6l1.53 1.44 3.36 1.08c22.08 7.07 42.38 20.08 58.43 37.45 15.3 16.6 26.43 37.15 31.9 58.96 3.03 12.08 4.3 23.4 4.05 36-.37 18.6-3.67 34.12-10.8 50.9-9.64 22.65-23.78 40.75-43.3 55.4-15.32 11.5-31.67 19.2-51 24.05-26.97 6.77-55.28 4.5-83.42-6.64-9.73-3.86-20.87-9.64-26.73-13.88l-1.2-.87h-3.6c-4.45 0-8.77.22-8.77.44 0 .25 5.66 4.63 9.18 7.1 27.3 19.14 59.94 28.26 93.44 26.1zm2.45-16.6c1.73-.17 4.1-.46 5.3-.63 3.03-.44 12.3-2.35 12.54-2.57.04-.05-.74-5.18-1.74-11.4l-1.82-11.32-2.06-7.24-2.06-7.25-1-8.37c-1.37-11.2-1.48-12.56-1.33-16 .2-4.93.8-9.37 1.88-14.42.28-1.24.32-1.86.17-2.45l-.2-.77-2.53-.67c-5.1-1.34-8.2-2.9-11.08-5.52-1.3-1.18-2.08-1.73-2.8-1.98-.56-.18-1.1-.27-1.23-.2-.12.08-.46.52-.75.98-2.52 4-11.96 10.42-19.04 12.96-10.92 3.93-22.74 4.05-34.17.34-5.66-1.84-14.23-7.3-23.04-14.68-2.72-2.28-2.87-2.38-3.57-2.25-3.42.64-8.93 6.34-15.6 16.12-1 1.46-2.6 3.48-3.55 4.48-2.25 2.4-3.06 4.1-2.46 5.23.37.7 1.13.46 3.1-1 2.25-1.68 3.75-2.54 5.3-3.08 1.38-.47 4.1-.9 4.62-.74.3.1 2.57 2.78 3.15 3.73.1.13-.03 1.73-.25 3.55-.22 1.82-.36 3.38-.3 3.48.38.6 3.24-.28 6.07-1.87 1.77-1 6.03-2.88 16.35-7.25 4.82-2.03 5.72-2.34 6.85-2.34 1.88 0 3.92 1.18 5 2.88.64 1.02 1.3 3.05 1.32 4 0 1.34.05 1.35 2.66.9 2.25-.38 2.36-.38 3.15-.03 1.53.7 3.36 3.2 3.78 5.23.47 2.3-.4 4.22-3.35 7.36-1.3 1.4-1.56 1.77-1.56 2.36 0 .57.15.82.8 1.34.5.4 1.07 1.17 1.46 1.97.6 1.23.65 1.46.56 2.85-.07 1.1-.26 1.84-.66 2.66-.7 1.43-2.33 3.25-3.73 4.14-1.13.72-1.18.83-1.37 2.74-.28 2.84-1.63 5.55-3.9 7.85-3.1 3.16-7.85 5.45-15.58 7.5-1.4.36-2.57.76-2.6.88-.1.27 6.4 3.87 10.55 5.86 16.02 7.68 33.04 12.02 51.2 13.06 2.96.17 14.53-.07 17.54-.37zm36.9-9.22c3.8-1.5 8.84-3.86 12.66-5.9 22.85-12.14 42.53-32.2 53.1-54.13 2.03-4.23 4.22-9.26 4.22-9.7 0-.32-2.54-2-5.05-3.33-.93-.5-3.7-1.8-6.12-2.9-2.43-1.1-5.52-2.5-6.87-3.13-1.35-.63-3.2-1.34-4.14-1.58-1.6-.4-1.73-.4-2.22-.1-.28.2-.94.96-1.47 1.7-2.23 3.16-3.4 4.02-5.43 4-1.6-.02-3.04-.42-7.33-2-2.24-.84-5.82-1.9-9.92-2.97-14.2-3.68-18.8-5.46-25.06-9.75-1.28-.87-1.32-.9-1.7-.5-.35.35-.36.6-.15 5.15.2 4.1.32 5.14.84 7.33 2 8.34 2.6 13.03 2.2 17.18-.26 2.8-.96 4.8-3.32 9.52-1.07 2.13-2.13 4.44-2.36 5.13l-.43 1.26.6 2.2c2.82 10.13 4.32 22.15 3.42 27.3-.18 1-.8 3.4-1.38 5.3-2.1 6.88-2.47 9.17-1.55 10 .52.48 1.22.86 1.97 1.1 1.24.37 2.12.18 5.5-1.17zM61.62 255.17c.78-.1 4.46-.42 8.16-.7 7.7-.56 7.46-.5 14.3-3.17 2.52-1 5.55-1.98 7.94-2.6 5.9-1.56 7.3-2.18 7.54-3.32.12-.5.06-.74-.3-1.1-.65-.64-1.97-.5-6.6.68-5.36 1.4-7.08 1.4-7.8 0-.4-.76-.37-.87.22-1.57.36-.44.83-.7 1.58-.87 2.05-.48 4.78-1.67 11.13-4.84 6.6-3.3 8.2-4.32 8.2-5.28 0-.6-.74-1.1-1.8-1.25-1-.13-2.6.52-7.8 3.15-2.08 1.04-4.35 2.13-5.07 2.42-1.76.7-5.74 1.92-6.3 1.92-.6 0-1.28-.7-1.28-1.3 0-.7.95-1.75 2.03-2.23 3.44-1.52 13.15-8.1 17.22-11.67 2.07-1.82 4.2-4.32 4.2-4.92 0-1.13-1.98-1.45-3.76-.62-.93.44-2.3 1.33-10.57 6.94-2.96 2-3.96 2.53-7.28 3.9-1.3.53-2.8 1.2-3.32 1.45-1.1.58-1.92.63-2.56.18-.65-.45-.6-1.46.13-2.45.75-1.03 4.3-3.75 10.02-7.7 3.93-2.7 5.18-3.7 7-5.63 2.17-2.32 2.67-3.5 1.62-3.9-1.17-.46-2.45 0-5.4 1.93-.94.6-3.67 2.08-6.08 3.28-2.42 1.22-5.78 2.97-7.48 3.9-1.7.94-4.23 2.27-5.6 2.96-1.4.7-3.85 2.1-5.48 3.1-3.68 2.3-8.66 4.74-10.32 5.07-1.37.27-2.3.14-2.48-.36-.2-.5.5-2.3 2.25-5.9.9-1.78 1.9-4.07 2.23-5.07.7-2.13 1-4.75.55-5.03-.48-.3-1.26-.2-2.33.3-3.33 1.6-7.43 7.23-13.14 18.06-1.02 1.95-2.4 4.24-3.05 5.1-1.5 1.94-2.05 3.05-2.05 4.05 0 .76.06.83 1.48 1.73 1.05.68 2.65 2.14 5.55 5.1 4.6 4.7 5.93 5.68 8.4 6.17 1.68.33 4.14.38 6.1.1zm-13.28-55.73c.28-.37 1.46-1.95 2.64-3.52 3.8-5.1 7.26-8.64 10.62-10.9.8-.53 2.46-1.33 3.87-1.86 1.7-.63 2.47-1.02 2.47-1.24 0-.17-1.3-1.68-2.9-3.34-3.37-3.5-2.96-3.4-5.3-1.23-3.85 3.56-8.75 10.92-11.3 16.92-1.1 2.63-1.92 5.3-1.7 5.63.26.44 1.1.2 1.6-.46zm83.86-3.4c3.64-.93 6.6-3 8.3-5.83.4-.67 1.37-3 2.14-5.2 1.4-3.95 1.4-3.98 1.37-6-.03-2.27-.54-4.38-1.7-6.94-1.47-3.3-4.27-6.62-6.53-7.77-1.1-.57-1.14-.57-2.85-.33-3.02.42-4.3.67-4.3.84 0 .1.35.66.76 1.26 2.43 3.57 5.57 11.97 5.58 14.9 0 .88-.07 1-.62 1.3-.34.17-.7.26-.82.2-.1-.08-2.23-2.75-4.7-5.93-4.06-5.23-4.57-5.8-5.1-5.8-.48 0-.6.1-.7.56-.8 3.7-3.82 8.03-8.14 11.63-3.3 2.75-6.87 4.8-9.86 5.68-1.53.46-1.62.8-.5 1.7 1.03.8 2.2 1.3 5.2 2.18 1.33.4 3.3 1.04 4.4 1.44 3.48 1.27 6.1 1.96 9.2 2.42 2.62.38 6.73.24 8.88-.3zm56.3-3.48c.8-1.55 1.3-6.4 1.33-12.77v-2.27l-2.84-2.7c-3.12-2.94-3.3-3.2-4.58-6.9-.93-2.66-1.5-3.74-2.78-5.36-3.55-4.45-8.08-8.9-14.08-13.86-3.98-3.27-4.85-4.1-7.12-6.9-1.8-2.2-3.43-3.56-4.78-3.96-.76-.23-.83-.2-1.3.32-.6.72-.6.98.14 2.54.9 1.92 2.16 3.42 6.33 7.6 3.95 3.94 4.66 4.9 5.07 6.85.12.58.36 3.08.53 5.56.18 2.48.4 5 .52 5.58.1.6.83 2.36 1.62 3.94 2.27 4.55 5.6 8.7 10.24 12.72 2.83 2.45 2.9 2.6 2.8 5.7l-.07 2.16 3.98 1.16c2.2.64 4.14 1.17 4.34 1.18.2.02.5-.24.66-.58zm84.33-3.47c1.7-5.6 2.27-7.92 2-8.13-.13-.1-2.44-.3-5.13-.43-2.7-.13-7-.38-9.6-.56-6.17-.43-10-.2-10.72.66-.44.53.28 1.26 1.4 1.4 8.6 1.17 14.68 4.04 19.24 9.1.8.9 1.55 1.56 1.64 1.47.08-.08.6-1.66 1.17-3.5zm-103.4-3.6c0-.08-.73-1.13-1.63-2.35-3.5-4.73-5.66-8.36-6.83-11.48-.27-.7-.68-2.6-.93-4.23-.58-3.9-.92-5.32-1.36-5.65-.2-.16-.92-.57-1.6-.9-1.05-.55-4.88-3.4-7-5.2-.36-.32-1.37-1.63-2.24-2.92-1.57-2.34-2.2-2.9-2.97-2.6-.43.17-.44 2.26 0 3.9.38 1.53 1.63 3.92 2.93 5.65 1.37 1.82 4.6 4.88 6 5.68 1.4.8 1.8 1.5 2.87 5.1.4 1.4.97 2.96 1.23 3.48 1.4 2.74 6 7.8 9.47 10.37 1.6 1.2 2.06 1.44 2.06 1.14zm70.96-4.9c.56-.64 1.12-1.7 1.87-3.57.77-1.92 1.2-2.72 1.5-2.84.52-.22 13.02-2.05 13.94-2.05 1.08 0 8.1 1.38 11.5 2.26 1.73.47 3.93 1.15 4.88 1.53.96.38 1.8.62 1.9.53.47-.47 1.94-10.55 2.4-16.55.32-4 .32-13.83 0-17.94-.98-13-3.66-25.4-8-37.02-2.04-5.47-5.04-12.14-5.46-12.14-.45 0-1.97 2.12-2.98 4.18-1.92 3.9-3.04 8.04-4.8 17.65-.45 2.52-1.83 9.77-3.07 16.1l-2.24 11.54-1.3 2.65c-.72 1.46-2.34 4.26-3.6 6.22-1.26 1.96-2.9 4.88-3.67 6.48-2.22 4.63-3.4 6.2-5.44 7.13-1.2.56-1.54.46-1.77-.5-.22-.92-1.66-3.2-3.42-5.4-2-2.56-9.18-9.72-12.5-12.5-1.33-1.12-3.5-3.05-4.8-4.3-2.3-2.16-4-3.32-4.35-2.96-.34.34-.53 3.08-.54 7.96 0 3-.12 5.94-.3 7.35-.68 5.6-.58 10.36.3 14.77.66 3.16.63 3.13 2.86 4.05 14.64 6.06 21.27 8.3 24.7 8.3l1.57.02.82-.93zm-140.43-7.1c1.95-.52 4.36-1.8 5.8-3.12 1.96-1.77 3.53-4.05 5.4-7.8 1.7-3.46 2.16-4.83 2.16-6.5 0-.53-.7-4.13-1.54-8l-1.55-7.03-1.92-3.56c-1.1-2.04-2.25-4.5-2.68-5.73-1-2.92-1.97-5.1-3.1-7.03-1.72-2.94-6.06-6.83-7.34-6.58-1.48.3-8.87 2.8-10.12 3.45-2.24 1.16-3.65 2.47-6.47 5.98-1.42 1.8-3.13 3.77-3.77 4.4-1.33 1.25-3.08 2.48-3.4 2.37-.24-.08-.28-.14-1.67-3-.5-1.06-1.3-2.46-1.73-3.1-.44-.65-.8-1.33-.8-1.52 0-1.07 3.05-4.34 5.7-6.12 2.26-1.5 5.6-3.36 7.8-4.33 2.2-.96 2.96-1.53 2.62-1.95-.8-.96-4.62-1.65-8.37-1.5l-2.2.1-3.9 3.76c-6.2 5.96-11.28 12.62-19.52 25.63-2.33 3.68-3.28 5.64-2.96 6.15.08.14 1.02.3 2.17.37 1.83.12 2.07.1 2.37-.25.2-.2 1.23-2.08 2.3-4.15 1.1-2.08 2.37-4.32 2.86-5 1.84-2.58 4.1-4.15 6.22-4.34l1.14-.1 1.24 1.5c1.82 2.2 1.9 2.37 2.32 4.8.46 2.7.45 2.68 1.7 4.52 1.46 2.2 4.4 5.52 6.5 7.36 2.6 2.27 2.55 2.25 3.76 1.4.55-.4 1.47-.96 2.05-1.25.97-.47 1.26-.82 3.42-3.98 1.3-1.9 2.47-3.52 2.6-3.6.13-.1.77-.15 1.43-.14 1.23 0 2.2.43 2.2.94 0 .14.15.74.32 1.32.4 1.33.46 1.33 4.24.25 5.73-1.64 8.86-1.95 10.85-1.06 1.15.52 1.93 1.17 1.93 1.64 0 .98-3.2 4.45-5.66 6.16-2.04 1.4-3.42 1.92-6.83 2.54-1.6.3-3.33.7-3.83.92l-.9.4v3.5c0 4.1-.32 5.52-1.85 8.6-.5 1-.86 1.9-.8 1.98.1.18 2.35.7 4.27 1 1.72.26 6.1.1 7.55-.3zm-19.24-7.08c.22-5 .9-7 3.3-9.85 1.28-1.5 1.63-2.16 1.14-2.16-.13 0-1.25.83-2.5 1.84-3.95 3.16-5.43 3.68-7.34 2.56-1.55-.9-2.9-2.26-5.1-5.1-2.42-3.1-4.2-4.92-5.5-5.6-1.26-.68-1.52-.53-1.54.93-.03 1.43-.42 2.58-1.46 4.36-1.14 1.92-1.32 2.6-1.04 3.95.92 4.43 8.2 9.4 17.24 11.75 1.23.32 2.33.56 2.45.53.1-.03.25-1.4.33-3.2zm122.86 2.9c.05-.1.38-5.68.73-12.4.6-12.12.62-12.23 1.42-16.5.45-2.38.8-4.52.8-4.78 0-.53-2.48-4.3-6.54-9.9-3.8-5.27-3.62-5.06-4.35-4.88-.33.1-1.03.6-1.56 1.1-.96.96-1.2 1.4-3.83 7-.56 1.2-1.17 2.25-1.35 2.32-.2.07-1.26-.4-2.72-1.25-5.28-3.03-9.1-5.9-11-8.25-1.06-1.3-1.6-1.54-1.8-.74-.26 1.02 6.4 23.1 8.45 28 .33.8 1 2.83 1.46 4.5.7 2.44.98 3.14 1.5 3.7 1.47 1.55 9.02 6.8 15.43 10.7 2.44 1.5 3.1 1.78 3.36 1.38zm-72.32-9.92c4.38-.62 9.12-2.16 9.47-3.08.07-.18.03-1.33-.1-2.54-.13-1.2-.2-2.88-.16-3.7.1-1.87.53-2.6 2.36-3.96.76-.56 1.22-1.03 1.13-1.17-.08-.13-.76-1.06-1.52-2.07-4.43-5.93-7.84-12.73-8.53-17.03-.4-2.54-.08-5.73.68-6.5.17-.17 1.6-.36 4.2-.55 2.17-.17 4.06-.4 4.2-.53.23-.18.16-.45-.4-1.47-.9-1.6-1.3-3.02-1.57-5.44-.12-1.06-.25-1.97-.3-2-.03-.05-.63.4-1.32.97-1.8 1.5-3.73 2.75-7.54 4.9-1.85 1.05-4.75 2.68-6.43 3.63-5.52 3.12-9.15 5.83-10.3 7.72-1.35 2.16-.75 4.38 2.6 9.58 2.4 3.75 4.46 8.23 6.27 13.64 1.05 3.12 2.14 7.46 2.15 8.5 0 1.3.13 1.4 1.6 1.4.73 0 2.3-.13 3.48-.3zm26.35-4.6c-.18-1.22-1.83-3.6-3.73-5.4-2.43-2.28-2.8-2.44-2-.88.94 1.86 2.75 4.4 4 5.64 1.35 1.32 1.86 1.5 1.73.64zm80.02-3.35c2.86-3.7 3.96-5.73 4.8-8.88 1.1-4.22 1.62-7.77 2.57-18.15 1.1-11.94 2.3-17.35 5.42-24.46 2.04-4.65 5-9.7 8.64-14.8.96-1.36 1.74-2.56 1.74-2.67 0-.34-1.4-1.62-2.54-2.33-2.1-1.32-6.13-2.62-13.32-4.3-8.28-1.92-13.45-3.48-17.9-5.4-3.88-1.65-5.47-2.72-9.25-6.18-1.85-1.72-3.5-3.12-3.65-3.12-.3 0-.27 1.55.17 13.97.28 7.58.26 9.9-.07 9.9-.42 0-1.3-1.04-1.74-2.04-.2-.5-1.23-2.65-2.26-4.78-4.5-9.3-4.7-9.86-6.1-17.86-1.4-7.82-1.73-9.12-3.23-12.63-2.2-5.16-4.84-9.36-11.22-17.77-1.48-1.96-3.95-5.26-5.5-7.34-3.5-4.72-6-7.33-8.8-9.2l-2.1-1.43-5.26-1.26-5.27-1.25-1.1.33c-1.4.43-4.33.86-8.54 1.26-10.86 1.04-14.42 1.67-16.94 2.97-.87.46-1.74 1.07-1.93 1.36-.4.6-.5.47 1.45 1.68 1.76 1.1 7.02 6.7 10.63 11.34 4.42 5.66 7.8 11.1 15.18 24.48 5.52 10 15.17 26.55 19.73 33.84 6.28 10.03 9.16 14 17.18 23.77 6.58 8.02 6.9 8.34 11.63 12.46 2.54 2.17 3.4 3.1 6.15 6.55 5.82 7.3 12.5 16.22 17 22.67.9 1.32 1.76 2.38 1.9 2.34.13-.03 1.3-1.43 2.6-3.1zm-61.34-.77c-.05-.25-.7-1.93-1.45-3.72-1.75-4.2-6.5-17-8.2-22.13-.75-2.2-1.47-4.12-1.63-4.28-.25-.27-.48-.24-1.86.24-1.82.62-2.84.83-6.38 1.28-4.45.58-6.73 1.3-6.73 2.1 0 .55 2.5 4.6 4.3 7.02 2.9 3.88 7.3 8.13 13.86 13.4 1.2.96 3.4 2.82 4.96 4.14 1.54 1.32 2.9 2.4 3.03 2.4.12 0 .17-.2.1-.46zm-135.96-4.24c1.87-.52 3.54-4.23 4.88-10.87.6-3.04.62-3.17.48-6.98l-.14-3.9 1.05-3.64c.93-3.22 1.13-4.32.68-3.67-8.4 11.93-12.08 19.6-12.08 25.15 0 1.6 0 1.62.67 2.03.36.23.87.7 1.13 1.05.74 1 1.77 1.25 3.34.8zm106.82-11.3c1.73-1.4 1.73-1.36.4-3.6-2.55-4.25-7.1-8.5-8.88-8.3-.55.05-.56.08-.53 1.4.03 1.7.75 3.78 1.94 5.6 1.47 2.28 5.05 6.47 5.33 6.26.13-.1.9-.72 1.73-1.37zm41.62-13.53c.77-5.28 1.05-7.73 1.05-9.14 0-1.02-.05-1.1-4.92-8.05-4-5.7-5.14-7.5-6.17-9.66-1.12-2.34-1.8-3.4-2.03-3.14-.04.04-.22 2.74-.4 6l-.3 5.9-.76 2.05c-1.98 5.36-2.5 7.1-2.18 7.57.08.12 1.97 1.52 4.2 3.1 3.9 2.77 4.18 3 7.23 6.35 1.74 1.92 3.27 3.48 3.4 3.48.14 0 .47-1.62.88-4.44zM66.3 112.2c2.82-2.16 6.7-5.13 8.62-6.6 1.93-1.48 3.56-2.8 3.6-2.92.14-.32-.34-2.28-.73-3.03-.7-1.28-2.15-2.26-3.7-2.48-.85-.1-1.14 0-3.84 1.4-10.73 5.56-15.6 10.92-17.82 19.55-.56 2.2-1.2 6.8-1.03 7.3.1.24 1.4-.93 4.97-4.5 4.26-4.22 5.46-5.28 9.94-8.72zm51.42 4.5c3.25-.9 6.42-1.8 7.04-2.05 2.15-.85 5.85-2.9 9.6-5.3l3.76-2.42v-5.43l-2.62-.14c-3.3-.17-5.43-.63-6.28-1.34-.72-.62-.72-.75 0-4.14.24-1.07.43-2.7.43-3.63 0-1.56-.03-1.7-.46-1.86-.26-.1-2.3-.33-4.55-.53-2.24-.2-4.2-.45-4.33-.56-.4-.32-.3-3.28.16-5.04.97-3.66 1.63-10.1 1.62-15.92 0-4.38-.27-6.7-.86-7.6-.2-.3-1.75-1.5-3.48-2.67-1.72-1.18-3.25-2.3-3.4-2.47-.22-.27-.25-1.2-.15-4.66.15-4.57.37-7 .9-9.5.54-2.68.08-2.22-1.97 1.9-3.92 7.94-5.57 17.74-5.56 32.95 0 11.14.85 21.82 2.92 36.83.67 4.98.72 5.2 1.06 5.2.14 0 2.9-.73 6.16-1.62zm39.83-18.05c.4-.53.83-1.88 1.9-6.14 2.2-8.9 2.74-12.6 2.58-18-.1-3.96-.46-5.72-1.53-7.68-.96-1.77-3.07-3.2-4.73-3.2-.86 0-1.03-.34-1.03-2.1 0-1.8-.64-5.3-1.22-6.6-.45-1.03-.63-1.12-3.57-1.8-8.46-1.98-11.46-2.43-16-2.44-3.54 0-4.5.15-4.5.74 0 .37 2.34 2.5 7.34 6.7 4.87 4.1 6.93 6.05 6.93 6.6 0 .17-.37.74-.83 1.26-1.45 1.68-2.8 4.82-3.8 8.76-.68 2.77-.87 6.86-.4 8.52l.34 1.16 6.95 5.33c5.8 4.47 7.16 5.6 8.35 7.04 2.05 2.44 2.5 2.7 3.2 1.83zm-25.78-12.55c.34-.14.58-.45.73-.97.42-1.46 1.2-6.5 1.97-12.6l.77-6.12-2.5-2.47c-1.6-1.56-2.9-2.66-3.56-3-1.16-.6-1.75-.68-1.8-.28-.04.14-.06 3.97-.07 8.5v8.28l-.58 2.56c-.67 2.88-.63 3.68.2 4.68 1.06 1.24 3.47 1.96 4.85 1.44zm1.35-39.2c7.4-.27 14.9-.94 15.32-1.34.2-.22-.93-2.7-2.25-4.87-2.8-4.58-6.95-8.55-11.2-10.7-2.53-1.26-7.73-2.6-8.2-2.13-.1.1-.77 3-1.5 6.4-1.06 4.93-1.4 6.88-1.56 9.27-.15 2.25-.15 3.12.02 3.32.28.34 2.05.36 9.36.07z"/></g></g></svg>