<?xml version="1.0" encoding="UTF-8" standalone="no"?>
<svg
   xmlns:dc="http://purl.org/dc/elements/1.1/"
   xmlns:cc="http://creativecommons.org/ns#"
   xmlns:rdf="http://www.w3.org/1999/02/22-rdf-syntax-ns#"
   xmlns:svg="http://www.w3.org/2000/svg"
   xmlns="http://www.w3.org/2000/svg"
   viewBox="0 0 320 318.72024"
   height="318.72025"
   width="320"
   id="svg2"
   version="1.1">
  <metadata
     id="metadata8">
    <rdf:RDF>
      <cc:Work
         rdf:about="">
        <dc:format>image/svg+xml</dc:format>
        <dc:type
           rdf:resource="http://purl.org/dc/dcmitype/StillImage" />
        <dc:title></dc:title>
      </cc:Work>
    </rdf:RDF>
  </metadata>
  <defs
     id="defs6" />
  <g
     transform="matrix(0.67889905,0,0,0.67889905,-1.9588718,-12.53382)"
     id="logo">
    <path
       id="blue"
       d="m 227.04,487.8123 -1.6,-0.11603 -4.96,-0.34887 -4.96,-0.34883 -6.4,-0.8023 -6.4,-0.80231 -6.08,-1.07961 -6.08,-1.07962 -5.58846,-1.30214 -5.58846,-1.30218 -6.19504,-1.77267 -6.19503,-1.77267 -4.6965,-1.61696 -4.69651,-1.61696 -5.12,-2.00528 -5.12,-2.00532 -4.16,-1.84134 -4.16,-1.84131 -6.08,-3.03939 -6.08,-3.03936 -4,-2.25805 -4,-2.25805 -4.07815,-2.52131 -4.07815,-2.52128 -4.08185,-2.74125 -4.08185,-2.74128 -5.44,-4.08029 -5.44,-4.08032 -4.097107,-3.43114 -4.097104,-3.43113 -3.742896,-3.39587 L 76,423.2233 l -4.658163,-4.68464 -4.658163,-4.68467 -3.690272,-4.12701 -3.690269,-4.12697 -3.150055,-3.84 -3.150054,-3.84 -3.254778,-4.35431 -3.254777,-4.3543 -2.723882,-3.9657 -2.723881,-3.96569 -2.432461,-3.90099 -2.432461,-3.90096 -2.734576,-4.80874 -2.734577,-4.80874 -3.167618,-6.3303 -3.167617,-6.33027 -2.393573,-5.6 -2.393572,-5.6 -2.103807,-5.64724 -2.103808,-5.64726 -1.625694,-5.23274 -1.625693,-5.23276 -1.731397,-6.72 -1.7313979,-6.72 -1.1258538,-5.634 -1.1258534,-5.63399 -0.9559616,-6.68601 -0.9559613,-6.686 -0.4900227,-5.28 -0.4900227,-5.28 -0.3192068,-8.13222 -0.3192064,-8.13221 0.3140718,-8.18779 0.3140719,-8.18779 0.4870743,-5.12 0.4870742,-5.12 0.4897494,-3.84 0.4897492,-3.84 0.6354748,-3.84 0.6354746,-3.84 0.8194666,-4.16 0.8194662,-4.16 1.1021792,-4.64 1.1021784,-4.64 1.424812,-4.97874 1.424812,-4.97874 1.890345,-5.58126 1.890347,-5.58126 2.073636,-5.28 2.073637,-5.28 2.107507,-4.69862 2.107508,-4.69863 2.134023,-4.26137 2.134024,-4.26138 2.409111,-4.32 2.409111,-4.32 1.923638,-3.2 1.923642,-3.2 3.263856,-4.96 3.263856,-4.96 3.281728,-4.46868 3.281725,-4.46869 3.765651,-4.65131 3.765654,-4.65132 4.630128,-5.119998 4.630128,-5.12 5.245066,-5.12 5.245062,-5.12 3.679799,-3.239309 3.679798,-3.239306 5.151222,-4.120694 5.151223,-4.120692 4.768775,-3.412662 4.76878,-3.412663 4.96,-3.193152 4.96,-3.193152 5.3915,-3.088429 5.3915,-3.088425 6.2885,-3.146896 6.2885,-3.146896 4.96,-2.153258 4.96,-2.153261 4.8,-1.845126 4.8,-1.845127 6.41973,-2.099953 6.41974,-2.099955 5.42026,-1.457686 5.42027,-1.457687 5.92,-1.271793 5.92,-1.271793 5.92,-0.963415 5.92,-0.963414 5.76,-0.640014 5.76,-0.640014 5.12,-0.373625 5.12,-0.373626 10.56,-0.003 10.56,-0.003 5.12,0.377179 5.12,0.377178 5.92,0.656502 5.92,0.6565 6.47396,1.079835 6.47395,1.079835 6.64605,1.491355 6.64604,1.491356 5.92,1.704805 5.92,1.704807 5.6205,1.911848 5.62049,1.911847 5.57952,2.240116 5.57949,2.240118 3.25728,1.454387 3.25728,1.454387 6.07222,3.039322 6.07226,3.039325 5.3905,3.087837 5.39046,3.08784 4.96,3.193152 4.96,3.193152 4.76877,3.412662 4.7688,3.412663 5.1512,4.120803 5.15123,4.1208 3.66442,3.2392 3.66441,3.239197 5.26311,5.12 5.26313,5.12 4.63331,5.120001 4.63328,5.120002 4.23325,5.28 4.23325,5.28 2.80598,3.84 2.80599,3.84 3.26643,4.96 3.26643,4.96 2.57066,4.32 2.57069,4.32 1.92553,3.52 1.92557,3.52 1.96877,3.93799 1.96877,3.93798 2.06867,4.61797 2.06864,4.61798 1.89939,4.7572 1.89939,4.7572 2.08192,6.10763 2.08192,6.10762 1.44784,5.05922 1.44784,5.05921 1.10218,4.64 1.10221,4.64 0.81945,4.16 0.81946,4.16 0.63846,3.84 0.6385,3.84 0.47379,3.68 0.47382,3.68 0.49488,5.28 0.49488,5.28 0.32026,8.15858 0.32026,8.15858 -0.32023,8.16142 -0.32022,8.16143 -0.49331,5.28 -0.49335,5.28 -0.80409,5.76 -0.8041,5.76 -1.11782,5.91601 -1.1178,5.91602 -1.87654,7.36398 -1.87654,7.36399 -1.65604,5.28 -1.65606,5.28 -2.08493,5.6 -2.08496,5.6 -2.39459,5.6 -2.39462,5.6 -2.96522,5.95094 -2.96525,5.95098 -1.85152,3.32902 -1.85152,3.32906 -2.58173,4.32 -2.58172,4.32 -3.30695,4.93011 -3.30697,4.93011 -3.60621,4.82989 -3.60624,4.82989 -3.15066,3.84 -3.15069,3.84 -3.70841,4.15936 -3.70845,4.15939 -5.46026,5.44061 -5.46025,5.44064 -3.65975,3.23037 -3.65974,3.2304 -3.36,2.80236 -3.36,2.80234 -5.44,4.08758 -5.44,4.08759 -4.08186,2.7399 -4.08182,2.73991 -4.07818,2.52128 -4.07814,2.52131 -4,2.25805 -4,2.25804 -6.08,3.03937 -6.08,3.03939 -4.16,1.84131 -4.16,1.84134 -5.12,2.00346 -5.12,2.00349 -4.32,1.50125 -4.32,1.50124 -7.04247,2.02189 -7.04248,2.02192 -5.75752,1.29792 -5.75753,1.29789 -5.6,0.96758 -5.6,0.96762 -4.96,0.64912 -4.96,0.64915 -5.28,0.49456 -5.28,0.49453 -12.48,0.10806 -12.48,0.10807 -1.6,-0.116 z m 87.35096,-46.52868 4.00143,-1.59638 4.0838,-1.80064 4.08381,-1.80061 4.64,-2.34982 4.64,-2.34983 4.20915,-2.39251 4.20915,-2.39254 4.47485,-2.85629 4.47485,-2.85632 3.636,-2.59725 3.636,-2.59728 3.40774,-2.65011 3.40775,-2.65011 4.11225,-3.51443 4.11226,-3.5144 5.55894,-5.44253 5.55895,-5.44256 4.228,-4.8 4.22803,-4.8 2.55082,-3.21834 2.55078,-3.2183 2.94813,-4.06301 2.94813,-4.06298 2.01606,-3.11868 2.01603,-3.11869 2.14003,-3.6073 2.14004,-3.60733 2.83804,-5.67267 2.83802,-5.6727 2.44,-5.50624 2.44,-5.50628 v -0.62512 -0.62515 l -2.8,-1.75843 -2.8,-1.75843 -2.08,-1.13155 -2.08,-1.13159 -6.88,-3.0224 -6.88,-3.02238 -4.00173,-1.95017 -4.00169,-1.95017 -2.75392,-0.71192 -2.75392,-0.71191 -0.85773,0.56198 -0.8577,0.56199 -1.50665,2.13079 -1.50666,2.13079 -1.22608,1.35716 -1.22608,1.35719 -1.35494,0.6559 -1.35495,0.65594 h -1.76781 -1.76777 l -2.37117,-0.61031 -2.3712,-0.6103 -5.12944,-1.91907 -5.12947,-1.91905 -11.83053,-3.0835 -11.83056,-3.0835 -5.76,-1.92296 -5.76,-1.92296 -4.8,-2.34681 -4.8,-2.34681 -3.48457,-2.30137 -3.48457,-2.30136 -0.47247,0.47247 -0.47248,0.47247 0.35266,7.79153 0.35265,7.79153 0.64235,2.4 0.64235,2.4 1.10859,5.12 1.10858,5.12 0.49346,3.77638 0.49345,3.77638 v 3.92487 3.92483 l -0.33631,1.89875 -0.33632,1.89879 -0.65646,2.08 -0.65647,2.08 -3.64106,7.52 -3.64107,7.52 -0.19592,0.9888 -0.19592,0.98883 0.96029,3.49117 0.96028,3.4912 0.97633,4.32 0.97632,4.32 0.95817,5.76 0.95816,5.76 0.40623,3.36 0.40622,3.36 0.006,5.6 0.006,5.6 -0.43301,1.92 -0.43301,1.92 -1.7355,5.76 -1.7355,5.76 -0.63798,2.48819 -0.63797,2.48819 -0.0711,1.87696 -0.0711,1.87693 0.59501,0.65875 0.59501,0.65872 1.32499,0.65587 1.32499,0.65588 1.67477,2.5e-4 1.67475,2.6e-4 4.00144,-1.59639 z M 102.4,418.39505 l 4.32,-0.49408 8.48,-0.57946 8.48,-0.57945 4.16,-1.44596 4.16,-1.44595 4.96,-1.94118 4.96,-1.94122 6.23971,-1.63549 6.23971,-1.63552 2.179,-1.00435 2.179,-1.00438 0.30129,-0.56295 0.30129,-0.56297 v -0.64291 -0.64288 l -0.7112,-0.49815 -0.7112,-0.49814 h -1.02579 -1.02579 l -6.9404,1.76 -6.9404,1.76 h -1.54178 -1.54178 l -0.7901,-0.30039 -0.7901,-0.30041 -0.67073,-0.71994 L 136,402.75934 v -1.00388 -1.0039 l 0.74656,-0.70134 0.74656,-0.70138 2.24172,-0.62118 2.24171,-0.62122 3.97173,-1.67059 3.97172,-1.67056 7.84,-3.99015 7.84,-3.99014 1.33573,-0.91117 1.33574,-0.91117 0.65722,-0.83552 0.65722,-0.83552 -0.30073,-0.56192 -0.30072,-0.56192 -0.97753,-0.40489 -0.97753,-0.40493 -1.39908,0.1577 -1.39907,0.15769 -8.91562,4.3536 -8.91563,4.3536 -3.04,0.98935 -3.04,0.98934 -1.76,0.39254 -1.76,0.39255 -0.72788,-0.11546 -0.72789,-0.11545 -0.50094,-0.76455 -0.50095,-0.76454 0.35811,-1.08509 0.35812,-1.08512 0.71072,-0.63632 0.71071,-0.63629 2.86594,-1.52806 2.86595,-1.52803 4.33405,-2.71271 4.33406,-2.7127 4.76938,-3.40999 4.76938,-3.41001 3.39062,-2.89837 3.39062,-2.8984 2,-2.31984 2,-2.31984 v -0.79811 -0.79811 l -1.162,-0.48551 -1.16199,-0.4855 -1.5083,0.36182 -1.5083,0.36186 -3.8097,2.43465 -3.80971,2.43469 -5.14746,3.60989 -5.14747,3.60992 -2.53253,1.50246 -2.53254,1.5025 -5.6,2.37891 -5.6,2.37895 -0.89356,0.36928 -0.89356,0.36931 -1.18644,-0.6353 -1.18644,-0.63526 -0.10253,-1.07027 -0.10254,-1.07031 0.8335,-1.20272 0.8335,-1.20275 1.98903,-1.5912 1.98904,-1.59123 1.12,-0.80474 1.12,-0.80473 3.68,-2.71863 3.68,-2.71859 3.97852,-2.67994 3.97852,-2.67993 2.96759,-2.83706 2.96759,-2.83702 0.97389,-1.47031 0.97389,-1.4703 v -0.71091 -0.71088 l -0.50617,-0.19424 -0.50617,-0.19424 -1.01383,0.0141 -1.01383,0.0141 -1.12,0.40208 -1.12,0.40205 -3.36,2.1758 -3.36,2.17581 -6.56,3.23635 -6.56,3.23632 -3.52,1.96388 -3.52,1.96387 -5.76,2.98579 -5.76,2.98579 -4.32,2.68951 -4.32,2.68947 -4.60143,2.23081 -4.601431,2.23082 -2.198509,0.49648 -2.198505,0.49648 -0.790826,-0.1985 -0.790825,-0.19846 -0.335674,-0.6272 -0.335674,-0.62723 0.650509,-1.93101 0.650506,-1.93098 2.565286,-5.19801 2.565287,-5.19802 0.75832,-2.4 0.758323,-2.4 0.373625,-2.47609 0.373629,-2.47607 -0.200192,-0.32393 -0.200189,-0.32391 h -1.160083 -1.160083 l -1.331603,0.64461 -1.3316,0.64464 -1.98169,1.79331 -1.981686,1.79331 -2.017219,2.60208 -2.017223,2.60205 -1.599795,2.4 -1.599795,2.4 -1.915671,3.2 -1.915667,3.2 -3.301475,6.24 -3.301472,6.24 -2.19415,2.92227 -2.194154,2.92228 -0.47943,1.14745 -0.479434,1.14746 v 1.25971 1.25974 l 1.84,1.01287 1.84,1.01289 6.24,6.34151 6.24,6.34153 1.57191,1.17706 1.571908,1.17706 1.540489,0.78064 1.540487,0.7806 1.687603,0.28106 1.687603,0.28106 2.88,0.042 2.88,0.042 4.32,-0.49411 z M 80.884624,328.75332 83.36,325.34666 l 2.056858,-2.59334 2.056857,-2.59331 2.696698,-2.96266 2.696697,-2.96267 2.879892,-2.41627 2.879891,-2.41628 1.646557,-1.08728 1.64655,-1.08728 3.81174,-1.44152 3.81174,-1.44152 0.23577,-0.25226 0.23577,-0.25226 -4.58807,-4.78023 -4.58806,-4.78022 -0.78232,0.35645 -0.782324,0.35645 -2.130726,1.99319 -2.130726,1.99319 -2.005968,2.43058 -2.005968,2.43059 -1.934535,2.72 -1.934537,2.72 -2.023248,3.36 -2.023252,3.36 -2.151062,4.48 -2.151059,4.48 -0.814208,2.46467 -0.814205,2.46467 -0.212989,1.13533 -0.212989,1.13533 h 0.840237 0.840237 z m 127.909886,-2.52131 2.79835,-0.48797 2.34469,-0.91047 2.34468,-0.91043 2.05849,-1.46893 2.05849,-1.46889 1.27718,-1.53266 1.27719,-1.53265 1.00456,-1.78828 1.00457,-1.78827 2.07864,-6.16307 2.07865,-6.16307 v -2.32762 -2.32763 l -0.77798,-3.06689 -0.77798,-3.06689 -1.29038,-2.7536 -1.29038,-2.75359 -1.44844,-2.17877 -1.44844,-2.17876 -2.28618,-2.15667 -2.28618,-2.15667 -1.31702,-0.59809 -1.31702,-0.59808 -1.12,-0.004 -1.12,-0.004 -3.44619,0.59001 -3.44618,0.59001 -0.17085,0.17085 -0.17084,0.17084 1.48335,2.29302 1.48334,2.29302 1.36185,2.94328 1.36184,2.94329 1.16163,3.04 1.16163,3.04 0.82738,2.88 0.82738,2.88 0.0628,2.21403 0.0628,2.21403 -1.03121,0.61029 -1.0312,0.61029 -0.34277,-0.21184 -0.34276,-0.21184 -7.08738,-9.12607 -7.08739,-9.12607 -0.44346,-0.17017 -0.44346,-0.17017 -0.39715,0.44376 -0.39715,0.44376 -0.5769,1.92 -0.5769,1.92 -0.89213,1.76 -0.89214,1.76 -1.68036,2.4 -1.68035,2.4 -3.40252,3.36 -3.40252,3.36 -3.02612,2.15747 -3.02613,2.15747 -3.2,1.66012 -3.2,1.66013 -2.24,0.7113 -2.24,0.7113 -0.0977,0.4813 -0.0977,0.4813 1.05773,0.79325 1.05772,0.79326 1.31936,0.66232 1.31935,0.66232 3.83709,1.13649 3.8371,1.13648 4.44355,1.55997 4.44355,1.55996 2.72878,0.68065 2.72878,0.68064 2.87122,0.44614 2.87122,0.44614 3.55808,0.031 3.55809,0.031 2.79834,-0.488 z m 90.3007,-6.152 0.50256,-1.2 0.4483,-2.56 0.44831,-2.56 0.28352,-8.16 0.28352,-8.16 -4.59448,-4.48 -4.59448,-4.48 -0.61925,-1.28 -0.61926,-1.28 -1.35395,-3.84 -1.35395,-3.84 -0.59225,-1.16614 -0.59225,-1.16614 -2.90793,-3.56081 -2.90793,-3.56082 -4.54285,-4.57432 -4.54284,-4.57431 -3.84,-3.34675 -3.84,-3.34675 -4.06098,-3.30153 -4.06097,-3.30152 -3.45903,-4.18403 -3.45902,-4.18403 -1.86081,-1.37583 -1.86081,-1.37583 -1.11199,-0.20861 -1.11199,-0.20861 -0.6272,0.56761 -0.6272,0.56761 v 0.85929 0.85929 l 0.94728,1.89111 0.94728,1.89111 2.09182,2.61072 2.09182,2.61073 3.9209,3.68328 3.9209,3.68328 1.76,2.12746 1.76,2.12746 0.42184,0.80071 0.42184,0.80072 0.43799,2.13782 0.438,2.13783 0.3538,5.76 0.35379,5.76 0.33127,2.4 0.33126,2.4 1.19181,2.72 1.19182,2.72 1.3114,2.24 1.3114,2.24 1.87189,2.60778 1.87189,2.6078 2.4,2.76888 2.4,2.76889 4.3507,3.79579 4.3507,3.79578 0.41268,1.47392 0.41267,1.47392 -0.22142,3.01642 -0.22142,3.01643 1.21805,0.33239 1.21804,0.3324 4.8,1.41202 4.8,1.41204 0.73633,0.0328 0.73633,0.0328 z m 131.85455,-4.41701 1.40771,-4.46299 1.09626,-4.14901 1.09625,-4.149 -0.23497,-0.21955 -0.23501,-0.21955 -12.64,-0.75144 -12.64,-0.75145 -5.76,0.0197 -5.76,0.0197 -1.25552,0.46029 -1.25549,0.4603 -0.12451,0.38 -0.12448,0.38 0.66,0.66 0.66,0.65999 h 0.99981 0.99977 l 3.89924,0.7895 3.89923,0.78951 2.98304,0.9748 2.98301,0.9748 2.7224,1.27577 2.72243,1.27578 2.74688,1.82771 2.74688,1.8277 3.20864,3.26218 3.20867,3.26218 0.29101,-0.067 0.29101,-0.067 z m -3.28109,1.74132 -0.21446,-0.67568 0.48809,-0.48807 0.48807,-0.48808 0.51206,0.1965 0.5121,0.1965 0.18854,0.49133 0.18855,0.49134 -0.39501,0.47592 -0.39498,0.47593 h -0.57926 -0.57923 z m -159.38363,-8.68431 -0.23273,-0.4 -2.79924,-3.84 -2.79924,-3.84 -1.81502,-2.88 -1.81503,-2.88 -1.53451,-3.2 -1.5345,-3.2 -0.51056,-1.6 -0.51055,-1.6 -0.48105,-3.36 -0.48105,-3.36 -0.52403,-2.79257 -0.52404,-2.79257 -0.36175,-0.29462 -0.36174,-0.29462 -2.26798,-1.16581 -2.26798,-1.16582 -4.93746,-3.93862 -4.93746,-3.93863 -2.33131,-3.57197 -2.33131,-3.57197 -0.78078,-0.51159 -0.78078,-0.51158 -0.52044,0.19971 -0.52044,0.19971 0.13978,2.95547 0.13979,2.95548 0.97597,2.29346 0.97597,2.29346 1.53903,2.34654 1.53902,2.34654 3.70319,3.71072 3.70319,3.71073 1.76,0.92927 1.76,0.92928 0.84732,1.76 0.84732,1.76 1.17436,4 1.17435,4 0.83228,1.44 0.83228,1.44 1.7528,2.4 1.7528,2.4 3.71325,3.70793 3.71324,3.70792 2.4,1.80613 2.4,1.80613 0.25889,0.006 0.25888,0.006 -0.23273,-0.4 z m 111.12664,-5.97928 1.01168,-0.61688 1.13085,-2.34192 1.13085,-2.34192 0.98768,-2.43281 0.98771,-2.43282 0.38976,-0.52614 0.38979,-0.52615 11.04,-1.63758 11.04,-1.63759 5.76,1.03618 5.76,1.03618 5.44,1.36256 5.44,1.36256 3.03114,1.14001 3.0311,1.14001 0.12723,-0.12721 0.1272,-0.1272 0.58112,-2.83332 0.58115,-2.83332 0.80759,-5.74168 0.80761,-5.74168 0.33968,-3.52 0.33968,-3.52 0.31037,-5.28 0.3104,-5.28 -0.003,-4.96 -0.003,-4.96 -0.31853,-5.60001 -0.31852,-5.6 -0.48832,-4.8 -0.48832,-4.8 -0.81207,-5.28 -0.81206,-5.28 -1.10279,-5.36732 -1.10278,-5.36733 -1.1303,-4.39267 -1.13031,-4.39268 -1.61133,-5.27874 -1.61129,-5.27874 -2.06535,-5.54119 -2.06534,-5.54119 -1.71533,-3.90007 -1.71529,-3.90007 -1.32679,-2.8 -1.32678,-2.8 h -0.24474 -0.24473 l -0.82557,0.88 -0.82554,0.88 -1.17606,1.85859 -1.17603,1.85859 -0.93434,2.08249 -0.93437,2.08249 -0.98838,2.93892 -0.98839,2.93892 -1.07964,4.48 -1.07962,4.48 -1.63546,8.96 -1.63548,8.96 -3.34106,17.12 -3.34106,17.12 -0.82262,2.08 -0.82262,2.08 -1.77722,3.20001 -1.77718,3.2 -2.89328,4.48 -2.89325,4.48 -2.98711,5.98262 -2.98707,5.98263 -1.77376,1.91588 -1.77379,1.91588 -1.36646,0.66149 -1.36644,0.6615 h -0.85897 -0.85898 v -0.46279 -0.46278 l -1.22624,-2.36962 -1.22621,-2.36963 -1.84873,-2.45637 -1.84871,-2.45638 -2.63731,-2.95122 -2.63728,-2.95121 -4.92832,-4.8 -4.92832,-4.8 -4.15232,-3.52 -4.15229,-3.52001 -3.23388,-3.07531 -3.23392,-3.07531 -1.50768,-0.88356 -1.50768,-0.88357 -0.19584,0.19581 -0.19581,0.19581 -0.25066,1.52307 -0.25065,1.52306 -0.0192,8.00956 -0.0192,8.00956 -0.53133,3.99044 -0.53136,3.99045 -0.0262,7.04 -0.0262,7.04 0.42368,2.4 0.42368,2.4 0.64141,2.80344 0.6414,2.80344 0.53936,0.28866 0.5394,0.28867 9.06592,3.70799 9.06588,3.70799 4.75261,1.73522 4.75261,1.73522 4.04576,1.18044 4.04576,1.18044 2.2889,0.41536 2.28886,0.41537 1.12,0.0277 1.12,0.0277 1.01168,-0.61688 z m -217.8433,-12.6775 2.68839,-0.9 2.27161,-1.4934 2.27162,-1.4934 1.81133,-1.9144 1.81134,-1.9144 1.65908,-2.53381 1.65909,-2.53381 2.18464,-4.40737 2.18464,-4.40737 0.34494,-1.60838 0.34494,-1.60839 v -1.8708 -1.87081 l -2.3726,-10.84291 -2.37261,-10.84291 -3.05253,-5.59053 -3.05253,-5.59054 -1.31827,-3.84 -1.31827,-3.84 -1.39381,-2.95473 -1.3938,-2.95474 -1.66412,-2.40724 -1.66413,-2.40723 -1.96491,-1.83803 -1.96493,-1.83803 -1.80797,-1.2 -1.80798,-1.2 h -0.64494 -0.64494 l -0.86709,0.32967 -0.8671,0.32967 -5.28493,1.61036 -5.28493,1.61036 -2.05963,0.93388 -2.05963,0.93388 -1.99849,1.42609 -1.99848,1.42609 -1.90083,2.18 -1.90082,2.18 -2.52851,3.2 -2.52851,3.2 -2.16061,2.14168 -2.16061,2.14168 -1.66539,0.95115 -1.6654,0.95114 -0.43535,-0.16706 -0.43535,-0.16706 v -0.30096 -0.30097 l -1.55059,-3.2648 -1.55059,-3.2648 -1.48941,-2.20237 -1.48941,-2.20237 v -0.56243 -0.56242 l 1.39177,-1.8752 1.39178,-1.87521 1.88822,-1.77539 1.88823,-1.77541 2.08,-1.46633 2.08,-1.46634 3.48814,-2.00118 3.48815,-2.00118 2.75185,-1.25121 2.75186,-1.2512 1.03204,-0.53436 1.03205,-0.53437 0.15767,-0.41087 0.15766,-0.41088 -0.77422,-0.5073 -0.77423,-0.50729 -1.53549,-0.49279 -1.53548,-0.49278 -5.81186,-0.15902 -5.81187,-0.15902 -6.28459,6.02235 -6.2846,6.02236 -2.32739,2.89611 -2.3274,2.8961 -3.991567,5.28 -3.991571,5.28 -2.79151,4.05883 -2.791511,4.05883 -3.153664,5.06117 -3.153664,5.06117 -1.779232,2.81671 -1.779232,2.8167 -0.532774,1.60403 -0.532771,1.60403 0.11263,0.11262 0.11263,0.11264 3.039972,0.34736 3.039974,0.34736 0.67681,-0.76835 0.676809,-0.76836 2.805149,-5.39237 2.805152,-5.39237 1.376701,-2.09093 1.376697,-2.09093 1.931469,-1.84231 1.931469,-1.84231 1.77369,-0.78441 1.773689,-0.78441 1.687655,-0.19835 1.68766,-0.19835 2.47833,3.04993 2.47833,3.04994 0.46993,2.34607 0.46994,2.34606 0.34103,1.83076 0.34103,1.83076 1.53352,2.32924 1.53352,2.32925 2.70637,3.2 2.70637,3.2 3.29896,2.951 3.29895,2.95101 0.61605,0.19553 0.61606,0.19553 0.82011,-0.58654 0.82011,-0.58653 2.25593,-1.29549 2.25593,-1.29549 3.87473,-5.58451 3.87473,-5.58451 h 2.46266 2.46266 l 0.49988,0.50041 0.49988,0.50041 0.56305,2.05959 0.56305,2.05959 0.94797,-0.0961 0.94797,-0.0961 4.48,-1.24008 4.48,-1.24008 2.46651,-0.5038 2.46651,-0.50379 h 2.51541 2.51541 l 1.57808,0.4708 1.57808,0.47081 1.2,0.99249 1.2,0.99249 v 0.46306 0.46306 l -0.85144,1.35364 -0.85144,1.35365 -2.10856,2.19661 -2.10856,2.19661 -1.76,1.35778 -1.76,1.35778 -1.7627,0.99253 -1.7627,0.99253 -1.40606,0.49608 -1.40606,0.49609 -4.51124,0.81345 -4.51124,0.81345 -1.12,0.54354 -1.12,0.54355 -0.0253,5.28 -0.0253,5.28 -0.69641,2.56 -0.6964,2.56 -1.43883,2.98966 -1.43884,2.98966 0.14678,0.2375 0.14679,0.2375 2.97377,0.52966 2.97377,0.52967 0.8,0.14019 0.8,0.14019 4.64,-0.0954 4.64,-0.0954 2.68838,-0.9 z M 129.6,281.67161 v -2.80839 l 0.32706,-2.71161 0.32705,-2.7116 0.66528,-2.23613 0.66528,-2.23613 0.60461,-1.18513 0.60461,-1.18514 1.94599,-2.17874 1.946,-2.17873 0.30832,-0.56 0.30832,-0.56 h -0.44641 -0.4464 l -2.52486,2.1116 -2.52485,2.11161 -1.77792,1.21816 -1.77793,1.21816 -1.22115,0.51024 -1.22116,0.51023 -1.16092,-0.003 -1.16092,-0.003 -1.6,-0.9214 -1.6,-0.92139 -1.54146,-1.36169 -1.54146,-1.36168 -3.24719,-4.19392 -3.24719,-4.19392 -1.94053,-1.92 -1.94054,-1.92 -1.67278,-0.90104 -1.67279,-0.90104 -0.13292,0.42104 -0.13293,0.42104 -0.1424,2.08707 -0.14241,2.08708 -0.6315,1.27292 -0.63149,1.27293 -1.366666,2.56 -1.366659,2.56 0.167801,1.63606 0.167802,1.63607 0.872189,1.72117 0.872183,1.72118 2.11547,2.19386 2.11547,2.19385 2.56,1.69993 2.56,1.69993 2.93652,1.46778 2.93651,1.46778 2.50349,0.97886 2.50348,0.97886 3.84,1.08365 3.84,1.08365 0.56,0.0187 0.56,0.0187 v -2.8084 z m 193.09075,1.1284 0.16995,-1.36 0.85252,-17.76 0.85251,-17.76001 1.3695,-7.36 1.36954,-7.36 -0.74112,-1.28 -0.74112,-1.28 -3.76947,-5.44 -3.7695,-5.44 -3.4879,-4.72 -3.48789,-4.72 h -0.46978 -0.46977 l -0.94251,0.4874 -0.94251,0.48739 -1.2106,1.53151 -1.21059,1.53152 -1.591,3.49509 -1.59101,3.49509 -1.28,2.53897 -1.28,2.53896 -0.52164,0.3212 -0.52164,0.32121 -3.79836,-2.20163 -3.79836,-2.20164 -3.68,-2.46025 -3.68,-2.46025 -2.44761,-2.0941 -2.44762,-2.09411 -1.50777,-1.85818 -1.50777,-1.85818 -0.26295,-0.0994 -0.26295,-0.0994 -0.32212,0.6019 -0.32213,0.60189 3.63722,12.61755 3.63721,12.61755 1.81657,5.6 1.81657,5.6 1.93131,5.12001 1.93131,5.12 1.22544,4.32 1.22544,4.32 1.78421,1.6794 1.7842,1.67941 4.38034,3.11013 4.38034,3.11013 5.28538,3.40101 5.28538,3.40102 3.00808,1.80945 3.00808,1.80945 h 0.57232 0.57232 z m -112.72434,-14.51753 3.40641,-0.47066 2.99359,-0.79518 2.99359,-0.79518 2.36591,-1.11676 2.3659,-1.11675 -0.2091,-2.31397 -0.20911,-2.31397 -0.20447,-3.10902 -0.20447,-3.10901 0.54283,-1.42138 0.54283,-1.42137 1.51849,-1.38962 1.5185,-1.3896 0.92165,-0.6561 0.92166,-0.6561 -1.92621,-2.5439 -1.92621,-2.54391 -1.92309,-2.88 -1.9231,-2.88 -1.94363,-3.37479 -1.94362,-3.37479 -1.26911,-2.88395 -1.2691,-2.88395 -0.83806,-2.65293 -0.83806,-2.65292 -0.36377,-2.92833 -0.36378,-2.92834 0.38881,-2.26863 0.38881,-2.26864 0.59057,-0.97112 0.59058,-0.97112 3.14918,-0.2164 3.14917,-0.21639 3.18744,-0.30729 3.18744,-0.30729 0.28078,-0.28078 0.28078,-0.28077 -0.83171,-1.2568 -0.8317,-1.25679 -0.6579,-1.87184 -0.6579,-1.87185 -0.32669,-2.74714 -0.32669,-2.74715 -0.14498,-0.74771 -0.14498,-0.74773 -1.66694,1.4017 -1.66695,1.40169 -1.6,1.14074 -1.6,1.14075 -2.72,1.61635 -2.72,1.61635 -7.84,4.38055 -7.84,4.38055 -3.68,2.41114 -3.68,2.41114 -2.58482,2.59724 -2.58481,2.59724 -0.42196,1.53853 -0.42196,1.53853 0.37585,1.67947 0.37585,1.67947 0.93208,1.97089 0.93208,1.97088 2.27138,3.53243 2.27139,3.53242 1.88118,3.75869 1.88118,3.75869 1.51107,3.68 1.51106,3.68001 1.2501,3.68 1.2501,3.68 0.91638,3.71428 0.91637,3.71429 0.22823,1.88571 0.22822,1.88572 0.30761,0.38543 0.3076,0.38543 2.13291,-0.16887 2.13291,-0.16886 z M 250.56,261.96024 v -0.11977 l -0.47939,-1.35875 -0.4794,-1.35874 -1.40068,-1.96289 -1.40069,-1.96288 -2.50091,-2.37562 -2.50092,-2.37563 -0.11409,0.34229 -0.1141,0.34228 1.44964,2.45196 1.44964,2.45197 1.44403,1.87662 1.44403,1.87662 1.33902,1.14615 1.33902,1.14616 h 0.2624 0.2624 z M 373.83318,258.8 l 1.51316,-1.99999 2.41433,-3.17053 2.41431,-3.17053 1.11462,-2.26947 1.11462,-2.26948 0.77783,-2.72 0.77782,-2.72 0.63411,-3.2 0.63408,-3.2 0.50397,-3.68 0.50394,-3.68 0.96397,-10.24 0.964,-10.24 0.49654,-3.84 0.49658,-3.84 0.79923,-4.11192 0.79923,-4.11193 1.09098,-3.75414 1.09097,-3.75413 1.72554,-4.29394 1.7255,-4.29394 1.6856,-3.36 1.6856,-3.36 1.93194,-3.36 1.9319,-3.36 2.55114,-3.81462 2.55113,-3.81462 1.71709,-2.39312 1.71709,-2.39312 v -0.3915 -0.39151 l -1.41462,-1.30395 -1.41463,-1.30395 -2.34454,-1.18069 -2.34451,-1.18069 -4.16087,-1.36362 -4.16083,-1.36362 -7.04,-1.64592 -7.04,-1.64592 -3.68,-0.96245 -3.68,-0.96246 -4.16,-1.2586 -4.16,-1.2586 -3.68,-1.39924 -3.68,-1.39924 -3.04,-1.52921 -3.04,-1.52922 -1.77616,-1.20563 -1.77616,-1.20563 -4.90483,-4.51144 -4.90483,-4.51143 H 339.47901 339.2 l -0.005,2.32 -0.005,2.32 0.52326,15.90996 0.52327,15.90997 -0.18807,0.49003 -0.18803,0.49004 h -0.32499 -0.32499 l -0.96064,-0.88 -0.96061,-0.88 -4.67194,-9.76 -4.6719,-9.76 -0.9088,-2.24 -0.90883,-2.24 -0.80701,-3.2 -0.80701,-3.2 -1.30793,-7.52 -1.30794,-7.52 -0.81514,-3.36 -0.81513,-3.359998 -1.13651,-2.88 -1.13651,-2.88 -1.54375,-3.087568 -1.54375,-3.087565 -1.6662,-2.832435 -1.6662,-2.832432 -1.90735,-2.847498 -1.90734,-2.847498 -7.80346,-10.432502 -7.80336,-10.432503 -2.68907,-3.52 -2.68906,-3.52 -2.56416,-2.612966 -2.56415,-2.61297 -3.33238,-2.200858 -3.33237,-2.200861 -7.88661,-1.863116 -7.8866,-1.863117 -0.88425,0.163062 -0.88425,0.163059 -3.32437,0.667216 -3.32438,0.667213 -8.35562,0.810771 -8.35563,0.810772 -4.8,0.672819 -4.8,0.672819 -2.96119,0.744947 -2.96119,0.744951 -1.95237,1.040598 -1.95236,1.040598 -0.5168,0.78874 -0.5168,0.788739 0.59494,0.34879 0.59494,0.348794 1.84078,1.203347 1.84078,1.203347 2.83463,2.966176 2.83464,2.966176 3.23284,3.670477 3.23284,3.670477 2.86834,3.710336 2.86833,3.710333 2.89138,4.289667 2.89137,4.289665 3.1946,5.28 3.19458,5.28 7.45184,13.428176 7.45183,13.428172 9.4034,16.10255 9.40341,16.10255 4.387,7.10928 4.387,7.10927 4.1761,6.24 4.17609,6.24 3.05469,4.17543 3.05469,4.17543 8.90527,10.86457 8.90528,10.86457 1.47456,1.55363 1.47456,1.55362 4.4729,3.88638 4.47286,3.88637 1.63405,1.63389 1.63405,1.63389 2.55664,3.16611 2.5566,3.16611 4.12301,5.28 4.12301,5.28 6.09344,8.18168 6.09344,8.18167 3.84,5.492 3.84,5.492 0.32,0.006 0.32,0.006 1.51318,-2 z M 279.68,255.12445 v -0.23555 l -1.94884,-4.77082 -1.94885,-4.77083 -5.04564,-13.63362 -5.04565,-13.63363 -1.6798,-5.0632 -1.67981,-5.0632 -0.4746,-0.18212 -0.47461,-0.18213 -2.4511,0.85117 -2.4511,0.85117 -6.52915,0.94574 -6.52914,0.94574 -1.63086,0.47432 -1.63085,0.47433 -0.60719,0.4443 -0.60718,0.44431 0.1949,0.76979 0.1949,0.76978 1.93702,3.27259 1.93702,3.27258 2.35616,3.12782 2.35615,3.12783 3.55912,3.72703 3.55911,3.72703 3.6,3.17874 3.59999,3.17874 4,3.21455 4,3.21454 4.48,3.86098 4.48,3.86098 0.24,0.0183 0.24,0.0183 v -0.23555 z M 234,230.4636 l 2.16,-1.73568 v -0.54416 -0.54416 l -1.32831,-2.2198 -1.32831,-2.2198 -2.00468,-2.58316 -2.00468,-2.58317 -2.44217,-2.28071 -2.44216,-2.28072 -1.74105,-0.85181 -1.74104,-0.85181 -0.4838,0.18565 -0.4838,0.18565 v 1.48385 1.48385 l 0.50357,1.94335 0.50357,1.94334 0.81399,1.62285 0.81398,1.62284 1.13148,1.589 1.13148,1.58899 3.0114,3.61727 3.01139,3.61726 0.37957,-0.22662 0.37957,-0.22663 z m 64.37178,-15.3436 0.18264,-0.88 0.96983,-6.72 0.96983,-6.72 0.19848,-3.53598 0.19848,-3.53598 -0.33688,-0.62946 -0.33688,-0.62947 -7.24304,-10.34757 -7.24305,-10.34758 -2.21499,-4.42154 -2.21498,-4.42153 -0.33061,-0.20433 -0.33061,-0.20433 -0.002,0.25889 -0.002,0.25888 -0.47721,8.76077 -0.47721,8.76077 -0.37558,1.31923 -0.37557,1.31923 -1.52393,3.8723 -1.52394,3.87229 -0.51885,2.0023 -0.51884,2.00229 0.0977,0.59434 0.0977,0.59434 6.42123,4.57107 6.42122,4.57107 4.9212,5.36 4.92121,5.36 h 0.23215 0.23214 l 0.18264,-0.88 z m -109.91703,-13.8494 9.41235,-2.5694 2.54532,-1.10302 2.54531,-1.10303 3.21351,-1.79494 3.21351,-1.79494 4.98762,-3.2167 4.98763,-3.2167 0.40951,-0.51011 0.40952,-0.5101 -0.0895,-3.68583 L 220,178.08 l -3.68,-0.22549 -3.68,-0.2255 -2.08,-0.35647 -2.08,-0.35646 -1.33301,-0.58811 -1.33301,-0.5881 -0.55062,-0.84035 -0.55061,-0.84034 0.76216,-3.10959 0.76216,-3.10959 0.002,-3.68 0.002,-3.68 -6.08,-0.56017 -6.08,-0.56017 -1.12,-0.23983 -1.12,-0.23983 0.0192,-3.68 0.0192,-3.68 0.67961,-3.04 0.67961,-3.04 0.50526,-3.98054 0.50527,-3.98055 0.36885,-6.3099 0.36886,-6.30989 -0.36261,-4.31512 -0.36262,-4.31512 -0.47263,-1.37184 -0.47264,-1.37184 -0.41765,-0.25051 -0.41791,-0.25051 -4.95183,-3.45209 -4.95183,-3.45209 -0.28347,-1.44 -0.28347,-1.44 0.35071,-7.211745 0.35071,-7.211751 0.49449,-2.868249 0.49449,-2.868253 0.17167,-0.56 0.17166,-0.56 h -0.2845 -0.28449 l -1.32314,2.32 -1.32314,2.32 -0.80712,1.833718 -0.80711,1.833719 -1.14759,3.286281 -1.14758,3.286282 -0.94327,3.839998 -0.94328,3.84 -0.62161,3.68 -0.62161,3.68 -0.48663,4.32 -0.48662,4.32 -0.32607,6.08 -0.32608,6.08 10e-4,5.28 0.001,5.28 0.31405,7.04 0.31405,7.04 0.33131,4.32 0.33131,4.32 0.48053,5.12 0.48053,5.12 0.81051,6.88 0.81052,6.88 0.93963,6.72 0.93964,6.72 9.6e-4,0.24 9.6e-4,0.24 h 0.56119 0.5612 l 9.41236,-2.5694 z m 62.34787,-29.12559 0.72261,-1.45498 0.9198,-3.98502 0.9198,-3.98501 1.00282,-3.80191 1.00281,-3.80192 0.78516,-4.56186 0.78516,-4.56186 0.35943,-4.43622 0.35943,-4.43623 -0.21538,-2.88 -0.21538,-2.88 -0.4459,-2.35595 -0.4459,-2.35595 -1.00025,-2.17007 -1.00025,-2.17007 -1.16829,-1.13819 -1.16829,-1.13818 -1.44,-0.62033 -1.44,-0.62033 -1.48649,-0.21005 -1.48649,-0.21004 -0.1324,-0.54542 -0.13241,-0.54542 -0.0738,-2.56 -0.0738,-2.56 -0.3234,-1.92 -0.3234,-1.92 -0.66434,-2.14702 -0.66434,-2.14702 -0.51954,-0.46115 -0.51954,-0.46115 -6.46073,-1.47822 -6.46073,-1.47822 -4.73927,-0.823263 -4.73927,-0.823264 -5.28,-0.150115 -5.28,-0.150115 -1.41485,0.264333 -1.41486,0.264332 -0.13362,0.400874 -0.13363,0.400874 1.93644,1.894794 1.93643,1.8948 6.71934,5.61884 6.71935,5.61884 2.11353,1.9771 2.11354,1.97711 0.41526,0.82382 0.41526,0.82382 -0.16179,0.48 -0.1618,0.48 -1.20835,1.3247 -1.20835,1.3247 -1.27418,2.6753 -1.27418,2.6753 -0.97875,3.2 -0.97875,3.2 -0.54122,2.88 -0.54122,2.88 0.0171,3.52 0.0171,3.52 0.45662,1.28 0.45661,1.28 10.69451,8.23115 10.69452,8.23114 1.12,1.25057 1.12,1.25057 1.71796,1.97557 1.71795,1.97557 0.68205,-0.0973 L 250.08,173.6 Z m -40.45195,-19.02139 0.47639,-0.47639 0.48261,-2.16361 0.48261,-2.16362 0.52401,-3.2 0.52401,-3.2 1.21346,-9.58817 1.21347,-9.58817 -3.62238,-3.59894 -3.62238,-3.59894 -1.69124,-0.96989 -1.69123,-0.96988 -0.75608,-0.003 -0.75607,-0.003 0.22866,11.44 0.22866,11.44 -0.37408,2.72 -0.37408,2.72 -0.6185,2.38027 -0.61851,2.38026 0.001,1.45974 0.001,1.45973 0.62353,1.02261 0.62352,1.02262 0.81819,0.53609 0.81818,0.53609 1.19709,0.42725 1.1971,0.42725 1.49714,0.014 1.49714,0.014 0.47639,-0.47638 z M 221.28,91.5226 l 4.16,-0.314029 5.12,-0.51968 5.12,-0.51968 0.27452,-0.255126 0.27452,-0.255123 -1.96553,-3.789479 -1.96553,-3.789481 -2.14899,-3.023469 L 228,76.033067 l -2.82894,-2.818477 -2.82894,-2.818477 -3.13412,-2.086464 -3.13411,-2.086464 -2.51695,-1.088361 -2.51694,-1.088362 -2.56,-0.672563 -2.56,-0.67256 -1.82291,-0.194467 -1.82291,-0.194471 -0.17725,0.763802 -0.17724,0.763798 -1.93303,8.96 -1.93302,8.960001 -0.29749,4 -0.29748,4 -0.009,1.251437 -0.009,1.251436 9.84,-0.213123 9.84,-0.213123 4.16,-0.314029 z"
       style="fill:#809ec0" />
    <path
       id="black"
       d="m 223.2,486.99649 -4.16,-0.27158 -5.92,-0.64388 -5.92,-0.64387 -5.12,-0.79769 -5.12,-0.79773 -4.81823,-0.95952 -4.81824,-0.95952 -5.26176,-1.29402 -5.26177,-1.29401 -4.8,-1.41408 -4.8,-1.41408 -5.12,-1.74144 -5.12,-1.74144 -4.64,-1.83264 -4.64,-1.83264 -4.30388,-1.90304 -4.30387,-1.90308 -6.09613,-3.04707 -6.09612,-3.0471 -4.8,-2.75015 -4.8,-2.75011 -3.04,-1.91101 -3.04,-1.91097 -4.25884,-2.84618 -4.25884,-2.84617 -5.661158,-4.26593 -5.661162,-4.26592 -3.52,-2.94688 -3.52,-2.94684 -4.16,-3.77792 -4.16,-3.77796 -5.452006,-5.551 -5.452007,-5.55101 -3.429645,-3.92362 -3.429644,-3.92361 -3.624279,-4.55639 -3.624281,-4.55638 -1.76145,-2.4 -1.761453,-2.4 -2.869238,-4.16 -2.869242,-4.16 -2.416086,-3.84 -2.416087,-3.84 -2.645264,-4.61312 -2.645264,-4.61315 -2.775246,-5.46685 -2.775246,-5.46688 -1.869761,-4.16 -1.869761,-4.16 -2.205575,-5.52832 -2.205574,-5.52832 -1.771199,-5.19168 -1.771198,-5.19168 -1.70418,-5.92 -1.704181,-5.92 -1.2900136,-5.6 -1.2900138,-5.6 -0.8241507,-4.48 -0.8241507,-4.48 -0.6348372,-4.32 -0.6348371,-4.32 -0.6358249,-6.24 -0.635825,-6.24 -0.3664317,-7.84 -0.3664317,-7.84 0.2084541,-6.88 0.2084544,-6.88001 0.4825527,-6.24 0.4825526,-6.24 0.6322224,-4.96 0.6322224,-4.96 0.810808,-4.8 0.810808,-4.8 0.8039981,-3.84 0.8039977,-3.84 1.400921,-5.6 1.400921,-5.6 1.808779,-5.92 1.808779,-5.92 2.239698,-6.04893 2.239697,-6.04893 1.913974,-4.51107 1.913974,-4.51107 2.83689,-5.85014 2.83689,-5.85015 2.147364,-3.90985 2.147364,-3.90986 2.560726,-4.32 2.560723,-4.32 3.515203,-5.28 3.515204,-5.28 3.574496,-4.8 3.574496,-4.8 3.150675,-3.84 3.150672,-3.84 3.694745,-4.159998 3.694749,-4.16 5.453687,-5.444442 5.453686,-5.444442 5.121334,-4.475558 5.121338,-4.475559 3.038662,-2.427772 3.038666,-2.42777 3.906502,-2.907686 3.906508,-2.907687 3.93349,-2.705174 3.9335,-2.705178 4.64,-2.866525 4.64,-2.866528 4.32,-2.429683 4.32,-2.429683 7.52,-3.689281 7.52,-3.68928 5.10851,-2.112592 5.10851,-2.112592 5.64091,-2.040342 5.64091,-2.040341 5.25058,-1.58283 5.25058,-1.582831 5.76,-1.466237 5.76,-1.466238 5.6,-1.115809 5.6,-1.11581 5.28,-0.809832 5.28,-0.809833 6.24,-0.6326 6.24,-0.6326 7.52,-0.374811 7.52,-0.374812 7.76024,0.203914 7.76023,0.203914 6.15977,0.493313 6.15976,0.493313 4.96,0.631989 4.96,0.631989 4.8,0.810128 4.8,0.810128 4.47119,0.946206 4.47119,0.946205 6.08881,1.572607 6.08881,1.572606 4.77746,1.497949 4.77745,1.497949 4.66255,1.688803 4.66254,1.688803 3.26554,1.307952 3.26556,1.307952 4.09444,1.807491 4.09446,1.807495 6.08,3.037184 6.08,3.037184 4.73901,2.694032 4.73904,2.694035 3.90096,2.432461 3.90099,2.432461 4,2.744947 4,2.74495 5.00522,3.760804 5.00521,3.7608 4.43479,3.721833 4.43478,3.721834 5.1767,4.783667 5.17668,4.783665 4.1119,4.385897 4.11187,4.385898 2.42298,2.72 2.42297,2.719998 3.14756,3.84 3.14755,3.84 3.57872,4.8 3.57872,4.8 3.50745,5.28 3.50746,5.28 2.5735,4.32 2.57354,4.32 2.15296,3.93691 2.15299,3.93691 2.81552,5.82309 2.81552,5.82309 2.10042,4.96824 2.10045,4.96824 2.08345,5.69808 2.08349,5.69808 1.47296,4.69368 1.47293,4.69368 1.7256,6.72 1.7256,6.72 1.11417,5.6 1.11421,5.6 0.80983,5.28 0.80979,5.28 0.64077,6.24 0.64073,6.24 0.37146,8.86696 0.37145,8.86695 -0.37302,8.57305 -0.37302,8.57305 -0.64052,6.24 -0.64051,6.24 -0.65833,4.48 -0.65831,4.48 -0.75123,4 -0.75123,4 -1.01331,4.62497 -1.01332,4.62497 -1.53593,5.61503 -1.53594,5.61503 -1.50985,4.64 -1.50983,4.64 -2.04966,5.52003 -2.04967,5.52003 -2.10796,4.87997 -2.10794,4.87997 -2.83203,5.76 -2.83207,5.76 -3.20339,5.67885 -3.20339,5.67884 -3.08966,4.88116 -3.0897,4.88115 -3.81315,5.36368 -3.81312,5.36368 -3.82704,4.79363 -3.82707,4.7936 -3.42948,3.92269 -3.4295,3.92272 -5.29136,5.40141 -5.29136,5.40144 -5.12,4.63942 -5.12,4.63939 -5.28,4.22698 -5.28,4.22694 -3.52,2.55562 -3.52,2.55565 -3.84,2.56477 -3.84,2.5648 -3.04,1.91068 -3.04,1.91069 -4.8,2.74925 -4.8,2.74928 -6.4,3.19658 -6.4,3.19654 -4.96,2.15037 -4.96,2.15037 -4.16,1.59734 -4.16,1.59734 -5.12,1.74141 -5.12,1.74141 -4.32,1.2463 -4.32,1.24631 -5.12,1.27805 -5.12,1.27804 -4.96,0.98266 -4.96,0.98269 -5.12,0.79773 -5.12,0.79769 -5.92,0.63587 -5.92,0.63584 -5.11454,0.32557 -5.11454,0.32557 -10.24546,-0.046 -10.24546,-0.046 z m 26.24,-5.08787 6.72,-0.3304 6.24,-0.63533 6.24,-0.63536 5.28,-0.81683 5.28,-0.81683 4.8,-0.9698 4.8,-0.96976 5.6,-1.3854 5.6,-1.38538 5.44,-1.64819 5.44,-1.64823 5.76,-2.08761 5.76,-2.08762 5.6,-2.39581 5.6,-2.3958 4.48,-2.1489 4.48,-2.14893 4.32,-2.33949 4.32,-2.33948 4.64,-2.75159 4.64,-2.75155 5.29165,-3.54298 5.29168,-3.54297 4.46832,-3.34535 4.46835,-3.34537 5.6,-4.68752 5.6,-4.68752 4.68266,-4.43431 4.68265,-4.4343 3.34551,-3.52 3.34547,-3.52 2.01789,-2.24 2.01788,-2.24 3.35399,-4 3.35401,-4 3.74832,-4.99767 3.74832,-4.99766 3.19962,-4.76234 3.19965,-4.76233 2.34144,-3.84 2.34147,-3.84 2.32982,-4.20285 2.32983,-4.20288 2.27504,-4.54147 2.27507,-4.54144 2.02909,-4.53568 2.02909,-4.53568 1.84224,-4.64 1.84224,-4.64 1.88969,-5.6 1.88973,-5.6 1.25501,-4.32 1.25497,-4.32 1.268,-5.28 1.268,-5.28 0.65466,-3.2 0.65466,-3.2 0.7951,-4.8 0.7951,-4.8 0.48509,-3.84 0.48509,-3.84 0.55296,-5.92 0.55299,-5.92 v -13.6 V 239.52 l -0.55885,-5.92 -0.55884,-5.92 -0.78928,-5.82932 -0.78932,-5.82933 -0.80995,-4.41067 -0.80995,-4.41068 -1.14397,-5.12 -1.14393,-5.12 -1.56592,-5.53146 -1.56592,-5.53146 -1.15284,-3.58854 -1.15286,-3.58854 -2.08883,-5.6 -2.08883,-5.6 -2.01597,-4.66198 -2.01594,-4.66199 -2.3648,-4.93801 -2.36483,-4.93802 -3.30544,-5.92 -3.30544,-5.92 -2.39238,-3.84 -2.39242,-3.84 -3.0513,-4.48 -3.05129,-4.48 -3.37335,-4.47721 -3.37334,-4.47722 -3.89997,-4.66041 -3.89997,-4.66042 -4.46438,-4.782367 -4.46438,-4.782371 -3.49421,-3.36 -3.49421,-3.36 -2.87472,-2.569469 -2.87472,-2.569469 -4,-3.330496 -4,-3.330496 -5.12,-3.836042 -5.12,-3.836041 -5.92,-3.904394 -5.92,-3.904391 -4.8,-2.808812 -4.8,-2.808813 -6.4,-3.26008 -6.4,-3.26008 -4.16,-1.852916 -4.16,-1.852915 -5.92,-2.317686 -5.92,-2.31769 -5.44,-1.775354 -5.44,-1.775357 -3.44682,-0.996131 -3.44682,-0.996132 -5.83318,-1.410827 -5.83318,-1.410827 -5.12,-0.952967 -5.12,-0.952967 -4.64,-0.656922 -4.64,-0.656922 -4.48,-0.475406 -4.48,-0.475407 -6.4,-0.375005 -6.4,-0.375004 -11.04,0.185871 -11.04,0.185871 -5.12,0.485894 -5.12,0.485893 -3.84,0.495288 -3.84,0.495288 -4.96,0.819171 -4.96,0.819172 -4.48,0.946098 -4.48,0.946098 -6.24,1.608871 -6.24,1.608871 -7.52,2.499412 -7.52,2.499411 -4.87287,1.950608 -4.87286,1.950608 -5.04714,2.275555 -5.04713,2.275555 -5.44,2.816205 -5.44,2.816202 -4.8,2.798301 -4.8,2.798297 -6.4,4.241956 -6.4,4.241955 -4.16,3.130755 -4.16,3.130755 -3.36,2.725636 -3.36,2.725635 -3.68,3.255341 -3.68,3.255338 -4.133702,3.967552 -4.133703,3.967555 -4.153008,4.48 -4.153011,4.479998 -3.983603,4.75875 -3.983603,4.75875 -3.855863,5.15795 -3.855862,5.15795 -3.100576,4.6433 -3.100576,4.6433 -2.881306,4.8 -2.881309,4.8 -2.668748,4.96 -2.668752,4.96 -1.896906,4 -1.896906,4 -2.332215,5.44 -2.332214,5.44 -2.090326,5.76 -2.090327,5.76 -1.795678,5.90896 -1.795678,5.90896 -1.409043,5.77104 -1.409043,5.77104 -0.960651,4.96 -0.960652,4.96 -0.799156,5.44 -0.799156,5.44 -0.495992,4.96 -0.495992,4.96 -0.3201262,5.44 -0.3201258,5.44 -0.0016,7.68001 -0.0016,7.68 0.3256292,5.28 0.3256298,5.28 0.481746,4.96 0.481747,4.96 0.642715,4.48 0.642716,4.48 0.953096,5.28 0.953096,5.28 1.914148,7.68 1.914148,7.68 1.7231,5.44 1.7231,5.44 1.509165,4.16 1.509164,4.16 1.699575,4.16 1.699575,4.16 1.964937,4.32 1.964936,4.32 3.147526,6.11629 3.147523,6.11628 3.440208,5.72372 3.440208,5.72371 3.127805,4.64 3.127802,4.64 2.902358,3.92 2.902355,3.92 h 0.275143 0.275145 l 0.402989,-0.88 0.402989,-0.88 2.528374,-6.48618 2.528378,-6.48617 v -0.21015 -0.21014 l -4.12551,-6.26368 -4.125511,-6.26368 -3.121235,-5.44 -3.121232,-5.44 -3.080851,-6.24 -3.080848,-6.24 -1.961059,-4.64 -1.96106,-4.64 -1.64358,-4.4074 -1.643578,-4.40739 -1.441955,-4.47811 -1.441952,-4.47811 -1.597933,-5.83449 -1.597932,-5.8345 -1.407552,-7.04 -1.407553,-7.04 -0.655804,-4.64 -0.655805,-4.64 -0.492358,-4.78549 -0.492358,-4.78549 -0.351366,-6.73451 -0.351366,-6.73451 0.196179,-7.84 0.196179,-7.84001 0.48345,-5.6 0.48345,-5.6 0.490108,-3.84 0.490107,-3.84 0.941525,-5.44 0.941525,-5.44 0.813913,-3.68 0.813913,-3.68 1.252864,-4.8 1.252862,-4.8 1.492029,-4.8 1.492028,-4.8 2.082141,-5.59279 2.082138,-5.59279 1.883849,-4.40423 1.88385,-4.40423 2.99784,-6.00297 2.99784,-6.00299 1.686938,-3.04 1.686934,-3.04 2.411018,-4 2.411017,-4 2.902026,-4.31312 2.902025,-4.31313 3.727034,-4.96687 3.72703,-4.96688 2.937684,-3.52 2.93768,-3.52 4.902937,-5.30383 4.902938,-5.30382 4.605126,-4.30223 4.605123,-4.302224 4.183178,-3.540589 4.183173,-3.540585 3.96938,-3.044544 3.96937,-3.044544 3.949,-2.764282 3.94901,-2.764285 3.73099,-2.363536 3.731,-2.363539 4.32,-2.483949 4.32,-2.483952 6.24,-3.127322 6.24,-3.127325 5.6,-2.392966 5.6,-2.392966 5.28,-1.928007 5.28,-1.92801 5.35424,-1.622566 5.35424,-1.62257 3.76998,-0.951772 3.76998,-0.951776 4.31578,-0.93681 4.31578,-0.936813 3.16357,-0.563226 3.16357,-0.563225 1.72611,-1.405939 1.72612,-1.40594 2.12601,-1.425843 2.12602,-1.425843 2.9043,-1.429053 2.9043,-1.429053 2.88,-1.151017 2.88,-1.151016 3.72807,-1.084749 3.72807,-1.084749 4.11193,-0.795923 4.11193,-0.795922 3.36,-0.415762 3.36,-0.415762 6.72,0.0015 6.72,0.0015 3.52,0.58352 3.52,0.58352 3.04,0.7878 3.04,0.787801 3.36,1.440613 3.36,1.440612 2.32328,1.500477 2.32328,1.500477 4.19209,3.034509 4.19209,3.034512 3.40463,3.224332 3.40463,3.224333 6.40547,2.112624 6.40547,2.112624 4.63453,1.826269 4.63453,1.826269 4,1.757837 4,1.757837 6.56,3.315741 6.56,3.315741 5.28,3.139878 5.28,3.139875 4.19488,2.784307 4.19484,2.784308 4.60516,3.41543 4.60512,3.415427 3.04,2.463924 3.04,2.463926 4.16,3.643213 4.16,3.643213 5.28,5.286765 5.28,5.28676 3.64515,4.15517 3.64515,4.15518 2.45814,3.04 2.45812,3.04 2.65875,3.52 2.65875,3.52 4.248,6.4 4.248,6.4 3.08144,5.38666 3.08144,5.38667 2.50758,5.01333 2.50762,5.01334 1.84118,4.16 1.84122,4.16 2.0025,5.12 2.00252,5.12 1.79165,5.47369 1.79168,5.47369 1.26352,4.60631 1.26352,4.60631 0.52135,2.24 0.52134,2.24 0.92186,4.48 0.92182,4.48 0.492,2.88 0.492,2.88 0.4801,3.52 0.48009,3.52 0.48371,4.64 0.48372,4.64 0.37008,8.51286 0.37008,8.51286 -0.36455,7.97748 -0.36454,7.97749 -0.4888,4.94965 -0.4888,4.94966 -0.47827,3.52 -0.47831,3.52 -0.81312,4.64 -0.81312,4.64 -1.11622,4.96 -1.11619,4.96 -1.76932,6.20367 -1.76934,6.20367 -1.85434,5.15634 -1.85433,5.15632 -1.92877,4.8 -1.92877,4.8 -2.13091,4.64 -2.13091,4.64 -2.82349,5.44 -2.82352,5.44 -2.32061,4 -2.32061,4 -3.65718,5.56381 -3.65722,5.56384 -3.23129,4.32393 -3.23127,4.32394 -2.40947,2.91226 -2.40944,2.91222 -3.42851,3.84 -3.42851,3.84 -5.87219,5.78512 -5.87216,5.78512 -4.8,4.08957 -4.8,4.08954 -5.6314,4.24768 -5.63139,4.24764 -5.56861,3.68023 -5.5686,3.68022 -4.8,2.81251 -4.8,2.81255 -6.4,3.24285 -6.4,3.24288 -3.52,1.54083 -3.52,1.5408 -4.8,1.91414 -4.8,1.91411 -5.6,1.85783 -5.6,1.85785 -4.4804,1.29348 -4.48039,1.29347 -5.86157,1.44867 -5.86156,1.44867 -5.01938,0.94407 -5.01938,0.94409 -6.55866,0.81405 -6.55866,0.81408 -4.90546,0.32896 -4.90546,0.32899 -8.21454,-0.005 -8.21454,-0.005 -4.8,-0.32169 -4.8,-0.3217 -4.32,-0.48637 -4.32,-0.4864 -5.28,-0.8087 -5.28,-0.80867 -4.78565,-0.96093 -4.78565,-0.96093 -5.77435,-1.448 -5.77435,-1.44803 -6.08,-1.87287 -6.08,-1.87286 -5.60061,-2.05347 -5.6006,-2.05351 -4.7994,-1.99536 -4.79939,-1.99532 -5.73416,-2.69226 -5.73417,-2.69229 -4.50583,-2.43577 -4.50584,-2.43578 -3.84,-2.25171 -3.84,-2.25171 -2.4,-1.60016 -2.4,-1.6002 -0.90992,-0.75222 -0.90992,-0.75222 -9.94353,0.0845 -9.943519,0.0845 -0.115888,0.348 -0.115888,0.34797 3.609331,2.87753 3.609331,2.87754 3.040003,2.22848 3.04,2.22848 3.52,2.42701 3.52,2.42704 3.68,2.32419 3.68,2.32419 5.28,3.01863 5.28,3.01862 6.72,3.30813 6.72,3.30809 5.29116,2.23229 5.29116,2.23226 5.33659,1.95238 5.33659,1.95239 5.85225,1.77907 5.85225,1.77907 4.32,1.08701 4.32,1.08701 3.04,0.67817 3.04,0.67818 4,0.75545 4,0.75546 5.6,0.80467 5.6,0.80471 5.34524,0.51993 5.34524,0.51997 5.05476,0.25075 5.05476,0.25075 5.44,0.0478 5.44,0.0478 6.72,-0.33043 z m 9.6,-26.36621 4.8,-0.51782 3.84,-0.62167 3.84,-0.62166 5.28,-1.10829 5.28,-1.10826 1.70203,-0.3736 1.70203,-0.3736 0.14654,-0.38185 0.14654,-0.38186 -2.72622,-17.19427 -2.72622,-17.19427 -3.37363,-12.03975 -3.37363,-12.03971 -1.43174,-12.0329 -1.43174,-12.03289 -0.31698,-2.55162 -0.31698,-2.55158 v -5.81424 -5.81421 l 0.48444,-4.59418 0.48444,-4.59417 0.48367,-2.88 0.48367,-2.88 0.63189,-2.75962 0.63189,-2.75962 -0.005,-1.72038 -0.005,-1.72038 -0.25878,-0.40775 -0.25878,-0.40777 -3.75431,-0.94816 -3.75431,-0.94816 -3.13751,-1.23165 -3.13751,-1.23165 -2.11259,-1.18144 -2.1126,-1.18143 -2.71266,-2.51313 -2.71266,-2.51314 -1.40028,-0.67786 -1.40027,-0.67786 h -0.81367 -0.81366 l -1.21606,1.84 -1.21607,1.84 -2.10924,2.02642 -2.10924,2.02641 -3.04,2.32966 -3.04,2.32967 -2.72,1.76848 -2.72,1.76851 -3.04,1.61709 -3.04,1.61712 -2.68126,1.14384 -2.68126,1.14384 -2.68466,0.94758 -2.68467,0.94755 -2.97741,0.79223 -2.97742,0.79222 -3.97666,0.72979 -3.97666,0.72983 -8.96,-0.004 -8.96,-0.004 -4.11998,-0.71677 -4.11999,-0.7168 -3.75749,-0.94861 -3.75749,-0.94861 -2.84252,-0.99366 -2.84253,-0.99363 -4.16,-2.1522 -4.16,-2.15216 -3.29397,-2.05904 -3.29398,-2.05904 -3.80952,-2.72115 -3.80952,-2.72115 -4.12117,-3.25392 -4.12118,-3.25392 -2.83174,-2.42608 -2.83175,-2.42608 -0.98359,0.007 -0.98358,0.007 -1.4068,0.63828 -1.4068,0.63828 -1.9532,1.39886 -1.9532,1.39886 -3.52141,3.63583 -3.52142,3.63584 -2.84129,3.68 -2.841288,3.68 -3.877296,5.58592 -3.877296,5.58595 -2.610359,2.7687 -2.610355,2.76871 -0.669645,1.3126 -0.669641,1.31261 v 1.26989 1.26989 l 0.502857,0.50288 0.502858,0.50285 h 0.412486 0.41249 l 1.084653,-0.74612 1.084656,-0.74614 2.56,-1.86074 2.56,-1.86076 2.293875,-1.07076 2.293875,-1.07072 2.02612,-0.47766 2.02613,-0.47763 1.67772,-0.005 1.67772,-0.005 2.23316,2.8 2.23317,2.8 0.0139,0.96 0.0139,0.96 -0.5345,4.5904 -0.53451,4.59037 0.39151,0.24198 0.3915,0.24195 1.65425,-0.30067 1.65425,-0.30067 1.87674,-0.76259 1.87675,-0.7626 2.44721,-1.41068 2.44722,-1.41072 12,-5.12535 12,-5.12534 3.2,-1.39303 3.2,-1.39305 3.04,0.003 3.04,0.003 1.05701,0.57401 1.05702,0.57402 1.2169,1.2169 1.2169,1.21689 0.83842,1.72608 0.83843,1.72608 0.38515,2.4 0.38516,2.4 0.25521,0.29671 0.25521,0.2967 3.71188,-0.6031 3.71189,-0.60311 1.40761,0.74672 1.4076,0.74675 1.27455,1.65204 1.27455,1.65206 0.85304,1.8633 0.85305,1.86329 -0.14798,2.30583 -0.14798,2.30579 -0.93181,1.71792 -0.93181,1.71789 -2.96,3.13001 -2.96,3.12999 v 0.95299 0.95299 l 1.47317,1.3776 1.47317,1.37763 0.84076,1.6 0.84075,1.6 -0.0204,2.4 -0.0204,2.4 -0.8058,1.76 -0.8058,1.76 -1.30245,1.63863 -1.30244,1.63865 -2.26526,1.50592 -2.26526,1.50596 -0.006,1.33542 -0.006,1.33542 -0.46868,2.24 -0.46868,2.24 -1.30639,2.65034 -1.30638,2.65034 -1.97938,2.11801 -1.97938,2.11799 -2.08,1.5823 -2.08,1.5823 -3.84,1.87082 -3.84,1.87082 -2.84464,0.98531 -2.84465,0.98528 -4.83535,1.31021 -4.83536,1.31017 -0.26465,0.24371 -0.26466,0.24372 0.90466,0.63587 0.90465,0.63587 5.44,2.9943 5.44,2.99428 5.92,2.76496 5.92,2.76492 4.8,1.92909 4.8,1.92906 3.36,1.20144 3.36,1.20147 4.48,1.40355 4.48,1.40355 5.44,1.42128 5.44,1.42132 5.6,1.11459 5.6,1.11459 5.44,0.79622 5.44,0.79626 5.28,0.49482 5.28,0.49484 1.6,0.12394 1.6,0.12397 12.48,-0.0906 12.48,-0.0906 4.8,-0.51783 z m 55.22679,-13.58352 3.97321,-1.56112 4.8,-2.14237 4.8,-2.14237 5.12,-2.65389 5.12,-2.65388 4,-2.3209 4,-2.3209 5.44,-3.59798 5.44,-3.59802 4.48,-3.37302 4.48,-3.37302 3.52,-2.93309 3.52,-2.93309 5.01674,-4.64086 5.01676,-4.64087 4.64087,-5.01677 4.64086,-5.01673 2.93059,-3.52 2.93063,-3.52 3.13126,-4.16 3.1313,-4.16 2.40045,-3.52 2.40048,-3.52 2.96384,-4.93674 2.96387,-4.9367 3.26953,-6.64634 3.26957,-6.64634 1.99498,-4.63148 1.99501,-4.63149 -0.10839,-0.58547 -0.10835,-0.58544 -2.72,-1.82631 -2.72,-1.8263 -4.16,-2.06579 -4.16,-2.0658 -3.2,-1.34124 -3.2,-1.34122 -6.00096,-2.86 -6.00093,-2.86001 -2.45024,-0.62667 -2.45024,-0.62666 h -0.41769 -0.41767 l -1.13696,0.99826 -1.13696,0.99826 -1.89491,2.62488 -1.89494,2.62487 -1.21924,0.84045 -1.21926,0.84048 -1.324,0.2943 -1.32403,0.2943 -1.66179,-0.26272 -1.6618,-0.26268 -1.8142,-0.52378 -1.81418,-0.52374 -4.77363,-1.7667 -4.77367,-1.76669 -2.10633,-0.58027 -2.10637,-0.58028 -8.8,-2.27559 -8.8,-2.27558 -4.32,-1.30418 -4.32,-1.30417 -3.68,-1.44062 -3.68,-1.44062 -3.7123,-1.88518 -3.7123,-1.88517 -3.40734,-2.25037 -3.40734,-2.25037 -0.61869,0.33111 -0.61869,0.33112 -0.19581,0.61696 -0.19582,0.61696 0.34669,7.37268 0.34668,7.37268 1.44372,6.15397 1.44371,6.15399 0.65522,3.69673 0.65521,3.69671 0.17001,5.6183 0.17002,5.61831 -0.53792,2.65475 -0.53792,2.65472 -0.93402,2.35126 -0.93401,2.35123 -2.86762,5.72855 -2.86762,5.72851 -0.51983,1.58931 -0.51984,1.58935 1.44173,5.57785 1.44173,5.57786 0.99041,5.10397 0.99041,5.10393 0.61614,4.17607 0.61614,4.17603 0.32936,3.52 0.32936,3.52 2.6e-4,3.62973 2.7e-4,3.62972 -0.6405,3.14298 -0.6405,3.14298 -1.74752,5.72006 -1.74753,5.72003 -0.48725,2.06727 -0.48724,2.06723 -0.005,1.93721 -0.005,1.93725 1.04613,1.01395 1.04613,1.01396 1.27387,0.46627 1.27387,0.46627 1.46678,0.0224 1.46679,0.0227 3.97321,-1.56112 z M 100.32,419.18849 l 2.24,-0.31059 10.56,-0.78919 10.56,-0.78915 2.24,-0.68445 2.24,-0.68445 6.43286,-2.5159 6.43286,-2.5159 2.84714,-0.78925 2.84714,-0.78925 4.26896,-1.13773 4.26895,-1.13776 1.97034,-1.04243 1.97034,-1.04243 0.42947,-0.90359 0.42948,-0.90361 -0.19717,-0.78557 -0.19717,-0.7856 -1.13575,-0.5416 -1.13574,-0.5416 -3.25586,0.69603 -3.25585,0.69603 -3.68,1.00148 -3.68,1.00144 -2.56,0.16915 -2.56,0.16915 -0.88,-0.69907 -0.88,-0.69911 v -1.05756 -1.0576 l 0.41397,-0.34356 0.41396,-0.34358 3.34604,-1.09712 3.34603,-1.09715 4.14204,-1.83411 4.14205,-1.83408 7.46098,-3.85632 7.46097,-3.85636 1.30085,-1.20092 1.30085,-1.20093 -0.10387,-0.8968 -0.10387,-0.89677 -1.08732,-0.73034 -1.08733,-0.73033 h -1.06067 -1.06067 l -1.69201,0.63446 -1.692,0.63443 -7.51114,3.7057 -7.51114,3.70566 -3.04886,1.05178 -3.04886,1.05174 -2.14845,0.57248 -2.14846,0.57248 -0.81154,-0.53174 -0.81155,-0.53174 v -0.48852 -0.48851 l 0.47097,-0.91078 0.47098,-0.91075 3.03203,-1.62007 3.03203,-1.62003 4.64843,-2.91226 4.64843,-2.91225 4.07055,-2.89248 4.07055,-2.89248 2.91819,-2.34711 2.91818,-2.3471 3.09434,-3.22387 3.09433,-3.22384 0.20001,-0.7969 0.2,-0.79686 -0.17731,-0.46208 -0.17731,-0.46208 -0.83791,-0.54899 -0.8379,-0.54903 -1.37145,0.0208 -1.37144,0.0208 -1.65037,0.83629 -1.65036,0.83632 -3.27749,2.11485 -3.27748,2.11488 -5.12,3.59158 -5.12,3.59159 -2.24,1.28787 -2.24,1.28784 -6.11565,2.59904 -6.11565,2.59901 h -0.45314 -0.45316 L 128.7112,379.66199 128,379.16385 v -1.0081 -1.00809 l 2,-1.93376 2,-1.93376 3.97583,-2.88 3.97583,-2.88 4.47903,-3.09917 4.47903,-3.09917 2.66708,-2.12051 2.66708,-2.12048 1.90812,-2.21699 1.90812,-2.21703 0.48994,-0.94742 0.48994,-0.94746 v -0.63773 -0.63776 l -0.7112,-0.49814 -0.7112,-0.49814 h -1.00857 -1.00857 l -1.31162,0.46278 -1.31163,0.46275 -3.46027,2.22499 -3.46027,2.225 -7.34833,3.66038 -7.34834,3.66042 -2.88,1.6184 -2.88,1.6184 -6.08,3.17523 -6.08,3.17523 -3.68,2.3241 -3.68,2.32406 -4.54745,2.21491 -4.547443,2.21495 -1.839785,0.4792 -1.839786,0.4792 h -0.853584 -0.853587 l -0.389021,-0.46874 -0.389018,-0.46874 0.672432,-2.02067 0.672436,-2.02067 1.949334,-3.83059 1.949334,-3.83059 1.055063,-2.56 1.055062,-2.56 0.492931,-2.4 0.492932,-2.4 0.180182,-1.33703 0.180186,-1.33705 -0.502967,-0.50295 -0.502966,-0.50297 -1.017143,0.003 -1.017142,0.003 -1.601514,0.74579 -1.601513,0.74579 -1.524896,1.31981 -1.524893,1.31977 -1.628598,1.8513 -1.628596,1.8513 -2.158473,3.04 -2.158474,3.04 -2.398806,4 -2.398807,4 -3.291081,6.24 -3.291082,6.24 -2.18127,2.88416 -2.181267,2.88412 -0.495364,1.18557 -0.495366,1.1856 v 1.27533 1.27533 l 0.72,0.50931 0.72,0.50928 1.6,1.00902 1.6,1.009 6.72,6.77913 6.72,6.77917 2.24,1.23264 2.24,1.23267 2.08,0.37415 2.08,0.37414 2.72,0.0202 2.72,0.0202 2.24,-0.31059 z m -18.863651,-90.25124 2.774592,-3.86278 2.79768,-3.41722 2.797677,-3.41724 3.646851,-3.52 3.646851,-3.52 2.72,-1.82707 2.72,-1.82707 3.68,-1.34051 3.68,-1.3405 0.45083,-0.41468 0.45082,-0.41469 -2.58688,-2.81774 -2.58688,-2.81774 -2.42445,-2.3925 -2.42445,-2.3925 -1.159352,0.62435 -1.159344,0.62435 -2.701968,2.70197 -2.701971,2.70197 -2.694157,3.58696 -2.694156,3.58696 -2.260215,3.63922 -2.260211,3.63922 -2.027258,4 -2.02726,4 -1.131808,3.04 -1.131808,3.04 -0.381242,1.51408 -0.381245,1.51411 0.186461,0.48589 0.186458,0.48592 h 1.110921 1.110922 z m 129.583651,-2.5351 2.56,-0.68032 2.4,-1.17072 2.4,-1.17069 2.56454,-2.57021 2.56454,-2.5702 1.00592,-1.92 1.00593,-1.92 2.15372,-6.36909 2.15372,-6.3691 -0.18218,-2.8121 -0.18219,-2.8121 -0.68031,-2.4988 -0.68031,-2.49881 -1.73043,-3.52 -1.73043,-3.52 -2.09442,-2.64299 -2.09441,-2.64299 -1.94678,-1.43313 -1.94679,-1.43314 -1.26482,-0.37895 -1.26484,-0.37896 -2.46523,0.38146 -2.46523,0.38146 -2.02427,0.35069 -2.02427,0.3507 -0.16643,0.43371 -0.16643,0.43371 1.48608,2.23538 1.48608,2.23539 1.46782,3.13383 1.46781,3.13383 1.24382,3.30302 1.24383,3.30302 0.79298,3.05201 0.79298,3.05201 v 1.39759 1.39759 l -0.81643,0.53495 -0.81643,0.53495 -0.27588,-0.28758 -0.27588,-0.28756 -6.93462,-8.96 -6.93462,-8.96 -0.6369,-0.23851 -0.6369,-0.2385 -0.60217,0.32227 -0.60217,0.32227 -0.33221,1.19623 -0.33222,1.19624 -0.002,0.36747 -0.002,0.36747 -1.43128,2.83253 -1.43127,2.83253 -1.5876,2.09776 -1.58761,2.09777 -3.48694,3.36882 -3.48694,3.36882 -3.09493,2.1578 -3.09493,2.1578 -2.77794,1.39436 -2.77794,1.39435 -2.26131,0.70776 -2.26131,0.70776 -0.43211,0.39703 -0.43211,0.39704 1.14833,1.27107 1.14834,1.27107 2.00377,0.90071 2.00378,0.90071 4.48,1.35474 4.48,1.35472 4.16,1.44368 4.16,1.44365 3.2,0.67821 3.2,0.67817 2.08,0.2896 2.08,0.28964 4.48,-0.12029 4.48,-0.12026 2.56,-0.68035 z m 88.48845,-5.86672 0.61247,-1.38459 0.48694,-2.85542 0.48693,-2.85541 0.24261,-7.87178 0.2426,-7.87177 -0.0895,-0.45566 -0.0895,-0.45566 -4.3439,-3.98909 -4.34389,-3.98909 -0.79352,-1.56593 -0.79352,-1.56593 -1.27031,-3.68404 -1.27031,-3.68403 -0.62563,-1.22634 -0.62563,-1.22635 -2.61762,-3.25424 -2.61761,-3.25423 -3.69954,-3.84339 -3.69954,-3.84338 -3.53309,-3.23159 -3.53309,-3.23159 -3.98691,-3.30963 -3.98691,-3.30963 -1.86229,-1.60681 -1.86229,-1.60682 -2.85492,-3.44935 -2.85492,-3.44935 -1.59318,-1.43241 -1.59317,-1.4324 -1.44613,-0.67976 -1.44612,-0.67976 h -0.7817 -0.7817 l -0.66179,0.9294 -0.66179,0.9294 v 0.50717 0.50717 l 0.58535,1.54051 0.58535,1.54052 1.39365,2.06292 1.39365,2.06291 6.59783,6.72001 6.59783,6.72 0.6984,1.45118 0.6984,1.45118 0.31916,1.6829 0.31915,1.6829 0.4836,7.11095 0.4836,7.11095 0.48927,1.87845 0.48928,1.87846 1.42757,2.9744 1.42757,2.97439 2.53632,3.78212 2.53631,3.78212 2.68294,3.04 2.68293,3.04 4.14592,3.61893 4.14592,3.61893 0.43148,1.18107 0.43147,1.18107 -0.18629,3.24511 -0.1863,3.24512 0.39761,0.32999 0.39761,0.32998 6.07721,1.76295 6.07721,1.76294 0.73799,0.0221 0.738,0.0221 0.61246,-1.38457 z m 131.65395,-3.74991 1.44723,-4.49449 1.31527,-4.82401 1.31526,-4.82401 -0.43008,-0.40088 -0.43008,-0.40087 -7.52,-0.36942 -7.52,-0.36941 -7.36,-0.50585 -7.36,-0.50584 -3.52,0.16769 -3.52,0.16768 -1.6967,0.52431 -1.69671,0.5243 -0.16646,0.43376 -0.16643,0.43376 0.47952,0.92729 0.47952,0.9273 4.38329,0.71924 4.3833,0.71925 3.72035,1.11608 3.72032,1.11607 3.53658,1.71978 3.53654,1.71978 2.54346,1.88884 2.54342,1.88883 2.88,3.08344 2.88,3.08342 0.38758,0.0141 0.38759,0.0141 1.44723,-4.49449 z M 269.76,310.04107 v -0.35894 l -3.64797,-5.00106 -3.64796,-5.00106 -1.68784,-2.72 -1.68784,-2.72 -1.35498,-2.88 -1.35498,-2.88 -0.52726,-1.58435 -0.52727,-1.58434 -0.45946,-3.21566 -0.45946,-3.21565 -0.52595,-2.88 -0.52594,-2.88 -0.51655,-0.59531 -0.51654,-0.5953 -2.10708,-1.06207 -2.10708,-1.06207 -3.97292,-3.09971 -3.97292,-3.09972 -1.23986,-1.16291 -1.23987,-1.16291 -1.99573,-3.04 -1.99573,-3.04 -0.76441,-0.68322 -0.7644,-0.68323 -0.68628,-0.20764 -0.68628,-0.20764 -0.51372,0.51372 -0.51372,0.51372 0.004,2.13714 0.004,2.13715 0.42657,1.60164 0.42657,1.60165 0.69447,1.56998 0.69447,1.56997 1.82328,2.74022 1.82328,2.74022 3.24866,3.24866 3.24867,3.24867 1.88321,1.09981 1.88322,1.09982 0.65986,0.97776 0.65985,0.97775 1.2214,4.12192 1.2214,4.12193 0.78673,1.69003 0.78673,1.69003 1.94692,2.62997 1.94692,2.62997 1.90381,2.13039 1.90382,2.1304 2.87789,2.50722 2.87789,2.50722 2.11459,1.52239 2.1146,1.52238 h 0.40879 0.4088 v -0.35894 z m 110.02006,-6.88526 0.74007,-0.47685 0.94224,-1.48575 0.94224,-1.48575 0.99229,-2.57373 0.99225,-2.57372 0.60007,-1.17674 0.60006,-1.17673 0.56534,-0.16082 0.56538,-0.16081 10.49866,-1.52499 10.49868,-1.52499 5.66132,1.06663 5.66134,1.06663 3.52,0.78356 3.52,0.78357 4.64,1.58319 4.64,1.5832 0.5543,0.18498 0.55431,0.18498 0.29488,-0.77564 0.29491,-0.77565 0.97514,-5.90019 0.97513,-5.90018 0.48403,-4.16 0.48407,-4.16 0.38723,-4.8 0.3872,-4.8 0.004,-9.6 0.004,-9.60001 -0.3897,-4.8 -0.38969,-4.8 -0.63616,-5.28 -0.63619,-5.28 -0.82365,-4.8 -0.82365,-4.8 -1.26736,-5.70502 -1.26736,-5.70503 -1.56829,-5.49497 -1.56829,-5.49498 -1.57465,-4.64 -1.57466,-4.64 -1.29379,-3.36 -1.29379,-3.36 -1.01027,-2.4 -1.01024,-2.4 -2.11012,-4.4 -2.11014,-4.4 h -0.58605 -0.58605 l -1.42435,1.93482 -1.42432,1.93481 -0.93891,1.66519 -0.93894,1.66518 -1.13716,2.88 -1.13715,2.88 -0.83187,2.88 -0.8319,2.88 -0.7738,3.36 -0.77379,3.36 -1.30573,7.2 -1.30569,7.2 -3.68007,18.81996 -3.68006,18.81996 -0.64838,1.66004 -0.64836,1.66004 -1.45948,2.72001 -1.45952,2.72 -3.36269,5.28 -3.36269,5.28 -2.63718,5.32459 -2.63719,5.3246 -0.98096,1.42577 -0.98093,1.42576 -1.19552,1.04967 -1.19548,1.04967 -1.05303,0.43997 -1.05299,0.43997 h -0.61558 -0.61559 l -0.21683,-0.88 -0.21686,-0.88 -1.07536,-1.93182 -1.0754,-1.93181 -1.95344,-2.54819 -1.95347,-2.54818 -3.65872,-4.01376 -3.65872,-4.01376 -5.0503,-4.67893 -5.05027,-4.67893 -3.52,-2.94863 -3.52,-2.94864 -2.93978,-2.83301 -2.93981,-2.83302 -1.46035,-0.7095 -1.46038,-0.70951 -0.34618,0.3462 -0.34621,0.34619 -0.28317,2.19765 -0.2832,2.19764 -0.0106,7.78779 -0.0106,7.78779 -0.53171,4.05221 -0.53174,4.05222 0.005,6.72 0.005,6.72 0.68595,3.78925 0.68598,3.78925 0.49444,1.70077 0.49443,1.70078 7.84771,3.24887 7.84771,3.24888 4.14381,1.58457 4.14381,1.58457 4.23449,1.4511 4.23447,1.4511 3.04937,0.78811 3.04938,0.78812 1.91062,0.28781 1.91063,0.28782 1.12,-0.15418 1.12,-0.15417 0.74006,-0.47685 z M 160.48,291.03827 l 1.92,-0.52058 2.18985,-1.10106 2.18984,-1.10106 1.81016,-1.42873 1.81015,-1.42874 1.30563,-1.52904 1.30563,-1.52905 1.31922,-1.93663 1.31922,-1.93663 2.07458,-3.98337 2.07457,-3.98337 0.82057,-2.45643 0.82058,-2.45642 v -1.97328 -1.97329 l -2.41492,-11.01724 -2.41492,-11.01724 -3.00732,-5.51306 -3.00733,-5.51305 -1.33935,-3.84 -1.33936,-3.84 -1.344,-2.89033 -1.344,-2.89033 -1.22046,-1.90967 -1.22047,-1.90967 -2.27393,-2.35898 -2.27394,-2.35898 -2.21019,-1.56102 -2.21018,-1.56102 h -0.61883 -0.61884 l -5.17098,1.62056 -5.17098,1.62057 -2.71131,1.01279 -2.71131,1.01279 -2.24869,1.48805 -2.24869,1.48805 -1.7937,1.8786 -1.79369,1.87859 -3.19806,4 -3.19806,4 -2.28629,2.15251 -2.2863,2.1525 -1.28826,0.65722 -1.28826,0.65722 -0.19786,-0.56972 -0.19786,-0.56973 -1.18959,-2.58562 -1.18959,-2.58562 -1.64624,-2.56635 -1.64624,-2.56634 v -0.50352 -0.50352 l 1.15846,-1.54451 1.15847,-1.54452 1.16153,-1.22474 1.16154,-1.22474 2.31826,-1.7519 2.31826,-1.75191 3.28174,-1.95355 3.28174,-1.95356 4.48,-2.13696 4.48,-2.13697 0.40552,-0.49227 0.40552,-0.49228 -0.17556,-0.45749 -0.17555,-0.45749 -0.98322,-0.58081 -0.98323,-0.5808 -1.64674,-0.46639 -1.64674,-0.4664 -5.63594,-0.17781 -5.63595,-0.17782 -2.84405,2.57258 -2.84406,2.57257 -4.35983,4.42937 -4.35982,4.42937 -2.38082,3.04 -2.380813,3.04 -3.363536,4.48 -3.363539,4.48 -2.74025,4 -2.74025,4 -3.917302,6.24 -3.917306,6.24 -0.938185,1.50777 -0.938186,1.50776 -0.633712,1.80303 -0.633712,1.80302 0.351546,0.42359 0.351549,0.42359 2.462083,0.20164 2.462083,0.20165 0.727811,0.15204 0.727815,0.15203 0.748038,-0.80715 0.748038,-0.80714 2.962548,-5.68092 2.962544,-5.68091 1.61567,-2.34039 1.61567,-2.3404 1.427165,-1.25624 1.427168,-1.25624 1.658157,-0.81126 1.658157,-0.81126 1.620349,-0.19191 1.62034,-0.1919 2.44026,2.93195 2.44027,2.93195 v 0.12663 0.12663 l 0.62851,3.7335 0.62851,3.7335 0.79837,1.36232 0.79837,1.36232 1.91294,2.57998 1.91294,2.57999 3.24658,3.37071 3.24658,3.37071 2.16922,1.7747 2.16922,1.77472 h 0.63479 0.63478 l 0.60959,-0.67459 0.6096,-0.67459 1.6,-0.80121 1.6,-0.80121 0.9908,-0.74296 0.99081,-0.74297 3.63273,-5.30124 3.63273,-5.30123 h 1.99029 1.9903 l 0.49069,0.18829 0.49069,0.1883 0.31748,1.0117 0.31748,1.01171 0.35033,1.36 0.35034,1.36 1.02766,-0.002 1.02767,-0.002 5.27213,-1.4411 5.27214,-1.44109 2.02825,-0.35321 2.02825,-0.3532 3.14046,0.12613 3.14046,0.12614 1.55717,0.96273 1.55718,0.96272 0.10642,0.55264 0.10643,0.55264 -1.456,2.04041 -1.456,2.04041 -2.00845,1.83751 -2.00844,1.83751 -2.33368,1.53911 -2.33367,1.5391 -1.71573,0.64193 -1.71572,0.64194 -2.6706,0.51149 -2.6706,0.5115 -2.25082,0.47088 -2.25081,0.47088 -1.10165,0.55356 -1.10164,0.55357 -0.0227,5.6 -0.0227,5.6 -0.8664,2.81019 -0.8664,2.81018 -1.29942,2.58441 -1.29941,2.5844 0.16083,0.4191 0.16082,0.4191 2.34014,0.51412 2.34014,0.51413 1.92,0.29422 1.92,0.29423 4.32,-0.12262 4.32,-0.12262 1.92,-0.52058 z m -30.624,-6.30226 0.384,-0.384 0.002,-3.216 0.002,-3.216 0.4711,-3.1254 0.4711,-3.1254 0.977,-2.34686 0.977,-2.34685 2.05624,-2.28306 2.05625,-2.28305 0.34856,-0.6513 0.34857,-0.65131 -0.19368,-0.31339 -0.19368,-0.31338 h -0.55469 -0.55469 l -3.80548,3.0408 -3.80548,3.04081 -1.60378,0.79919 -1.60377,0.7992 -1.29717,-0.003 -1.29717,-0.003 -1.52029,-0.87739 -1.5203,-0.87739 -1.80305,-1.76 -1.80305,-1.76 -2.58285,-3.36 -2.58285,-3.36 -2.41381,-2.43589 -2.4138,-2.43589 -1.70528,-0.86232 -1.70528,-0.86231 -0.45472,0.37739 -0.45472,0.37738 v 1.99307 1.99306 l -0.37225,1.08776 -0.37225,1.08775 -1.622418,2.86792 -1.622419,2.86792 v 1.78964 1.78964 l 1.084864,2.20367 1.084863,2.20367 2.11178,2.09877 2.11178,2.09877 2.47331,1.69589 2.47331,1.69589 3.92471,1.88133 3.92472,1.88133 2.88,1.00475 2.88,1.00474 2.88,0.75329 2.88,0.7533 0.336,0.0247 0.336,0.0247 0.384,-0.384 z m 193.00966,-0.39873 0.38404,-0.46273 0.93561,-18.81727 0.93562,-18.81728 1.28662,-7.04 1.28666,-7.04 -0.007,-0.82123 -0.007,-0.82123 -3.45079,-5.09877 -3.45078,-5.09877 -2.52841,-3.52 -2.5284,-3.52 -1.81887,-2.406 -1.81886,-2.40601 -0.51779,-0.42972 -0.51779,-0.42973 -0.8318,0.20877 -0.8318,0.20876 -1.60519,1.50147 -1.60519,1.50147 -1.92128,4.00549 -1.92129,4.0055 -1.26138,2.64 -1.26138,2.64 h -0.36013 -0.36012 l -4.18437,-2.44724 -4.18438,-2.44725 -3.36,-2.25606 -3.36,-2.25606 -3.95721,-3.95262 -3.9572,-3.95262 -0.6028,0.54552 -0.60279,0.54553 v 0.76203 0.76203 l 2.90624,10.14837 2.90624,10.14837 2.05785,6.65814 2.05785,6.65813 2.35302,6.30187 2.35302,6.30187 1.21604,4.32 1.21604,4.32 1.31016,1.28113 1.31016,1.28113 2.71669,2.03309 2.71669,2.03309 5.92,3.94858 5.92,3.94859 4.64,2.87925 4.64,2.87925 0.68083,0.0179 0.6808,0.018 0.38403,-0.46273 z m -113.25844,-15.3923 3.54923,-0.49504 3.054,-0.77471 3.05399,-0.77471 2.19624,-1.01231 2.19624,-1.01231 0.53112,-0.58688 0.53112,-0.58688 -0.36046,-3.45107 -0.36046,-3.45106 9.6e-4,-2.17275 9.6e-4,-2.17275 0.6107,-1.18725 0.61069,-1.18725 0.90931,-0.8414 0.9093,-0.8414 1.36,-0.84262 1.36,-0.84261 v -0.29581 -0.2958 l -2.8,-3.84263 -2.8,-3.84262 -2.06056,-3.29756 -2.06057,-3.29756 -1.81638,-3.58739 -1.81639,-3.58739 -1.14845,-3.45723 -1.14845,-3.45723 -0.37324,-2.39538 -0.37323,-2.39538 0.19277,-2.29885 0.19277,-2.29886 0.51061,-1.27616 0.51062,-1.27616 2.29525,-0.18289 2.29525,-0.1829 4.16,-0.34041 4.16,-0.34041 0.48,-0.4745 0.48,-0.47449 -0.73254,-1.18719 -0.73255,-1.18718 -0.65292,-1.38372 -0.65292,-1.38373 -0.43805,-2.29627 -0.43804,-2.29628 -0.20196,-2.16 -0.20196,-2.16 h -0.55175 -0.55176 l -1.10277,1.13897 -1.10278,1.13897 -2.72,1.84593 -2.72,1.84594 -1.92,1.14372 -1.92,1.14372 -7.84,4.38299 -7.84,4.383 -3.52,2.31189 -3.52,2.31189 -2.01352,1.67941 -2.01353,1.67942 -1.09075,1.49708 -1.09076,1.49707 -0.36115,1.49296 -0.36115,1.49296 0.49674,1.93894 0.49673,1.93894 0.94408,1.8481 0.94409,1.8481 2.4365,3.84 2.43651,3.84 1.72261,3.52 1.72261,3.52 1.43873,3.52001 1.43872,3.52 1.31986,3.95367 1.31986,3.95367 0.77482,3.19992 0.77482,3.19993 0.21418,1.9664 0.21418,1.96641 0.28917,0.56 0.28917,0.56 h 2.21774 2.21774 l 3.54923,-0.49503 z m 41.45183,-6.63922 0.15896,-0.41425 -0.47236,-1.33879 -0.47235,-1.33879 -1.26266,-1.84696 -1.26267,-1.84696 -2.51399,-2.46339 -2.51398,-2.46339 -0.90282,-0.69779 -0.90282,-0.69779 -0.30378,0.30377 -0.30377,0.30378 1.00206,1.8974 1.00205,1.89741 1.69262,2.56 1.69262,2.56 2.08422,2 2.08422,2 h 0.51775 0.51774 z m 124.94421,-5.42575 3.56269,-4.56 1.42461,-2.4 1.42461,-2.4 0.9231,-2.88001 0.92311,-2.88 0.81984,-4 0.8198,-4 0.63735,-5.28 0.63734,-5.28 0.82272,-8.96 0.82272,-8.96 0.64787,-4.48 0.64791,-4.48 0.79107,-3.74904 0.79107,-3.74905 1.2801,-4.00418 1.28013,-4.00419 1.43782,-3.43189 1.43782,-3.43188 2.51866,-4.85692 2.51862,-4.85693 2.4392,-3.85018 2.4392,-3.85018 2.87469,-4.04552 2.87469,-4.04552 v -0.4742 -0.47419 l -1.41514,-1.37537 -1.41516,-1.37536 -2.244,-1.17919 -2.244,-1.17919 -2.12525,-0.79995 -2.12525,-0.79994 -3.89562,-1.09309 -3.89558,-1.09309 -6.24,-1.43725 -6.24,-1.43725 -4.8,-1.31685 -4.8,-1.31686 -4.8,-1.61071 -4.8,-1.6107 -4.17232,-2.00158 -4.17232,-2.00158 -1.65686,-1.11581 -1.65687,-1.1158 -5.2904,-4.85828 -5.29037,-4.85828 h -0.33046 -0.3305 l -0.1894,0.49363 -0.18944,0.49363 0.36134,11.42637 0.36131,11.42637 0.21136,7.03435 0.21133,7.03436 -0.77322,-0.51154 -0.77318,-0.51153 -5.05802,-10.52282 -5.05801,-10.52282 -0.92592,-2.61994 -0.92589,-2.61995 -0.79725,-3.78005 -0.79721,-3.78006 -0.83309,-4.96 -0.83309,-4.96 -0.81411,-3.65484 -0.81411,-3.654835 -0.96381,-2.745161 -0.96378,-2.745162 -1.69059,-3.568394 -1.69058,-3.56839 -1.84904,-3.15161 -1.84904,-3.151606 -1.91802,-2.88 -1.91801,-2.88 -10.32496,-13.760001 -10.32497,-13.76 -2.59589,-2.783318 -2.5959,-2.783319 -3.64168,-2.456224 -3.64168,-2.456224 -7.94768,-1.889594 -7.94767,-1.88959 -0.96,0.131785 -0.96,0.131786 -2.24,0.515011 -2.24,0.515015 -3.84,0.477529 -3.84,0.477533 -6.92767,0.643635 -6.92767,0.643636 -4.75233,0.80344 -4.75233,0.803436 -1.76,0.506116 -1.76,0.506118 -1.85644,0.984963 -1.85645,0.984963 -0.78355,0.931204 -0.78356,0.931203 v 0.396521 0.396525 l 1.36,0.745092 1.36,0.745091 1.69003,1.280486 1.69003,1.280487 4.11365,4.513347 4.11365,4.513347 2.00218,2.4 2.00219,2.4 2.29971,3.04 2.2997,3.04 2.73126,4 2.73126,4.000001 3.19031,5.28 3.19031,5.28 7.3721,13.28 7.3721,13.279998 6.32992,10.88 6.32992,10.88 3.67753,6.24 3.67752,6.24 4.48597,7.2 4.48597,7.2 3.10347,4.64 3.10346,4.64 3.32948,4.64872 3.32947,4.64872 9.55755,11.61918 9.55753,11.61919 1.54288,1.54286 1.54285,1.54285 4.41398,3.82594 4.41402,3.82593 1.77184,1.88331 1.77187,1.8833 5.29296,6.72 5.29299,6.72 5.4154,7.2 5.41542,7.2 4.77878,6.72001 4.77882,6.72 0.75725,1.04 0.75725,1.04 h 0.444 0.44403 z M 280.32,255.40728 v -0.59273 l -1.46749,-3.48727 -1.4675,-3.48727 -1.76557,-4.64001 -1.76558,-4.64 -3.77754,-10.24 -3.77754,-10.24 -1.65613,-4.95099 -1.65613,-4.951 -0.32149,-0.60072 -0.32149,-0.60071 -1.01177,0.16397 -1.01177,0.16398 -1.91117,0.6956 -1.91117,0.6956 -6.37975,0.92987 -6.37975,0.92987 -1.88533,0.52899 -1.88533,0.529 -0.78375,0.6165 -0.78375,0.6165 v 0.50947 0.50948 l 1.32515,2.4273 1.32515,2.42729 1.8598,2.72 1.85979,2.72 2.05386,2.56 2.05387,2.56 3.16119,3.20723 3.16119,3.20723 3.06172,2.71277 3.06172,2.71277 4.61828,3.73262 4.61828,3.73262 4.32,3.70541 4.32,3.70541 0.56,0.002 0.56,0.002 v -0.59273 z m -213.175014,-7.11605 1.000486,-0.34877 1.265494,-1.89509 1.265498,-1.8951 0.991594,-2.57129 0.99159,-2.57128 0.824912,-3.42305 0.824909,-3.42305 0.577245,-3.32549 0.577244,-3.32549 -0.32446,-5.47991 -0.324461,-5.47992 1.632483,-5.61029 1.63248,-5.6103 v -0.61721 -0.61721 l -0.604269,0.63111 -0.604265,0.63111 -3.621162,5.44 -3.621162,5.44 -2.044009,3.36 -2.04401,3.36 -2.150678,4.33673 -2.150682,4.33673 -1.160393,3.50327 -1.160394,3.50327 -0.374861,2.84003 -0.374864,2.84003 0.17816,1.09786 0.178157,1.09786 2.177216,2.04829 2.177216,2.04828 1.63225,0.0138 1.632246,0.0138 1.00049,-0.34877 z m 167.125304,-17.33307 2.52835,-1.99816 6.4e-4,-0.66892 6.4e-4,-0.66892 -1.52651,-2.53988 -1.52651,-2.53988 -1.58875,-2.0712 -1.58874,-2.0712 -2.08474,-2.0902 -2.08475,-2.0902 -1.51649,-1.04275 -1.51648,-1.04276 -1.32375,-0.46704 -1.32374,-0.46705 h -0.0969 -0.0969 l -0.50286,0.50286 -0.50286,0.50286 v 1.34991 1.34991 l 0.49234,1.90723 0.49233,1.90723 0.90503,1.92 0.90502,1.92 1.56264,2.09964 1.56264,2.09964 2.69573,3.27321 2.69574,3.27321 0.45524,-0.17469 0.45523,-0.17469 2.52835,-1.99816 z m 64.43617,-14.59549 0.18958,-0.59734 1.11844,-7.64266 1.11844,-7.64267 0.1988,-3.37647 0.1988,-3.37647 -0.41835,-0.78169 -0.41835,-0.7817 -7.31522,-10.45012 -7.31523,-10.45013 -2.21448,-4.45825 -2.21448,-4.45825 -0.51077,-0.4239 -0.51076,-0.42389 -0.27029,0.29043 -0.27029,0.29044 -0.49189,9.34233 -0.49189,9.34232 -1.1276,3.13768 -1.1276,3.13767 -1.14426,3.17179 -1.14427,3.17179 -0.0724,1.46254 -0.0724,1.46254 6.53746,4.67046 6.53745,4.67046 3.35233,3.65521 3.35234,3.65521 1.90228,2 1.90228,2 h 0.26637 0.26636 z m -206.548911,-8.1934 7.522451,-7.51073 13.44,-10.36011 13.44,-10.36011 -0.0486,-1.4521 -0.0486,-1.4521 -0.68699,-1.55307 -0.687,-1.55308 -0.70437,-0.76633 -0.70437,-0.76634 -1.6,-0.75452 -1.6,-0.75452 -1.4118,-0.003 -1.41179,-0.003 -4.66821,2.4237 -4.6682,2.4237 -4.08624,2.71384 -4.08623,2.71384 -3.050407,2.9162 -3.050403,2.9162 -1.917811,2.54513 -1.917815,2.54514 -1.73367,3.56112 -1.733667,3.56113 -0.800416,2.79623 -0.800413,2.79624 -0.492605,2.80376 -0.492605,2.80377 -0.206067,2.64 -0.206067,2.64 h 0.444758 0.444759 l 7.522448,-7.51074 z m 96.221261,-6.29153 9.54119,-2.60228 2.77269,-1.20195 2.77269,-1.20195 2.95956,-1.66836 2.95956,-1.66836 5.22634,-3.35131 5.22633,-3.3513 0.48142,-0.68731 0.48141,-0.68732 v -3.58594 -3.58594 l -0.45209,-0.45209 -0.45209,-0.4521 -4.10791,-0.21648 -4.10791,-0.21649 -1.6,-0.31925 -1.6,-0.31925 -1.44,-0.71503 -1.44,-0.71503 0.0364,-1.28 0.0365,-1.28 0.67935,-3.04 0.67935,-3.04 -6.4e-4,-2.72 -6.4e-4,-2.72 -0.28405,-0.44866 -0.28406,-0.44866 -6.83116,-0.67134 L 192.8,158.56 l -0.4,-0.25888 -0.4,-0.25889 v -2.1955 -2.19549 l 0.7939,-3.30562 0.7939,-3.30562 0.63726,-4.9834 0.63726,-4.98341 0.34951,-5.94618 0.3495,-5.94619 -0.34871,-4.36703 -0.34871,-4.36703 -0.55195,-1.66338 -0.55196,-1.66338 -5.27569,-3.61503 -5.2757,-3.61504 -0.29319,-0.52391 -0.2932,-0.52391 0.20346,-6.305001 0.20347,-6.304998 0.3467,-3.156055 0.3467,-3.156054 0.56959,-2.651485 0.56958,-2.651485 -0.32765,-0.202499 -0.32765,-0.202503 -0.89862,1.076397 -0.89861,1.076397 -1.90552,3.857587 -1.90552,3.857591 -1.12413,3.268029 -1.12413,3.268029 -0.96039,3.93197 -0.96038,3.93197 -0.63109,3.84 -0.63108,3.84 -0.33326,2.72 -0.33326,2.72 -0.38979,4.8 -0.38978,4.8 0.005,11.04 0.005,11.04 0.38752,6.08 0.38752,6.08 0.4746,5.6 0.4746,5.6 0.7917,7.04 0.7917,7.04 1.15447,8.48 1.15447,8.48 0.32578,0.4 0.32578,0.4 h 0.41963 0.41963 l 9.54119,-2.60226 z m 62.71043,-28.91774 0.69756,-1.28 2.26206,-9.12 2.26206,-9.12 0.64495,-4.0132 0.64496,-4.0132 0.27879,-4.3068 0.27878,-4.3068 -0.2506,-3.36 -0.2506,-3.36 -0.504,-2.16 -0.50399,-2.16001 -0.96303,-1.90775 -0.96304,-1.90776 -1.16887,-1.16888 -1.16888,-1.16887 -1.6327,-0.76024 -1.63269,-0.76023 -0.85383,-0.003 -0.85383,-0.003 -0.50617,-0.19424 -0.50617,-0.19424 v -2.48384 -2.48385 l -0.47915,-2.74763 -0.47914,-2.74764 -0.64108,-1.71342 -0.64107,-1.71343 -0.40517,-0.5541 -0.40517,-0.5541 -6.07461,-1.41431 -6.07461,-1.414162 -4.32,-0.792019 -4.32,-0.792023 -3.52,-0.380432 -3.52,-0.380432 -3.84,0.169636 -3.84,0.169635 -0.88,0.342448 -0.88,0.342451 v 0.558134 0.558132 l 2.48,2.419812 2.48,2.41981 4.96,4.10653 4.96,4.10652 3.13758,2.76345 3.13758,2.76345 0.64897,1.04074 0.64897,1.04072 -1.28052,1.45476 -1.28053,1.45476 -1.30366,2.66841 -1.30366,2.66841 -0.95212,2.9136 -0.95212,2.9136 -0.57024,2.6425 -0.57025,2.6425 v 4.8 4.8 l 0.57617,1.12 0.57616,1.12 11.00541,8.43387 11.00542,8.43386 1.80885,2.36161 1.80884,2.36161 0.84958,0.64249 0.84957,0.64249 0.79584,-0.078 0.79585,-0.078 z m -40.39242,-19.46772 0.74773,-0.74773 0.37484,-1.73227 0.37484,-1.73228 0.6228,-3.68 0.6228,-3.68 1.11994,-8.8 1.11993,-8.8 1.5e-4,-0.99477 1.5e-4,-0.99476 -3.92424,-3.81886 -3.92425,-3.81886 -1.73858,-0.86637 -1.73859,-0.86638 h -0.55829 -0.55828 l -0.25888,0.4 -0.25889,0.4 V 126.88 140 l -0.88,3.57689 -0.88,3.57688 v 1.195 1.195 l 0.76862,1.31156 0.76862,1.31155 1.36716,0.76839 1.36715,0.76838 0.98423,0.23542 0.98422,0.23542 1.37454,0.0328 1.37455,0.0328 z M 213.6,92.479282 l 7.36,-0.309808 5.6,-0.507091 5.6,-0.507095 2.04644,-0.280086 2.04645,-0.280087 0.34353,-0.343536 0.34354,-0.343536 -1.69549,-3.409152 -1.69548,-3.409152 -1.76289,-2.649321 -1.7629,-2.649319 -2.01841,-2.365561 -2.0184,-2.365562 -2.13875,-1.889987 -2.13875,-1.889988 -2.29445,-1.53775 -2.29444,-1.53775 -2.24,-1.058605 -2.24,-1.058605 -2.08411,-0.68448 -2.0841,-0.68448 -2.2359,-0.473607 L 204,61.771115 l -1.00576,-0.0056 -1.00577,-0.0056 -0.21689,0.56 -0.21689,0.56 -2.06585,9.593315 -2.06586,9.593312 -0.3392,4.900513 -0.3392,4.900512 0.38689,0.466172 0.38689,0.466176 4.36082,-0.0054 4.36082,-0.0055 7.36,-0.309808 z" />
  </g>
</svg>
