<?xml version="1.0" encoding="UTF-8" standalone="no"?>
<svg
   xmlns:dc="http://purl.org/dc/elements/1.1/"
   xmlns:cc="http://creativecommons.org/ns#"
   xmlns:rdf="http://www.w3.org/1999/02/22-rdf-syntax-ns#"
   xmlns:svg="http://www.w3.org/2000/svg"
   xmlns="http://www.w3.org/2000/svg"
   viewBox="0 0 319.99997 187.38197"
   height="187.38197"
   width="319.99997"
   xml:space="preserve"
   id="svg2"
   version="1.1"><metadata
     id="metadata8"><rdf:RDF><cc:Work
         rdf:about=""><dc:format>image/svg+xml</dc:format><dc:type
           rdf:resource="http://purl.org/dc/dcmitype/StillImage" /><dc:title></dc:title></cc:Work></rdf:RDF></metadata><defs
     id="defs6" /><g
     style="fill:#ffffff"
     transform="matrix(0.04253096,0,0,-0.04253096,0,187.38248)"
     id="logo"><path
       id="name"
       d="m 7117.51,764.84 h -425.58 v 59.281 l 21.74,2.059 c 76.81,6.769 84.83,7.492 84.83,98.269 V 2113.66 h -324.9 c -61.33,0 -61.33,-1.5 -61.33,-13.06 l 13.12,-62.55 h -59.24 l -84.54,216.31 h 63.29 l 6.57,-13.13 c 11.06,-21.96 19.29,-29.02 24.25,-31.12 11.15,-4.07 31.22,-4.07 59.01,-4.07 l 937.25,-0.28 c 55.52,0.07 69.71,2.72 80.96,32.95 l 5.89,15.65 h 65.1 l -84.58,-216.31 h -29.88 l -26.03,4.08 6.28,54.21 -0.11,4.83 -2.8,8.73 c -6.46,3.65 -24.34,3.76 -36.97,3.76 -0.36,0 -0.71,0 -0.71,0 h -342.1 V 943.75 c 0,-56.41 2.7,-89.648 16.89,-103.699 10.4,-10.11 31.93,-14.16 69.28,-13.832 l 24.31,0.562 z m -997.5,0 H 5118.8 v 37.461 l 3.4,22.39 21.04,1.489 c 52.61,3.8 74.4,5.359 74.4,75 v 1125.77 c 0,102.7 -4.15,115.8 -74.83,115.8 h -24.01 v 63.29 h 923.77 v -239.65 h -55.6 l -4.89,17.42 c -35.79,127.86 -35.79,127.86 -120.44,127.86 h -435.37 v -573.51 h 402.44 c 62.51,0 72.35,3.37 75.15,25.71 l 2.63,20.83 h 58.56 v -188.38 h -56.87 l -4.01,19.02 c -5.21,25.26 -15.17,27.46 -63.86,27.46 h -414.04 v -402.13 c 0,-181.389 36.01,-181.389 169.97,-181.389 h 246.03 c 169.54,0 200.08,0 216.55,124.547 l 2.98,20.762 h 58.21 z M 4342.39,743.551 h -49.52 l -2.27,5.679 c -4.79,11.809 -461.45,1140.96 -497.59,1230.18 h -0.04 l -2.31,5.71 c -63.78,159.48 -98.23,159.48 -134.7,159.48 h -23.91 v 61.44 h 369.35 v -63.22 l -25.44,1.8 c -8.02,0.54 -12.45,-0.06 -14.58,-0.67 l -2.59,-9.5 c 0.42,-10.36 6.42,-31.4 17.49,-53.12 0.31,-0.67 334.68,-832.23 396.66,-986.31 40.72,101.64 133.25,332.27 218.36,544.07 45.8,114.02 89.43,222.54 121.68,302.58 34.27,85.04 47.61,118.13 54.67,130.47 l -1.49,0.5 c 0,0 3.94,11.68 4.47,13.63 l 6.74,-1.88 -6.56,2.59 3.58,10.08 11.92,41.75 -1.46,3.44 c -3.3,1.88 -10.46,3.37 -22.35,2.37 l -25.89,-2.12 v 63.54 h 256.96 v -61.44 h -23.81 c -56.19,0 -70.17,-28.11 -93.34,-74.68 l -7.55,-13.21 C 4868.76,2056.08 4398.34,883.012 4344.7,749.262 Z m -926.82,21.289 h -419.93 v 60.531 l 23.16,0.848 c 78.61,3.011 81.67,7.691 81.67,125.301 v 1060 c 0,59.57 0,102.6 -19.01,120.37 -10.65,10.22 -30.59,14.44 -60.53,12.71 l -25.29,-1.24 v 62.68 h 419.93 v -63.83 l -26.11,2.41 c -8.83,1.32 -46.16,2.28 -65.46,-15.21 -8.97,-8.09 -13.08,-19.55 -13.37,-37.18 l -1.6,-69.26 V 953.582 c 0,-56.883 0,-97.992 15.8,-113.504 10.06,-10.058 31.39,-14.43 66.44,-13.859 l 24.3,0.562 z m -694.46,0 H 1712.17 v 61.379 h 24.01 c 74.47,0 80.72,20.679 80.72,84.711 v 1141.39 c 0,90.11 -17.64,90.57 -83.31,92.28 l -23.37,0.52 v 60.92 h 421.88 v -61.81 l -24.37,0.37 c -32.67,0.63 -56.3,-4.48 -67.54,-15.26 -14.73,-14.55 -14.73,-46.44 -14.73,-86.81 v -978.7 c 0,-154.85 59.17,-204.549 243.51,-204.549 h 170.5 c 175.72,0 211.05,85.75 220.38,265.859 l 1.03,22.71 h 60.23 z M 799.074,864.992 c -337.453,0 -644.746,343.238 -644.746,720.138 0,311.52 269.188,520.79 520.645,520.79 279.453,0 685.407,-271.5 685.407,-696.97 0,-289.77 -262.27,-543.958 -561.306,-543.958 z m 5.742,1362.298 C 249.68,2227.29 0,1749.85 0,1410.8 0,1030.42 293.535,743.551 682.785,743.551 c 558.325,0 812.615,433.309 812.615,835.939 0,375.37 -290.44,647.8 -690.584,647.8 z M 7403.95,18.8398 h -124.63 v 22.0586 l 9.26,-0.4179 c 4.21,-0.211 12.41,-0.7813 16.6,3.1992 2.76,2.6211 4.22,7.6914 4.22,14.6914 V 234.121 c -10.43,17.16 -96.85,160.59 -96.85,160.59 -7.99,14.078 -16.57,21.539 -26.64,20.789 l -9.08,-0.211 v 21.82 h 112.38 V 415.5 h -8.87 c -3.69,0 -4.65,-0.629 -4.65,-0.629 0.29,-0.891 0.85,-2.84 4.37,-9.66 l 1.17,-2.441 73.55,-121.219 30.83,46.539 c 22.49,33.922 47.85,72.16 50.69,76.531 l 1.67,2.617 c 3.68,5.461 4.36,7.481 4.46,8.094 -0.35,0.066 -1.24,0.168 -2.72,0.168 h -10.54 v 21.609 h 77.79 v -21.25 l -8.51,-0.359 c -9.76,-0.43 -16.56,-2.02 -28.62,-20.531 -3.74,-5.688 -87.39,-132.188 -96.54,-145.989 V 67.8008 c 0,-26.8203 2.52,-26.9024 21.99,-27.3203 l 8.67,-0.2813 z m -371.59,0 H 6906 v 20.8204 l 7.98,0.789 c 21.85,1.9922 22.7,2.0625 22.7,26.2227 V 406.57 h -91.45 c -3.66,0 -12.78,0 -15.72,-0.75 0,-0.289 0,-0.64 0,-0.922 l 4.33,-20.046 h -20.9 l -25.94,66.16 h 22.61 l 2.37,-5 c 3.13,-6.453 5.39,-7.66 5.78,-7.84 2.88,-1.063 8.8,-1.063 16.32,-1.063 l 269.45,-0.07 c 15.57,0 18.59,0.602 21.42,8.191 l 2.1,5.782 h 23.06 l -25.86,-66.16 h -9.9 l -9.83,1.488 2.13,17.519 -0.56,2.211 c -1.82,0.5 -6.39,0.602 -9.13,0.5 h -96.35 V 72.2695 c 0,-15.289 0.71,-24.8672 4.29,-28.4179 2.48,-2.4532 8.73,-3.5118 18.45,-3.3711 l 9.01,0.0703 z m -300.94,0 h -124.74 v 21.211 l 8.41,0.4297 c 21.29,0.8086 21.68,0.8086 21.68,33.9883 V 379.211 c 0,15.961 0,28.598 -4.8,33.168 -2.62,2.492 -8.26,3.621 -15.99,3.121 l -9.3,-0.559 v 22.168 h 124.74 v -22.668 l -9.91,1.098 c -5.63,0.422 -13.36,-0.5 -17.06,-3.859 -1.6,-1.391 -3.12,-3.481 -3.26,-9.371 l -0.47,-19.868 V 75.0313 c 0,-15.25 0,-27.3125 3.98,-31.1524 2.49,-2.4805 8.06,-3.3281 17.6,-3.3984 l 9.12,0.0703 z m -365.55,0 H 6250.03 V 152.949 h 21.61 v -8.84 c 0.57,-59.9879 17.35,-94.7574 101.47,-94.7574 92.62,0 95.28,66.1174 95.28,73.6484 0,48.109 -49.63,65.102 -93.41,80.102 -48.71,16.398 -62.51,24.269 -77.13,38.25 -22.95,22.32 -35.61,51.898 -35.61,83.289 0,58.929 42.86,118.57 124.77,118.57 29.02,0 49.95,-5.32 66.77,-9.582 0.53,-0.141 1.2,-0.309 1.88,-0.598 l 9.9,-2.199 24.33,-64.75 -14.83,-2.441 -5.04,0.961 -0.96,1.019 c 0,0 -5.32,5.649 -5.56,6 -12.24,14.051 -35.7,41.078 -82.63,41.078 -55.17,0 -80.28,-37 -80.28,-71.379 0,-45.078 38.1,-57.078 78.43,-69.781 0.18,-0.07 4.48,-1.348 5.82,-1.809 v 0 c 40.09,-12.421 123.53,-38.21 123.53,-128.39 0,-56.7892 -34.51,-94.2892 -66.8,-110.4416 -17.2,-8.3398 -65.27,-12.0586 -75.7,-12.0586 z M 5902.82,238.859 h 32.93 c 13.91,0 41.29,3.871 52.5,9.973 v 0 c 8.48,4.539 36.12,22.777 36.12,65.75 0,26.77 -10.5,53.629 -28.06,71.828 -15.82,15.692 -36.65,22.379 -69.5,22.379 h -23.99 z M 6149.56,14.9414 c -34.12,0 -62.04,13.8399 -85.31,42.25 -31.26,38.1406 -68.3,93.4106 -68.55,93.8396 l -1.52,3.399 v 0 c -0.07,-0.032 -30.09,46.34 -37.11,57.121 h -10.18 l -20.3,-1.071 h -23.77 V 66.1719 c 0,-25.0899 3.8,-25.2305 19.84,-25.6914 l 8.55,-0.2813 V 18.8398 h -121.37 v 21.211 l 8.41,0.4297 c 19.06,0.8086 20.61,0.8515 20.61,29.0195 v 318.648 c 0,26.723 -4.72,26.864 -20.32,27.352 l -8.7,0.219 v 21.39 h 122.53 c 43.75,0 63.72,0 87.92,-7.66 40.69,-12.75 64.07,-45.488 64.07,-89.801 0,-48.918 -33.7,-87.089 -66.66,-107.589 l 15.68,-24.161 c 10.29,-15.859 10.29,-15.859 10.43,-16.187 5.28,-9.539 52.26,-78 83.02,-113.1602 8.47,-10.1524 31.72,-29.1992 59.56,-29.1992 12.63,0 17.95,2.3086 23.13,4.539 l 28.42,15.3985 6.52,-22 -4.67,-3.7578 c -12.43,-9.3594 -20.69,-14.1524 -32.86,-19.0821 -11.35,-4.4101 -33.13,-9.5078 -57.37,-9.5078 z m -421.74,3.8984 h -291.73 v 12.7813 l 1.25,8.3008 7.59,0.5586 c 15.36,1.1406 19.48,1.4179 19.48,19.5195 v 323.648 c 0,29.872 -0.92,31.321 -19.48,31.321 h -8.84 v 22.14 h 269.42 v -72.8 h -19.41 l -1.81,6.421 c -9.89,35.231 -9.89,35.231 -32.71,35.231 H 5528.37 V 243.77 h 113.81 c 18.84,0 19.05,1.519 19.55,5.628 l 0.96,7.774 h 20.61 v -55.59 h -19.83 l -1.6,6.879 c -1.14,5.57 -1.74,6.461 -16.43,6.461 H 5528.37 V 100.148 c 0,-50.2261 9.01,-50.2261 46.9,-50.2261 h 70.75 c 48.35,0 55.8,0 60.3,34.0586 l 0.96,7.7187 h 20.54 z m -558.19,-6.1679 h -16.99 l -1.17,2.8281 -143.68,355.41 c -17.81,44.59 -27.07,44.59 -36.86,44.59 h -8.87 v 21.609 h 110.16 v -22.39 l -9.62,0.781 c -1.03,0.109 -1.74,0.07 -2.31,0 l -0.28,-1.168 c 0.18,-2.691 1.81,-8.23 4.72,-14.332 0.1,-0.25 90.57,-225.168 112.28,-278.949 l 74.5,185.679 c 24.73,61.52 33.38,83.122 37.57,90.372 l -0.95,0.308 c 0,0 0.99,2.981 1.2,3.731 l 2.62,-0.68 c 0.08,0.027 0.15,0.027 0.22,0.07 l -2.66,1.278 1.03,2.632 3.12,10.918 c -0.78,0.141 -2.23,0.36 -4.51,0.141 l -9.61,-0.781 v 22.39 h 77.94 V 415.5 h -8.9 c -14.87,0 -18.24,-6.809 -25.01,-20.359 -0.25,-0.461 -1.67,-2.77 -2.03,-3.469 C 5321.41,391.281 5170.77,15.5 5170.77,15.5 Z m -283.31,6.1679 h -124.67 v 21.211 l 8.41,0.4297 c 21.33,0.8086 21.72,0.8086 21.72,33.9883 V 379.211 c 0,15.961 0,28.598 -4.84,33.168 -2.61,2.492 -7.87,3.691 -15.99,3.121 l -9.3,-0.559 v 22.168 h 124.67 v -22.668 l -9.8,1.098 c -5.67,0.461 -13.47,-0.469 -17.16,-3.859 -1.5,-1.321 -3.13,-3.52 -3.16,-9.231 l -0.47,-20.008 V 75.0313 c 0,-15.293 0,-27.3516 3.91,-31.1524 2.45,-2.4375 8.37,-3.2187 17.6,-3.3984 l 9.08,0.0703 z M 4638.48,0.289063 4630.64,8.62109 c 0,0 -261.5,278.34791 -311.91,332.02691 V 66.6719 c 0,-24.0625 0.78,-24.1406 20.93,-26.2227 l 8.02,-0.8476 V 18.8398 h -94.61 v 21.211 l 8.43,0.4297 c 22.25,0.789 22.25,1.4179 22.25,33.4492 V 345.219 c 0,17.211 0,46.023 -15.18,60.601 -7.2,7.032 -17.91,10.039 -31.36,9.68 l -9.16,-0.488 v 22.097 h 87.88 l 1.35,-1.418 c 0,0 238.11,-253.582 286.22,-304.82 V 391.41 c 0,24.09 -7.13,24.09 -20.08,24.09 h -8.91 v 21.609 h 95.19 v -21.39 l -8.73,-0.219 c -15.89,-0.43 -22.49,-0.629 -22.49,-27.961 z M 3924.27,16.1094 c -66.77,0 -138.12,35.3711 -138.12,134.7106 v 240.09 c 0,9.16 -0.24,19.16 -3.08,21.969 -2.98,2.871 -14.05,2.66 -17.39,2.621 l -8.97,-0.211 v 21.82 H 3880.7 V 415.5 h -8.79 c -15.83,0 -21.75,0 -21.75,-21.738 V 173.66 c 0,-16.5 0.92,-40.66 8.84,-60.172 22.27,-54.8357 73.11,-59.0974 88.15,-59.0974 59.21,0 92.88,37.25 106.43,52.9294 v 267.989 c 0,40.191 -4.22,40.191 -16.78,40.191 h -12.78 v 21.609 h 123 V 424.41 l -1.45,-8.66 -7.91,-0.309 c -16.25,-0.472 -20.08,-0.57 -20.08,-18.382 V 70.6406 c 0,-12.7422 0,-22.8086 3.87,-26.6093 1.67,-1.629 5.64,-3.5821 14.93,-3.5821 0.53,0 1.03,0.0313 1.56,0.0313 l 9.08,0.0703 v -21.711 h -93.44 V 68.4297 C 3997.6,16.1094 3942.82,16.1094 3924.27,16.1094 Z m -1373.33,2.7304 h -291.73 v 12.7813 l 1.21,8.3008 7.67,0.5586 c 15,1.1015 19.51,1.4609 19.51,19.5195 v 323.648 c 0,29.872 -0.93,31.321 -19.51,31.321 h -8.88 v 22.14 h 269.44 v -72.8 h -19.32 l -1.89,6.39 c -9.86,35.262 -9.86,35.262 -32.67,35.262 H 2351.56 V 243.77 h 113.67 c 18.98,0 19.16,1.519 19.65,5.601 l 0.88,7.801 h 20.66 v -55.59 h -19.98 l -1.46,6.988 c -1.16,5.641 -1.87,6.352 -16.41,6.352 H 2351.56 V 100.148 c 0,-50.2261 9.01,-50.2261 46.86,-50.2261 h 70.74 c 48.32,0 55.77,0 60.27,34.0898 l 0.54,3.7969 0.57,3.8906 h 20.4 z M 1515.17,232.09 h 82.02 c -7.95,20.039 -30.69,77.48 -40.98,103.558 -5.82,-14.687 -15.6,-39.347 -24.44,-61.656 -6.85,-17.281 -13.13,-33.133 -16.6,-41.902 z M 1771.73,18.8398 h -111.25 v 21.6407 h 8.83 c 2.49,0 3.9,0.6015 3.94,1.1797 0,2.4804 -1.38,8.6914 -5.32,17.9687 l -2.45,5.543 c -0.5,0.8476 -47.97,117.7771 -56.19,138.0781 h -105.05 c -10.75,-27.031 -59.39,-148.1914 -59.39,-148.1914 -0.03,-0.0273 -1.45,-3.5391 -1.77,-4.6094 l -2.66,-9.8984 c 1.07,-0.0703 2.94,-0.0703 3.68,-0.0703 h 9.51 V 18.8398 h -77.3 v 21.3594 l 8.62,0.2813 c 17.06,0.3906 21.47,9.6484 29.88,30.5078 l 147.61,372.2227 h 18.66 l 2.23,-5.461 c 138.72,-343.4492 143.4,-355.3711 143.65,-356.1484 0,0.039 -0.04,0.039 -0.04,0.039 0,0 0.53,-1.4297 0.96,-2.0586 l 2.63,-7.0312 c 6.17,-16.6406 14.33,-32.0703 32.35,-32.0703 h 8.87 z m -423.91,0 H 940.547 l 5.969,7.379 c 0,0 260.884,323.5432 304.884,378.1132 h -189.84 c -32.14,0 -35.89,-2.992 -40.3,-32.043 l -1.1,-7.559 h -20.715 l 2.905,72.379 h 356.82 l -5.96,-7.418 c 0,0 -261.81,-323.5 -305.9,-378.0699 h 247.09 c 20.75,0 29.33,0 31.82,39.5977 l 0.6,8.2617 h 21 z M 459.492,387.539 c 0,27.332 6.633,27.531 22.637,27.961 l 8.613,0.219 v 21.39 H 395.566 V 415.5 h 8.829 c 12.988,0 20.156,0 20.156,-24.09 V 130.871 C 376.438,182.109 138.32,435.691 138.32,435.691 l -1.347,1.418 H 49.0625 v -22.097 l 9.1914,0.488 c 13.6211,0.359 24.1602,-2.648 31.4649,-9.68 15.0472,-14.578 15.0472,-43.39 15.0472,-60.601 V 73.9297 c 0,-32.0313 0,-32.6602 -22.1371,-33.4492 l -8.4101,-0.4297 v -21.211 h 94.5042 v 20.7618 l -7.981,0.8476 c -20.183,2.0821 -20.965,2.1602 -20.965,26.2227 V 340.648 C 190.188,286.941 451.652,8.62109 451.652,8.62109 l 7.84,-8.332027 z M 658.938,232.09 h 81.992 c -4.121,10.332 -12.141,30.582 -20.364,51.371 l -20.652,52.187 C 689.629,309.539 666.887,252.129 658.938,232.09 Z M 915.469,18.8398 H 804.074 v 21.6407 h 8.906 c 0.918,0 3.934,0.1093 4.004,1.3789 0,2.1328 -1.379,8.3008 -5.312,17.8125 l -2.414,5.539 C 808.223,67.3008 761.184,183.242 752.988,203.25 H 647.98 C 637.188,176.219 588.691,55.0586 588.691,55.0586 588.664,55 587.102,51.3711 586.816,50.3516 l -2.664,-9.7305 0.039,-0.1094 c 0.997,-0.0312 2.872,-0.0312 3.582,-0.0312 h 9.649 V 18.8398 h -77.305 v 21.3594 l 8.586,0.2813 c 17.031,0.3906 21.465,9.6484 29.844,30.5781 L 706.164,443.211 h 18.582 l 2.344,-5.352 C 865.305,95.5703 870.449,82.4492 870.703,81.6406 v 0 c 0,0 0.637,-1.6093 1.027,-2.2422 l 2.547,-6.8476 c 6.184,-16.6406 14.336,-32.0703 32.364,-32.0703 h 8.828 z M 1904.2,238.859 h 32.89 c 13.91,0 41.29,3.871 52.57,9.973 8.49,4.578 36.08,22.859 36.08,65.75 0,26.848 -10.49,53.707 -28.13,71.828 -15.75,15.692 -36.51,22.379 -69.4,22.379 H 1904.2 Z M 2151.01,14.9414 c -34.12,0 -62.04,13.8399 -85.39,42.25 -25.82,31.4297 -56.09,75.3476 -67.9,92.7776 l -1.07,1.73 -1.13,2.84 v 0 c 0,0 -30.01,46.121 -37.04,57.012 h -10.29 l -20.33,-1.071 H 1904.2 V 66.1719 c 0,-25.0899 3.8,-25.2305 19.73,-25.6914 l 8.65,-0.2813 V 18.8398 h -121.33 v 21.211 l 8.41,0.4297 c 19.34,0.8086 20.51,0.8515 20.51,29.0195 v 318.648 c 0,26.723 -4.69,26.864 -20.26,27.352 l -8.66,0.219 v 21.39 h 122.47 c 43.81,0 63.82,0 87.91,-7.66 40.76,-12.769 64.14,-45.488 64.14,-89.801 0,-48.878 -33.7,-87.058 -66.7,-107.589 4.79,-7.45 12.35,-19.059 18.02,-27.817 7.92,-12.203 7.92,-12.203 8.06,-12.531 5.47,-9.711 52.79,-78.609 83.01,-113.1602 8.48,-10.1524 31.72,-29.1992 59.64,-29.1992 12.7,0 18.02,2.3086 23.2,4.5781 l 28.2,15.3594 6.67,-22.0274 -4.85,-3.7617 c -12.06,-9.2695 -20.34,-14.0508 -32.75,-19.0508 -11.36,-4.4101 -33.13,-9.5078 -57.26,-9.5078 z M 3025.68,0.0117188 3017.84,8.33984 c 0,0 -261.53,278.37916 -311.94,332.03116 V 66.3789 c 0,-24.1289 1.2,-24.2383 21.07,-26.3281 l 7.91,-0.7813 v -20.789 h -94.62 v 21.3593 l 8.59,0.2813 c 22.07,0.7773 22.07,1.3906 22.07,33.5 V 344.871 c 0,17.27 0,46.149 -15.12,60.66 -7.16,6.848 -17.59,9.969 -31.36,9.578 l -9.22,-0.277 v 21.988 h 87.88 l 1.34,-1.41 286.22,-304.93 v 260.649 c 0,23.98 -7.12,23.98 -20.07,23.98 h -8.83 v 21.711 h 95.11 v -21.488 l -8.73,-0.223 c -15.89,-0.347 -22.46,-0.488 -22.46,-27.879 z M 3442.81,18.8398 h -291.75 v 12.7813 l 1.21,8.3008 7.58,0.5586 c 15.47,1.1406 19.62,1.4179 19.62,19.5195 v 323.648 c 0,29.872 -0.91,31.321 -19.55,31.321 h -8.86 v 22.14 h 269.44 v -72.8 h -19.62 l -1.63,6.562 c -9.93,35.09 -9.93,35.09 -32.71,35.09 H 3243.4 V 243.77 h 113.7 c 18.84,0 19.05,1.41 19.62,5.671 l 0.89,7.731 h 20.64 v -55.551 h -20 l -1.45,6.91 c -1.14,5.68 -1.85,6.391 -16.43,6.391 H 3243.4 V 100.148 c 0,-50.2261 9.01,-50.2261 46.86,-50.2261 h 70.68 c 48.39,0 55.84,0 60.31,34.1289 v 0.0703 l 1.16,7.5781 h 20.4 V 18.8398" /><path
       id="flame"
       d="m 4396.01,3732.16 c -32.17,-102.3 -55.5,-216.01 -155.15,-284.27 -29.21,173.4 -61.45,343.95 -131.7,500.25 -85.25,172.49 -166.83,389.4 -380.59,457.65 35.18,-343.9 -254.65,-562.84 -415.65,-832.77 -82.03,-150.68 -84.95,-383.76 5.81,-534.33 160.98,-217.71 310.21,-421.92 390.41,-671.34 v 905.54 h -321.29 v 106.31 h 321.29 v 358.63 h 106.31 V 3379.2 h 321.29 v -106.31 h -321.29 v -913.88 c 36.8,61.14 160.53,266.1 246.89,401.06 217.13,339.5 506.46,605.46 333.67,972.09" /></g></svg>